<svg xmlns="http://www.w3.org/2000/svg" width="4500" height="4673" viewBox="0 0 4500 4673" version="1.1">
	<path d="M 2184.500 160.041 C 1997.681 169.495, 1823.528 211.627, 1651.500 288.988 C 1628.170 299.479, 1570.547 328.169, 1548 340.520 C 1368.002 439.116, 1204.557 572.404, 1061.084 737.594 C 883.754 941.767, 742.029 1189.788, 645.711 1464.500 C 566.921 1689.224, 519.338 1930.759, 505.547 2176 C 499.990 2274.805, 499.998 2388.404, 505.569 2485.500 C 533.713 2976.091, 692.032 3433.610, 959.398 3797 C 1055.257 3927.287, 1168.109 4046.994, 1287.221 4144.738 C 1613.050 4412.115, 1999.432 4534.887, 2392.500 4495.939 C 2683.969 4467.058, 2965.528 4346.855, 3210.154 4146.866 C 3292.988 4079.147, 3376.174 3997.547, 3448.165 3913.393 C 3678.089 3644.622, 3845.392 3304.243, 3931.525 2930 C 3992.805 2663.738, 4012.554 2382.454, 3989.449 2105 C 3964.512 1805.540, 3890.944 1520.245, 3770.908 1257.500 C 3756.034 1224.943, 3720.730 1154.002, 3703.973 1123 C 3553.337 844.310, 3353.794 612.892, 3120.500 446.323 C 2992.973 355.270, 2855.278 283.960, 2714.504 236.064 C 2591.380 194.173, 2474.479 170.867, 2340 161.400 C 2313.805 159.556, 2211.710 158.664, 2184.500 160.041 M 2181.500 182.107 C 1943.216 194.167, 1715.989 264.567, 1501.500 392.786 C 1404.325 450.877, 1310.530 521.407, 1222.014 602.950 C 1201.728 621.638, 1150.289 672.852, 1129.058 695.500 C 950.765 885.693, 807.649 1113.422, 704.229 1371.500 C 565.763 1717.029, 505.310 2098.670, 527.530 2487 C 558.862 3034.574, 757.946 3545.237, 1085.598 3918.476 C 1133.637 3973.198, 1194.069 4034.195, 1247.023 4081.408 C 1414.479 4230.711, 1606.827 4343.525, 1806.500 4409.547 C 1912.528 4444.605, 2025.918 4467.723, 2134.500 4476.421 C 2179.309 4480.011, 2192.543 4480.474, 2250 4480.465 C 2317.435 4480.455, 2348.243 4478.873, 2406 4472.456 C 2605.853 4450.250, 2799.744 4385.028, 2982 4278.698 C 3206.601 4147.663, 3405.593 3957.978, 3567.685 3720.404 C 3764.290 3432.245, 3896.228 3084.152, 3949.900 2712 C 3986.745 2456.525, 3985.886 2186.841, 3947.419 1932.500 C 3878.285 1475.404, 3691.997 1059.513, 3415.074 744.037 C 3378.336 702.184, 3325.500 647.525, 3286.500 611.026 C 3123.624 458.594, 2941.134 343.725, 2745.648 270.585 C 2606.628 218.571, 2465.092 189.454, 2315.103 182.012 C 2291.631 180.847, 2205.173 180.909, 2181.500 182.107 M 2189 254.080 C 1909.613 267.208, 1641.802 366.745, 1402.500 546.398 C 1266.791 648.279, 1140.601 777.175, 1033.314 923.500 C 918.291 1080.376, 823.347 1257.538, 751.548 1449.265 C 620.623 1798.877, 570.681 2186.499, 606.568 2574.500 C 634.653 2878.135, 717.388 3172.936, 847.509 3433.019 C 1071.097 3879.919, 1421.033 4204.612, 1824 4339.069 C 1941.797 4378.374, 2050.434 4399.254, 2178.500 4407.203 C 2223.054 4409.968, 2309.842 4408.650, 2360 4404.446 C 2791.623 4368.269, 3191.468 4123.327, 3481.919 3717.168 C 3727.017 3374.428, 3874.777 2938.009, 3900.452 2481 C 3905.930 2383.479, 3905.929 2278.713, 3900.447 2181 C 3876.259 1749.826, 3743.965 1337.784, 3522.330 1003.318 C 3326.911 708.416, 3069.427 485.545, 2782.611 363.039 C 2629.756 297.751, 2472.563 261.640, 2308 254.008 C 2283.577 252.876, 2213.732 252.918, 2189 254.080 M 2205 258.593 C 2201.425 258.784, 2189.275 259.422, 2178 260.012 C 1872.544 275.993, 1573.942 401.153, 1320.500 619.433 C 1262.569 669.327, 1192.154 739.347, 1140.924 798 C 961.189 1003.782, 820.075 1255.067, 726.995 1535.098 C 658.371 1741.550, 616.940 1961.431, 604.535 2185 C 599.298 2279.391, 599.306 2383.591, 604.558 2477 C 639.355 3095.860, 893.215 3661.563, 1298.211 4022.739 C 1449.170 4157.363, 1617.816 4259.314, 1796.500 4323.968 C 2061.357 4419.801, 2347.696 4429.399, 2618.363 4351.518 C 2733.413 4318.414, 2847.971 4268.353, 2955.500 4204.192 C 3335.465 3977.471, 3635.113 3573.016, 3787.636 3081 C 3886.981 2760.529, 3920.920 2413.249, 3886.429 2070.105 C 3834.556 1554.020, 3628.680 1080.501, 3309.884 744.037 C 3073.294 494.334, 2788.912 333.990, 2485.209 279.057 C 2434.679 269.917, 2381.435 263.569, 2325 259.955 C 2308.977 258.928, 2218.079 257.897, 2205 258.593 M 2395.054 407.133 C 2368.234 409.980, 2339.551 420.364, 2316.313 435.640 C 2305.461 442.773, 2284.418 463.517, 2277.677 473.726 C 2255.331 507.569, 2247.369 548.980, 2255.572 588.695 C 2261.420 617.008, 2279.433 647.312, 2301.915 666.661 C 2328.186 689.272, 2363.983 704.395, 2399.184 707.755 L 2407.868 708.584 2408.427 701.542 C 2408.734 697.669, 2409.102 691.802, 2409.243 688.504 L 2409.500 682.509 2402 681.776 C 2341.466 675.860, 2293.204 634.979, 2282.031 580.153 C 2278.260 561.648, 2279.607 537.803, 2285.466 519.329 C 2291.068 501.666, 2299.913 488.235, 2316.668 471.947 C 2347.246 442.222, 2369.412 432.789, 2409.167 432.585 L 2425.834 432.500 2426.466 422 C 2426.814 416.225, 2427.189 410.375, 2427.299 409 L 2427.500 406.500 2415.500 406.368 C 2408.900 406.296, 2399.699 406.640, 2395.054 407.133 M 2050.799 409.117 C 2033.966 411.286, 2020.016 420.196, 2011.059 434.500 C 2003.827 446.050, 2002.498 458.051, 2005.911 481 C 2006.933 487.875, 2007.709 493.570, 2007.635 493.655 C 2007.561 493.740, 2002.841 494.499, 1997.148 495.341 C 1991.454 496.182, 1986.615 497.051, 1986.395 497.271 C 1986.176 497.491, 1988.584 503.156, 1991.748 509.859 L 1997.500 522.048 2001.500 521.458 C 2003.700 521.133, 2006.850 520.644, 2008.500 520.370 L 2011.500 519.872 2025.763 619.115 C 2033.607 673.699, 2040.147 718.480, 2040.295 718.628 C 2040.698 719.032, 2066.121 715.212, 2066.667 714.666 C 2066.927 714.407, 2060.748 669.810, 2052.938 615.562 C 2045.128 561.314, 2038.944 516.723, 2039.196 516.471 C 2039.616 516.051, 2092.415 508.020, 2092.566 508.354 C 2092.603 508.434, 2099.015 553.013, 2106.817 607.417 C 2114.618 661.821, 2121.191 706.524, 2121.424 706.757 C 2122.292 707.625, 2148 703.575, 2148 702.570 C 2148 698.485, 2111.568 449.262, 2110.299 444.664 C 2108.232 437.174, 2102.772 428.768, 2096.059 422.739 C 2089.211 416.588, 2076.404 410.328, 2068 409.024 C 2060.746 407.898, 2060.231 407.901, 2050.799 409.117 M 2497.545 419.181 C 2497.300 419.906, 2493.933 436.432, 2490.063 455.904 C 2486.192 475.377, 2482.867 491.466, 2482.674 491.659 C 2482.482 491.852, 2477.714 491.069, 2472.080 489.920 C 2466.446 488.771, 2461.605 488.061, 2461.324 488.343 C 2461.042 488.625, 2461.529 494.420, 2462.406 501.220 C 2463.282 508.021, 2464 513.831, 2464 514.132 C 2464 514.433, 2467.166 515.246, 2471.036 515.937 C 2476.805 516.968, 2477.982 517.492, 2477.570 518.847 C 2475.616 525.270, 2438.181 714.563, 2438.763 715.078 C 2439.938 716.118, 2462.995 720.339, 2463.692 719.642 C 2464.039 719.295, 2473.160 675.148, 2483.962 621.538 C 2494.763 567.928, 2503.908 523.758, 2504.284 523.383 C 2504.829 522.838, 2552.860 531.774, 2559.125 533.585 C 2560.542 533.995, 2558.208 546.670, 2540.871 632.690 C 2529.937 686.939, 2521.140 731.473, 2521.322 731.655 C 2521.980 732.313, 2546.336 736.998, 2546.782 736.552 C 2547.319 736.015, 2606.946 440.616, 2606.589 440.257 C 2605.736 439.399, 2581.493 435.126, 2580.957 435.739 C 2580.591 436.158, 2577.940 448.425, 2575.065 463 C 2572.190 477.575, 2568.928 493.812, 2567.817 499.081 L 2565.797 508.662 2537.649 503.008 C 2509.787 497.411, 2509.503 497.328, 2509.764 494.927 C 2510.053 492.271, 2522.833 427.493, 2523.581 424.895 C 2523.962 423.572, 2522.053 422.900, 2512.772 421.087 C 2506.572 419.875, 2500.710 418.654, 2499.745 418.373 C 2498.780 418.092, 2497.790 418.456, 2497.545 419.181 M 2048.675 436.622 C 2045.393 437.630, 2042.145 439.767, 2038.521 443.302 C 2032.984 448.703, 2030.994 453.138, 2031.029 460 C 2031.047 463.669, 2034.617 488.950, 2035.199 489.532 C 2035.628 489.962, 2087.844 482.494, 2088.393 481.925 C 2089.137 481.152, 2084.268 452.370, 2082.976 449.911 C 2076.275 437.149, 2063.308 432.126, 2048.675 436.622 M 1856.038 494.750 C 1851.976 524.313, 1848.394 548.793, 1848.077 549.152 C 1847.760 549.511, 1831.300 531.400, 1811.500 508.906 C 1791.700 486.413, 1775.147 468.007, 1774.716 468.004 C 1774.284 468.002, 1774.203 470.137, 1774.536 472.750 C 1774.868 475.363, 1782.461 545.790, 1791.409 629.255 C 1800.356 712.720, 1807.894 781.227, 1808.159 781.492 C 1808.424 781.758, 1814.345 780.293, 1821.316 778.237 C 1832.086 775.062, 1833.990 774.199, 1833.985 772.500 C 1833.982 771.400, 1828.624 720.775, 1822.080 660 C 1815.535 599.225, 1810.252 549.440, 1810.340 549.366 C 1810.510 549.223, 1859.973 605.171, 1863.706 609.729 C 1864.919 611.210, 1866.220 612.114, 1866.596 611.737 C 1866.973 611.360, 1869.867 592.566, 1873.028 569.972 C 1876.189 547.378, 1878.938 528.743, 1879.137 528.561 C 1879.337 528.378, 1903.125 573.398, 1932 628.605 C 1960.875 683.812, 1984.984 728.805, 1985.576 728.589 C 1986.167 728.373, 1992.141 726.499, 1998.851 724.423 C 2005.560 722.348, 2010.926 720.319, 2010.775 719.913 C 2009.579 716.708, 1864.547 441, 1864.057 441 C 1863.708 441, 1860.099 465.188, 1856.038 494.750 M 2692.870 472.060 C 2682.090 474.611, 2670.329 482.435, 2663.407 491.663 C 2659.156 497.329, 2656.354 503.922, 2650.466 522.109 L 2647.679 530.718 2637.340 527.472 L 2627 524.226 2627 537.421 L 2627 550.615 2633.250 552.658 C 2636.688 553.782, 2639.435 555.106, 2639.357 555.601 C 2639.215 556.488, 2578.437 741.698, 2577.404 744.391 C 2577.011 745.414, 2580.105 746.863, 2589.140 749.885 C 2595.889 752.143, 2601.688 753.655, 2602.028 753.245 C 2602.367 752.835, 2616.504 710.200, 2633.443 658.500 C 2650.383 606.800, 2664.525 564.234, 2664.871 563.909 C 2665.217 563.584, 2677.277 567.184, 2691.672 571.909 L 2717.844 580.500 2686.444 675.939 C 2669.174 728.430, 2655.147 771.454, 2655.272 771.549 C 2655.397 771.643, 2661 773.545, 2667.721 775.777 L 2679.942 779.833 2700.891 716.167 C 2712.412 681.150, 2730.525 626.175, 2741.141 594 C 2759.692 537.772, 2760.457 535.141, 2760.818 526.247 C 2761.849 500.833, 2745.150 479.218, 2719.356 472.581 C 2712.808 470.896, 2698.940 470.623, 2692.870 472.060 M 2697.222 497.409 C 2691.802 499.178, 2686.791 502.983, 2684.058 507.406 C 2681.293 511.881, 2672.732 538.146, 2673.733 539.086 C 2674.548 539.851, 2723.499 556, 2725.004 556 C 2725.491 556, 2727.989 549.587, 2730.555 541.750 C 2735.792 525.752, 2736.157 519.113, 2732.220 511.471 C 2726.218 499.817, 2709.914 493.267, 2697.222 497.409 M 2753.279 646.263 L 2689.059 782.500 2699.779 787.739 C 2705.676 790.621, 2710.950 792.968, 2711.500 792.956 C 2712.050 792.943, 2717.662 781.873, 2723.971 768.355 C 2730.280 754.837, 2735.905 743.144, 2736.471 742.370 C 2737.254 741.299, 2742.653 750.951, 2759.047 782.731 L 2780.593 824.500 2797.183 833.019 L 2813.774 841.538 2792.330 798.659 C 2780.536 775.076, 2771.024 755.654, 2771.193 755.498 C 2771.362 755.343, 2773.750 755.591, 2776.500 756.048 C 2790.969 758.457, 2812.067 756.392, 2828.199 750.987 C 2873.655 735.758, 2905.259 699.836, 2912.640 655.009 C 2914.639 642.866, 2913.924 621.206, 2911.120 609 C 2902.995 573.623, 2881.549 543.912, 2851.346 526.189 C 2847.077 523.685, 2818.597 509.969, 2817.756 510.013 C 2817.615 510.021, 2788.601 571.333, 2753.279 646.263 M 1668.686 517.719 C 1659.198 521.789, 1657.938 522.611, 1658.402 524.429 C 1659.238 527.702, 1774.008 798.401, 1774.968 799.365 C 1775.901 800.301, 1799.182 790.991, 1798.756 789.852 C 1793.753 776.474, 1681.222 513.013, 1680.522 513.040 C 1679.960 513.062, 1674.634 515.167, 1668.686 517.719 M 1608.500 544.149 C 1598.600 549.122, 1575.095 561.046, 1556.267 570.647 L 1522.035 588.103 1527.523 599.045 L 1533.011 609.988 1553.457 599.779 C 1564.703 594.165, 1574.095 589.780, 1574.328 590.035 C 1574.562 590.291, 1602.513 645.400, 1636.443 712.500 C 1670.373 779.600, 1698.441 834.797, 1698.817 835.159 C 1699.193 835.522, 1704.544 833.272, 1710.708 830.159 L 1721.917 824.500 1659.499 701 L 1597.081 577.500 1617.545 567.243 L 1638.010 556.986 1632.496 545.993 C 1629.464 539.947, 1626.875 535.024, 1626.742 535.053 C 1626.609 535.082, 1618.400 539.175, 1608.500 544.149 M 2787.600 633.072 C 2763.868 683.495, 2746.090 722.447, 2746.600 722.901 C 2748.379 724.485, 2760.657 728.807, 2768.500 730.611 C 2788.807 735.280, 2820.144 730.253, 2842.291 718.773 C 2861.457 708.838, 2878.200 685.994, 2886.704 658.176 C 2889.033 650.559, 2889.364 647.731, 2889.420 635 C 2889.478 621.597, 2889.271 619.895, 2886.681 612.500 C 2882.804 601.430, 2875.241 585.819, 2869.626 577.296 C 2861.520 564.993, 2841.959 548.419, 2831 544.570 C 2829.848 544.166, 2819.790 564.675, 2787.600 633.072 M 3025.402 627.978 C 3006.977 630.749, 2996.795 638.515, 2983.377 660.028 L 2974.751 673.858 2966.625 668.801 C 2962.156 666.019, 2957.943 663.301, 2957.262 662.759 C 2956.412 662.083, 2955.879 662.202, 2955.564 663.137 C 2954.909 665.076, 2950 686.016, 2950 686.869 C 2950 687.259, 2952.475 689.077, 2955.500 690.911 C 2958.525 692.744, 2961 694.628, 2961 695.096 C 2961 695.735, 2864.047 851.830, 2856.314 863.642 C 2854.970 865.695, 2855.346 866.056, 2865.439 872.392 C 2871.228 876.026, 2876.311 878.990, 2876.733 878.977 C 2877.155 878.964, 2901.327 840.714, 2930.449 793.977 C 2959.570 747.240, 2983.614 709, 2983.880 709 C 2984.969 709, 3030 737.545, 3030 738.236 C 3030 738.811, 2932.375 895.867, 2925.406 906.503 C 2923.941 908.739, 2924.115 908.911, 2934.439 915.392 C 2940.228 919.026, 2945.311 921.992, 2945.733 921.983 C 2947.079 921.954, 3081.330 705.755, 3083.885 699.503 C 3086.879 692.173, 3087.843 679.387, 3086.024 671.128 C 3084.180 662.759, 3078.790 651.817, 3073.860 646.433 C 3061.784 633.249, 3041.562 625.547, 3025.402 627.978 M 1430.776 643.960 C 1424.878 647.557, 1420.153 650.981, 1420.276 651.569 C 1420.553 652.892, 1575.844 904.050, 1577.386 905.669 C 1578.225 906.550, 1587.014 901.551, 1613 885.411 C 1631.975 873.625, 1647.391 863.548, 1647.258 863.016 C 1646.914 861.638, 1635.933 844.076, 1635.090 843.555 C 1634.704 843.317, 1623.896 849.619, 1611.074 857.561 C 1598.251 865.502, 1587.477 871.982, 1587.130 871.960 C 1586.784 871.938, 1558.491 826.600, 1524.258 771.210 C 1490.025 715.819, 1457.400 663.057, 1451.758 653.960 L 1441.500 637.420 1430.776 643.960 M 3023.202 654.049 C 3017.840 656.201, 3013.519 660.992, 3005.430 673.754 C 3000.720 681.185, 2997.233 687.601, 2997.683 688.010 C 2998.132 688.419, 3005.025 692.784, 3013 697.710 C 3020.975 702.636, 3031.175 708.971, 3035.667 711.788 L 3043.835 716.910 3051.149 705.205 C 3061.818 688.133, 3063.475 682.330, 3060.523 672.388 C 3058.519 665.642, 3053.230 659.771, 3045.821 656.068 C 3040.635 653.477, 3038.578 653.010, 3032.590 653.063 C 3028.691 653.098, 3024.466 653.542, 3023.202 654.049 M 1330 684 L 1330 708 1339 708 L 1348 708 1348 684 L 1348 660 1339 660 L 1330 660 1330 684 M 1377.111 678.563 C 1370.626 683.328, 1367.179 686.481, 1367.639 687.224 C 1368.036 687.868, 1400.758 732.293, 1440.355 785.947 C 1479.951 839.601, 1513.732 885.710, 1515.424 888.412 C 1518.275 892.965, 1518.499 893.987, 1518.491 902.412 C 1518.483 910.321, 1518.134 912.160, 1515.805 916.590 C 1510.331 926.999, 1500.165 932.988, 1488 932.968 C 1479.847 932.955, 1474.750 931.238, 1469.500 926.737 C 1467.850 925.322, 1433.200 878.922, 1392.500 823.624 C 1351.800 768.327, 1318.090 723.065, 1317.588 723.042 C 1316.922 723.011, 1302.388 733.356, 1297.140 737.596 C 1296.274 738.295, 1445.873 940.029, 1450.767 944.763 C 1457.093 950.881, 1467.764 956.353, 1476.434 957.924 C 1495.260 961.337, 1512.345 955.959, 1527.430 941.872 C 1539.237 930.845, 1545.012 917.580, 1544.988 901.540 C 1544.974 891.785, 1543.265 884.958, 1538.841 876.979 C 1535.909 871.689, 1389.722 672.564, 1387.982 671.489 C 1387.610 671.259, 1382.718 674.442, 1377.111 678.563 M 3053.389 805.196 C 3003.400 866.904, 2960.816 919.502, 2958.758 922.080 L 2955.016 926.766 2969.728 938.633 C 2994.122 958.309, 3007.028 965.922, 3028.551 973.333 C 3047.727 979.936, 3057.899 981.508, 3081 981.438 C 3103.503 981.370, 3111.966 980.095, 3129.961 974.066 C 3165.539 962.147, 3196.428 934.632, 3213.488 899.664 C 3224.786 876.506, 3228.625 857.673, 3227.688 830 C 3226.337 790.070, 3212.422 756.187, 3186.095 728.717 C 3178.349 720.633, 3146.316 693, 3144.693 693 C 3144.464 693, 3103.377 743.488, 3053.389 805.196 M 3130.247 751.219 C 3043.599 858.026, 2991 923.245, 2991 923.876 C 2991 925.042, 3007.607 937.268, 3016.346 942.536 C 3031.516 951.682, 3048.105 957.318, 3063.500 958.557 C 3078.645 959.777, 3109.583 954.238, 3127.337 947.129 C 3159.942 934.073, 3185.778 906.654, 3196.980 873.218 C 3201.188 860.659, 3203 848.703, 3203 833.500 C 3203 811.396, 3198.881 794.331, 3188.815 774.736 C 3180.462 758.473, 3166.673 741.557, 3153.317 731.186 L 3149.134 727.938 3130.247 751.219 M 2192 773.102 C 2081.196 776.999, 1968.732 792.529, 1880.500 816.115 C 1579.389 896.611, 1386.052 1083.163, 1322.948 1354.100 C 1309.916 1410.056, 1303.628 1463.362, 1300.903 1541 C 1299.829 1571.589, 1300.430 1687.261, 1301.882 1729.445 L 1302.500 1747.389 1336 1759.682 C 1633.679 1868.920, 1865.021 1928.192, 2080.500 1950.433 C 2178.410 1960.539, 2281.739 1962.670, 2372 1956.445 C 2571.520 1942.685, 2800.348 1887.713, 3066 1789.724 C 3113.025 1772.378, 3190.995 1742.123, 3197.983 1738.509 C 3201.870 1736.498, 3202.888 1733.275, 3204.522 1717.791 C 3214.271 1625.412, 3198.896 1442.963, 3172.938 1343 C 3113.520 1114.183, 2959.830 947.518, 2721.500 853.450 C 2571.420 794.215, 2387.070 766.240, 2192 773.102 M 1172.059 855.556 C 1146.330 861.135, 1126.754 887.794, 1129.612 913.362 C 1131.230 927.834, 1135.639 935.697, 1150.873 951.281 L 1162.391 963.063 1154.549 970.950 L 1146.708 978.838 1158.690 984.845 L 1170.673 990.851 1175.807 985.717 L 1180.941 980.582 1252.249 1051.784 L 1323.556 1122.986 1332.528 1113.924 L 1341.500 1104.862 1270.115 1033.819 L 1198.730 962.776 1218.615 942.932 L 1238.500 923.088 1310 993.960 L 1381.500 1064.833 1390.250 1056.187 C 1395.063 1051.432, 1399 1047.299, 1399 1047.002 C 1399 1046.705, 1357.487 1005.292, 1306.750 954.974 C 1206.358 855.412, 1209.894 858.568, 1195.270 855.469 C 1186.955 853.707, 1180.472 853.731, 1172.059 855.556 M 3331 878.625 C 3318.372 881.072, 3311.899 885.010, 3297.719 898.873 L 3285.937 910.391 3277.999 902.499 C 3273.632 898.158, 3269.883 894.808, 3269.666 895.053 C 3269.449 895.299, 3266.678 900.601, 3263.507 906.835 L 3257.742 918.170 3262.371 922.869 C 3264.917 925.454, 3267 927.822, 3267 928.131 C 3267 928.441, 3234.825 960.143, 3195.500 998.580 C 3156.175 1037.018, 3124 1068.708, 3124 1069.003 C 3124 1069.298, 3128.162 1073.652, 3133.250 1078.678 L 3142.500 1087.816 3213.832 1017.908 C 3253.065 979.458, 3285.470 948, 3285.842 948 C 3286.215 948, 3295.065 956.582, 3305.510 967.071 L 3324.500 986.143 3312.916 997.321 C 3280.567 1028.539, 3181.007 1126.369, 3181.050 1126.895 C 3181.077 1127.228, 3185.064 1131.701, 3189.911 1136.836 L 3198.722 1146.172 3290.611 1056.205 C 3341.150 1006.723, 3383.453 964.933, 3384.618 963.338 C 3396.495 947.076, 3396.933 921.546, 3385.626 904.500 C 3378.622 893.941, 3367.049 884.653, 3356.172 880.861 C 3350.595 878.917, 3336.125 877.632, 3331 878.625 M 1175.698 880.383 C 1163.506 884.927, 1154.680 896.963, 1154.671 909.058 C 1154.665 916.970, 1158.130 922.672, 1170.334 934.835 L 1180.526 944.992 1200.499 925.001 L 1220.472 905.009 1210.577 895.077 C 1205.134 889.614, 1198.551 883.985, 1195.948 882.568 C 1190.035 879.350, 1181.067 878.382, 1175.698 880.383 M 3330.173 906.144 C 3327.793 907.322, 3320.931 912.994, 3314.925 918.750 L 3304.005 929.214 3322.617 948.357 C 3332.855 958.886, 3341.516 967.609, 3341.865 967.743 C 3342.214 967.877, 3347.316 963.370, 3353.202 957.729 C 3365.560 945.885, 3368.220 941.274, 3368.312 931.543 C 3368.487 912.939, 3346.298 898.162, 3330.173 906.144 M 2171 919.074 C 2139.940 920.862, 2075.142 934.166, 2027.500 948.536 C 1905.258 985.409, 1823.724 1043.500, 1793.408 1115.323 C 1775.816 1157.001, 1778.891 1196.411, 1802.570 1232.739 C 1823.761 1265.249, 1859.696 1294.635, 1907.995 1318.948 C 1935.497 1332.793, 1945.649 1336.445, 1963.500 1338.918 C 2013.090 1345.788, 2061.308 1344.074, 2101 1334.032 C 2153.904 1320.646, 2195.639 1290.753, 2207.149 1258 C 2210.603 1248.171, 2210.460 1234.548, 2206.820 1226.782 C 2197.220 1206.301, 2169.221 1193.352, 2124 1188.480 C 2096.526 1185.520, 2086.859 1182.820, 2074 1174.514 C 2036.359 1150.203, 2040.413 1108.833, 2084.640 1065.937 C 2100.373 1050.677, 2111.591 1042.898, 2131.500 1033.442 C 2158.254 1020.735, 2199.765 1010.106, 2234.500 1007.070 C 2320.931 999.514, 2390.881 1034.773, 2435.387 1108.328 C 2442.719 1120.445, 2443.516 1123.179, 2442.697 1133.376 C 2440.628 1159.135, 2414.671 1198.325, 2367.568 1246.804 C 2347.589 1267.367, 2327.477 1286.149, 2292.446 1316.957 C 2208.117 1391.121, 2138.449 1456.830, 2083.869 1513.679 C 2015.593 1584.793, 1992.907 1612.778, 1977.009 1645.500 C 1947.795 1705.630, 1956.796 1759.948, 2003.646 1806.236 C 2030.099 1832.372, 2072.402 1859.778, 2109.034 1874.511 C 2148.234 1890.276, 2186.856 1894.111, 2214.176 1884.951 C 2223.199 1881.925, 2238.815 1873.927, 2249.940 1866.632 C 2278.054 1848.198, 2298.643 1825.301, 2313.002 1796.500 C 2323.725 1774.992, 2330.936 1749.356, 2329.681 1737.198 C 2327.912 1720.058, 2313.130 1706.315, 2289.500 1699.840 C 2275.318 1695.954, 2230.914 1696.976, 2214.972 1701.555 C 2212.862 1702.161, 2208.401 1695.023, 2205.965 1687.145 C 2203.732 1679.923, 2203.308 1665.524, 2205.071 1656.799 C 2210.667 1629.105, 2231.100 1596.139, 2264.020 1561.693 C 2275.834 1549.331, 2287.740 1540.245, 2330 1511.344 C 2408.104 1457.928, 2474.336 1419.772, 2527.762 1397.412 C 2578.994 1375.971, 2614.677 1353.167, 2646.548 1321.500 C 2667.685 1300.499, 2680.891 1282.951, 2692.830 1260 C 2700.700 1244.870, 2705.331 1232.193, 2710.545 1211.500 C 2722.668 1163.389, 2719.717 1125.298, 2700.971 1087.943 C 2655.792 997.913, 2514.759 937.112, 2315 921.546 C 2271.085 918.124, 2206.696 917.019, 2171 919.074 M 1155.214 1085.858 C 1149.650 1087.815, 1145.220 1090.723, 1130.500 1102.081 C 1120.597 1109.722, 1103.199 1118.777, 1093 1121.598 C 1083.369 1124.263, 1066.836 1124.066, 1056.605 1121.165 C 1047.755 1118.656, 1036.733 1113.796, 1028.200 1108.640 C 1017.640 1102.260, 1006.528 1100.359, 1000.062 1103.827 C 995.293 1106.385, 993 1111.151, 993 1118.506 C 993 1124.638, 993.861 1128.241, 1000.370 1149.347 C 1005.181 1164.947, 1007.082 1176.188, 1007.077 1189 C 1007.072 1200.616, 1005.518 1208.012, 1001.242 1216.782 C 997.846 1223.747, 989.491 1232.913, 981.739 1238.177 C 968.940 1246.869, 959.776 1268.725, 965.378 1277.198 C 968.708 1282.234, 974.148 1283.382, 991.468 1282.706 C 1017.186 1281.702, 1030.818 1283.896, 1046.820 1291.616 C 1062.886 1299.367, 1077.151 1315.204, 1086.820 1336.024 C 1091.684 1346.497, 1095.786 1352.168, 1100.985 1355.609 C 1104.369 1357.848, 1105.765 1358.181, 1110.049 1357.769 C 1119.111 1356.899, 1124.911 1349.042, 1129.646 1331.221 C 1135.458 1309.347, 1142.387 1296.382, 1154.900 1283.966 C 1168.908 1270.067, 1185.319 1262.848, 1211.500 1259.068 C 1230.986 1256.254, 1239.912 1249.779, 1238.732 1239.312 C 1237.787 1230.927, 1232.530 1225.682, 1212.363 1213 C 1195.526 1202.412, 1182.028 1186.171, 1176.627 1170 C 1171.445 1154.487, 1170.780 1140.974, 1174.099 1118.630 C 1176.318 1103.692, 1176.143 1096.111, 1173.460 1090.923 C 1170.325 1084.859, 1163.468 1082.956, 1155.214 1085.858 M 3340.707 1086.016 C 3336.225 1089.541, 3335.590 1093.560, 3335.493 1119 C 3335.389 1146.245, 3334.376 1151.682, 3326.379 1167.925 C 3322.610 1175.582, 3320.215 1178.876, 3313.620 1185.482 C 3304.213 1194.902, 3298.445 1198.869, 3282.984 1206.552 C 3269.860 1213.074, 3262.543 1219.270, 3260.941 1225.218 C 3257.900 1236.514, 3266.867 1244.478, 3289.285 1250.390 C 3302.160 1253.786, 3312.416 1258.133, 3321.420 1264.011 C 3342.566 1277.815, 3353.694 1296.914, 3358.947 1328.417 C 3361.649 1344.617, 3363.977 1350.843, 3369.046 1355.422 C 3378.622 1364.074, 3389.712 1357.879, 3402.788 1336.572 C 3411.104 1323.020, 3424.266 1309.169, 3434.500 1303.199 C 3452.945 1292.439, 3474.973 1289.647, 3502.500 1294.581 C 3517.692 1297.305, 3528.628 1295.285, 3532.294 1289.080 C 3536.484 1281.986, 3533.267 1272.168, 3522.149 1258.123 C 3507.957 1240.194, 3500.613 1226.760, 3496.833 1211.812 C 3492.305 1193.907, 3496.107 1172.632, 3507.302 1153.221 C 3513.955 1141.684, 3516.101 1135.845, 3516.198 1129.011 C 3516.291 1122.479, 3514.672 1118.546, 3510.673 1115.590 C 3508.304 1113.838, 3506.442 1113.507, 3499.173 1113.540 C 3491.596 1113.575, 3488.687 1114.176, 3476.150 1118.292 C 3441.521 1129.661, 3418.809 1130.412, 3400.748 1120.785 C 3392.923 1116.614, 3386.078 1110.367, 3380.997 1102.758 C 3371.812 1089.002, 3348.975 1079.513, 3340.707 1086.016 M 3419.500 1860.034 C 3355.817 1865.225, 3281.308 1883.463, 3178 1919.148 C 3165.075 1923.612, 3122.550 1938.854, 3083.500 1953.017 C 2984.985 1988.749, 2961.204 1996.873, 2923 2007.847 C 2500.390 2129.243, 1994.948 2134.278, 1562.500 2021.399 C 1483.263 2000.716, 1454.944 1991.404, 1345.838 1950.152 C 1284.651 1927.018, 1253.908 1915.888, 1221 1904.955 C 1113.634 1869.285, 1039.533 1857.572, 987.605 1868.063 C 904.127 1884.927, 804.143 1972.130, 757.999 2068.320 C 725.681 2135.687, 714.707 2216.105, 728.494 2284.512 C 752.224 2402.248, 846.432 2508.206, 993.667 2582.759 C 1044.374 2608.434, 1094.219 2627.788, 1148.943 2643.049 C 1168.015 2648.367, 1208.279 2657.931, 1212.067 2658.042 C 1212.931 2658.067, 1218.839 2668.895, 1226.937 2685.292 C 1239.807 2711.353, 1247.008 2726.506, 1280.976 2799 C 1338.189 2921.103, 1378.296 2990.744, 1424.536 3048.277 C 1479.653 3116.856, 1541.053 3161.088, 1610.119 3181.969 C 1645.802 3192.758, 1684.505 3197.711, 1725.343 3196.715 C 1775.830 3195.483, 1820.691 3185.704, 1875.345 3164.015 C 1910.168 3150.196, 1938.737 3136.320, 2007 3100.067 C 2116.992 3041.654, 2171.293 3018.946, 2221.500 3010.367 C 2237.029 3007.713, 2264.905 3007.949, 2281.395 3010.873 C 2328.360 3019.202, 2385.429 3043.037, 2484 3095.492 C 2571.928 3142.284, 2613.594 3161.580, 2658.500 3176.305 C 2687.804 3185.914, 2712.991 3191.706, 2742.776 3195.685 C 2759.117 3197.868, 2808.156 3198.152, 2824.500 3196.158 C 2951.727 3180.635, 3046.121 3109.619, 3133.748 2963.500 C 3156.137 2926.166, 3184.811 2871.037, 3218.009 2801.500 C 3240.179 2755.061, 3268.160 2698.612, 3277.969 2680.535 C 3285.416 2666.812, 3286.065 2665.162, 3285.795 2660.648 L 3285.500 2655.727 3278.335 2652.577 L 3271.171 2649.427 3287.335 2645.731 C 3397.243 2620.597, 3505.679 2575.236, 3587.363 2520.223 C 3705.998 2440.325, 3771.538 2340.557, 3777.037 2231.490 C 3778.779 2196.953, 3776.057 2165.878, 3768.952 2139.192 C 3751.799 2074.755, 3714.582 2012.586, 3661.036 1958.920 C 3634.218 1932.042, 3614.196 1916.060, 3585.878 1898.926 C 3551.936 1878.389, 3517.223 1865.663, 3482.500 1861.026 C 3471.474 1859.554, 3432.855 1858.946, 3419.500 1860.034 M 2132.500 2308.074 C 1770.580 2316.579, 1503.063 2367.404, 1364 2454.080 C 1293.334 2498.126, 1253.767 2548.999, 1235.576 2619.205 C 1231.583 2634.615, 1228.627 2648.960, 1229.305 2649.638 C 1229.563 2649.897, 1234.888 2647.794, 1241.138 2644.965 C 1385.559 2579.590, 1558.864 2568.253, 1774 2610.108 C 1839.686 2622.887, 1933.516 2646.983, 1998 2667.632 C 2009.275 2671.243, 2041.675 2682.307, 2070 2692.220 C 2147.492 2719.339, 2173.089 2727.526, 2208.500 2736.516 C 2235.252 2743.308, 2246.470 2744.737, 2260.070 2743.089 C 2284.077 2740.179, 2349.201 2721.629, 2484.500 2679.162 C 2566.441 2653.442, 2584.642 2647.906, 2623 2637.032 C 2778.416 2592.976, 2896.986 2577.976, 3022 2586.557 C 3100.237 2591.927, 3157.442 2604.580, 3229 2632.342 C 3238.075 2635.862, 3245.617 2638.647, 3245.759 2638.529 C 3245.901 2638.412, 3245.563 2633.928, 3245.007 2628.566 C 3241.689 2596.574, 3223.158 2555.731, 3198.470 2526 C 3120.957 2432.654, 2940.634 2363.963, 2688 2331.543 C 2543.351 2312.981, 2321.868 2303.624, 2132.500 2308.074 M 960.500 2607.837 C 955.473 2610.903, 951.647 2616.103, 944.679 2629.346 C 941.012 2636.315, 935.714 2645.726, 932.906 2650.258 C 913.389 2681.769, 890.237 2694.475, 863 2688.626 C 850.625 2685.968, 829.471 2693.274, 825.537 2701.563 C 822.105 2708.795, 826.112 2716.497, 839.057 2727.548 C 862.251 2747.351, 874.366 2768.663, 875.698 2792 C 876.370 2803.793, 874.444 2814.811, 868.793 2831.500 C 862.247 2850.828, 863.210 2861.499, 871.868 2865.608 C 877.293 2868.182, 886.629 2867.029, 894.851 2862.770 C 918.984 2850.268, 924.028 2847.930, 931.338 2845.854 C 943.169 2842.495, 963.261 2842.489, 974 2845.841 C 985.123 2849.313, 996.083 2855.100, 1009.271 2864.467 C 1025.112 2875.717, 1032.708 2878.131, 1040.555 2874.407 C 1048.316 2870.724, 1050.057 2858.315, 1045.408 2839.814 C 1041.865 2825.713, 1041.031 2806.488, 1043.479 2795.367 C 1048.026 2774.722, 1060.402 2757.784, 1083.619 2740.432 C 1089.737 2735.860, 1096.381 2730.204, 1098.385 2727.863 C 1105.088 2720.032, 1105.250 2711.913, 1098.813 2706.496 C 1093.203 2701.776, 1089.190 2700.694, 1067.130 2697.955 C 1031.406 2693.519, 1007.222 2677.615, 994.910 2650.461 C 993.310 2646.934, 990.602 2639.200, 988.891 2633.274 C 984.319 2617.438, 980.514 2610.919, 973.800 2607.411 C 970.067 2605.461, 964.082 2605.652, 960.500 2607.837 M 3507 2626.121 C 3500.614 2628.660, 3495.740 2635.578, 3490.521 2649.512 C 3480.116 2677.291, 3468.105 2692.579, 3448.882 2702.507 C 3435.268 2709.538, 3414.147 2713.996, 3394.432 2713.999 C 3387.123 2714, 3379.408 2716.599, 3375.166 2720.489 C 3371.769 2723.603, 3371.504 2724.258, 3371.552 2729.401 C 3371.625 2737.112, 3375.746 2742.696, 3391.141 2755.950 C 3427.076 2786.886, 3436.120 2815.099, 3422.971 2855.249 C 3417.292 2872.591, 3418.088 2884.073, 3425.328 2889.237 C 3430.643 2893.028, 3439.047 2892.345, 3448.730 2887.334 C 3453.004 2885.123, 3463.025 2879.952, 3471 2875.842 C 3510.368 2855.557, 3535.259 2856.234, 3558.621 2878.225 C 3567.752 2886.821, 3588.119 2892.410, 3596.251 2888.551 C 3603.957 2884.894, 3604.703 2877.235, 3599.372 2856.500 C 3594.913 2839.153, 3593.736 2819.586, 3596.398 2807.035 C 3600.493 2787.735, 3612.878 2770.594, 3634.301 2754.578 C 3650.558 2742.424, 3654.918 2730.984, 3646.500 2722.566 C 3641.801 2717.868, 3635.704 2716.129, 3618 2714.440 C 3598.806 2712.608, 3589.077 2710.232, 3577.500 2704.549 C 3557.125 2694.548, 3543.582 2678.037, 3533.987 2651.500 C 3529.833 2640.013, 3527.762 2635.937, 3523.759 2631.379 C 3518.757 2625.682, 3512.803 2623.814, 3507 2626.121 M 1588.272 2727.497 C 1553.756 2731.432, 1518.954 2740.535, 1488.093 2753.702 C 1476.349 2758.712, 1454 2769.745, 1454 2770.533 C 1454 2770.817, 1455.563 2774.153, 1457.473 2777.946 C 1459.383 2781.739, 1468.128 2800.347, 1476.906 2819.297 C 1505.507 2881.041, 1519.333 2907.236, 1538.501 2936 C 1551.926 2956.144, 1559.731 2965.819, 1574.454 2980.564 C 1609.465 3015.629, 1645.866 3031.936, 1693 3033.673 C 1751.547 3035.829, 1816.890 3012.198, 1886.295 2963.767 C 1914.360 2944.184, 1949.158 2915.948, 1991.739 2878.208 L 2001.978 2869.133 1988.239 2860.412 C 1865.459 2782.470, 1768.142 2741.360, 1677 2728.935 C 1656.737 2726.173, 1606.967 2725.366, 1588.272 2727.497 M 2845 2726.663 C 2818.972 2729.214, 2802.662 2731.691, 2783 2736.078 C 2706.013 2753.257, 2622.991 2790.943, 2519.250 2855.803 C 2508.113 2862.766, 2499 2868.789, 2499 2869.187 C 2499 2871.042, 2559.142 2922.482, 2582.567 2940.662 C 2654.605 2996.571, 2715.418 3025.307, 2776.994 3032.534 C 2836.490 3039.516, 2887.223 3021.117, 2929.010 2977.402 C 2953.223 2952.072, 2972.816 2922.336, 2996.812 2874.500 C 3004.597 2858.979, 3040.503 2783.111, 3045.652 2771.301 C 3045.979 2770.552, 3041.240 2767.629, 3033.017 2763.509 C 2993.852 2743.883, 2953.717 2732.089, 2910.500 2727.506 C 2897.902 2726.170, 2855.586 2725.626, 2845 2726.663 M 3461.729 2953.449 C 3438.302 2957.577, 3418.765 2967.541, 3401.394 2984.217 C 3377.389 3007.263, 3363.705 3037.120, 3362.306 3069.500 C 3359.885 3125.574, 3391.934 3173.706, 3442.500 3189.938 C 3455.825 3194.215, 3463.117 3195.358, 3477 3195.347 C 3516.447 3195.314, 3554.011 3174.855, 3576.415 3141.201 C 3601.667 3103.270, 3604.511 3055.745, 3583.966 3015 C 3569.334 2985.982, 3541.605 2963.532, 3510.277 2955.343 C 3498.135 2952.168, 3474.276 2951.237, 3461.729 2953.449 M 3463.500 2972.436 C 3429.971 2979.095, 3400.360 3004.162, 3387.896 3036.436 C 3373.149 3074.623, 3379.526 3112.639, 3405.925 3143.922 C 3424.196 3165.573, 3458.755 3178.995, 3488.500 3175.993 C 3523.751 3172.434, 3556.912 3147.175, 3570.686 3113.390 C 3576.874 3098.210, 3579.396 3084.763, 3579.384 3067 C 3579.375 3052.894, 3579.134 3050.774, 3576.702 3043.434 C 3572.288 3030.113, 3559.635 3010.795, 3547.138 2998.298 C 3535.824 2986.984, 3519.559 2977.840, 3503.818 2973.943 C 3492.970 2971.258, 3473.160 2970.517, 3463.500 2972.436 M 1005.555 3014.416 C 946.185 3029.406, 897.451 3042.147, 897.257 3042.730 C 896.844 3043.969, 900.181 3057.665, 903.170 3067 C 912.638 3096.560, 937.441 3121.073, 964.500 3127.612 C 982.216 3131.893, 1005.369 3128.483, 1022 3119.143 C 1044.824 3106.324, 1063.405 3078.885, 1065.668 3054.657 L 1066.249 3048.429 1071.375 3050.965 C 1078.340 3054.410, 1091.093 3054.563, 1098.251 3051.286 C 1104.718 3048.326, 1113.114 3040.146, 1116.242 3033.758 C 1119.269 3027.577, 1121.377 3017.158, 1120.511 3012.662 C 1118.910 3004.345, 1114.527 2987.009, 1114.044 2987.081 C 1113.745 2987.126, 1064.925 2999.426, 1005.555 3014.416 M 1084 3014.915 C 1076.025 3016.968, 1068.258 3018.962, 1066.741 3019.345 L 1063.981 3020.043 1065.893 3023.771 C 1068.308 3028.480, 1071.512 3031.480, 1076.232 3033.452 C 1088.291 3038.491, 1101.908 3028.864, 1101.978 3015.250 C 1102.005 3010.045, 1102.855 3010.061, 1084 3014.915 M 980.866 3040.851 L 919.231 3056.520 920.994 3062.010 C 928.702 3086.022, 945.644 3102.969, 967.460 3108.491 C 980.164 3111.707, 997.108 3109.518, 1010.483 3102.934 C 1032.498 3092.096, 1048.025 3066.167, 1047.989 3040.303 C 1047.972 3028.540, 1047.184 3024.981, 1044.619 3025.091 C 1043.454 3025.141, 1014.765 3032.233, 980.866 3040.851 M 1122 3124.560 C 1107.975 3129.176, 1096.424 3132.963, 1096.332 3132.976 C 1096.240 3132.989, 1094.962 3129.391, 1093.493 3124.979 L 1090.822 3116.958 1086.661 3120.076 C 1084.372 3121.791, 1080.813 3124.335, 1078.750 3125.730 C 1074.447 3128.640, 1074.517 3128.379, 1076.511 3134.030 C 1077.342 3136.385, 1077.862 3138.471, 1077.668 3138.665 C 1077.474 3138.860, 1058.456 3145.114, 1035.407 3152.564 C 1012.358 3160.013, 980.392 3170.359, 964.370 3175.554 L 935.241 3184.999 937.988 3193.750 C 940.275 3201.035, 941.050 3202.445, 942.618 3202.171 C 943.653 3201.991, 974.875 3192.030, 1012 3180.037 C 1049.125 3168.044, 1080.487 3157.932, 1081.693 3157.566 C 1083.767 3156.937, 1084.250 3158.017, 1090.619 3177.533 C 1095.375 3192.104, 1097.013 3198.374, 1096.198 3198.878 C 1095.563 3199.270, 1063.871 3209.640, 1025.772 3221.923 C 987.672 3234.205, 956.112 3244.607, 955.638 3245.039 C 955.010 3245.611, 959.198 3261.061, 960.428 3262.708 C 960.673 3263.036, 1173.065 3194.268, 1173.668 3193.666 C 1174.108 3193.225, 1169.354 3177.251, 1168.464 3176.184 C 1168.319 3176.010, 1156.365 3179.707, 1141.900 3184.400 C 1127.435 3189.093, 1115.525 3192.835, 1115.433 3192.716 C 1114.984 3192.132, 1102.720 3153.319, 1102.618 3152.158 C 1102.539 3151.257, 1111.012 3148.060, 1128.391 3142.433 C 1142.631 3137.823, 1154.440 3133.894, 1154.632 3133.702 C 1155.268 3133.065, 1149.376 3116.624, 1148.429 3116.394 C 1147.918 3116.270, 1136.025 3119.944, 1122 3124.560 M 3330.161 3177.683 C 3328.441 3182.459, 3327.138 3186.462, 3327.267 3186.580 C 3327.751 3187.023, 3536.734 3258.847, 3538.465 3259.166 C 3539.933 3259.436, 3540.823 3257.891, 3543.138 3251.049 C 3544.711 3246.401, 3545.661 3242.305, 3545.249 3241.948 C 3544.517 3241.313, 3334.958 3169, 3333.849 3169 C 3333.541 3169, 3331.881 3172.907, 3330.161 3177.683 M 3320.993 3205.517 C 3319.182 3210.201, 3317.881 3214.205, 3318.100 3214.415 C 3318.320 3214.625, 3325.250 3217.382, 3333.500 3220.542 C 3341.750 3223.702, 3348.850 3226.595, 3349.278 3226.972 C 3349.706 3227.348, 3338.652 3235.247, 3324.713 3244.525 L 3299.369 3261.394 3296.184 3269.474 C 3294.433 3273.918, 3293 3278.019, 3293 3278.586 C 3293 3279.307, 3475.437 3351.103, 3501 3360.442 C 3502.128 3360.855, 3503.303 3358.859, 3505.740 3352.384 C 3507.523 3347.651, 3508.797 3343.491, 3508.573 3343.139 C 3508.348 3342.788, 3465.834 3326.075, 3414.097 3306 C 3362.360 3285.925, 3320.023 3269.235, 3320.015 3268.911 C 3320.007 3268.587, 3331.303 3260.788, 3345.119 3251.580 L 3370.237 3234.837 3447.869 3265.027 C 3490.566 3281.632, 3525.994 3295.415, 3526.599 3295.657 C 3527.992 3296.216, 3534.531 3279.122, 3533.360 3277.984 C 3532.379 3277.031, 3326.713 3197, 3325.245 3197 C 3324.718 3197, 3322.804 3200.833, 3320.993 3205.517 M 1181 3289.051 L 1156.500 3299.926 1153 3292.529 L 1149.500 3285.131 1142.306 3291.614 L 1135.113 3298.097 1137.081 3302.690 C 1138.164 3305.216, 1138.926 3307.399, 1138.775 3307.541 C 1138.530 3307.771, 1012.106 3363.323, 1004.352 3366.608 L 1001.204 3367.941 1013.831 3396.778 L 1026.457 3425.615 1034.729 3422.089 C 1039.278 3420.149, 1043 3418.241, 1043 3417.850 C 1043 3417.458, 1039.202 3408.454, 1034.559 3397.842 C 1029.917 3387.230, 1026.205 3378.491, 1026.309 3378.421 C 1027.492 3377.631, 1146.070 3326.004, 1146.675 3326.016 C 1147.129 3326.024, 1151.775 3335.917, 1157 3348 C 1162.225 3360.083, 1166.737 3369.976, 1167.027 3369.984 C 1167.317 3369.993, 1170.576 3366.955, 1174.269 3363.233 L 1180.984 3356.466 1172.987 3338.219 C 1168.589 3328.183, 1164.880 3319.491, 1164.745 3318.903 C 1164.610 3318.314, 1172.068 3314.514, 1181.318 3310.458 L 1198.137 3303.083 1199.503 3306.291 C 1200.254 3308.056, 1204.164 3316.966, 1208.192 3326.092 L 1215.514 3342.684 1223.811 3339.104 C 1229.736 3336.548, 1231.994 3335.092, 1231.708 3334.012 C 1230.476 3329.363, 1207.336 3278.041, 1206.500 3278.102 C 1205.950 3278.142, 1194.475 3283.069, 1181 3289.051 M 3204.827 3328.366 C 3182.458 3333.396, 3163.902 3337.765, 3163.593 3338.074 C 3163.028 3338.639, 3176.705 3434.039, 3177.459 3434.792 C 3178.048 3435.382, 3196.366 3432.852, 3197.258 3432.058 C 3197.675 3431.687, 3195.485 3414.175, 3192.391 3393.143 C 3189.296 3372.110, 3186.975 3354.692, 3187.232 3354.435 C 3187.488 3354.178, 3202.504 3350.665, 3220.599 3346.627 L 3253.500 3339.286 3253.301 3336.567 C 3253.192 3335.072, 3252.359 3330.508, 3251.451 3326.424 C 3250.007 3319.934, 3249.529 3319.014, 3247.650 3319.110 C 3246.467 3319.171, 3227.197 3323.336, 3204.827 3328.366 M 3326.176 3324.003 C 3277.368 3330.888, 3235.854 3368.699, 3223.461 3417.556 C 3214.273 3453.774, 3221.166 3491.820, 3242.022 3520 C 3248.135 3528.260, 3261.728 3541.464, 3269.500 3546.692 C 3298.973 3566.519, 3335.060 3571.432, 3370.171 3560.400 C 3447.629 3536.063, 3481.359 3441.310, 3436.534 3373.978 C 3419.476 3348.354, 3395.357 3332.134, 3364.417 3325.477 C 3355.826 3323.629, 3334.621 3322.811, 3326.176 3324.003 M 3325.625 3343.491 C 3296.949 3349.451, 3272.801 3365.348, 3257.254 3388.500 C 3234.827 3421.900, 3231.911 3460.936, 3249.262 3495.500 C 3261.167 3519.216, 3282.111 3536.262, 3309.647 3544.644 C 3317.614 3547.069, 3320.052 3547.341, 3334 3547.356 C 3351.649 3547.375, 3358.633 3545.942, 3374.056 3539.135 C 3402.209 3526.712, 3422.175 3503.925, 3433.757 3471 C 3440.330 3452.314, 3440.765 3433.969, 3435.038 3417 C 3430.701 3404.153, 3422.199 3386.793, 3416.586 3379.326 C 3404.102 3362.718, 3385.145 3350.257, 3363.500 3344.428 C 3355.157 3342.181, 3334.398 3341.668, 3325.625 3343.491 M 1209.762 3371.942 C 1203.272 3374.016, 1195.705 3378.569, 1191.863 3382.709 C 1190.439 3384.244, 1173.690 3406.045, 1154.644 3431.155 C 1135.597 3456.266, 1118.548 3478.049, 1116.757 3479.563 C 1107.551 3487.344, 1094.921 3488.697, 1083.585 3483.117 C 1075.126 3478.952, 1072.495 3475.626, 1063.327 3457.500 C 1059.154 3449.250, 1055.557 3442.296, 1055.333 3442.046 C 1055.108 3441.796, 1051.087 3443.495, 1046.397 3445.821 L 1037.869 3450.050 1046.076 3465.775 C 1055.444 3483.722, 1059.083 3489.124, 1065.016 3493.892 C 1073.668 3500.846, 1087.611 3505.951, 1098.040 3505.985 C 1108.019 3506.018, 1121.738 3500.529, 1130.086 3493.165 C 1132.608 3490.940, 1150.896 3467.828, 1170.725 3441.806 C 1211.210 3388.677, 1210.383 3389.520, 1222 3389.525 C 1227.335 3389.528, 1229.472 3390.064, 1233.923 3392.514 C 1240.331 3396.043, 1243.213 3399.772, 1250.254 3413.652 C 1253.140 3419.338, 1255.847 3423.993, 1256.272 3423.995 C 1256.697 3423.998, 1260.579 3422.223, 1264.898 3420.051 L 1272.752 3416.102 1265.663 3402.301 C 1260.521 3392.290, 1257.167 3387.086, 1253.453 3383.351 C 1242.052 3371.886, 1224.375 3367.270, 1209.762 3371.942 M 1219.909 3472.554 C 1205.447 3475.173, 1188.623 3482.494, 1175.047 3492.077 C 1135.692 3519.855, 1120.460 3570.795, 1136.577 3620.727 C 1139.711 3630.436, 1148.645 3649, 1150.184 3649 C 1150.815 3649, 1154.541 3647, 1158.464 3644.555 L 1165.596 3640.110 1160.301 3629.305 C 1152.400 3613.180, 1149.769 3601.964, 1149.673 3584 C 1149.610 3572.189, 1150.006 3567.854, 1151.809 3560.623 C 1163.409 3514.107, 1207.274 3484.536, 1253 3492.409 C 1286.486 3498.174, 1305.118 3509.830, 1322.285 3535.750 C 1324.561 3539.188, 1326.813 3542, 1327.287 3542 C 1329.105 3542, 1342 3533.711, 1342 3532.543 C 1342 3529.956, 1331.264 3516.119, 1322.569 3507.500 C 1298.457 3483.598, 1268.843 3470.830, 1238.119 3471.090 C 1232.279 3471.139, 1224.084 3471.798, 1219.909 3472.554 M 3151.428 3539.813 L 3127.488 3575.626 3134.931 3580.777 L 3142.374 3585.929 3151.722 3571.927 C 3157.908 3562.662, 3161.481 3558.167, 3162.285 3558.639 C 3163.846 3559.555, 3256.462 3621.582, 3299.713 3650.677 L 3332.926 3673.020 3338.029 3665.457 C 3340.835 3661.298, 3342.990 3657.484, 3342.816 3656.981 C 3342.642 3656.478, 3304.483 3630.612, 3258.018 3599.501 C 3211.553 3568.391, 3173.201 3542.601, 3172.790 3542.190 C 3172.380 3541.780, 3176.084 3535.382, 3181.021 3527.972 C 3185.958 3520.562, 3189.998 3514.229, 3189.999 3513.897 C 3190 3513.353, 3176.483 3504, 3175.697 3504 C 3175.517 3504, 3164.596 3520.116, 3151.428 3539.813 M 1338.734 3567.088 C 1333.472 3568.328, 1328.829 3570.875, 1319.003 3577.914 C 1314.330 3581.261, 1310.207 3584, 1309.841 3584 C 1309.475 3584, 1307.041 3581.009, 1304.432 3577.353 L 1299.689 3570.706 1297.595 3573.561 C 1296.443 3575.131, 1293.857 3578.701, 1291.848 3581.494 L 1288.196 3586.572 1291.098 3590.464 C 1292.694 3592.605, 1294 3594.692, 1294 3595.103 C 1294 3595.514, 1266.888 3615.298, 1233.750 3639.068 C 1200.612 3662.838, 1173.324 3682.434, 1173.110 3682.616 C 1172.678 3682.982, 1178.730 3691.970, 1182.253 3696.195 L 1184.500 3698.889 1244.918 3655.417 C 1278.148 3631.508, 1305.710 3612.070, 1306.166 3612.223 C 1306.923 3612.476, 1330.067 3644.352, 1329.671 3644.597 C 1326.780 3646.388, 1210.974 3729.761, 1209.829 3730.874 C 1208.274 3732.388, 1208.543 3733.032, 1213.731 3740.211 L 1219.303 3747.923 1225.960 3743.211 C 1273.733 3709.402, 1374.289 3636.597, 1377.288 3633.648 C 1384.428 3626.625, 1388.815 3613.098, 1387.539 3602.042 C 1386.285 3591.175, 1378.087 3578.473, 1368.256 3572.164 C 1359.995 3566.863, 1348.256 3564.845, 1338.734 3567.088 M 3116.866 3590.310 L 3111.231 3597.608 3124.616 3607.905 C 3131.977 3613.568, 3138 3618.524, 3138 3618.919 C 3138 3619.500, 3108.248 3629.080, 3085.700 3635.758 C 3081.568 3636.982, 3080.066 3638.237, 3074.915 3644.770 C 3070.106 3650.869, 3069.183 3652.597, 3070.215 3653.569 C 3070.922 3654.234, 3107.275 3682.354, 3151 3716.058 C 3194.725 3749.761, 3234.174 3780.193, 3238.665 3783.685 L 3246.830 3790.033 3252.415 3782.845 C 3255.487 3778.892, 3257.987 3775.397, 3257.972 3775.079 C 3257.957 3774.760, 3221.981 3746.825, 3178.026 3713 C 3134.072 3679.175, 3098.084 3651.258, 3098.055 3650.962 C 3097.996 3650.382, 3154.043 3633, 3155.974 3633 C 3156.615 3633, 3186.869 3655.946, 3223.204 3683.992 L 3289.268 3734.983 3294.592 3728.242 C 3297.520 3724.534, 3299.934 3721.010, 3299.958 3720.412 C 3299.994 3719.487, 3125.367 3583.949, 3123.247 3583.256 C 3122.836 3583.122, 3119.965 3586.296, 3116.866 3590.310 M 1340.500 3587.455 C 1337.750 3588.885, 1332.281 3592.418, 1328.346 3595.306 L 1321.192 3600.557 1332.598 3616.528 C 1338.871 3625.313, 1344.381 3632.626, 1344.841 3632.780 C 1345.301 3632.933, 1349.882 3630.008, 1355.020 3626.280 C 1366.546 3617.915, 1369.364 3613.523, 1368.771 3604.840 C 1368.080 3594.703, 1360.331 3586.499, 1350.408 3585.399 C 1346.393 3584.954, 1344.591 3585.328, 1340.500 3587.455 M 1320.883 3694.547 C 1273.944 3734.331, 1235.394 3767.319, 1235.216 3767.853 C 1235.038 3768.387, 1237.640 3772.016, 1240.998 3775.917 L 1247.103 3783.011 1260.802 3771.345 C 1268.336 3764.928, 1275.303 3758.992, 1276.284 3758.153 C 1277.922 3756.753, 1278.315 3756.926, 1281.064 3760.262 C 1285.579 3765.739, 1299.108 3775.513, 1308.316 3779.951 C 1321.917 3786.505, 1332.527 3789.150, 1347.581 3789.738 C 1367.349 3790.511, 1381.680 3786.899, 1398.800 3776.831 C 1406.962 3772.030, 1422.848 3755.961, 1427.853 3747.443 C 1437.346 3731.284, 1441.510 3714.184, 1440.726 3694.581 C 1439.692 3668.736, 1432.917 3653.223, 1412.104 3629.041 L 1406.226 3622.211 1320.883 3694.547 M 1350.500 3695.266 C 1320.800 3720.494, 1295.411 3742.017, 1294.080 3743.095 L 1291.661 3745.055 1295.080 3748.610 C 1307.820 3761.855, 1322.085 3768.204, 1345.344 3770.981 C 1361.707 3772.935, 1373.776 3769.956, 1388.115 3760.424 C 1403.048 3750.496, 1415.096 3735.853, 1419.285 3722.542 C 1422.216 3713.225, 1422.431 3688.270, 1419.668 3678 C 1417.536 3670.075, 1412.114 3658.914, 1407.741 3653.449 L 1404.500 3649.397 1350.500 3695.266 M 3054.286 3674.451 C 3043.699 3677.759, 3035.024 3685.688, 3029.610 3697 C 3026.803 3702.867, 3026.500 3704.427, 3026.500 3713.022 C 3026.500 3726.749, 3029.522 3732.613, 3043.014 3745.062 L 3052.959 3754.239 3047.337 3760.643 C 3044.244 3764.166, 3041.891 3767.190, 3042.107 3767.364 C 3042.323 3767.538, 3046.424 3769.303, 3051.219 3771.285 L 3059.938 3774.890 3063.466 3770.768 L 3066.995 3766.646 3069.247 3768.682 C 3070.486 3769.801, 3095.701 3792.374, 3125.281 3818.844 L 3179.062 3866.971 3185.031 3860.385 C 3188.314 3856.762, 3191 3853.482, 3191 3853.095 C 3191 3852.708, 3165.993 3829.987, 3135.429 3802.603 C 3085.640 3757.994, 3080.003 3752.641, 3081.243 3751.157 C 3084.595 3747.146, 3107.252 3722, 3107.514 3722 C 3107.674 3722, 3132.916 3744.491, 3163.607 3771.980 L 3219.410 3821.960 3225.592 3815.230 C 3228.993 3811.528, 3231.580 3808.171, 3231.341 3807.770 C 3230.337 3806.082, 3090.445 3681.259, 3086.734 3678.739 C 3078.696 3673.283, 3064.168 3671.362, 3054.286 3674.451 M 3059.625 3692.416 C 3054.926 3694.155, 3049.501 3699.189, 3046.912 3704.210 C 3044.628 3708.642, 3044.385 3716.933, 3046.425 3720.800 C 3047.692 3723.201, 3055.814 3731.485, 3063.120 3737.829 L 3065.740 3740.105 3079.382 3724.839 C 3086.886 3716.443, 3092.907 3709.294, 3092.762 3708.952 C 3092.184 3707.583, 3077.321 3694.735, 3074.767 3693.398 C 3070.617 3691.224, 3064.004 3690.796, 3059.625 3692.416 M 1476.261 3746.233 L 1457.028 3765.465 1451.082 3759.581 L 1445.136 3753.697 1440.852 3762.335 L 1436.568 3770.973 1440.326 3774.822 L 1444.085 3778.671 1390.396 3831.936 L 1336.706 3885.201 1358.840 3907.335 L 1380.974 3929.468 1387.496 3923.004 L 1394.017 3916.541 1378.770 3901.269 L 1363.522 3885.998 1369.511 3880.183 C 1372.805 3876.985, 1394.076 3855.966, 1416.779 3833.474 L 1458.058 3792.580 1474.993 3809.493 C 1484.307 3818.795, 1492.065 3826.202, 1492.233 3825.953 C 1492.401 3825.704, 1494.313 3821.776, 1496.482 3817.225 L 1500.425 3808.950 1485.711 3794.212 L 1470.998 3779.473 1484 3766.500 L 1497.002 3753.527 1511.993 3768.493 L 1526.984 3783.459 1533.502 3776.998 L 1540.021 3770.537 1518.269 3748.769 C 1506.305 3736.796, 1496.287 3727, 1496.005 3727 C 1495.724 3727, 1486.839 3735.655, 1476.261 3746.233 M 2909.127 3825.989 C 2858.062 3836.504, 2819.555 3874.612, 2808.405 3925.666 C 2804.677 3942.733, 2806.354 3966.931, 2812.521 3985.062 C 2829.517 4035.032, 2878.976 4066.546, 2933.169 4061.936 C 3014.100 4055.051, 3068.410 3972.122, 3040.606 3897.884 C 3027.446 3862.748, 2998.455 3837.160, 2960.031 3826.770 C 2948.841 3823.744, 2922.028 3823.332, 2909.127 3825.989 M 2916.500 3843.654 C 2894.556 3847.165, 2872.863 3858.385, 2855.901 3875 C 2834.353 3896.106, 2823.462 3924.470, 2825.372 3954.500 C 2826.849 3977.698, 2835.548 3997.015, 2852.577 4014.910 C 2870.651 4033.902, 2890.215 4042.577, 2917.500 4043.696 C 2949.199 4044.996, 2974.416 4034.950, 2999.228 4011.134 C 3020.910 3990.323, 3027.979 3972.703, 3027.994 3939.434 C 3028.003 3920.447, 3025.557 3909.196, 3018.228 3894.500 C 3013.543 3885.106, 3009.994 3880.091, 3002.145 3871.771 C 2994.039 3863.178, 2985.958 3857.323, 2974.928 3852.050 C 2961.608 3845.682, 2953.047 3843.845, 2935 3843.484 C 2926.475 3843.314, 2918.150 3843.391, 2916.500 3843.654 M 1650 3976.057 C 1623.325 4019.504, 1600.511 4057.403, 1599.303 4060.276 C 1591.005 4080.004, 1600.535 4102.839, 1621.276 4112.928 C 1637.172 4120.659, 1656.410 4117.818, 1667.978 4106.032 C 1670.941 4103.013, 1689.293 4074.021, 1721.196 4021.962 C 1747.979 3978.258, 1769.976 3942.066, 1770.079 3941.535 C 1770.253 3940.643, 1755.681 3930.995, 1754.172 3931.004 C 1753.802 3931.006, 1731.902 3966.218, 1705.503 4009.254 C 1679.105 4052.289, 1656.022 4089.152, 1654.208 4091.171 C 1650.565 4095.227, 1643.896 4098, 1637.790 4098 C 1623.369 4098, 1611.981 4081.554, 1617.408 4068.567 C 1618.572 4065.781, 1644.801 4022.763, 1707.812 3920.296 L 1715.931 3907.093 1707.577 3902.046 C 1702.982 3899.271, 1699.060 3897.014, 1698.861 3897.031 C 1698.663 3897.049, 1676.675 3932.610, 1650 3976.057 M 1532.308 3908.113 L 1528.115 3917.055 1547.308 3932.453 L 1566.500 3947.850 1569.399 3942.175 C 1570.994 3939.054, 1572.907 3935.051, 1573.650 3933.280 L 1575.002 3930.059 1557.251 3915.875 C 1547.488 3908.074, 1538.825 3901.124, 1538 3900.431 C 1536.715 3899.352, 1535.898 3900.455, 1532.308 3908.113 M 2721.250 3944.430 C 2700.213 3956.012, 2683.007 3965.716, 2683.016 3965.994 C 2683.025 3966.272, 2684.938 3969.929, 2687.266 3974.120 L 2691.500 3981.740 2706.496 3973.434 C 2716.632 3967.821, 2721.699 3965.513, 2722.130 3966.314 C 2727.366 3976.060, 2817.797 4140.420, 2819.221 4142.780 L 2821.201 4146.061 2829.350 4141.569 C 2833.833 4139.098, 2837.380 4136.587, 2837.233 4135.989 C 2837.087 4135.390, 2814.924 4094.845, 2787.983 4045.889 C 2761.043 3996.932, 2739.003 3956.567, 2739.006 3956.188 C 2739.010 3955.810, 2745.535 3951.930, 2753.506 3947.568 C 2761.478 3943.205, 2767.993 3939.380, 2767.984 3939.068 C 2767.975 3938.755, 2766.062 3935.096, 2763.734 3930.936 L 2759.500 3923.372 2721.250 3944.430 M 1725.245 4044.506 L 1674.995 4145.012 1683.460 4149.210 C 1688.116 4151.519, 1692.117 4153.204, 1692.353 4152.954 C 1692.588 4152.704, 1713.219 4111.611, 1738.199 4061.636 L 1783.617 3970.771 1797.972 3998.052 L 1812.328 4025.333 1774.662 4100.672 L 1736.996 4176.012 1745.460 4180.210 C 1750.116 4182.519, 1754.117 4184.204, 1754.353 4183.954 C 1754.588 4183.704, 1777.290 4138.468, 1804.802 4083.429 L 1854.823 3983.358 1846.295 3979.129 C 1841.605 3976.802, 1837.646 3975.034, 1837.497 3975.200 C 1837.348 3975.365, 1833.687 3982.563, 1829.363 3991.195 L 1821.500 4006.890 1807.126 3979.606 L 1792.752 3952.323 1784.361 3948.161 C 1779.746 3945.873, 1775.864 3944, 1775.733 3944 C 1775.602 3944, 1752.883 3989.228, 1725.245 4044.506 M 2667.195 3972.834 C 2661.191 3975.461, 2659.012 3976.888, 2659.334 3977.984 C 2659.579 3978.818, 2662.687 3986.057, 2666.241 3994.071 L 2672.703 4008.643 2642.879 4002.680 L 2613.055 3996.717 2604.527 4000.517 C 2599.837 4002.607, 2596 4004.501, 2596 4004.726 C 2596 4005.623, 2685.199 4208.554, 2685.920 4209.296 C 2686.486 4209.879, 2701.947 4204.032, 2703.733 4202.559 C 2703.861 4202.454, 2685.601 4160.547, 2663.155 4109.434 C 2640.708 4058.320, 2622.378 4016.441, 2622.421 4016.370 C 2622.655 4015.981, 2680.609 4028.276, 2681.175 4028.835 C 2681.742 4029.393, 2745.474 4174.117, 2748.045 4180.683 C 2748.897 4182.858, 2748.930 4182.852, 2757.700 4178.937 C 2762.848 4176.638, 2766.377 4174.487, 2766.204 4173.754 C 2765.516 4170.836, 2676.668 3969.009, 2676.111 3969.100 C 2675.775 3969.155, 2671.763 3970.835, 2667.195 3972.834 M 1818.404 4088.627 C 1794.257 4145.071, 1774.383 4191.546, 1774.241 4191.904 C 1773.841 4192.908, 1791.320 4200.086, 1792.112 4199.243 C 1793.342 4197.934, 1879.260 3996.571, 1879.383 3994.710 C 1879.469 3993.392, 1877.414 3992.009, 1871.583 3989.460 C 1867.229 3987.557, 1863.360 3986, 1862.987 3986 C 1862.613 3986, 1842.551 4032.182, 1818.404 4088.627 M 1850.698 4103.422 C 1831.612 4161.405, 1815.739 4209.518, 1815.423 4210.340 C 1814.973 4211.513, 1818.172 4212.926, 1830.224 4216.878 C 1849.092 4223.065, 1859.757 4225, 1875 4225 C 1920.570 4225, 1960.836 4200.503, 1979.009 4161.722 C 1987.576 4143.441, 1991.137 4123.476, 1989.131 4104.977 C 1984.812 4065.157, 1960.785 4030.428, 1925.217 4012.594 C 1919.988 4009.972, 1887.454 3998, 1885.557 3998 C 1885.471 3998, 1869.784 4045.440, 1850.698 4103.422 M 2556.348 4015.420 C 2543.603 4018.511, 2533.389 4026.626, 2528.201 4037.782 C 2523.822 4047.196, 2523.880 4057.034, 2528.399 4071.380 C 2530.379 4077.669, 2532 4083.045, 2532 4083.326 C 2532 4083.607, 2528.963 4084.829, 2525.250 4086.042 C 2521.537 4087.255, 2518.148 4088.566, 2517.718 4088.955 C 2517.102 4089.513, 2527.403 4105, 2528.391 4105 C 2528.530 4105, 2530.773 4104.274, 2533.376 4103.388 C 2535.979 4102.501, 2538.230 4101.938, 2538.378 4102.138 C 2538.526 4102.337, 2542.740 4115.100, 2547.743 4130.500 C 2552.746 4145.900, 2563.185 4177.927, 2570.942 4201.671 L 2585.046 4244.843 2594.087 4241.810 C 2600.247 4239.745, 2602.971 4238.367, 2602.634 4237.489 C 2599.102 4228.284, 2557.008 4097.421, 2557.319 4096.611 C 2557.708 4095.597, 2595.946 4082.470, 2596.415 4083.190 C 2596.526 4083.360, 2600.493 4095.425, 2605.230 4110 C 2609.968 4124.575, 2620.406 4156.583, 2628.427 4181.128 L 2643.010 4225.756 2651.755 4223.006 C 2657.416 4221.226, 2660.457 4219.771, 2660.377 4218.878 C 2660.128 4216.082, 2601.708 4038.366, 2599.817 4034.651 C 2595.163 4025.507, 2585.880 4018.506, 2574.465 4015.533 C 2567.561 4013.735, 2563.402 4013.709, 2556.348 4015.420 M 1868.573 4109.747 C 1852.714 4158.011, 1839.534 4198.036, 1839.284 4198.692 C 1838.810 4199.938, 1850.269 4203.766, 1861.500 4206.113 C 1870.595 4208.013, 1890.183 4207.751, 1898 4205.626 C 1905.578 4203.565, 1922.678 4194.803, 1932 4188.204 C 1949.640 4175.719, 1962.490 4157.333, 1968.137 4136.500 C 1971.277 4124.915, 1971.262 4104.874, 1968.105 4093 C 1961.782 4069.223, 1947.067 4048.816, 1926.649 4035.510 C 1919.096 4030.588, 1906.845 4024.771, 1899.454 4022.597 C 1897.544 4022.035, 1895.495 4027.817, 1868.573 4109.747 M 2559.994 4033.934 C 2549.388 4037.160, 2541.697 4047.358, 2543.567 4055.713 C 2545.456 4064.152, 2550.559 4077.999, 2551.628 4077.589 C 2552.282 4077.338, 2560.845 4074.558, 2570.658 4071.409 C 2580.471 4068.261, 2588.888 4065.346, 2589.362 4064.931 C 2589.836 4064.516, 2588.587 4059.264, 2586.586 4053.259 C 2583.862 4045.082, 2582.140 4041.560, 2579.724 4039.222 C 2574.137 4033.814, 2566.828 4031.855, 2559.994 4033.934 M 2475.500 4040.980 C 2459.938 4044.466, 2456.474 4045.616, 2450.827 4049.169 C 2438.212 4057.107, 2430 4071.857, 2430 4086.576 C 2430 4093.174, 2432.749 4103.529, 2435.820 4108.500 C 2436.840 4110.150, 2454.130 4132.521, 2474.244 4158.212 C 2514.374 4209.472, 2514.678 4209.959, 2513.759 4221.417 C 2513.167 4228.789, 2510.276 4234.947, 2504.645 4240.833 C 2498.737 4247.007, 2495.581 4248.317, 2476.500 4252.511 C 2467.150 4254.566, 2459.193 4256.529, 2458.818 4256.874 C 2458.444 4257.218, 2459.027 4261.356, 2460.115 4266.069 L 2462.093 4274.638 2479.796 4270.790 C 2505.583 4265.184, 2515.746 4259.623, 2524.611 4246.267 C 2533.576 4232.760, 2535.718 4217.616, 2530.702 4203.194 C 2527.770 4194.763, 2529.938 4197.745, 2486.818 4142.831 C 2468.536 4119.549, 2452.685 4098.729, 2451.593 4096.565 C 2448.427 4090.289, 2448.777 4080.843, 2452.421 4074.246 C 2457.292 4065.425, 2461.380 4063.029, 2477.610 4059.478 C 2484.150 4058.048, 2490.020 4056.710, 2490.656 4056.506 C 2491.493 4056.237, 2491.272 4053.706, 2489.855 4047.350 C 2488.779 4042.518, 2487.808 4038.503, 2487.699 4038.428 C 2487.590 4038.353, 2482.100 4039.502, 2475.500 4040.980 M 2062.407 4049.980 C 2051.800 4052.213, 2040.034 4061.124, 2035.562 4070.310 C 2034.173 4073.164, 2032.131 4080, 2031.026 4085.500 C 2029.921 4091, 2028.793 4096.455, 2028.521 4097.621 L 2028.027 4099.742 2019.528 4098.006 L 2011.029 4096.269 2011.478 4098.385 C 2011.725 4099.548, 2012.412 4103.856, 2013.005 4107.958 C 2013.598 4112.060, 2014.177 4115.489, 2014.291 4115.578 C 2014.406 4115.667, 2016.750 4116.151, 2019.500 4116.652 C 2022.980 4117.287, 2024.441 4118.011, 2024.305 4119.032 C 2024.031 4121.103, 1996.985 4261.038, 1996.358 4263.632 C 1995.881 4265.606, 1996.521 4265.888, 2005.020 4267.450 C 2010.067 4268.377, 2014.430 4268.903, 2014.715 4268.618 C 2015.001 4268.333, 2021.539 4235.565, 2029.246 4195.800 C 2036.953 4156.035, 2043.655 4123.068, 2044.140 4122.539 C 2044.911 4121.699, 2074.879 4126.738, 2081.615 4128.840 C 2083.695 4129.490, 2083.502 4130.665, 2069.429 4202.982 C 2061.565 4243.396, 2055.306 4276.639, 2055.521 4276.854 C 2056.085 4277.419, 2073.435 4280.899, 2073.810 4280.523 C 2073.984 4280.350, 2082.252 4238.649, 2092.185 4187.854 C 2111.939 4086.833, 2112.161 4085.247, 2108.008 4074.500 C 2104.508 4065.443, 2093.792 4055.055, 2085 4052.196 C 2077.288 4049.689, 2068.081 4048.786, 2062.407 4049.980 M 2118.996 4064.990 C 2118.993 4066.920, 2115.854 4117.313, 2112.020 4176.974 C 2108.186 4236.635, 2105.386 4285.786, 2105.798 4286.198 C 2106.210 4286.610, 2115.312 4287.240, 2126.024 4287.597 C 2141.879 4288.125, 2147.259 4287.937, 2154.961 4286.586 C 2197.577 4279.113, 2232.099 4251.251, 2246.026 4213.090 C 2254.142 4190.852, 2254.115 4161.072, 2245.958 4138.721 C 2234.374 4106.982, 2206.420 4079.771, 2174.408 4069.075 C 2163.559 4065.450, 2150.253 4063.296, 2132.250 4062.250 L 2119 4061.480 2118.996 4064.990 M 2307.332 4065.890 C 2292.389 4066.776, 2279.932 4067.732, 2279.650 4068.015 C 2279.367 4068.299, 2279.768 4078.874, 2280.540 4091.515 C 2281.312 4104.157, 2281.957 4116.637, 2281.972 4119.250 L 2282 4124 2274.559 4124 C 2270.466 4124, 2266.856 4124.424, 2266.536 4124.941 C 2266.216 4125.459, 2267.450 4129.622, 2269.279 4134.191 L 2272.604 4142.500 2278.052 4143 L 2283.500 4143.500 2287.745 4217.912 C 2290.080 4258.838, 2292.105 4292.397, 2292.245 4292.487 C 2292.385 4292.577, 2305.775 4291.856, 2322 4290.885 C 2338.225 4289.914, 2352.129 4289.093, 2352.898 4289.060 C 2354.034 4289.011, 2354.185 4287.292, 2353.706 4279.891 C 2353.381 4274.881, 2352.962 4270.628, 2352.773 4270.440 C 2352.585 4270.251, 2342.921 4270.638, 2331.297 4271.299 L 2310.164 4272.501 2309.563 4265.001 C 2309.090 4259.096, 2303.823 4166.546, 2302.791 4146 L 2302.565 4141.500 2326.532 4140.160 C 2339.715 4139.423, 2350.637 4138.686, 2350.805 4138.522 C 2350.973 4138.358, 2349.429 4134.113, 2347.374 4129.089 L 2343.638 4119.955 2335.069 4120.561 C 2330.356 4120.894, 2320.805 4121.467, 2313.844 4121.833 L 2301.187 4122.500 2300.462 4107 C 2300.064 4098.475, 2299.684 4090.150, 2299.619 4088.500 L 2299.500 4085.500 2319 4084.340 C 2329.725 4083.701, 2339.287 4083.139, 2340.250 4083.090 C 2341.762 4083.012, 2342 4081.922, 2342 4075.082 C 2342 4064.999, 2341.588 4063.964, 2337.643 4064.140 C 2335.914 4064.218, 2322.274 4065.005, 2307.332 4065.890 M 2062.030 4069.583 C 2054.525 4072.838, 2052.761 4075.958, 2049.585 4091.590 C 2047.927 4099.752, 2047.569 4103.265, 2048.368 4103.534 C 2052.517 4104.930, 2086.573 4110.814, 2087.107 4110.227 C 2088.149 4109.081, 2091.004 4091.989, 2091.002 4086.907 C 2091.001 4084.032, 2090.131 4080.671, 2088.677 4077.921 C 2084.273 4069.594, 2071.338 4065.546, 2062.030 4069.583 M 2137 4083.578 C 2137 4086.803, 2126.034 4257.724, 2125.464 4263.380 L 2124.871 4269.259 2141.686 4268.727 C 2168.008 4267.894, 2180.502 4263.445, 2196.559 4249.190 C 2221.578 4226.979, 2232.938 4203.938, 2232.983 4175.315 C 2233.022 4149.834, 2224.169 4128.945, 2205.513 4110.500 C 2191.077 4096.227, 2173.217 4086.966, 2153.492 4083.527 C 2141.886 4081.503, 2137 4081.518, 2137 4083.578" stroke="none" fill="#ffffff" fill-rule="evenodd"/>
</svg>