<svg xmlns="http://www.w3.org/2000/svg" width="375" height="175" viewBox="0 0 375 175" version="1.1">
	<path d="M 59 27.606 C 41.984 32.168, 26.539 44.755, 19.193 60.046 C 12.875 73.199, 12 79.485, 12.002 111.708 C 12.003 142.990, 12.377 144.940, 19 148.248 C 22.290 149.892, 32.501 149.997, 189.282 149.998 C 370.701 150, 360.234 150.332, 364.881 144.424 C 367.085 141.623, 367.096 141.405, 366.777 108.553 C 366.477 77.640, 366.314 75.078, 364.260 68.985 C 357.397 48.618, 340.327 32.692, 319.936 27.630 C 314.039 26.166, 300.732 26.007, 188.936 26.066 C 82.579 26.122, 63.701 26.346, 59 27.606 M 67 28.072 C 53.586 29.831, 39.986 36.908, 30.435 47.097 C 24.215 53.733, 20.579 59.826, 17.206 69.267 C 14.679 76.341, 14.613 77.183, 14.233 107.500 C 13.980 127.725, 14.211 139.456, 14.898 141.250 C 15.477 142.762, 17.424 144.898, 19.225 145.996 C 22.464 147.970, 24.355 147.993, 189.846 147.996 C 344.350 148, 357.408 147.872, 360.017 146.331 C 365.091 143.334, 365.153 142.828, 364.766 107.448 C 364.353 69.607, 364.109 68.310, 354.764 54.338 C 346.608 42.145, 334.699 33.607, 320 29.415 C 313.850 27.661, 307.046 27.552, 193.500 27.390 C 127.500 27.296, 70.575 27.603, 67 28.072 M 70.402 33.981 C 48.420 37.272, 30.874 52.055, 23.293 73.672 C 20.565 81.450, 20.548 81.670, 20.524 108.324 L 20.500 135.148 24.235 138.574 L 27.971 142 189.235 141.996 C 348.648 141.993, 350.538 141.970, 353.775 139.996 C 355.576 138.898, 357.523 136.762, 358.101 135.250 C 358.777 133.482, 359.021 122.860, 358.785 105.500 C 358.426 79.056, 358.364 78.361, 355.763 71.775 C 348.670 53.809, 334.736 41.023, 315.955 35.250 C 310.997 33.726, 299.797 33.557, 193 33.396 C 128.375 33.298, 73.206 33.562, 70.402 33.981 M 112 87.494 L 112 140 190.009 140 L 268.018 140 267.759 87.750 L 267.500 35.500 189.750 35.244 L 112 34.988 112 87.494 M 104.250 45.031 C 103.013 45.529, 102 45.656, 102 45.315 C 102 44.973, 101.144 45.681, 100.097 46.888 C 98.733 48.461, 98.047 48.716, 97.676 47.791 C 97.356 46.993, 97.128 47.191, 97.079 48.309 C 97.036 49.304, 96.550 49.840, 96 49.500 C 95.450 49.160, 95 49.385, 95 50 C 95 50.615, 94.594 50.867, 94.097 50.560 C 93.601 50.253, 92.758 51.239, 92.224 52.751 C 91.368 55.175, 56.986 92.999, 54.892 93.821 C 52.795 94.644, 52.920 88.914, 55.083 85.066 C 56.333 82.842, 57.025 80.692, 56.621 80.288 C 55.055 78.722, 50.378 82.747, 47.759 87.914 C 43.933 95.463, 42.468 96.851, 34.438 100.537 C 30.413 102.384, 26.649 104.887, 25.688 106.354 C 20.350 114.501, 30.136 129.135, 41.984 130.725 C 49.318 131.708, 53.126 127.978, 55.484 117.500 C 56.420 113.336, 57.172 112.214, 59.977 110.791 C 61.830 109.852, 64.023 108.406, 64.850 107.578 C 66.583 105.846, 65.737 105.304, 60.500 104.793 C 58.175 104.566, 57.500 104.010, 57.500 102.323 C 57.500 99.612, 94.704 57, 97.071 57 C 98.913 57, 109.259 45.592, 108.293 44.626 C 107.518 43.851, 107.074 43.896, 104.250 45.031 M 278.371 48.918 C 280.875 64.576, 291.791 85.353, 306.128 101.748 C 312.759 109.330, 313.363 109.599, 316.399 106.325 C 318.709 103.834, 319.118 103.725, 321.454 104.975 C 324.165 106.426, 333.410 115.881, 341.308 125.279 C 345.114 129.808, 346.717 131, 349.001 131 C 351.946 131, 355 128, 355 125.108 C 355 124.312, 348.925 117.529, 341.500 110.036 C 334.075 102.542, 328 95.778, 328 95.003 C 328 93.483, 280.149 45, 278.649 45 C 278.152 45, 278.026 46.763, 278.371 48.918 M 124.934 51.250 C 124.897 51.388, 124.770 54.538, 124.650 58.250 L 124.433 65 130.217 65 C 134.585 65, 136 64.648, 136 63.559 C 136 61.546, 134.047 60.553, 132.713 61.887 C 131.146 63.454, 129 63.271, 129 61.570 C 129 60.783, 130.012 59.995, 131.250 59.820 C 132.488 59.644, 133.500 58.825, 133.500 58 C 133.500 57.018, 132.722 56.608, 131.250 56.813 C 129.743 57.022, 129 56.610, 129 55.563 C 129 53.833, 131.527 53.426, 132.500 55 C 133.639 56.842, 135 56.025, 135 53.500 C 135 51.167, 134.667 51, 130 51 C 127.250 51, 124.970 51.112, 124.934 51.250 M 137 58 C 137 63.556, 137.310 65, 138.500 65 C 139.586 65, 140.022 63.826, 140.079 60.750 L 140.158 56.500 141.662 60.750 C 142.850 64.106, 143.658 65, 145.500 65 C 147.342 65, 148.150 64.106, 149.338 60.750 L 150.842 56.500 150.921 60.750 C 150.992 64.596, 151.238 65, 153.500 65 C 155.911 65, 156 64.769, 156 58.469 C 156 53.745, 155.606 51.786, 154.578 51.392 C 151.827 50.336, 149.037 52.966, 147.832 57.751 L 146.652 62.439 145.057 57.671 C 143.414 52.759, 141.787 51.042, 138.750 51.015 C 137.249 51.002, 137 51.994, 137 58 M 157.962 51.250 C 157.940 51.388, 157.828 54.538, 157.712 58.251 L 157.500 65.001 163.215 65.001 C 167.925 65, 169.120 64.645, 170.011 62.979 C 170.606 61.868, 170.759 60.418, 170.350 59.758 C 169.942 59.098, 169.704 57.299, 169.821 55.760 C 169.988 53.574, 169.471 52.749, 167.452 51.982 C 165.190 51.122, 158.066 50.572, 157.962 51.250 M 174.337 52.477 C 171.388 54.542, 170.644 58.411, 172.504 62.009 C 173.823 64.558, 174.630 65, 177.969 65 C 184.676 65, 187.349 58.258, 182.545 53.455 C 179.737 50.646, 177.356 50.362, 174.337 52.477 M 187.750 52.080 C 184.886 53.748, 185.660 56.867, 189.500 59.133 C 191.425 60.268, 193 61.603, 193 62.099 C 193 63.553, 190.355 63.133, 188.965 61.458 C 187.402 59.575, 185.441 61.100, 186.356 63.485 C 186.842 64.753, 188.123 65.039, 192.239 64.803 C 196.734 64.544, 197.544 64.189, 197.804 62.365 C 198.090 60.366, 194.851 56.832, 191.700 55.704 C 191.040 55.467, 190.845 54.905, 191.267 54.454 C 191.688 54.002, 192.566 54.166, 193.217 54.817 C 194.902 56.502, 198 56.281, 198 54.475 C 198 51.696, 191.155 50.097, 187.750 52.080 M 201.189 53.039 C 198.447 55.593, 198.258 61.018, 200.829 63.345 C 204.247 66.438, 211 64.978, 211 61.145 C 211 59.952, 210.666 59.993, 209.145 61.369 C 205.820 64.378, 202.383 61.306, 203.609 56.421 C 204.226 53.963, 206.374 53.178, 207.500 55 C 208.445 56.529, 211 56.189, 211 54.535 C 211 52.848, 207.997 51, 205.254 51 C 204.222 51, 202.392 51.918, 201.189 53.039 M 215.372 52.208 C 214.961 52.872, 214.515 54.453, 214.379 55.721 C 214.244 56.988, 213.429 59.439, 212.567 61.166 C 210.609 65.092, 210.598 65, 213 65 C 214.333 65, 215 64.333, 215 63 C 215 61.559, 215.667 61, 217.383 61 C 218.926 61, 219.951 61.706, 220.290 63 C 220.643 64.351, 221.654 65, 223.406 65 C 224.833 65, 226 64.888, 225.999 64.750 C 225.998 63.763, 221.615 53.248, 220.789 52.250 C 219.472 50.658, 216.344 50.634, 215.372 52.208 M 227.924 51.250 C 227.883 51.388, 227.770 54.538, 227.674 58.250 L 227.500 65.001 232.693 65 C 236.926 65, 238.175 64.589, 239.443 62.777 C 243.209 57.402, 239.188 51, 232.045 51 C 229.820 51, 227.966 51.112, 227.924 51.250 M 246.373 52.205 C 245.964 52.867, 245.482 54.755, 245.301 56.400 C 245.121 58.045, 244.305 60.412, 243.487 61.660 C 241.548 64.619, 241.607 65, 244 65 C 245.333 65, 246 64.333, 246 63 C 246 61.514, 246.667 61, 248.594 61 C 250.346 61, 251.357 61.649, 251.710 63 C 252.049 64.294, 253.074 65, 254.617 65 C 255.927 65, 257 64.888, 256.999 64.750 C 256.998 63.763, 252.615 53.248, 251.789 52.250 C 250.473 50.659, 247.345 50.633, 246.373 52.205 M 162 55.573 C 162 56.505, 162.680 57.015, 163.667 56.823 C 166.176 56.337, 166.520 54, 164.083 54 C 162.855 54, 162 54.646, 162 55.573 M 176.426 55.332 C 175.413 57.971, 176.408 62.500, 178 62.500 C 179.078 62.500, 179.500 61.398, 179.500 58.583 C 179.500 54.617, 177.509 52.511, 176.426 55.332 M 232 58.500 C 232 62.387, 232.286 63.092, 233.750 62.810 C 235.066 62.556, 235.500 61.488, 235.500 58.500 C 235.500 55.512, 235.066 54.444, 233.750 54.190 C 232.286 53.908, 232 54.613, 232 58.500 M 217 56.441 C 217 57.298, 217.450 58, 218 58 C 218.550 58, 219 57.577, 219 57.059 C 219 56.541, 218.550 55.840, 218 55.500 C 217.450 55.160, 217 55.584, 217 56.441 M 248 56.441 C 248 57.298, 248.450 58, 249 58 C 249.550 58, 250 57.577, 250 57.059 C 250 56.541, 249.550 55.840, 249 55.500 C 248.450 55.160, 248 55.584, 248 56.441 M 162.171 60.648 C 162.364 61.654, 163.346 62.636, 164.352 62.829 C 165.673 63.084, 166.084 62.673, 165.829 61.352 C 165.636 60.346, 164.654 59.364, 163.648 59.171 C 162.327 58.916, 161.916 59.327, 162.171 60.648 M 186.966 78.665 C 185.087 81.573, 183.662 82.621, 181.073 83 C 176.740 83.635, 176.304 84.998, 179.481 87.982 C 181.420 89.804, 182 91.344, 182 94.674 C 182 97.774, 182.408 99, 183.441 99 C 184.234 99, 185.186 98.508, 185.558 97.906 C 186.243 96.797, 191.450 97.114, 195.863 98.533 C 198.144 99.266, 198.202 99.155, 197.550 95.297 C 196.974 91.885, 197.260 90.845, 199.509 88.171 C 202.446 84.682, 202.098 83, 198.441 83 C 196.052 83, 194.656 81.880, 191.171 77.165 L 189.445 74.831 186.966 78.665 M 158.592 85.500 C 157.574 87.053, 156.016 88, 154.477 88 C 151.482 88, 151.423 88.451, 153.989 91.713 C 155.361 93.458, 155.780 95.027, 155.341 96.776 C 154.763 99.081, 154.922 99.245, 157.103 98.583 C 160.368 97.592, 161.146 97.572, 163.750 98.410 C 165.738 99.050, 166 98.792, 166 96.190 C 166 94.570, 166.675 92.685, 167.500 92 C 169.845 90.054, 169.272 88.304, 166.080 87.666 C 164.347 87.319, 162.898 86.253, 162.513 85.041 C 161.656 82.340, 160.580 82.466, 158.592 85.500 M 216.592 85.500 C 215.691 86.875, 214.139 88, 213.144 88 C 210.250 88, 209.925 89.089, 212.022 91.755 C 213.365 93.463, 213.778 95.035, 213.341 96.776 C 212.762 99.086, 212.918 99.244, 215.103 98.558 C 218.249 97.571, 220.116 97.546, 222.250 98.462 C 223.694 99.082, 224 98.691, 224 96.229 C 224 94.588, 224.675 92.685, 225.500 92 C 227.845 90.054, 227.272 88.304, 224.080 87.666 C 222.347 87.319, 220.898 86.253, 220.513 85.041 C 219.656 82.340, 218.580 82.466, 216.592 85.500 M 241.062 85.885 C 240.507 86.922, 238.865 88.068, 237.414 88.432 C 234.954 89.050, 234.885 89.215, 236.388 90.876 C 237.274 91.856, 238 93.747, 238.001 95.079 C 238.001 97.308, 238.398 97.506, 243.012 97.573 C 247.490 97.639, 247.959 97.445, 247.421 95.752 C 247.069 94.642, 247.519 93.083, 248.508 91.991 C 250.317 89.992, 249.789 88, 247.449 88 C 246.662 88, 245.455 87.100, 244.768 86 C 243.211 83.507, 242.349 83.480, 241.062 85.885 M 135 88 C 134.411 89.100, 133.072 90, 132.024 90 C 129.446 90, 128.692 91.499, 130.511 93.009 C 131.330 93.689, 132 95.427, 132 96.872 C 132 99.320, 132.308 99.500, 136.500 99.500 C 140.272 99.500, 141 99.189, 141 97.579 C 141 96.522, 141.719 94.863, 142.598 93.892 C 144.453 91.842, 143.701 90, 141.008 90 C 139.978 90, 138.849 89.100, 138.500 88 C 138.151 86.900, 137.461 86, 136.968 86 C 136.474 86, 135.589 86.900, 135 88 M 159.500 115 C 159.500 119.065, 159.522 119.089, 163 118.795 C 166.277 118.519, 166.500 118.277, 166.500 115 C 166.500 111.723, 166.277 111.481, 163 111.205 C 159.522 110.911, 159.500 110.935, 159.500 115 M 168 115 C 168 117.889, 168.417 119, 169.500 119 C 170.325 119, 171 118.325, 171 117.500 C 171 116.675, 171.450 116, 172 116 C 172.550 116, 173 116.675, 173 117.500 C 173 118.325, 173.563 118.999, 174.250 118.997 C 175.033 118.995, 175.518 117.500, 175.549 114.997 C 175.587 111.824, 175.233 111, 173.830 111 C 172.670 111, 172.261 111.515, 172.638 112.500 C 172.955 113.325, 172.716 114, 172.107 114 C 171.498 114, 171 113.325, 171 112.500 C 171 111.675, 170.325 111, 169.500 111 C 168.417 111, 168 112.111, 168 115 M 179.500 115 L 179.500 119 185.683 119 L 191.866 119 191.780 115.951 C 191.708 113.447, 191.318 112.955, 189.596 113.201 C 188.366 113.377, 187.551 114.185, 187.623 115.158 C 187.756 116.936, 183.353 118.380, 182.417 116.866 C 182.123 116.390, 182.584 116, 183.441 116 C 184.298 116, 185 115.550, 185 115 C 185 114.450, 184.298 114, 183.441 114 C 182.584 114, 182.148 113.570, 182.473 113.044 C 182.798 112.518, 183.725 112.341, 184.532 112.651 C 185.339 112.960, 186 112.716, 186 112.107 C 186 111.498, 184.537 111, 182.750 111 C 179.625 111, 179.500 111.154, 179.500 115 M 162.500 113 C 162.160 113.550, 162.359 114, 162.941 114 C 163.523 114, 164 113.550, 164 113 C 164 112.450, 163.802 112, 163.559 112 C 163.316 112, 162.840 112.450, 162.500 113 M 193.389 114.430 C 192.123 117.728, 193.674 118.780, 199.927 118.868 C 203.267 118.915, 206 118.769, 206 118.542 C 206 116.219, 203.691 113, 202.025 113 C 199.866 113, 199.142 114.944, 201.250 115.081 C 201.938 115.126, 201.150 115.757, 199.500 116.485 C 196.421 117.841, 195 117.648, 195 115.874 C 195 115.302, 195.917 115.156, 197.118 115.538 C 198.649 116.023, 199.113 115.834, 198.790 114.855 C 198.137 112.875, 194.107 112.558, 193.389 114.430 M 207 117.500 C 207 120.791, 207.395 122, 208.469 122 C 209.363 122, 209.712 121.414, 209.362 120.500 C 208.962 119.459, 209.431 119, 210.893 119 C 212.052 119, 213 118.460, 213 117.800 C 213 116.867, 213.267 116.867, 214.200 117.800 C 214.860 118.460, 216.379 119, 217.575 119 C 219.246 119, 219.750 118.403, 219.750 116.421 C 219.750 113.407, 217.507 112.202, 214.914 113.822 C 213.755 114.546, 212.873 114.603, 212.487 113.980 C 212.154 113.441, 210.784 113, 209.441 113 C 207.215 113, 207 113.396, 207 117.500 M 209 115.941 C 209 116.459, 209.450 117.160, 210 117.500 C 210.550 117.840, 211 117.416, 211 116.559 C 211 115.702, 210.550 115, 210 115 C 209.450 115, 209 115.423, 209 115.941 M 162.510 117.016 C 162.856 117.575, 163.557 117.774, 164.069 117.457 C 165.456 116.600, 165.198 116, 163.441 116 C 162.584 116, 162.165 116.457, 162.510 117.016 M 348 125.417 C 348 126.287, 348.712 127, 349.583 127 C 350.454 127, 350.989 126.466, 350.771 125.813 C 350.153 123.958, 348 123.651, 348 125.417 M 122.825 125.508 C 122.546 125.787, 122.589 127.700, 122.920 129.758 C 123.458 133.096, 123.873 133.534, 126.761 133.813 C 129.866 134.114, 130 133.979, 130 130.563 C 130 128.604, 130 126.662, 130 126.250 C 130 125.838, 129.454 125.500, 128.786 125.500 C 128.119 125.500, 127.556 126.810, 127.536 128.412 C 127.516 130.013, 126.938 131.513, 126.250 131.745 C 125.404 132.030, 125 131.008, 125 128.583 C 125 125.332, 124.172 124.161, 122.825 125.508 M 147 126.500 C 147 127.349, 146.104 128, 144.934 128 C 143.269 128, 142.929 128.535, 143.184 130.750 C 143.492 133.432, 143.666 133.503, 150.250 133.628 C 154.172 133.703, 157 133.337, 157 132.756 C 157 132.118, 157.453 132.098, 158.250 132.701 C 158.938 133.221, 160.512 133.698, 161.750 133.761 C 163.763 133.864, 164 133.407, 164 129.438 C 164 126.160, 163.608 125, 162.500 125 C 161.675 125, 160.996 125.563, 160.992 126.250 C 160.988 126.938, 159.863 128.020, 158.492 128.656 C 157.121 129.292, 156 129.404, 156 128.906 C 156 128.408, 154.875 128, 153.500 128 C 151.944 128, 151 128.567, 151 129.500 C 151 130.325, 150.550 131, 150 131 C 149.450 131, 149 129.650, 149 128 C 149 126.350, 148.550 125, 148 125 C 147.450 125, 147 125.675, 147 126.500 M 176.250 125.663 C 174.306 126.446, 174.773 128.720, 177.250 130.536 L 179.500 132.185 177.132 131.488 C 175.378 130.971, 174.881 131.142, 175.215 132.145 C 175.531 133.092, 177.688 133.528, 182.385 133.594 C 189.047 133.687, 189.100 133.666, 188.801 131.094 C 188.566 129.066, 187.870 128.428, 185.612 128.170 C 183.321 127.909, 182.850 128.167, 183.331 129.420 C 184.116 131.467, 183.713 131.415, 179.774 128.958 C 176.608 126.983, 176.591 126.937, 179.250 127.566 C 180.987 127.977, 182 127.809, 182 127.108 C 182 126.499, 181.587 126, 181.082 126 C 180.577 126, 179.564 125.811, 178.832 125.579 C 178.099 125.348, 176.938 125.385, 176.250 125.663 M 214.140 127.169 C 212.167 132.439, 211.891 134, 212.933 134 C 213.520 134, 214 133.325, 214 132.500 C 214 130.466, 215.991 130.605, 217.558 132.748 C 219.590 135.528, 220.422 133.396, 218.883 129.352 C 217.181 124.880, 215.317 124.022, 214.140 127.169 M 139.118 126.750 C 139.184 127.162, 139.153 128.625, 139.051 130 L 138.865 132.500 137.780 130.250 C 137.031 128.698, 135.812 128, 133.847 128 C 131.350 128, 131 128.369, 131 131 C 131 134.586, 133.961 135.309, 134.068 131.750 C 134.135 129.523, 134.146 129.522, 135.146 131.583 C 135.831 132.996, 137.108 133.667, 139.109 133.667 C 141.905 133.667, 142.049 133.463, 141.835 129.833 C 141.695 127.464, 141.111 126, 140.304 126 C 139.587 126, 139.053 126.338, 139.118 126.750 M 198.400 127.143 C 197.932 127.889, 197.646 129.400, 197.763 130.500 C 197.954 132.295, 197.859 132.270, 196.835 130.250 C 196.055 128.711, 194.795 128, 192.847 128 C 190.350 128, 190 128.369, 190 131 C 190 134.585, 192.959 135.308, 193.070 131.750 C 193.136 129.652, 193.192 129.633, 193.909 131.466 C 194.535 133.067, 195.726 133.463, 200.317 133.596 C 204.035 133.703, 206.341 133.294, 207.089 132.392 C 208.780 130.355, 207.409 128, 204.531 128 C 202.667 128, 202 128.527, 202 130 C 202 131.100, 201.498 132, 200.883 132 C 200.269 132, 199.989 131.150, 200.261 130.111 C 200.940 127.512, 199.554 125.301, 198.400 127.143 M 229.334 127.250 C 228.903 127.938, 228.647 129.400, 228.766 130.500 C 228.954 132.242, 228.858 132.210, 228.023 130.250 C 227.348 128.665, 226.220 128, 224.205 128 C 221.588 128, 221.384 128.258, 221.793 131.043 C 222.041 132.732, 222.743 133.910, 223.370 133.690 C 223.991 133.471, 224.371 132.439, 224.212 131.396 C 223.951 129.672, 224.087 129.695, 225.712 131.657 C 226.760 132.922, 228.514 133.749, 229.950 133.657 C 232.351 133.503, 232.656 132.559, 232.100 127 C 231.960 125.600, 230.273 125.752, 229.334 127.250 M 248.155 130 C 247.976 133.038, 248.290 134, 249.459 134 C 250.307 134, 251 133.495, 251 132.878 C 251 132.098, 251.454 132.132, 252.487 132.989 C 254.651 134.785, 257 133.467, 257 130.456 C 257 128.122, 256.661 127.880, 253.750 128.143 C 251.605 128.337, 250.585 128.022, 250.750 127.218 C 250.887 126.548, 250.413 126, 249.696 126 C 248.880 126, 248.303 127.498, 248.155 130 M 165.362 129.500 C 165.045 130.325, 165.045 131.675, 165.362 132.500 C 166.009 134.188, 169.553 134.533, 170.500 133 C 170.840 132.450, 170.586 132, 169.937 132 C 169.062 132, 169.044 131.652, 169.869 130.658 C 170.481 129.920, 170.687 129.020, 170.325 128.658 C 169.113 127.446, 165.944 127.984, 165.362 129.500 M 233.359 129.507 C 233.006 130.427, 233.416 131.844, 234.286 132.714 C 236.410 134.838, 239.227 133.621, 238.820 130.754 C 238.426 127.977, 234.307 127.037, 233.359 129.507 M 240 131 C 240 134.586, 242.963 135.311, 243.063 131.750 L 243.127 129.500 244.031 131.750 C 244.529 132.988, 245.453 134, 246.084 134 C 246.788 134, 246.999 133.128, 246.630 131.750 C 246.299 130.512, 246.021 129.162, 246.014 128.750 C 246.006 128.338, 244.650 128, 243 128 C 240.333 128, 240 128.333, 240 131 M 160 130.559 C 160 131.416, 160.457 131.835, 161.016 131.490 C 161.575 131.144, 161.774 130.443, 161.457 129.931 C 160.600 128.544, 160 128.802, 160 130.559 M 204.079 130.583 C 204.127 131.748, 204.364 131.985, 204.683 131.188 C 204.972 130.466, 204.936 129.603, 204.604 129.271 C 204.272 128.939, 204.036 129.529, 204.079 130.583 M 236.079 130.583 C 236.127 131.748, 236.364 131.985, 236.683 131.188 C 236.972 130.466, 236.936 129.603, 236.604 129.271 C 236.272 128.939, 236.036 129.529, 236.079 130.583 M 254.079 130.583 C 254.127 131.748, 254.364 131.985, 254.683 131.188 C 254.972 130.466, 254.936 129.603, 254.604 129.271 C 254.272 128.939, 254.036 129.529, 254.079 130.583 M 145 131 C 145 131.550, 145.450 132, 146 132 C 146.550 132, 147 131.550, 147 131 C 147 130.450, 146.550 130, 146 130 C 145.450 130, 145 130.450, 145 131" stroke="none" fill="#ffffff" fill-rule="evenodd"/>
</svg>