<svg xmlns="http://www.w3.org/2000/svg" width="4500" height="2720" viewBox="0 0 4500 2720" version="1.1">
	<path d="M 624 326.085 C 459.026 336.528, 316.261 446.339, 263.983 603 C 254.617 631.067, 249.352 654.763, 245.314 687.010 C 243.580 700.862, 243.500 728.234, 243.500 1309 C 243.500 1889.479, 243.581 1917.145, 245.312 1931 C 257.158 2025.799, 296.416 2107.087, 362.131 2172.886 C 426.531 2237.369, 506.299 2276.450, 599.500 2289.178 L 616.500 2291.500 2250 2291.500 L 3883.500 2291.500 3900.500 2289.178 C 3993.362 2276.496, 4071.621 2238.353, 4136.362 2174.222 C 4202.973 2108.238, 4241.703 2028.816, 4254.724 1931.500 C 4256.357 1919.294, 4256.483 1881.836, 4256.781 1318.500 C 4257.007 890.720, 4256.783 714.195, 4256.003 703.500 C 4246 566.470, 4170.327 446.565, 4050.541 377.943 C 3997.572 347.598, 3936.874 329.843, 3873 326.008 C 3853.006 324.808, 642.974 324.883, 624 326.085 M 628.500 347.697 C 607.987 348.786, 578.914 353.247, 557.500 358.592 C 461.623 382.523, 377.576 443.282, 324.545 527 C 294.748 574.038, 276.262 624.936, 267.759 683.344 L 265.553 698.500 265.208 1299 C 264.950 1748.474, 265.156 1903.273, 266.025 1914.500 C 275.155 2032.429, 338.248 2139.777, 437 2205.404 C 487.545 2238.995, 538.221 2258.165, 600.500 2267.256 L 615.500 2269.445 1117.250 2269.733 L 1619 2270.021 1619 1308.511 L 1619 347 1126.750 347.189 C 856.012 347.293, 631.800 347.522, 628.500 347.697 M 1640 604 L 1640 861 2937.563 861 L 4235.127 861 4234.729 779.750 C 4234.354 703.152, 4234.208 697.630, 4232.177 683.299 C 4225.869 638.785, 4214.820 602.648, 4195.548 563.500 C 4175.054 521.872, 4151.126 488.839, 4118.390 456.983 C 4051.643 392.032, 3969.116 355.085, 3875 348.018 C 3865.996 347.342, 3491.609 347.004, 2750.750 347.002 L 1640 347 1640 604 M 2886.250 429.926 C 2876.762 446.340, 2869 460.272, 2869 460.885 C 2869 461.677, 2876.601 461.992, 2895.250 461.974 L 2921.500 461.948 2945.500 433.388 C 2958.700 417.680, 2970.325 403.742, 2971.333 402.414 L 2973.167 400 2938.333 400.040 L 2903.500 400.081 2886.250 429.926 M 3654.526 474.588 C 3596.385 483.622, 3560.079 518.816, 3559.709 566.500 C 3559.608 579.621, 3560.841 587.081, 3564.746 596.950 C 3572.516 616.592, 3586.349 630.907, 3610 643.780 C 3621.182 649.866, 3630.188 653.134, 3654.500 659.930 C 3697.845 672.046, 3703.066 674.261, 3707.712 682.500 C 3712.327 690.685, 3709.950 703.482, 3702.672 709.635 C 3694.726 716.352, 3681.193 718.391, 3671.884 714.273 C 3663.806 710.700, 3656.963 701.369, 3655.367 691.750 L 3654.744 688 3603.872 688 C 3575.892 688, 3553 688.166, 3553 688.370 C 3553 689.858, 3559.622 710.546, 3561.661 715.428 C 3567.605 729.662, 3584.858 749.858, 3599 759.138 C 3618.759 772.104, 3641.551 778.983, 3671.419 780.993 C 3718.023 784.130, 3760.445 772.637, 3785.008 750.219 C 3806.264 730.820, 3814.996 709.246, 3813.726 679.273 C 3812.030 639.292, 3789.745 613.316, 3744.500 598.582 C 3740.100 597.150, 3725.999 593.706, 3713.164 590.929 C 3680.498 583.864, 3671.857 580.958, 3664.099 574.430 C 3651.985 564.236, 3655.033 543.972, 3669.511 538.443 C 3676.213 535.883, 3686.509 536.748, 3691.914 540.324 C 3697.363 543.930, 3701.440 550.474, 3702.918 557.986 L 3704.101 564 3751.550 564 C 3791.446 564, 3799 563.778, 3799 562.607 C 3799 561.840, 3797.661 555.910, 3796.024 549.428 C 3785.338 507.117, 3755.921 481.267, 3710.838 474.573 C 3697.635 472.613, 3667.187 472.621, 3654.526 474.588 M 2870 627 L 2870 775 2916 775 L 2962 775 2962 627 L 2962 479 2916 479 L 2870 479 2870 627 M 2034 518 L 2034 556 2057 556 L 2080 556 2080 665.500 L 2080 775 2126 775 L 2172 775 2172 665.500 L 2172 556 2195 556 L 2218 556 2218 518 L 2218 480 2126 480 L 2034 480 2034 518 M 2555 480.554 C 2555 480.979, 2637.474 697.502, 2664.017 766.760 L 2667.183 775.020 2711.781 774.760 L 2756.378 774.500 2810.657 628 C 2840.510 547.425, 2864.949 481.163, 2864.967 480.750 C 2864.985 480.337, 2843.227 480, 2816.616 480 L 2768.232 480 2760.254 503.250 C 2755.866 516.038, 2743.371 552.712, 2732.487 584.750 C 2721.604 616.788, 2712.416 643, 2712.070 643 C 2711.724 643, 2698.360 606.438, 2682.371 561.750 L 2653.302 480.500 2604.151 480.241 C 2577.118 480.098, 2555 480.239, 2555 480.554 M 2993 627.500 L 2993 775 3039 775 L 3085 775 3085.001 718.250 L 3085.002 661.500 3122.751 718.222 L 3160.500 774.944 3213.250 774.972 C 3248.654 774.991, 3266 774.663, 3266 773.974 C 3266 773.410, 3247.121 746.472, 3224.046 714.112 C 3200.971 681.751, 3181.959 654.763, 3181.796 654.137 C 3181.632 653.508, 3185.150 651.723, 3189.667 650.143 C 3206.911 644.113, 3217.046 635.066, 3224.946 618.653 C 3230.902 606.278, 3232.746 598.972, 3233.976 582.876 C 3236.602 548.525, 3229.137 521.169, 3212.633 504.665 C 3200.442 492.474, 3181.946 484.725, 3157.334 481.499 C 3148.032 480.280, 3131.633 480, 3069.449 480 L 2993 480 2993 627.500 M 3263.232 589.250 L 3263.516 698.500 3265.774 706.500 C 3274.914 738.883, 3297.138 760.076, 3334.389 771.934 C 3369.145 782.997, 3427.340 783.307, 3464 772.623 C 3501.370 761.733, 3523.448 741.366, 3532.426 709.500 C 3537.098 692.913, 3537.220 689.996, 3537.710 582.250 L 3538.176 480 3492.149 480 L 3446.122 480 3445.733 572.750 C 3445.307 674.566, 3445.455 672.019, 3439.166 685.460 C 3435.113 694.121, 3430.913 698.447, 3422.652 702.472 C 3407.592 709.810, 3385.535 709.044, 3372.359 700.726 C 3366.850 697.249, 3361.196 690.648, 3358.135 684.120 L 3355.500 678.500 3355.227 579.250 L 3354.953 480 3308.951 480 L 3262.949 480 3263.232 589.250 M 3084 572.575 L 3084 603.150 3093.250 602.480 C 3124.869 600.191, 3135.251 592.172, 3135.165 570.106 C 3135.089 550.766, 3122.578 542, 3095.053 542 L 3084 542 3084 572.575 M 2323 665.500 L 2323 700 2388.500 700 L 2454 700 2454 665.500 L 2454 631 2388.500 631 L 2323 631 2323 665.500 M 719.667 732.667 C 719.300 733.033, 719 734.321, 719 735.527 C 719 737.150, 902.567 1182.089, 934.681 1258.305 C 942.591 1277.078, 928.214 1307.716, 1054.249 1003.500 C 1131.652 816.669, 1163.958 737.615, 1163.769 735.500 C 1163.570 733.279, 1162.931 732.419, 1161.308 732.188 C 1160.103 732.017, 1151.103 733.672, 1141.308 735.866 C 1074.558 750.822, 1015.407 759.477, 962.988 761.960 C 906.822 764.620, 828.901 755.433, 742.158 735.923 C 724.614 731.977, 720.895 731.439, 719.667 732.667 M 688.060 742.265 C 686.593 743.007, 680.271 751.875, 672.208 764.500 C 632.071 827.351, 592.201 879.475, 556.076 916.329 C 519.151 953.999, 462.179 998.114, 396.870 1039.608 C 385.842 1046.614, 376.145 1053.375, 375.321 1054.633 C 373.391 1057.579, 374.417 1062.581, 377.337 1064.460 C 381.641 1067.229, 906.598 1284.199, 910.272 1284.727 C 914.902 1285.393, 918 1283.034, 918 1278.844 C 918 1276.588, 706.257 762.985, 698.904 747.404 C 697.840 745.151, 695.831 742.788, 694.438 742.154 C 691.317 740.732, 691.081 740.736, 688.060 742.265 M 1187.552 743.250 C 1185.641 744.930, 1157.239 812.508, 1075.441 1010 C 1015.187 1155.475, 965.634 1275.732, 965.322 1277.238 C 964.964 1278.966, 965.385 1280.939, 966.462 1282.582 C 967.941 1284.840, 968.726 1285.135, 972.335 1284.790 C 974.895 1284.545, 1077.649 1242.465, 1239 1175.585 C 1383.375 1115.741, 1502.724 1066.148, 1504.220 1065.379 C 1509.620 1062.601, 1510.561 1056.799, 1506.250 1052.864 C 1504.737 1051.483, 1498.550 1047.259, 1492.500 1043.477 C 1437.005 1008.783, 1381.455 967.376, 1343.553 932.451 C 1304.590 896.548, 1257.560 837.118, 1213.811 768.500 C 1195.840 740.313, 1193.478 738.041, 1187.552 743.250 M 678.687 769.783 C 662.718 795.085, 644.015 822.172, 624.796 847.829 C 572.655 917.435, 532.404 955.943, 453 1012.185 C 438.411 1022.519, 399.088 1048.561, 389.750 1054.073 C 386.587 1055.940, 384 1057.741, 384 1058.075 C 384 1058.657, 908.222 1276.122, 908.619 1275.704 C 908.990 1275.312, 691.545 751, 691.025 751.033 C 690.736 751.051, 685.184 759.489, 678.687 769.783 M 1191.610 751.822 C 1190.169 754.153, 974.996 1274.471, 975.234 1275.048 C 975.380 1275.404, 1093.175 1226.941, 1237 1167.352 C 1380.825 1107.764, 1498.912 1058.870, 1499.417 1058.699 C 1499.921 1058.529, 1496.096 1055.741, 1490.917 1052.504 C 1440.449 1020.965, 1388.076 982.770, 1350.500 950.101 C 1304.482 910.093, 1253.491 846.948, 1202.978 767.417 C 1191.545 749.415, 1192.385 750.568, 1191.610 751.822 M 1640 1308.500 L 1640 1735 2937.500 1735 L 4235 1735 4235 1308.500 L 4235 882 2937.500 882 L 1640 882 1640 1308.500 M 2163.506 1054.332 C 2160.511 1057.458, 2158.182 1061.582, 2155.145 1069.140 C 2143.116 1099.069, 2128.101 1114.615, 2105.500 1120.544 C 2102.200 1121.409, 2093.200 1122.363, 2085.500 1122.664 C 2069.199 1123.300, 2062.364 1125.461, 2059.571 1130.862 C 2055.592 1138.557, 2058.680 1144.656, 2073.598 1158.570 C 2104.678 1187.557, 2112.958 1209.193, 2101.755 1232.153 C 2098.914 1237.975, 2098.652 1239.369, 2098.587 1249 C 2098.532 1257.177, 2098.900 1260.206, 2100.252 1262.689 C 2105.062 1271.523, 2113.139 1271.087, 2127.700 1261.207 C 2156.385 1241.743, 2182.826 1240.302, 2208.824 1256.785 C 2213.596 1259.811, 2219.653 1263.649, 2222.284 1265.314 C 2227.909 1268.873, 2236.575 1270.100, 2240.658 1267.915 C 2246.680 1264.693, 2248.034 1253.935, 2244.234 1239.500 C 2240.682 1226.002, 2239.621 1215.016, 2240.977 1205.746 C 2243.831 1186.225, 2252.542 1172.517, 2271.905 1157.076 C 2282.200 1148.866, 2286.042 1143.808, 2286.749 1137.534 C 2287.222 1133.335, 2286.989 1132.754, 2283.379 1129.146 C 2278.926 1124.697, 2273.142 1123.013, 2262.201 1122.980 C 2226.827 1122.876, 2204.159 1106.746, 2190.418 1071.903 C 2183.310 1053.879, 2180.083 1050, 2172.194 1050 C 2168.148 1050, 2167.208 1050.469, 2163.506 1054.332 M 3661.065 1054.750 C 3657.896 1058.046, 3655.615 1061.795, 3653.613 1067 C 3638.226 1106.987, 3617.093 1122.983, 3579.619 1123.006 C 3568.175 1123.013, 3563.503 1124.297, 3559.175 1128.625 C 3555.956 1131.844, 3555.782 1132.362, 3556.206 1137.473 C 3556.746 1143.978, 3559.692 1148.148, 3571 1158.413 C 3602.266 1186.794, 3610.470 1208.918, 3598.842 1233.496 C 3594.092 1243.537, 3595.052 1261.142, 3600.655 1266.746 C 3604.245 1270.335, 3611.910 1269.617, 3619.216 1265.006 C 3639.482 1252.215, 3646.433 1248.986, 3659.321 1246.375 C 3676.459 1242.902, 3692.364 1247.098, 3711.831 1260.226 C 3721.547 1266.779, 3726.561 1268.952, 3732.027 1268.978 C 3743.603 1269.034, 3746.606 1259.131, 3741.421 1238 C 3734.003 1207.765, 3739.043 1186.864, 3758.404 1167.567 C 3763.408 1162.580, 3770.118 1156.308, 3773.316 1153.630 C 3780.867 1147.305, 3784.106 1142.380, 3784.179 1137.113 C 3784.311 1127.579, 3777.880 1124.081, 3757.981 1122.862 C 3723.922 1120.776, 3706.118 1109.577, 3692.222 1081.500 C 3690.044 1077.100, 3687.699 1071.700, 3687.011 1069.500 C 3684.780 1062.370, 3679.673 1053.772, 3676.532 1051.857 C 3674.865 1050.840, 3671.730 1050.006, 3669.566 1050.004 C 3666.179 1050.001, 3664.998 1050.660, 3661.065 1054.750 M 365.667 1086.667 C 364.393 1087.941, 365.019 1092.699, 368.419 1107.557 C 379.592 1156.392, 388.591 1211.068, 393.180 1258 C 395.240 1279.064, 394.939 1343.119, 392.680 1364.500 C 387.650 1412.105, 379.496 1461.225, 368.869 1507.933 C 364.291 1528.055, 364.239 1530.356, 368.354 1530.826 C 371.878 1531.230, 900.915 1312.385, 901.764 1310.173 C 902.069 1309.378, 901.861 1308.002, 901.302 1307.114 C 900.161 1305.301, 371.675 1086.021, 368.417 1086.008 C 367.271 1086.004, 366.033 1086.300, 365.667 1086.667 M 1247.563 1195.860 C 1099.080 1257.389, 982.165 1306.376, 981.577 1307.309 C 980.772 1308.585, 980.990 1309.410, 982.514 1310.855 C 985.360 1313.552, 1511.072 1531, 1514.747 1531 C 1519.181 1531, 1519.267 1528.875, 1515.484 1512.735 C 1504.693 1466.703, 1494.968 1408.164, 1490.359 1361.500 C 1488.132 1338.956, 1487.830 1282.598, 1489.822 1261.500 C 1494.455 1212.452, 1504.994 1148.409, 1516.041 1102.171 C 1519.211 1088.903, 1518.969 1085.965, 1514.715 1086.038 C 1513.497 1086.058, 1393.278 1135.478, 1247.563 1195.860 M 2443 1168.432 L 2443 1239 2480.412 1239 C 2521.143 1239, 2528.184 1238.337, 2538.307 1233.548 C 2553.344 1226.434, 2561.025 1212.734, 2559.712 1195.369 C 2559.035 1186.425, 2555.811 1178.875, 2550.389 1173.539 C 2546.418 1169.631, 2537.171 1164.815, 2531.143 1163.517 L 2527.787 1162.794 2534.143 1160.647 C 2542.383 1157.864, 2546.987 1154.254, 2550.589 1147.754 C 2553.231 1142.986, 2553.500 1141.621, 2553.500 1133 C 2553.500 1124.663, 2553.164 1122.815, 2550.753 1117.907 C 2547.030 1110.327, 2541.915 1105.330, 2534.068 1101.612 L 2527.500 1098.500 2485.250 1098.182 L 2443 1097.864 2443 1168.432 M 2569 1168.500 L 2569 1239 2591 1239 L 2613 1239 2613 1211 L 2613 1183 2637.500 1183 L 2662 1183 2662 1211 L 2662 1239 2684 1239 L 2706 1239 2706 1168.500 L 2706 1098 2684 1098 L 2662 1098 2662 1122.500 L 2662 1147 2637.500 1147 L 2613 1147 2613 1122.500 L 2613 1098 2591 1098 L 2569 1098 2569 1168.500 M 2770 1168.500 L 2770 1239 2819.500 1239 L 2869 1239 2869 1222.500 L 2869 1206 2841.500 1206 L 2814 1206 2814 1195.500 L 2814 1185 2841 1185 L 2868 1185 2868 1168.500 L 2868 1152 2841 1152 L 2814 1152 2814 1141.500 L 2814 1131 2841.500 1131 L 2869 1131 2869 1114.500 L 2869 1098 2819.500 1098 L 2770 1098 2770 1168.500 M 2487 1138.515 L 2487 1154.279 2492.097 1153.675 C 2501.644 1152.544, 2506.997 1147.093, 2506.997 1138.500 C 2506.997 1129.792, 2501.476 1123.953, 2492.541 1123.212 L 2487 1122.752 2487 1138.515 M 3018 1136.560 C 3004.323 1139.508, 2990.741 1148.761, 2984.528 1159.363 C 2975.257 1175.182, 2974.698 1197.484, 2983.141 1214.636 C 2997.830 1244.472, 3044.436 1252.646, 3072.518 1230.311 C 3081.226 1223.385, 3088 1210.688, 3088 1201.290 L 3088 1199 3067.698 1199 L 3047.397 1199 3045.306 1203.949 C 3041.843 1212.145, 3034.257 1215.114, 3026.357 1211.365 C 3020.620 1208.643, 3019.627 1205.448, 3019.559 1189.500 C 3019.508 1177.308, 3019.753 1175.082, 3021.456 1172.266 C 3026.844 1163.358, 3041.575 1164.241, 3046 1173.738 L 3047.500 1176.957 3068.187 1176.978 L 3088.874 1177 3088.296 1173.250 C 3086.990 1164.784, 3083.807 1158.632, 3077.427 1152.247 C 3063.507 1138.316, 3039.390 1131.949, 3018 1136.560 M 3270.500 1136.399 C 3262.109 1139.053, 3255.794 1143.541, 3250.851 1150.364 L 3248 1154.300 3248 1146.650 L 3248 1139 3229.500 1139 L 3211 1139 3211 1209.500 L 3211 1280 3230 1280 L 3249 1280 3249 1251.856 L 3249 1223.712 3252.377 1228.135 C 3258.898 1236.676, 3267.997 1241, 3279.449 1241 C 3307.596 1241, 3324.561 1218.631, 3322.677 1184 C 3321.793 1167.760, 3317.768 1156.943, 3309.200 1147.783 C 3306.653 1145.060, 3302.647 1141.705, 3300.298 1140.329 C 3291.788 1135.341, 3279.124 1133.671, 3270.500 1136.399 M 2907.402 1137.417 C 2895.098 1140.233, 2885.768 1146.929, 2881.632 1155.911 C 2878.598 1162.502, 2878.634 1175.829, 2881.703 1181.595 C 2886.221 1190.083, 2895.352 1195.561, 2913.867 1200.888 C 2919.976 1202.645, 2925.212 1204.790, 2926.617 1206.110 C 2933.314 1212.401, 2924.017 1220.734, 2916.712 1214.988 C 2915.305 1213.881, 2913.858 1211.631, 2913.497 1209.988 L 2912.841 1207 2894.285 1207 L 2875.728 1207 2876.357 1211.591 C 2879.144 1231.918, 2898.344 1243.225, 2927.480 1241.696 C 2943.821 1240.839, 2954.915 1236.890, 2962.201 1229.336 C 2972.695 1218.457, 2973.863 1198.760, 2964.639 1188.236 C 2960.620 1183.650, 2953.036 1180.269, 2935.191 1175.108 C 2919.423 1170.547, 2916.285 1168.984, 2915.341 1165.223 C 2914.558 1162.103, 2915.916 1159.782, 2919.213 1158.606 C 2923.546 1157.061, 2927.002 1158.649, 2928.842 1163.032 L 2930.500 1166.980 2948.250 1166.990 C 2968.203 1167.001, 2966.893 1167.629, 2964.924 1159 C 2962.787 1149.633, 2955.283 1142.740, 2943.042 1138.899 C 2934.481 1136.213, 2916.016 1135.445, 2907.402 1137.417 M 3369 1137.567 C 3344.455 1142.882, 3329.035 1162.920, 3329.035 1189.500 C 3329.035 1224.123, 3352.636 1244.710, 3390 1242.677 C 3412.303 1241.463, 3426.666 1233.384, 3434.557 1217.614 L 3438.117 1210.500 3417.155 1210.230 L 3396.193 1209.961 3393.247 1212.907 C 3388.325 1217.829, 3379.125 1218.246, 3373.476 1213.802 C 3370.671 1211.596, 3367.061 1204.854, 3367.022 1201.750 C 3367.001 1200.114, 3369.420 1200, 3404 1200 L 3441 1200 3440.992 1192.750 C 3440.975 1175.810, 3436.270 1162.395, 3426.855 1152.440 C 3414.332 1139.199, 3390.159 1132.985, 3369 1137.567 M 3134 1137.583 C 3107.891 1142.264, 3099.074 1149.462, 3096.439 1168.250 L 3095.773 1173 3115.138 1173 L 3134.502 1173 3136.501 1168.866 C 3139.925 1161.785, 3148.440 1159.068, 3156.568 1162.464 C 3160.742 1164.208, 3163 1168.774, 3163 1175.468 L 3163 1180 3147.631 1180 C 3106.318 1180, 3088.499 1190.841, 3090.228 1214.925 C 3091.056 1226.455, 3097.232 1234.572, 3108.619 1239.094 C 3113.646 1241.090, 3116.242 1241.427, 3126.500 1241.410 C 3136.972 1241.393, 3139.510 1241.041, 3146.438 1238.639 C 3150.804 1237.126, 3156.316 1234.578, 3158.688 1232.978 L 3163 1230.068 3163 1234.534 L 3163 1239 3182.055 1239 L 3201.110 1239 3200.805 1201.250 C 3200.506 1164.269, 3200.453 1163.396, 3198.188 1158.393 C 3193.988 1149.114, 3185.098 1142.716, 3171.902 1139.476 C 3165.699 1137.953, 3139.294 1136.634, 3134 1137.583 M 3376.500 1164.356 C 3372.432 1166.239, 3369.152 1169.982, 3367.976 1174.083 C 3366.209 1180.246, 3365.558 1180, 3383.631 1180 L 3400.262 1180 3399.657 1176.273 C 3398.982 1172.117, 3396.695 1168.608, 3392.730 1165.648 C 3389.373 1163.142, 3380.627 1162.446, 3376.500 1164.356 M 3257.415 1169.366 C 3253.418 1171.178, 3250.288 1175.223, 3248.892 1180.381 C 3247.359 1186.045, 3248.277 1197.081, 3250.611 1201.056 C 3255.993 1210.222, 3272.554 1210.278, 3278.231 1201.149 C 3280.151 1198.061, 3280.500 1196.117, 3280.500 1188.500 C 3280.500 1178.600, 3278.976 1174.555, 3273.791 1170.690 C 3270.363 1168.135, 3261.680 1167.433, 3257.415 1169.366 M 2487 1196.003 L 2487 1214.269 2493.874 1213.777 C 2501.729 1213.215, 2507.447 1210.763, 2510.435 1206.677 C 2513.448 1202.557, 2513.423 1189.385, 2510.395 1185.323 C 2506.950 1180.701, 2502.521 1178.733, 2494.388 1178.211 L 2487 1177.737 2487 1196.003 M 3143.500 1201.655 C 3142.400 1201.888, 3140.519 1202.286, 3139.320 1202.540 C 3133.749 1203.722, 3132.219 1209.978, 3136.514 1214.013 C 3138.399 1215.784, 3140.487 1216.480, 3144.871 1216.797 C 3155.680 1217.579, 3163 1212.223, 3163 1203.532 C 3163 1201.007, 3162.977 1201, 3154.250 1201.116 C 3149.438 1201.180, 3144.600 1201.422, 3143.500 1201.655 M 644 1442.013 C 447.700 1523.356, 377.914 1552.693, 376.250 1554.571 C 371.501 1559.933, 373.775 1563.364, 387.893 1572.138 C 445.945 1608.218, 502.671 1650.629, 543.139 1688.209 C 579.495 1721.971, 629.674 1785.977, 670.762 1851 C 677.887 1862.275, 684.664 1872.513, 685.822 1873.750 C 688.369 1876.470, 692.926 1876.696, 695.923 1874.250 C 698.462 1872.179, 918 1342.998, 918 1338.950 C 918 1335.404, 916.050 1333.122, 912.500 1332.511 C 910.118 1332.101, 854.774 1354.672, 644 1442.013 M 967.455 1334.455 C 965.327 1336.582, 964.899 1337.745, 965.372 1340.111 C 966.587 1346.186, 1185.149 1872.510, 1187.180 1874.250 C 1188.303 1875.213, 1190.472 1876, 1192 1876 C 1196.191 1876, 1197.940 1873.957, 1209.542 1855.500 C 1239.070 1808.525, 1274.779 1759.793, 1305.533 1724.500 C 1345.451 1678.691, 1404.818 1630.282, 1480.500 1581.830 C 1493.150 1573.731, 1504.508 1566.389, 1505.741 1565.513 C 1510.328 1562.253, 1509.888 1555.028, 1504.945 1552.472 C 1499.355 1549.581, 975.532 1332.861, 972.816 1332.316 C 970.793 1331.909, 969.474 1332.435, 967.455 1334.455 M 2134.500 1335.890 C 2119.095 1343, 2119.537 1363.895, 2135.232 1370.452 C 2144.429 1374.295, 2154.723 1370.005, 2159.110 1360.500 C 2163.563 1350.852, 2158.990 1339.819, 2148.768 1335.548 C 2143.903 1333.515, 2139.413 1333.623, 2134.500 1335.890 M 3871.500 1335.890 C 3856.095 1343, 3856.537 1363.895, 3872.232 1370.452 C 3881.429 1374.295, 3891.723 1370.005, 3896.110 1360.500 C 3900.563 1350.852, 3895.990 1339.819, 3885.768 1335.548 C 3880.903 1333.515, 3876.413 1333.623, 3871.500 1335.890 M 2739.500 1335.715 C 2726.345 1337.534, 2713.081 1343.743, 2705.019 1351.856 C 2696.108 1360.825, 2692.204 1371.571, 2693.360 1383.950 C 2695.092 1402.504, 2709.668 1415.537, 2737.023 1422.993 C 2756.706 1428.358, 2760.746 1429.909, 2763.472 1433.149 C 2771.903 1443.168, 2756.889 1456.107, 2745.143 1448.946 C 2742.924 1447.593, 2741.076 1445.220, 2739.694 1441.949 L 2737.603 1437 2713.782 1437 L 2689.962 1437 2690.621 1439.750 C 2697.052 1466.563, 2720.336 1482.101, 2753.881 1481.965 C 2791.747 1481.812, 2816.769 1461.483, 2814.742 1432.520 C 2813.302 1411.936, 2799.861 1398.647, 2774.342 1392.576 C 2768.929 1391.289, 2761.369 1389.502, 2757.541 1388.606 C 2753.714 1387.709, 2748.639 1386.036, 2746.264 1384.886 C 2734.658 1379.267, 2737.619 1364, 2750.315 1364 C 2755.816 1364, 2762 1370.325, 2762 1375.950 C 2762 1377.956, 2762.485 1378, 2784.500 1378 C 2802.457 1378, 2807 1377.734, 2807 1376.682 C 2807 1373.832, 2803.655 1364.210, 2800.772 1358.763 C 2794.731 1347.352, 2782.910 1339.417, 2767.579 1336.484 C 2760.404 1335.111, 2746.599 1334.733, 2739.500 1335.715 M 1864 1388.790 C 1864 1443.472, 1864.160 1445.462, 1869.383 1455.769 C 1872.540 1461.999, 1881.166 1470.045, 1888.842 1473.920 C 1909.822 1484.511, 1949.843 1484.576, 1971.052 1474.053 C 1982.958 1468.146, 1989.189 1461.123, 1993.244 1449.042 C 1995.374 1442.696, 1995.450 1440.935, 1995.777 1390.250 L 1996.114 1338 1974.057 1338 L 1952 1338 1952 1382.684 C 1952 1432.893, 1951.626 1436.308, 1945.444 1442.489 C 1938.458 1449.475, 1922.750 1449.868, 1914.889 1443.253 C 1908.006 1437.461, 1908.046 1437.803, 1908.022 1385.250 L 1908 1338 1886 1338 L 1864 1338 1864 1388.790 M 2242 1363.078 L 2242 1388.156 2237.829 1384.586 C 2230.966 1378.711, 2224.220 1376.615, 2211.979 1376.553 C 2202.088 1376.503, 2201.065 1376.694, 2194.890 1379.734 C 2178.648 1387.729, 2168.965 1406.433, 2169.017 1429.708 C 2169.067 1452.110, 2178.777 1470.334, 2194.889 1478.266 C 2200.849 1481.201, 2202.292 1481.497, 2210.479 1481.464 C 2221.933 1481.418, 2228.779 1478.882, 2236.497 1471.829 L 2242 1466.799 2242 1472.900 L 2242 1479 2261 1479 L 2280 1479 2280 1408.500 L 2280 1338 2261 1338 L 2242 1338 2242 1363.078 M 2479 1363.078 L 2479 1388.156 2474.829 1384.586 C 2467.966 1378.711, 2461.220 1376.615, 2448.979 1376.553 C 2439.088 1376.503, 2438.065 1376.694, 2431.890 1379.734 C 2415.648 1387.729, 2405.965 1406.433, 2406.017 1429.708 C 2406.067 1452.110, 2415.777 1470.334, 2431.889 1478.266 C 2437.849 1481.201, 2439.292 1481.497, 2447.479 1481.464 C 2458.933 1481.418, 2465.779 1478.882, 2473.497 1471.829 L 2479 1466.799 2479 1472.900 L 2479 1479 2498 1479 L 2517 1479 2517 1408.500 L 2517 1338 2498 1338 L 2479 1338 2479 1363.078 M 3328.483 1346.250 C 3327.051 1350.787, 3316.906 1382.222, 3305.940 1416.105 C 3294.973 1449.988, 3286 1478, 3286 1478.355 C 3286 1478.710, 3296.095 1479, 3308.433 1479 C 3328.939 1479, 3330.908 1478.850, 3331.366 1477.250 C 3331.642 1476.287, 3333.267 1470.888, 3334.977 1465.250 L 3338.086 1455 3362.794 1455 L 3387.502 1455 3391 1467 L 3394.498 1479 3417.249 1479 C 3429.762 1479, 3440 1478.704, 3440 1478.342 C 3440 1477.981, 3430.722 1448.393, 3419.383 1412.592 C 3408.043 1376.792, 3398.126 1345.362, 3397.344 1342.750 L 3395.923 1338 3363.505 1338 L 3331.087 1338 3328.483 1346.250 M 3657.200 1353.250 C 3652.341 1360.537, 3648.031 1367.063, 3647.623 1367.750 C 3647.046 1368.723, 3649.670 1369, 3659.466 1369 L 3672.049 1369 3674.775 1364.377 C 3680.323 1354.965, 3680.081 1355.016, 3684.015 1362.423 L 3687.500 1368.983 3700.220 1368.992 L 3712.941 1369 3704.220 1354.540 L 3695.500 1340.080 3680.768 1340.040 L 3666.035 1340 3657.200 1353.250 M 977.976 1350.345 C 980.065 1355.380, 1028.373 1472, 1085.326 1609.500 C 1142.279 1747, 1189.619 1861.270, 1190.528 1863.433 L 1192.179 1867.365 1196.340 1860.576 C 1205.518 1845.597, 1232.413 1805.445, 1244.808 1788.217 C 1300.391 1710.960, 1340.628 1670.474, 1417.500 1614.453 C 1432.376 1603.613, 1480.354 1571.359, 1493.575 1563.312 C 1500.244 1559.252, 1500.377 1559.094, 1497.902 1558.153 C 1494.576 1556.888, 983.796 1345.373, 978.338 1343 L 974.176 1341.190 977.976 1350.345 M 670.500 1440.044 C 540.700 1493.868, 422.922 1542.697, 408.772 1548.554 L 383.044 1559.202 395.272 1566.914 C 428.266 1587.724, 449.386 1602.254, 480.500 1625.545 C 541.057 1670.878, 573.533 1702.733, 617.620 1760.045 C 637.995 1786.532, 670.007 1832.909, 687.394 1861.130 C 690.704 1866.502, 691.400 1867.155, 692.031 1865.476 C 693.501 1861.564, 908.187 1343.506, 908.647 1342.762 C 908.906 1342.343, 908.529 1342.041, 907.809 1342.091 C 907.089 1342.141, 800.300 1386.220, 670.500 1440.044 M 939.225 1349.250 C 937.472 1351.400, 719 1879.684, 719 1881.774 C 719 1886.459, 720.626 1886.391, 746.675 1880.624 C 797.409 1869.391, 841.633 1862.206, 890 1857.337 C 914.276 1854.893, 968.450 1854.878, 993 1857.307 C 1041.503 1862.107, 1101.728 1872.126, 1147.608 1883.026 C 1161.828 1886.404, 1164 1886.264, 1164 1881.968 C 1164 1879.213, 947.510 1354.964, 944.426 1350.250 C 942.787 1347.745, 940.769 1347.357, 939.225 1349.250 M 3062 1368.500 L 3062 1382 3056.500 1382 L 3051 1382 3051 1395.500 L 3051 1409 3056.500 1409 L 3062 1409 3062 1432.790 C 3062 1465.907, 3063.958 1472.345, 3075.660 1477.702 C 3082.414 1480.794, 3096.029 1481.794, 3108.095 1480.085 C 3121.277 1478.217, 3120 1480.052, 3120 1462.982 L 3120 1448.098 3115.750 1450.027 C 3109.519 1452.855, 3104.632 1452.619, 3102.073 1449.365 C 3100.142 1446.911, 3100 1445.436, 3100 1427.865 L 3100 1409 3110.500 1409 L 3121 1409 3121 1395.500 L 3121 1382 3110.500 1382 L 3100 1382 3100 1368.500 L 3100 1355 3081 1355 L 3062 1355 3062 1368.500 M 3563 1368.500 L 3563 1382 3557.500 1382 L 3552 1382 3552 1395.500 L 3552 1409 3557.500 1409 L 3563 1409 3563 1432.790 C 3563 1465.907, 3564.958 1472.345, 3576.660 1477.702 C 3583.414 1480.794, 3597.029 1481.794, 3609.095 1480.085 C 3622.277 1478.217, 3621 1480.052, 3621 1462.982 L 3621 1448.098 3616.750 1450.027 C 3610.519 1452.855, 3605.632 1452.619, 3603.073 1449.365 C 3601.142 1446.911, 3601 1445.436, 3601 1427.865 L 3601 1409 3611.500 1409 L 3622 1409 3622 1395.500 L 3622 1382 3611.500 1382 L 3601 1382 3601 1368.500 L 3601 1355 3582 1355 L 3563 1355 3563 1368.500 M 3354.684 1399.750 C 3350.420 1414.463, 3346.947 1426.838, 3346.966 1427.250 C 3346.985 1427.662, 3354.248 1428, 3363.107 1428 C 3375.565 1428, 3379.113 1427.717, 3378.767 1426.750 C 3378.521 1426.063, 3375.018 1413.688, 3370.982 1399.250 C 3366.947 1384.813, 3363.373 1373, 3363.041 1373 C 3362.708 1373, 3358.947 1385.037, 3354.684 1399.750 M 2068 1377.607 C 2061.839 1379.843, 2055.526 1384.555, 2050.887 1390.381 L 2047 1395.261 2047 1387.131 L 2047 1379 2028 1379 L 2009 1379 2009 1429 L 2009 1479 2028 1479 L 2047 1479 2047.022 1452.250 C 2047.042 1427.911, 2047.219 1425.114, 2048.990 1421.212 C 2053.054 1412.259, 2067.762 1411.278, 2072.055 1419.675 C 2073.189 1421.893, 2073.565 1428.568, 2073.807 1450.750 L 2074.114 1479 2093.110 1479 L 2112.106 1479 2111.803 1439.250 L 2111.500 1399.500 2108.562 1394.196 C 2102.645 1383.515, 2091.974 1376.941, 2079.555 1376.324 C 2074.759 1376.086, 2071.059 1376.497, 2068 1377.607 M 2565 1377.567 C 2540.455 1382.882, 2525.035 1402.920, 2525.035 1429.500 C 2525.035 1464.123, 2548.636 1484.710, 2586 1482.677 C 2608.303 1481.463, 2622.666 1473.384, 2630.557 1457.614 L 2634.117 1450.500 2613.155 1450.230 L 2592.193 1449.961 2589.247 1452.907 C 2584.325 1457.829, 2575.125 1458.246, 2569.476 1453.802 C 2566.671 1451.596, 2563.061 1444.854, 2563.022 1441.750 C 2563.001 1440.114, 2565.420 1440, 2600 1440 L 2637 1440 2636.992 1432.750 C 2636.975 1415.810, 2632.270 1402.395, 2622.855 1392.440 C 2610.332 1379.199, 2586.159 1372.985, 2565 1377.567 M 3002 1377.607 C 2995.839 1379.843, 2989.526 1384.555, 2984.887 1390.381 L 2981 1395.261 2981 1387.131 L 2981 1379 2962 1379 L 2943 1379 2943 1429 L 2943 1479 2962 1479 L 2981 1479 2981.022 1452.250 C 2981.042 1427.911, 2981.219 1425.114, 2982.990 1421.212 C 2987.054 1412.259, 3001.762 1411.278, 3006.055 1419.675 C 3007.189 1421.893, 3007.565 1428.568, 3007.807 1450.750 L 3008.114 1479 3027.110 1479 L 3046.106 1479 3045.803 1439.250 L 3045.500 1399.500 3042.562 1394.196 C 3036.645 1383.515, 3025.974 1376.941, 3013.555 1376.324 C 3008.759 1376.086, 3005.059 1376.497, 3002 1377.607 M 3168.500 1376.630 C 3145.797 1380.152, 3131.123 1393.763, 3126.499 1415.588 C 3121.137 1440.898, 3130.410 1464.511, 3149.737 1474.765 C 3160.073 1480.249, 3165.960 1481.481, 3181.500 1481.411 C 3193.747 1481.356, 3196.470 1481.027, 3203.244 1478.782 C 3225.709 1471.339, 3237.965 1453.590, 3237.965 1428.500 C 3237.965 1403.177, 3224.563 1384.815, 3201.500 1378.541 C 3195.584 1376.931, 3174.448 1375.707, 3168.500 1376.630 M 3502 1377.607 C 3495.839 1379.843, 3489.526 1384.555, 3484.887 1390.381 L 3481 1395.261 3481 1387.131 L 3481 1379 3462 1379 L 3443 1379 3443 1429 L 3443 1479 3462 1479 L 3481 1479 3481.022 1452.250 C 3481.042 1427.911, 3481.219 1425.114, 3482.990 1421.212 C 3487.054 1412.259, 3501.762 1411.278, 3506.055 1419.675 C 3507.189 1421.893, 3507.565 1428.568, 3507.807 1450.750 L 3508.114 1479 3527.110 1479 L 3546.106 1479 3545.803 1439.250 L 3545.500 1399.500 3542.562 1394.196 C 3536.645 1383.515, 3525.974 1376.941, 3513.555 1376.324 C 3508.759 1376.086, 3505.059 1376.497, 3502 1377.607 M 3668.500 1376.630 C 3645.797 1380.152, 3631.123 1393.763, 3626.499 1415.588 C 3621.137 1440.898, 3630.410 1464.511, 3649.737 1474.765 C 3660.073 1480.249, 3665.960 1481.481, 3681.500 1481.411 C 3693.747 1481.356, 3696.470 1481.027, 3703.244 1478.782 C 3725.709 1471.339, 3737.965 1453.590, 3737.965 1428.500 C 3737.965 1403.177, 3724.563 1384.815, 3701.500 1378.541 C 3695.584 1376.931, 3674.448 1375.707, 3668.500 1376.630 M 3806 1377.607 C 3799.839 1379.843, 3793.526 1384.555, 3788.887 1390.381 L 3785 1395.261 3785 1387.131 L 3785 1379 3766 1379 L 3747 1379 3747 1429 L 3747 1479 3766 1479 L 3785 1479 3785.022 1452.250 C 3785.042 1427.911, 3785.219 1425.114, 3786.990 1421.212 C 3791.054 1412.259, 3805.762 1411.278, 3810.055 1419.675 C 3811.189 1421.893, 3811.565 1428.568, 3811.807 1450.750 L 3812.114 1479 3831.110 1479 L 3850.106 1479 3849.803 1439.250 L 3849.500 1399.500 3846.562 1394.196 C 3840.645 1383.515, 3829.974 1376.941, 3817.555 1376.324 C 3812.759 1376.086, 3809.059 1376.497, 3806 1377.607 M 3950.500 1376.630 C 3927.797 1380.152, 3913.123 1393.763, 3908.499 1415.588 C 3903.137 1440.898, 3912.410 1464.511, 3931.737 1474.765 C 3942.073 1480.249, 3947.960 1481.481, 3963.500 1481.411 C 3975.747 1481.356, 3978.470 1481.027, 3985.244 1478.782 C 4007.709 1471.339, 4019.965 1453.590, 4019.965 1428.500 C 4019.965 1403.177, 4006.563 1384.815, 3983.500 1378.541 C 3977.584 1376.931, 3956.448 1375.707, 3950.500 1376.630 M 2330 1377.583 C 2303.891 1382.264, 2295.074 1389.462, 2292.439 1408.250 L 2291.773 1413 2311.138 1413 L 2330.502 1413 2332.501 1408.866 C 2335.925 1401.785, 2344.440 1399.068, 2352.568 1402.464 C 2356.742 1404.208, 2359 1408.774, 2359 1415.468 L 2359 1420 2343.631 1420 C 2302.318 1420, 2284.499 1430.841, 2286.228 1454.925 C 2287.056 1466.455, 2293.232 1474.572, 2304.619 1479.094 C 2309.646 1481.090, 2312.242 1481.427, 2322.500 1481.410 C 2332.972 1481.393, 2335.510 1481.041, 2342.438 1478.639 C 2346.804 1477.126, 2352.316 1474.578, 2354.688 1472.978 L 2359 1470.068 2359 1474.534 L 2359 1479 2378.055 1479 L 2397.110 1479 2396.805 1441.250 C 2396.506 1404.269, 2396.453 1403.396, 2394.188 1398.393 C 2389.988 1389.114, 2381.098 1382.716, 2367.902 1379.476 C 2361.699 1377.953, 2335.294 1376.634, 2330 1377.583 M 2864 1377.583 C 2837.891 1382.264, 2829.074 1389.462, 2826.439 1408.250 L 2825.773 1413 2845.138 1413 L 2864.502 1413 2866.501 1408.866 C 2869.925 1401.785, 2878.440 1399.068, 2886.568 1402.464 C 2890.742 1404.208, 2893 1408.774, 2893 1415.468 L 2893 1420 2877.631 1420 C 2836.318 1420, 2818.499 1430.841, 2820.228 1454.925 C 2821.056 1466.455, 2827.232 1474.572, 2838.619 1479.094 C 2843.646 1481.090, 2846.242 1481.427, 2856.500 1481.410 C 2866.972 1481.393, 2869.510 1481.041, 2876.438 1478.639 C 2880.804 1477.126, 2886.316 1474.578, 2888.688 1472.978 L 2893 1470.068 2893 1474.534 L 2893 1479 2912.055 1479 L 2931.110 1479 2930.805 1441.250 C 2930.506 1404.269, 2930.453 1403.396, 2928.188 1398.393 C 2923.988 1389.114, 2915.098 1382.716, 2901.902 1379.476 C 2895.699 1377.953, 2869.294 1376.634, 2864 1377.583 M 2123 1429 L 2123 1479 2142 1479 L 2161 1479 2161 1429 L 2161 1379 2142 1379 L 2123 1379 2123 1429 M 3860 1429 L 3860 1479 3879 1479 L 3898 1479 3898 1429 L 3898 1379 3879 1379 L 3860 1379 3860 1429 M 2572.500 1404.356 C 2568.432 1406.239, 2565.152 1409.982, 2563.976 1414.083 C 2562.209 1420.246, 2561.558 1420, 2579.631 1420 L 2596.262 1420 2595.657 1416.273 C 2594.982 1412.117, 2592.695 1408.608, 2588.730 1405.648 C 2585.373 1403.142, 2576.627 1402.446, 2572.500 1404.356 M 3174 1407.654 C 3167.852 1410.117, 3165.477 1417.732, 3166.202 1432.656 C 3166.774 1444.435, 3168.468 1448.462, 3173.787 1450.684 C 3178.590 1452.691, 3187.169 1452.005, 3190.791 1449.324 C 3195.593 1445.772, 3196.500 1442.621, 3196.500 1429.500 C 3196.500 1416.348, 3195.596 1413.231, 3190.739 1409.637 C 3187.953 1407.575, 3177.336 1406.317, 3174 1407.654 M 3674 1407.654 C 3667.852 1410.117, 3665.477 1417.732, 3666.202 1432.656 C 3666.774 1444.435, 3668.468 1448.462, 3673.787 1450.684 C 3678.590 1452.691, 3687.169 1452.005, 3690.791 1449.324 C 3695.593 1445.772, 3696.500 1442.621, 3696.500 1429.500 C 3696.500 1416.348, 3695.596 1413.231, 3690.739 1409.637 C 3687.953 1407.575, 3677.336 1406.317, 3674 1407.654 M 3956 1407.654 C 3949.852 1410.117, 3947.477 1417.732, 3948.202 1432.656 C 3948.774 1444.435, 3950.468 1448.462, 3955.787 1450.684 C 3960.590 1452.691, 3969.169 1452.005, 3972.791 1449.324 C 3977.593 1445.772, 3978.500 1442.621, 3978.500 1429.500 C 3978.500 1416.348, 3977.596 1413.231, 3972.739 1409.637 C 3969.953 1407.575, 3959.336 1406.317, 3956 1407.654 M 2219.034 1410.752 C 2213.362 1413.613, 2211.500 1417.999, 2211.500 1428.500 C 2211.500 1435.636, 2211.925 1438.309, 2213.550 1441.408 C 2218.692 1451.209, 2233.912 1451.557, 2239.466 1442 C 2242.257 1437.197, 2242.378 1420.233, 2239.657 1415.171 C 2236.499 1409.298, 2226.263 1407.105, 2219.034 1410.752 M 2456.034 1410.752 C 2450.362 1413.613, 2448.500 1417.999, 2448.500 1428.500 C 2448.500 1435.636, 2448.925 1438.309, 2450.550 1441.408 C 2455.692 1451.209, 2470.912 1451.557, 2476.466 1442 C 2479.257 1437.197, 2479.378 1420.233, 2476.657 1415.171 C 2473.499 1409.298, 2463.263 1407.105, 2456.034 1410.752 M 2339.500 1441.655 C 2338.400 1441.888, 2336.519 1442.286, 2335.320 1442.540 C 2329.749 1443.722, 2328.219 1449.978, 2332.514 1454.013 C 2334.399 1455.784, 2336.487 1456.480, 2340.871 1456.797 C 2351.680 1457.579, 2359 1452.223, 2359 1443.532 C 2359 1441.007, 2358.977 1441, 2350.250 1441.116 C 2345.438 1441.180, 2340.600 1441.422, 2339.500 1441.655 M 2873.500 1441.655 C 2872.400 1441.888, 2870.519 1442.286, 2869.320 1442.540 C 2863.749 1443.722, 2862.219 1449.978, 2866.514 1454.013 C 2868.399 1455.784, 2870.487 1456.480, 2874.871 1456.797 C 2885.680 1457.579, 2893 1452.223, 2893 1443.532 C 2893 1441.007, 2892.977 1441, 2884.250 1441.116 C 2879.438 1441.180, 2874.600 1441.422, 2873.500 1441.655 M 1640 2013.005 L 1640 2270.010 2762.250 2269.733 L 3884.500 2269.457 3899.500 2267.262 C 3943.603 2260.807, 3981.348 2249.360, 4018.500 2231.173 C 4121.136 2180.929, 4196.762 2087.253, 4223.976 1976.656 C 4233.931 1936.195, 4235 1922.011, 4235 1830.339 L 4235 1756 2937.500 1756 L 1640 1756 1640 2013.005 M 1886.259 1897.750 C 1886.576 1960.103, 1886.774 1967.058, 1888.388 1972.500 C 1894.897 1994.454, 1907.772 2006.618, 1931.500 2013.231 C 1939.376 2015.426, 1940.459 2015.461, 2001.500 2015.480 C 2062.327 2015.500, 2063.665 2015.458, 2072.216 2013.277 C 2091.340 2008.399, 2103.946 1999.081, 2110.984 1984.621 C 2117.917 1970.375, 2118 1969.314, 2118 1895.042 L 2118 1829 2089.537 1829 L 2061.074 1829 2060.787 1888.750 L 2060.500 1948.500 2057.871 1954.107 C 2054.631 1961.017, 2050.294 1964.454, 2042.199 1966.528 C 2036.980 1967.864, 2030.252 1968.065, 1999.255 1967.806 L 1962.500 1967.500 1956.909 1964.878 C 1950.959 1962.088, 1948.005 1958.778, 1945.250 1951.816 C 1943.722 1947.953, 1943.509 1941.282, 1943.220 1888.250 L 1942.898 1829 1914.404 1829 L 1885.910 1829 1886.259 1897.750 M 2155 1921.500 L 2155 2014 2182.993 2014 L 2210.986 2014 2211.243 1948.788 L 2211.500 1883.576 2247.992 1948.806 L 2284.483 2014.037 2306.315 2013.768 L 2328.146 2013.500 2364.323 1948.862 L 2400.500 1884.224 2400.757 1949.112 L 2401.014 2014 2429.007 2014 L 2457 2014 2457 1921.500 L 2457 1829 2413.250 1829.024 L 2369.500 1829.047 2338.084 1887.524 C 2320.805 1919.686, 2306.405 1945.985, 2306.084 1945.966 C 2305.763 1945.948, 2291.384 1919.623, 2274.132 1887.466 L 2242.764 1829 2198.882 1829 L 2155 1829 2155 1921.500 M 2494 1921.443 L 2494 2014.064 2594.250 2013.782 L 2694.500 2013.500 2702.199 2010.872 C 2722.126 2004.072, 2730.058 1991.044, 2730.130 1965 C 2730.181 1946.177, 2727.113 1936.790, 2718.401 1929.122 C 2714.048 1925.290, 2704.016 1921.047, 2699.145 1920.976 C 2698.240 1920.963, 2700.096 1919.885, 2703.270 1918.580 C 2718.959 1912.128, 2723.533 1903.019, 2723.395 1878.500 C 2723.330 1866.902, 2722.956 1863.516, 2721.218 1858.767 C 2715.551 1843.285, 2704.915 1835.593, 2683.231 1831.294 C 2676.746 1830.008, 2660.872 1829.686, 2584.750 1829.291 L 2494 1828.821 2494 1921.443 M 2764 1921.435 L 2764 2014 2792.500 2014 L 2821 2014 2821 1990.500 L 2821 1967 2869.288 1967 C 2917.383 1967, 2917.594 1967.009, 2922.015 1969.250 C 2924.457 1970.487, 2927.256 1972.899, 2928.237 1974.609 C 2930.503 1978.561, 2931.930 1989.510, 2931.969 2003.250 L 2932 2014 2960.607 2014 L 2989.214 2014 2988.754 1991.250 C 2988.378 1972.679, 2987.963 1967.582, 2986.491 1963.500 C 2982.613 1952.740, 2976.458 1946.806, 2965.476 1943.240 L 2959.766 1941.387 2964.133 1940.107 C 2974.255 1937.140, 2983.471 1928.936, 2986.427 1920.261 C 2990.174 1909.264, 2990.995 1879.447, 2987.949 1865 C 2985.134 1851.649, 2977.329 1840.934, 2966.587 1835.674 C 2954.161 1829.589, 2956.139 1829.704, 2855.750 1829.268 L 2764 1828.869 2764 1921.435 M 3027 1921.500 L 3027 2014 3129.500 2014 L 3232 2014 3232 1991.500 L 3232 1969 3158 1969 L 3084 1969 3084 1955 L 3084 1941 3152.500 1941 L 3221 1941 3221 1921.500 L 3221 1902 3152.500 1902 L 3084 1902 3084 1887.500 L 3084 1873 3156.500 1873 L 3229 1873 3229 1851 L 3229 1829 3128 1829 L 3027 1829 3027 1921.500 M 3265 1921.500 L 3265 2014 3357 2014 L 3449 2014 3449 1990 L 3449 1966 3385.500 1966 L 3322 1966 3322 1897.500 L 3322 1829 3293.500 1829 L 3265 1829 3265 1921.500 M 3472 1921.500 L 3472 2014 3564 2014 L 3656 2014 3656 1990 L 3656 1966 3592.500 1966 L 3529 1966 3529 1897.500 L 3529 1829 3500.500 1829 L 3472 1829 3472 1921.500 M 3715.750 1920.920 C 3688.387 1971.470, 3666 2013.093, 3666 2013.415 C 3666 2013.737, 3680.397 2014, 3697.994 2014 L 3729.988 2014 3738 1998 L 3746.012 1982 3802.801 1982 L 3859.589 1982 3868.054 1997.750 L 3876.518 2013.500 3908.800 2013.764 L 3941.083 2014.028 3937.292 2007.160 C 3935.206 2003.383, 3912.350 1961.766, 3886.500 1914.678 L 3839.500 1829.064 3802.500 1829.036 L 3765.500 1829.009 3715.750 1920.920 M 3785.227 1907.258 L 3768.130 1940.500 3802.218 1940.763 C 3820.967 1940.908, 3836.513 1940.820, 3836.765 1940.568 C 3837.017 1940.316, 3829.371 1925.239, 3819.773 1907.063 L 3802.323 1874.017 3785.227 1907.258 M 2551 1888.500 L 2551 1902 2603.532 1902 C 2660.505 1902, 2661.018 1901.954, 2664.565 1896.541 C 2665.657 1894.874, 2666.286 1891.938, 2666.286 1888.500 C 2666.286 1885.062, 2665.657 1882.126, 2664.565 1880.459 C 2661.018 1875.046, 2660.505 1875, 2603.532 1875 L 2551 1875 2551 1888.500 M 2821 1897.984 L 2821 1920.070 2871.250 1919.785 C 2920.053 1919.508, 2921.615 1919.440, 2925.500 1917.402 C 2931.982 1914.003, 2933.500 1910.322, 2933.500 1898 C 2933.500 1885.090, 2932.113 1881.867, 2925.179 1878.662 C 2920.612 1876.552, 2919.310 1876.493, 2870.750 1876.198 L 2821 1875.897 2821 1897.984 M 2551 1954.977 L 2551 1969.064 2606.750 1968.782 C 2659.674 1968.514, 2662.661 1968.403, 2665.672 1966.581 C 2674.030 1961.523, 2673.420 1948.412, 2664.607 1943.697 C 2660.542 1941.523, 2659.938 1941.497, 2605.750 1941.195 L 2551 1940.890 2551 1954.977 M 3737 2055.986 C 3720.372 2058.096, 3711.628 2064.842, 3708.979 2077.603 C 3708.287 2080.933, 3707.989 2092.071, 3708.185 2107.220 L 3708.500 2131.500 3711.325 2137.254 C 3714.645 2144.015, 3719.666 2147.922, 3728.559 2150.666 C 3733.895 2152.313, 3738.522 2152.500, 3774 2152.500 C 3812.443 2152.500, 3813.696 2152.438, 3820.829 2150.197 C 3826.515 2148.411, 3829.138 2146.914, 3832.529 2143.524 C 3839.571 2136.482, 3840.180 2132.991, 3839.811 2101.785 L 3839.500 2075.500 3836.500 2070.006 C 3833.131 2063.836, 3826.331 2059.002, 3818.141 2056.956 C 3812.523 2055.552, 3746.624 2054.764, 3737 2055.986 M 2565.402 2056.997 C 2552.717 2058.857, 2545.477 2063.292, 2541.325 2071.746 L 2538.500 2077.500 2538.500 2105 C 2538.500 2130.856, 2538.626 2132.769, 2540.603 2137 C 2544.204 2144.704, 2549.515 2148.856, 2559.500 2151.771 C 2566.141 2153.710, 2624.407 2154.715, 2637.471 2153.116 C 2648.849 2151.724, 2656.059 2148.378, 2659.771 2142.770 C 2662.109 2139.237, 2662.489 2137.514, 2662.836 2128.868 L 2663.233 2119 2650.244 2119 L 2637.256 2119 2636.647 2122.808 C 2635.237 2131.622, 2628.510 2133.354, 2597.687 2132.838 C 2573.884 2132.439, 2571.077 2131.628, 2567.250 2124.038 C 2565.231 2120.035, 2565.002 2118.133, 2565.022 2105.538 C 2565.064 2078.806, 2568.336 2076.558, 2606.318 2077.173 C 2623.745 2077.455, 2628.042 2077.811, 2630.555 2079.183 C 2633.527 2080.804, 2636 2084.603, 2636 2087.547 C 2636 2088.744, 2638.316 2089, 2649.143 2089 L 2662.286 2089 2661.749 2081.168 C 2660.617 2064.647, 2654.465 2059.391, 2633.500 2057.030 C 2623.309 2055.882, 2573.170 2055.858, 2565.402 2056.997 M 2708.094 2057.163 C 2699.088 2058.450, 2692.585 2061.528, 2688.095 2066.629 C 2682.087 2073.454, 2681.500 2076.961, 2681.500 2106 C 2681.500 2130.497, 2681.590 2131.697, 2683.801 2136.500 C 2690.947 2152.025, 2701.375 2154.553, 2754.914 2153.741 C 2780.103 2153.359, 2787.715 2152.926, 2792.500 2151.606 C 2802.650 2148.805, 2809.406 2142.779, 2812.107 2134.118 C 2813.750 2128.853, 2814.463 2090.994, 2813.088 2082.127 C 2810.620 2066.223, 2803.261 2059.497, 2785.678 2057.077 C 2776.307 2055.787, 2717.261 2055.852, 2708.094 2057.163 M 3138 2057.024 C 3125.423 2058.999, 3118.549 2063.131, 3114.235 2071.312 L 3111.500 2076.500 3111.500 2104.569 L 3111.500 2132.639 3114.529 2138.569 C 3118.064 2145.493, 3124.539 2150.055, 3133.883 2152.207 C 3142.141 2154.108, 3211.124 2154.027, 3219.786 2152.106 C 3229.655 2149.917, 3235.853 2145.655, 3239.471 2138.571 L 3242.500 2132.641 3242.500 2105.071 L 3242.500 2077.500 3239.871 2071.893 C 3236.712 2065.156, 3232.327 2061.565, 3223.781 2058.715 C 3217.917 2056.760, 3215.040 2056.606, 3180.500 2056.391 C 3160.150 2056.265, 3141.025 2056.550, 3138 2057.024 M 2834 2104.941 L 2834 2153 2847 2153 L 2860 2153 2860 2140 L 2860 2127 2888.050 2127 C 2910.699 2127, 2916.643 2127.281, 2918.926 2128.462 C 2922.900 2130.517, 2925 2136.414, 2925 2145.520 L 2925 2153 2938.103 2153 L 2951.206 2153 2950.842 2140.750 C 2950.547 2130.779, 2950.113 2127.891, 2948.511 2125.229 C 2946.460 2121.819, 2939.948 2118, 2936.184 2118 C 2934.697 2118, 2934 2117.387, 2934 2116.080 C 2934 2114.673, 2935.293 2113.731, 2938.841 2112.553 C 2948.883 2109.217, 2951.002 2104.899, 2950.994 2087.782 C 2950.988 2073.603, 2950.039 2069.253, 2945.933 2064.576 C 2939.700 2057.478, 2940.283 2057.548, 2884.250 2057.197 L 2834 2056.882 2834 2104.941 M 2977 2105 L 2977 2153 2990 2153 L 3003 2153 3003 2140 L 3003 2127 3038.032 2127 C 3067.441 2127, 3073.661 2126.751, 3076.782 2125.447 C 3088.108 2120.716, 3092.821 2108.892, 3091.718 2087.979 C 3090.886 2072.195, 3087.890 2066.010, 3078.862 2061.432 C 3071.229 2057.561, 3063.879 2057.016, 3019.250 2057.008 L 2977 2057 2977 2105 M 3265 2104.948 L 3265 2153 3278 2153 L 3291 2153 3291 2140 L 3291 2127 3319.423 2127 L 3347.847 2127 3350.894 2129.564 C 3354.578 2132.664, 3355.987 2137.275, 3355.994 2146.250 L 3356 2153 3369 2153 L 3382 2153 3382 2143.443 C 3382 2138.186, 3381.496 2131.886, 3380.881 2129.442 C 3379.476 2123.861, 3374.711 2119.465, 3369.024 2118.504 C 3365.596 2117.925, 3364.939 2117.454, 3365.193 2115.757 C 3365.411 2114.307, 3366.770 2113.337, 3369.857 2112.429 C 3379.577 2109.571, 3382 2104.638, 3382 2087.710 C 3382 2073.134, 3380.508 2067.531, 3375.444 2063.085 C 3369.328 2057.715, 3368.480 2057.633, 3314.750 2057.251 L 3265 2056.897 3265 2104.948 M 3439.651 2078.250 C 3433.323 2089.938, 3421.812 2111.200, 3414.073 2125.500 C 3406.333 2139.800, 3400 2151.838, 3400 2152.250 C 3400 2152.662, 3406.432 2153, 3414.294 2153 L 3428.589 2153 3433 2144 L 3437.411 2135 3469.956 2135.020 L 3502.500 2135.040 3507.094 2143.770 L 3511.688 2152.500 3525.923 2152.778 C 3538.170 2153.017, 3540.112 2152.846, 3539.829 2151.551 C 3539.648 2150.723, 3528.025 2129.124, 3514 2103.553 L 3488.500 2057.061 3469.829 2057.030 L 3451.157 2057 3439.651 2078.250 M 3525 2067 L 3525 2077 3546.500 2077 L 3568 2077 3568 2115 L 3568 2153 3581 2153 L 3594 2153 3594 2115 L 3594 2077 3615.500 2077 L 3637 2077 3637 2067 L 3637 2057 3581 2057 L 3525 2057 3525 2067 M 3657 2105 L 3657 2153 3670 2153 L 3683 2153 3683 2105 L 3683 2057 3670 2057 L 3657 2057 3657 2105 M 3863 2105 L 3863 2153 3876 2153 L 3889 2153 3889 2116.430 L 3889 2079.861 3891.175 2080.180 C 3892.674 2080.401, 3902.237 2091.755, 3921.925 2116.690 L 3950.500 2152.881 3972.750 2152.940 L 3995 2153 3995 2105 L 3995 2057 3982 2057 L 3969 2057 3969 2093.500 C 3969 2128.220, 3968.911 2130, 3967.168 2130 C 3965.953 2130, 3955.593 2117.700, 3936.425 2093.500 L 3907.514 2057 3885.257 2057 L 3863 2057 3863 2105 M 3458.208 2095.675 C 3452.094 2107.637, 3447.229 2117.562, 3447.398 2117.731 C 3447.567 2117.900, 3457.882 2117.917, 3470.321 2117.769 L 3492.937 2117.500 3481.852 2096.500 C 3475.755 2084.950, 3470.443 2075.146, 3470.046 2074.713 C 3469.650 2074.280, 3464.323 2083.713, 3458.208 2095.675 M 3749.905 2076.932 C 3744.031 2078.080, 3739.680 2081.194, 3737.205 2086.023 C 3735.063 2090.199, 3734.929 2091.507, 3735.205 2105.500 C 3735.534 2122.208, 3736.317 2124.956, 3741.800 2128.647 C 3746.375 2131.726, 3752.055 2132.220, 3778.505 2131.835 C 3803.655 2131.469, 3805.661 2131.028, 3810.257 2124.863 C 3814.864 2118.681, 3814.909 2090.373, 3810.321 2084.229 C 3807.209 2080.060, 3803.877 2078.090, 3798.114 2077.009 C 3792.132 2075.888, 3755.548 2075.830, 3749.905 2076.932 M 2722.340 2077.919 C 2716.976 2079.263, 2712.788 2082.323, 2710.598 2086.500 C 2708.738 2090.045, 2708.500 2092.206, 2708.500 2105.500 C 2708.500 2123.045, 2709.731 2126.850, 2716.565 2130.435 C 2720.248 2132.368, 2722.167 2132.500, 2746.500 2132.500 C 2760.800 2132.500, 2773.729 2132.156, 2775.232 2131.736 C 2776.734 2131.315, 2779.519 2129.605, 2781.421 2127.935 C 2786.004 2123.911, 2787.366 2117.363, 2786.818 2101.986 C 2786.317 2087.941, 2784.644 2083.809, 2777.916 2080 C 2773.575 2077.543, 2773.091 2077.497, 2749.500 2077.314 C 2736.300 2077.211, 2724.078 2077.484, 2722.340 2077.919 M 2860 2091.409 L 2860 2106 2889.600 2106 L 2919.200 2106 2922.600 2102.600 C 2925.775 2099.425, 2926 2098.766, 2926 2092.647 C 2926 2084.780, 2924.861 2081.955, 2920.665 2079.415 C 2917.781 2077.670, 2914.951 2077.470, 2888.750 2077.159 L 2860 2076.818 2860 2091.409 M 3003 2091.914 L 3003 2107 3029.550 2107 C 3059.231 2107, 3060.990 2106.662, 3063.579 2100.466 C 3065.475 2095.927, 3065.378 2088.599, 3063.365 2084.357 C 3060.311 2077.920, 3058.578 2077.555, 3029.250 2077.172 L 3003 2076.828 3003 2091.914 M 3149.854 2078.570 C 3144.342 2080.266, 3139.390 2085.403, 3138.454 2090.395 C 3138.099 2092.285, 3137.964 2100.363, 3138.154 2108.345 C 3138.546 2124.789, 3139.316 2126.816, 3146.565 2130.500 C 3150.206 2132.351, 3152.478 2132.500, 3177 2132.500 C 3201.522 2132.500, 3203.794 2132.351, 3207.435 2130.500 C 3214.581 2126.869, 3215.453 2124.676, 3215.850 2109.340 C 3216.300 2091.964, 3215.658 2087.819, 3211.838 2083.469 C 3206.908 2077.853, 3202.145 2076.989, 3176.568 2077.070 C 3160.430 2077.121, 3153.251 2077.524, 3149.854 2078.570 M 3291 2091.500 L 3291 2106 3320.484 2106 L 3349.968 2106 3353.210 2103.104 C 3356.224 2100.410, 3356.477 2099.686, 3356.828 2092.735 C 3357.187 2085.631, 3357.060 2085.099, 3354.267 2081.972 C 3350.376 2077.618, 3346.814 2077.165, 3315.750 2077.073 L 3291 2077 3291 2091.500" stroke="none" fill="#ffffff" fill-rule="evenodd"/>
</svg>