<svg xmlns="http://www.w3.org/2000/svg" width="4500" height="2096" viewBox="0 0 4500 2096" version="1.1">
	<path d="M 918.500 272.047 C 752.584 277.353, 595.211 339.716, 467.758 450.666 C 451.985 464.397, 415.397 500.985, 401.666 516.758 C 303.485 629.543, 242.982 766.325, 227.056 911.500 C 222.394 954.006, 222.500 945.677, 222.500 1268.500 C 222.500 1561.413, 222.579 1574.949, 224.344 1585 C 234.715 1644.049, 277.195 1688.151, 336.312 1701.244 L 346.500 1703.500 2270 1703.500 C 4149.058 1703.500, 4193.708 1703.457, 4202.500 1701.619 C 4232.046 1695.444, 4255.051 1683.073, 4276.062 1662.062 C 4296.748 1641.377, 4308.404 1620.144, 4315.346 1590.500 L 4317.454 1581.500 4317.788 1279.500 C 4318.126 973.131, 4317.964 955.804, 4314.447 921 C 4302.409 801.866, 4262.482 690.523, 4196.412 591.845 C 4078.022 415.023, 3887.603 299.153, 3677.500 276.085 C 3667.050 274.938, 3652.425 273.466, 3645 272.814 C 3629.664 271.468, 960.087 270.717, 918.500 272.047 M 920 293.691 C 914.775 293.843, 901.275 294.672, 890 295.535 C 722.735 308.329, 568.654 379.323, 449.500 498.498 C 333.607 614.411, 263.537 762.569, 247.549 925.507 C 244.130 960.357, 243.884 986.748, 244.219 1283.500 L 244.550 1576.500 246.675 1585.500 C 252.307 1609.357, 261.980 1627.585, 277.879 1644.307 C 296.456 1663.845, 322.389 1677.305, 348.434 1680.928 C 353.900 1681.688, 913.658 1682, 2270.896 1682 C 4028.787 1682, 4186.418 1681.868, 4195.047 1680.385 C 4246.329 1671.576, 4286.003 1631.665, 4294.463 1580.376 C 4295.950 1571.366, 4296.062 1543.222, 4295.743 1259.500 C 4295.367 924.317, 4295.659 943.972, 4290.454 903.500 C 4280.174 823.561, 4255.344 743.609, 4218.987 673.370 C 4135.671 512.412, 3992.724 388.771, 3823 330.861 C 3759.330 309.138, 3695.507 297.210, 3626 294.045 C 3606.309 293.148, 950.647 292.801, 920 293.691 M 963 362.069 C 786.751 368.018, 620.286 443.269, 498.406 572.092 C 389.786 686.900, 325.826 834.463, 315.970 993 C 315.221 1005.049, 314.981 1087.129, 315.199 1256.500 L 315.517 1502.500 318.254 1512.797 C 325.196 1538.907, 337.206 1559.453, 355.960 1577.299 C 374.042 1594.507, 394.393 1605.258, 421 1611.661 C 428.213 1613.396, 498.723 1613.477, 2265 1613.755 C 3935.666 1614.018, 4102.487 1613.901, 4112.427 1612.462 C 4172.477 1603.765, 4218.027 1556.288, 4225.016 1495.110 C 4226.598 1481.266, 4225.803 1000.240, 4224.171 983.500 C 4218.957 930.025, 4211.945 890.658, 4200.482 850.500 C 4129.265 601.008, 3921.798 414.568, 3667 371.087 C 3649.952 368.178, 3626.875 365.316, 3600.500 362.840 C 3590.356 361.888, 3301.642 361.586, 2286.500 361.465 C 1570.950 361.379, 975.375 361.651, 963 362.069 M 1370 987.500 L 1370 1592 2270 1592 L 3170 1592 3170 987.500 L 3170 383 2270 383 L 1370 383 1370 987.500 M 3292.077 488.266 C 3290.542 492.917, 3290.543 527.390, 3292.079 540.500 C 3293.724 554.553, 3299.849 580.680, 3307.667 607 C 3325.819 668.108, 3337.715 703.190, 3353.444 742 C 3409.871 881.227, 3503.906 1029.034, 3614.915 1152.987 C 3633.049 1173.235, 3670.797 1213.565, 3678.131 1220.525 C 3696.051 1237.534, 3704.202 1235.260, 3731.997 1205.500 C 3748.250 1188.098, 3758.547 1177.837, 3763.266 1174.339 L 3768.033 1170.806 3782.766 1181.370 C 3800.763 1194.274, 3821.263 1210.600, 3840.799 1227.587 C 3859.846 1244.148, 3911.014 1295.343, 3932.166 1319 C 3957.493 1347.327, 3959.830 1350.132, 3988.006 1386 C 4002.479 1404.425, 4019.725 1426.025, 4026.329 1434 C 4040.526 1451.143, 4066.621 1477.533, 4073.012 1481.210 C 4075.494 1482.637, 4082.175 1485.424, 4087.859 1487.403 C 4096.667 1490.469, 4099.472 1490.998, 4106.847 1490.985 C 4137.280 1490.933, 4162.445 1471.158, 4171.149 1440.455 C 4174.346 1429.174, 4174.344 1413.418, 4171.142 1403 C 4166.017 1386.326, 4170.473 1391.251, 4062.132 1282.500 C 4007.339 1227.500, 3939.129 1159.008, 3910.554 1130.296 L 3858.599 1078.092 3861.012 1073.296 C 3863.917 1067.523, 3863.973 1062.800, 3861.200 1057.473 C 3859.922 1055.017, 3810.205 1004.623, 3731.001 925.500 C 3575.888 770.545, 3324.478 517.673, 3306.410 498.438 L 3293.319 484.502 3292.077 488.266 M 1302.928 488.340 C 1299.864 489.600, 1292.531 493.400, 1286.634 496.784 C 1278.635 501.374, 1275.777 502.583, 1275.379 501.546 C 1275.086 500.782, 1275.331 499.251, 1275.923 498.144 C 1277.573 495.061, 1277.229 493.138, 1274.545 490.455 C 1272.998 488.907, 1270.948 488, 1269 488 C 1265.460 488, 1261 491.816, 1261 494.844 C 1261 498.088, 1264.347 501.209, 1268.562 501.894 C 1270.728 502.246, 1272.500 503.094, 1272.500 503.779 C 1272.500 504.463, 1268.675 507.227, 1264 509.920 C 1257.003 513.952, 1255.262 514.589, 1254.152 513.525 C 1253.097 512.514, 1253.056 511.763, 1253.964 510.067 C 1257.007 504.380, 1251.931 497.870, 1245.820 499.623 C 1239.117 501.545, 1238.087 509.872, 1244.232 512.456 C 1245.972 513.187, 1247.947 513.574, 1248.621 513.315 C 1249.295 513.057, 1250.324 513.736, 1250.907 514.826 C 1251.864 516.615, 1251.032 517.352, 1242.332 522.419 C 1237.033 525.505, 1232.638 527.911, 1232.566 527.765 C 1232.493 527.619, 1231.856 526.743, 1231.150 525.817 C 1230.089 524.426, 1230.152 523.698, 1231.513 521.620 C 1234.876 516.488, 1228.497 509.885, 1222.272 512.055 C 1218.638 513.322, 1216.518 516.944, 1217.387 520.405 C 1218.056 523.071, 1222.483 526, 1225.843 526 C 1227.758 526, 1229.449 528.465, 1228.541 529.933 C 1228.285 530.347, 1224.379 532.834, 1219.860 535.460 C 1212.141 539.945, 1211.564 540.124, 1210.322 538.426 C 1208.748 536.273, 1208.623 534.351, 1210 533.500 C 1211.832 532.368, 1211.031 527.940, 1208.545 525.455 C 1203.366 520.275, 1195.180 524.344, 1195.882 531.750 C 1196.108 534.136, 1200.003 537, 1203.021 537 C 1205.275 537, 1206.333 537.636, 1207.184 539.504 C 1207.811 540.882, 1208.139 542.151, 1207.912 542.326 C 1206.654 543.296, 1191.236 552, 1190.777 552 C 1190.476 552, 1189.510 550.900, 1188.629 549.557 C 1187.156 547.308, 1187.162 546.879, 1188.711 544.181 C 1190.293 541.424, 1190.289 541.091, 1188.644 538.580 C 1186.649 535.535, 1182.844 533.764, 1180.259 534.677 C 1177.241 535.742, 1173.999 539.256, 1174.032 541.424 C 1174.090 545.203, 1178.562 549, 1182.956 549 C 1184.823 549, 1188.040 553.371, 1186.912 554.376 C 1186.686 554.578, 1182.742 556.913, 1178.150 559.565 L 1169.800 564.386 1167.922 561.943 C 1165.817 559.204, 1165.515 557.418, 1167 556.500 C 1167.550 556.160, 1168 554.591, 1168 553.014 C 1168 549.709, 1164.034 546, 1160.500 546 C 1157.035 546, 1153 549.711, 1153 552.898 C 1153 556.318, 1156.733 560, 1160.199 560 C 1162.571 560, 1166 563.425, 1166 565.794 C 1166 566.270, 1161.007 569.517, 1154.905 573.009 C 1148.803 576.502, 1143.066 580.506, 1142.155 581.906 C 1140.847 583.918, 1140.500 586.982, 1140.500 596.500 L 1140.500 608.548 929.231 834.774 C 813.033 959.198, 717.312 1061, 716.517 1061 C 715.723 1061, 712.207 1058.319, 708.704 1055.042 C 694.581 1041.831, 691.051 1022.260, 698.003 995.725 C 703.219 975.820, 719.019 944.819, 733.618 925.847 C 744.290 911.978, 744.805 901.002, 735.019 896.010 C 729.763 893.328, 724.419 893.477, 715.176 896.562 C 690.818 904.694, 668.384 924.746, 647.201 957.321 C 635.530 975.269, 621.865 1003.347, 613.312 1026.956 C 602.144 1057.784, 582.799 1080.389, 547.491 1103.866 C 523.607 1119.748, 495.677 1132.787, 459.407 1144.990 C 447.908 1148.858, 433.899 1154.301, 428.275 1157.085 C 396.646 1172.742, 372.604 1199.585, 362.531 1230.490 C 354.378 1255.503, 355.131 1287.882, 364.542 1316.994 C 370.623 1335.803, 378.227 1350.221, 393.026 1371 C 428.214 1420.407, 484.370 1463.269, 536.544 1480.542 C 556.665 1487.204, 569.533 1489.425, 588 1489.426 C 604.310 1489.427, 610.304 1488.566, 623.500 1484.327 C 677.303 1467.046, 714.345 1403.927, 725.511 1310.500 C 726.366 1303.350, 727.967 1294.747, 729.070 1291.383 C 733.462 1277.981, 745.356 1265.200, 761.018 1257.052 C 765.367 1254.789, 777.155 1249.785, 787.213 1245.933 C 812.311 1236.320, 821.212 1231.738, 828.085 1224.893 C 841.550 1211.481, 839.721 1195.016, 824 1188.139 C 816.160 1184.709, 809.943 1184.562, 793.328 1187.411 C 768.667 1191.641, 761.177 1190.670, 751.712 1182.020 C 741.294 1172.498, 737.546 1157.128, 741.409 1139.766 L 743.054 1132.369 958.982 887.435 C 1077.743 752.721, 1175.943 641.717, 1177.205 640.760 C 1180.680 638.125, 1194.348 634.950, 1205 634.302 C 1211.159 633.928, 1215.765 633.090, 1218.097 631.920 C 1220.531 630.699, 1239.596 609.869, 1277.097 567.459 C 1307.568 532.997, 1333.111 503.656, 1333.857 502.256 C 1335.525 499.131, 1334.761 493.511, 1332.293 490.738 C 1327.564 485.426, 1312.918 484.230, 1302.928 488.340 M 1527.217 568.113 C 1524.311 568.597, 1520.191 569.882, 1518.061 570.969 C 1508.919 575.633, 1507.746 582.072, 1513.750 594.646 L 1517.500 602.500 1517.500 648.500 L 1517.500 694.500 1513.750 702.354 C 1508.906 712.500, 1508.727 717.480, 1513.030 722.381 C 1519.174 729.379, 1519.381 729.403, 1577.710 729.770 C 1612.150 729.987, 1631.250 729.741, 1633.829 729.046 C 1638.998 727.654, 1642.565 724.728, 1645.278 719.655 C 1649.729 711.331, 1647.417 690.692, 1641.227 683.491 C 1636.882 678.437, 1633.894 677, 1627.734 677 C 1621.977 677, 1621.572 677.172, 1617.618 681.288 C 1615.353 683.646, 1611.565 688.178, 1609.200 691.359 C 1603.351 699.226, 1599.369 700.951, 1587 700.974 C 1570.461 701.006, 1568 697.889, 1568 676.913 L 1568 663.761 1577.250 664.197 C 1585.287 664.576, 1587.526 665.112, 1594.322 668.285 C 1604.977 673.259, 1607.499 673.598, 1613 670.794 C 1620.291 667.078, 1622.500 662.009, 1622.500 649 C 1622.500 640.209, 1622.166 637.931, 1620.446 635.003 C 1615.205 626.082, 1606.989 624.730, 1594.389 630.713 C 1587.498 633.986, 1585.468 634.475, 1577.285 634.832 L 1568 635.239 1568 621.087 C 1568 604.938, 1569.007 601.185, 1574.190 598.026 C 1576.743 596.469, 1579.215 596.012, 1585 596.026 C 1596.672 596.054, 1601.617 599.162, 1610.384 611.977 C 1619.178 624.832, 1634.170 622.180, 1641.084 606.546 C 1643.784 600.438, 1644.865 586.151, 1643.044 580.633 C 1641.370 575.562, 1637.351 571.064, 1632.541 568.880 C 1628.790 567.176, 1625.053 567.051, 1580.500 567.139 C 1554.100 567.191, 1530.123 567.630, 1527.217 568.113 M 1670.718 568.019 C 1656.755 571.575, 1653.527 580.520, 1660.750 595.646 L 1664.500 603.500 1664.500 649.500 L 1664.500 695.500 1660.750 703.354 C 1654.632 716.166, 1656.044 724.344, 1665.211 729.184 C 1671.279 732.388, 1688.508 732.545, 1694.408 729.450 C 1702.889 725, 1704.231 715.881, 1698.250 703.354 L 1694.500 695.500 1694.312 654 L 1694.125 612.500 1709.370 658 C 1725.362 705.731, 1729.293 715.031, 1736.695 722.647 C 1743.468 729.617, 1748.541 731.501, 1760.500 731.493 C 1769.718 731.486, 1770.922 731.253, 1775.899 728.503 C 1781.544 725.384, 1786.946 719.140, 1791.024 711.022 C 1792.261 708.559, 1800.389 685.384, 1809.085 659.522 L 1824.897 612.500 1824.699 654 L 1824.500 695.500 1820.750 703.354 C 1814.084 717.315, 1816.045 724.499, 1827.792 729.146 C 1832.929 731.178, 1835.251 731.409, 1851 731.452 C 1871.340 731.508, 1876.806 730.262, 1881.953 724.400 C 1886.369 719.371, 1886.178 713.676, 1881.250 703.354 L 1877.500 695.500 1877.500 649.500 L 1877.500 603.500 1881.250 595.646 C 1885.856 586, 1886.210 580.592, 1882.523 576.210 C 1873.072 564.978, 1837.458 563.923, 1819.669 574.348 C 1812.997 578.258, 1805.445 587.188, 1801.057 596.355 C 1794.698 609.638, 1779.109 659.322, 1775.019 679.338 C 1772.790 690.247, 1772.497 691, 1770.476 691 C 1768.387 691, 1767.288 688.298, 1764.932 677.372 C 1760.768 658.059, 1743.918 604.950, 1738.220 593.177 C 1731.754 579.820, 1723.779 573.240, 1709.500 569.482 C 1702.347 567.599, 1676.236 566.614, 1670.718 568.019 M 1913.217 568.113 C 1910.311 568.597, 1906.191 569.882, 1904.061 570.969 C 1894.919 575.633, 1893.746 582.072, 1899.750 594.646 L 1903.500 602.500 1903.500 649.500 L 1903.500 696.500 1899.750 704.354 C 1894.906 714.500, 1894.727 719.480, 1899.030 724.381 C 1904.804 730.958, 1907.317 731.349, 1946.500 731.771 C 1993.532 732.277, 2007.979 730.375, 2024.984 721.439 C 2049.229 708.699, 2057.832 682.836, 2045.415 660.021 C 2042.632 654.908, 2031.962 644, 2029.743 644 C 2029.115 644, 2031.083 641.788, 2034.116 639.084 C 2037.356 636.196, 2041.048 631.555, 2043.066 627.834 C 2046.217 622.022, 2046.499 620.800, 2046.487 613 C 2046.475 605.669, 2046.073 603.675, 2043.561 598.500 C 2035.884 582.680, 2015.472 571.414, 1988.500 568.109 C 1977.982 566.820, 1920.966 566.823, 1913.217 568.113 M 2120 568.499 C 2093.708 573.802, 2072.032 593.611, 2063.088 620.509 C 2058.986 632.845, 2057.632 642.517, 2058.329 654.500 C 2059.942 682.235, 2073.042 705.802, 2094.793 720.096 C 2110.274 730.269, 2129.427 734.106, 2148.935 730.941 C 2184.906 725.104, 2211.384 693.840, 2213.671 654.500 C 2215.073 630.385, 2206.814 607.285, 2190.739 590.362 C 2172.753 571.428, 2146.188 563.217, 2120 568.499 M 2273.597 568.069 C 2249.988 571.338, 2234.052 580.728, 2227.402 595.288 C 2224.969 600.615, 2224.560 602.782, 2224.532 610.500 C 2224.491 622.102, 2227.164 627.958, 2236.990 637.783 C 2245.280 646.073, 2255.026 652.703, 2277 665.002 C 2308.511 682.637, 2315.273 688.710, 2312.394 696.788 C 2310.611 701.790, 2306.734 703.500, 2297.177 703.500 C 2289.415 703.500, 2287.925 703.184, 2283.045 700.500 C 2279.824 698.729, 2273.680 693.475, 2268.045 687.674 C 2253.902 673.115, 2247.323 669.979, 2238.852 673.758 C 2230.689 677.399, 2221.477 689.636, 2220.978 697.500 C 2220.601 703.450, 2221.062 704.789, 2225.046 709.315 C 2244.965 731.944, 2309.173 739.383, 2343.436 723.030 C 2352.434 718.736, 2359.267 712.234, 2363.219 704.206 C 2366.192 698.168, 2366.500 696.695, 2366.500 688.521 C 2366.500 680.480, 2366.159 678.779, 2363.356 672.865 C 2359.291 664.284, 2348.614 653.001, 2337.183 645.205 C 2332.407 641.948, 2320.850 635.113, 2311.500 630.017 C 2282.111 613.999, 2276.405 609.396, 2278.533 603.420 C 2280.322 598.395, 2284.235 596.500, 2292.823 596.500 C 2302.672 596.500, 2307.253 599.037, 2316.695 609.719 C 2329.288 623.968, 2332.498 626.640, 2338.727 628.061 C 2344.487 629.375, 2349.244 627.606, 2354.984 622.015 C 2360.625 616.521, 2365.998 606.373, 2365.999 601.210 C 2366.002 588.754, 2347.605 575.927, 2321.064 569.881 C 2311.008 567.590, 2284.392 566.574, 2273.597 568.069 M 2439.500 567.715 C 2411.645 571.567, 2387.496 592.330, 2378.098 620.509 C 2373.986 632.837, 2372.631 642.504, 2373.332 654.500 C 2375.403 689.890, 2396.292 717.973, 2428.500 728.667 C 2435.488 730.987, 2438.208 731.334, 2450 731.411 C 2461.336 731.486, 2464.622 731.144, 2470.500 729.282 C 2493.563 721.975, 2511.013 702.466, 2520.510 673.371 C 2523.837 663.180, 2523.797 660.238, 2520.319 659.365 C 2516.064 658.297, 2513.137 660.772, 2507.148 670.500 C 2500.275 681.664, 2492.942 688.982, 2484.765 692.837 C 2457.423 705.725, 2434.832 694.135, 2428.376 663.906 C 2427.189 658.348, 2426.928 653.255, 2427.330 643.500 C 2428.550 613.906, 2436.395 597.533, 2449.979 596.228 C 2459.781 595.286, 2467.032 599.694, 2474.932 611.396 C 2487.584 630.137, 2497.919 632.528, 2509.850 619.474 C 2524.393 603.562, 2521.712 589.554, 2501.964 578.269 C 2487.169 569.815, 2458.878 565.035, 2439.500 567.715 M 2584.193 568.023 C 2558.954 571.497, 2548.910 583.241, 2556.500 600.404 C 2560.767 610.051, 2560.393 612.062, 2546.859 652.355 C 2540.181 672.235, 2534.148 689.634, 2533.451 691.021 C 2531.675 694.560, 2527.591 698.494, 2519.737 704.235 C 2516.018 706.954, 2512.530 710.009, 2511.987 711.024 C 2510.538 713.732, 2510.781 717.735, 2512.630 721.633 C 2519.235 735.551, 2557.861 735.350, 2564.498 721.362 C 2565.945 718.314, 2566.110 716.488, 2565.430 711.078 C 2564.100 700.510, 2564.438 690.956, 2566.361 684.750 L 2568.142 679 2593.865 679 L 2619.588 679 2622.418 687.691 C 2625.084 695.876, 2625.209 697.027, 2624.565 707.481 C 2623.918 717.985, 2624.001 718.731, 2626.109 721.412 C 2627.335 722.970, 2631.005 725.506, 2634.266 727.048 C 2656.428 737.529, 2693 729.885, 2693 714.772 C 2693 711.921, 2691.200 709.212, 2684.297 701.672 C 2681.362 698.467, 2678.051 694.061, 2676.940 691.882 C 2675.828 689.702, 2668.191 667.874, 2659.969 643.375 C 2651.747 618.876, 2643.347 595.607, 2641.302 591.666 C 2636.299 582.027, 2627.169 572.987, 2619.355 569.936 C 2612.753 567.359, 2595.744 566.433, 2584.193 568.023 M 2719.217 568.076 C 2716.311 568.580, 2712.191 569.882, 2710.061 570.969 C 2700.919 575.633, 2699.746 582.072, 2705.750 594.646 L 2709.500 602.500 2709.500 649.500 L 2709.500 696.500 2705.750 704.354 C 2700.899 714.513, 2700.725 719.478, 2705.047 724.400 C 2710.982 731.160, 2713.494 731.500, 2757.500 731.500 C 2801.013 731.500, 2802.533 731.315, 2816.498 724.314 C 2842.661 711.199, 2858.863 685.591, 2860.671 654.500 C 2862.658 620.331, 2845.413 589.173, 2816.498 574.688 C 2802.947 567.899, 2801.500 567.710, 2761 567.420 C 2740.925 567.276, 2722.123 567.572, 2719.217 568.076 M 2942.193 568.023 C 2916.954 571.497, 2906.910 583.241, 2914.500 600.404 C 2918.767 610.051, 2918.393 612.062, 2904.859 652.355 C 2898.181 672.235, 2892.148 689.634, 2891.451 691.021 C 2889.675 694.560, 2885.591 698.494, 2877.737 704.235 C 2874.018 706.954, 2870.530 710.009, 2869.987 711.024 C 2868.538 713.732, 2868.781 717.735, 2870.630 721.633 C 2877.235 735.551, 2915.861 735.350, 2922.498 721.362 C 2923.945 718.314, 2924.110 716.488, 2923.430 711.078 C 2922.100 700.510, 2922.438 690.956, 2924.361 684.750 L 2926.142 679 2951.865 679 L 2977.588 679 2980.418 687.691 C 2983.084 695.876, 2983.209 697.027, 2982.565 707.481 C 2981.918 717.985, 2982.001 718.731, 2984.109 721.412 C 2985.335 722.970, 2989.005 725.506, 2992.266 727.048 C 3014.428 737.529, 3051 729.885, 3051 714.772 C 3051 711.921, 3049.200 709.212, 3042.297 701.672 C 3039.362 698.467, 3036.051 694.061, 3034.940 691.882 C 3033.828 689.702, 3026.191 667.874, 3017.969 643.375 C 3009.747 618.876, 3001.347 595.607, 2999.302 591.666 C 2994.299 582.027, 2985.169 572.987, 2977.355 569.936 C 2970.753 567.359, 2953.744 566.433, 2942.193 568.023 M 1961.241 597.919 C 1955.072 601.824, 1954.008 604.953, 1954.004 619.201 L 1954 631.903 1962.750 631.422 C 1983.448 630.287, 1987.441 628.853, 1991.131 621.229 C 1993.518 616.299, 1993.382 607.244, 1990.859 603.079 C 1988.477 599.145, 1982.568 596.902, 1973.150 596.356 C 1965.605 595.919, 1964.084 596.119, 1961.241 597.919 M 2129.500 597.417 C 2122.820 600.399, 2117.308 609.720, 2114.270 623.172 C 2111.946 633.463, 2111.937 666.500, 2114.256 676.759 C 2118.694 696.400, 2127.574 705.803, 2139.560 703.555 C 2147.432 702.078, 2154.314 691.937, 2157.744 676.759 C 2160.063 666.500, 2160.054 633.463, 2157.730 623.172 C 2155.727 614.301, 2151.837 605.514, 2148.193 601.627 C 2143.194 596.294, 2135.765 594.621, 2129.500 597.417 M 2771.764 596.996 C 2767.248 598.355, 2762.418 601.788, 2761.172 604.522 C 2759.319 608.589, 2759.530 692.190, 2761.402 695.810 C 2765.031 702.829, 2781.277 706.450, 2789.748 702.128 C 2796.815 698.523, 2801.532 690.542, 2804.663 676.892 C 2805.947 671.297, 2806.359 664.760, 2806.359 650 C 2806.359 624.793, 2803.860 613.061, 2796.412 603.296 C 2791.535 596.902, 2781.010 594.212, 2771.764 596.996 M 2589.044 612.250 C 2587.486 615.688, 2584.304 625.025, 2581.970 633 C 2579.637 640.975, 2577.516 648.063, 2577.257 648.750 C 2576.891 649.720, 2580.701 650, 2594.285 650 L 2611.785 650 2606.827 633.832 C 2600.553 613.372, 2596.965 606, 2593.282 606 C 2592.508 606, 2590.601 608.813, 2589.044 612.250 M 2947.044 612.250 C 2945.486 615.688, 2942.304 625.025, 2939.970 633 C 2937.637 640.975, 2935.516 648.063, 2935.257 648.750 C 2934.891 649.720, 2938.701 650, 2952.285 650 L 2969.785 650 2964.827 633.832 C 2958.553 613.372, 2954.965 606, 2951.282 606 C 2950.508 606, 2948.601 608.813, 2947.044 612.250 M 1956.250 659.650 C 1954.029 660.133, 1954 660.348, 1954 676.422 C 1954 691.659, 1954.145 692.919, 1956.253 696.048 C 1960.095 701.749, 1964.276 703.502, 1974 703.488 C 1983.595 703.474, 1988.726 701.491, 1993.336 696.013 C 1998.031 690.433, 1999.372 680.139, 1996.474 671.925 C 1993.069 662.274, 1987.842 659.703, 1971 659.392 C 1964.125 659.265, 1957.487 659.381, 1956.250 659.650 M 2265.500 844.393 C 2258.886 847.290, 2254.093 854.161, 2248.021 869.448 C 2235.241 901.618, 2218.731 920.767, 2196 929.783 C 2186.083 933.717, 2177.871 935.083, 2159.361 935.878 C 2142.362 936.607, 2140.865 936.831, 2135.527 939.443 C 2128.599 942.832, 2126.009 946.599, 2126.004 953.290 C 2125.998 961.102, 2128.921 965.143, 2148.947 985 C 2168.079 1003.971, 2175.366 1013.114, 2180.999 1025.217 C 2189.178 1042.791, 2189.003 1057.759, 2180.406 1075.985 C 2177.056 1083.087, 2176.872 1084.033, 2176.800 1094.485 C 2176.710 1107.731, 2178.067 1113.267, 2182.490 1117.690 C 2185.250 1120.450, 2186.543 1121, 2190.274 1121 C 2196.617 1121, 2201.158 1119.133, 2212 1112.067 C 2235.809 1096.552, 2255.201 1090.146, 2274.937 1091.278 C 2291.334 1092.219, 2304.942 1097.498, 2324 1110.313 C 2336.170 1118.496, 2342.042 1121, 2349.060 1121 C 2363.554 1121, 2367.336 1109.111, 2361.042 1083.336 C 2355.262 1059.668, 2354.895 1045.601, 2359.628 1029.193 C 2365.139 1010.088, 2375.468 995.913, 2395.505 979.953 C 2411.007 967.606, 2415 962.071, 2415 952.932 C 2415 948.288, 2414.618 947.382, 2411.222 943.987 C 2405.940 938.705, 2399.664 937.054, 2380.851 936 C 2371.448 935.473, 2361.670 934.287, 2356.351 933.029 C 2338.173 928.729, 2321.310 917.917, 2310.295 903.500 C 2304.252 895.590, 2295.499 879.061, 2291.646 868.282 C 2286.571 854.084, 2281.298 846.555, 2274.685 844.061 C 2271.078 842.701, 2269.206 842.769, 2265.500 844.393 M 1930.389 930.905 C 1926.081 933.531, 1923.882 936.955, 1919.239 948.262 C 1913.621 961.942, 1909.572 968.412, 1901.500 976.606 C 1889.958 988.324, 1881.162 991.782, 1859.967 992.934 C 1844.360 993.783, 1840.876 994.800, 1837.088 999.615 C 1832.210 1005.817, 1834.932 1011.125, 1851.289 1027.299 C 1871.082 1046.871, 1877.244 1057.460, 1877.299 1072 C 1877.322 1078.006, 1876.777 1080.795, 1874.559 1086 C 1870.600 1095.291, 1869.433 1102.848, 1870.812 1110.262 C 1872.408 1118.849, 1874.948 1121.318, 1881.622 1120.774 C 1885.655 1120.445, 1888.419 1119.284, 1894.622 1115.313 C 1911.117 1104.753, 1922.639 1100.617, 1935.500 1100.640 C 1948.410 1100.663, 1957.613 1104.071, 1973.734 1114.800 C 1981.290 1119.828, 1982.820 1120.457, 1988.337 1120.802 C 1993.941 1121.153, 1994.721 1120.952, 1996.937 1118.580 C 2000.559 1114.705, 2000.877 1106.561, 1997.868 1094.776 C 1994.597 1081.962, 1994.582 1063.366, 1997.837 1054.543 C 2002.172 1042.791, 2008.922 1034.478, 2025.395 1020.602 C 2032.460 1014.651, 2034.991 1010.717, 2034.996 1005.684 C 2035.005 996.934, 2029.989 994.311, 2010.749 993.007 C 1995.514 991.975, 1987.495 989.829, 1978.130 984.276 C 1966.562 977.418, 1958.045 966.201, 1950.932 948.456 C 1946.166 936.564, 1943.600 932.361, 1939.953 930.476 C 1936.185 928.527, 1934.137 928.619, 1930.389 930.905 M 2599.973 931.250 C 2596.523 933.586, 2594.477 937.107, 2586.175 955 C 2578.363 971.834, 2570.376 980.823, 2557.500 987.270 C 2549.671 991.190, 2545.509 992.053, 2530.450 992.876 C 2513.840 993.784, 2509.577 995.294, 2506.638 1001.312 C 2503.491 1007.755, 2505.743 1011.657, 2521.931 1027.810 C 2529.477 1035.340, 2537.285 1044.023, 2539.283 1047.106 C 2549.014 1062.123, 2550.302 1075.531, 2543.382 1089.789 C 2541.054 1094.584, 2540.847 1096, 2541.158 1104.968 C 2541.592 1117.530, 2543.232 1120.339, 2550.402 1120.807 C 2555.437 1121.136, 2555.783 1120.981, 2571.615 1111.311 C 2595.871 1096.496, 2619.496 1097.229, 2642 1113.496 C 2651.279 1120.203, 2659.572 1122.637, 2665.455 1120.379 C 2670.253 1118.538, 2671.303 1107.492, 2667.981 1093.813 C 2660.808 1064.277, 2667.782 1043.366, 2691.081 1024.555 C 2704.221 1013.946, 2707.891 1007.754, 2704.845 1001.335 C 2702.438 996.262, 2696.068 994.047, 2680.892 993.005 C 2673.526 992.500, 2665.025 991.349, 2662 990.448 C 2642.824 984.735, 2629.531 970.628, 2620.391 946.290 C 2617.042 937.374, 2614.396 933.212, 2610.605 930.901 C 2606.544 928.424, 2604.024 928.507, 2599.973 931.250 M 2876.276 945.250 C 2874.562 947.038, 2871.365 952.686, 2869.171 957.802 C 2857.086 985.978, 2842.527 997, 2817.394 997 C 2803.011 997, 2795.997 1000.510, 2796.004 1007.702 C 2796.009 1012.780, 2798.460 1016.510, 2806.445 1023.585 C 2816.267 1032.289, 2824.629 1042.516, 2828.795 1050.922 C 2832.068 1057.525, 2832.471 1059.178, 2832.451 1065.922 C 2832.433 1072.124, 2831.917 1074.590, 2829.606 1079.500 C 2827.277 1084.450, 2826.770 1086.900, 2826.711 1093.500 C 2826.557 1110.788, 2832.910 1113.269, 2849.866 1102.542 C 2861.401 1095.245, 2870.452 1091.918, 2880.552 1091.264 C 2892.733 1090.475, 2901.940 1093.624, 2917.283 1103.827 C 2923.437 1107.919, 2924.896 1108.464, 2929.751 1108.481 C 2934.631 1108.498, 2935.489 1108.182, 2937.375 1105.670 C 2940.013 1102.157, 2940.111 1093.231, 2937.604 1085 C 2935.199 1077.109, 2934.482 1065.312, 2935.952 1057.816 C 2938.493 1044.846, 2944.704 1035.523, 2958.453 1024.039 C 2967.451 1016.524, 2970 1013.012, 2970 1008.131 C 2970 1000.576, 2965.587 998.269, 2948.710 997.002 C 2934.676 995.949, 2930.765 995.004, 2922.636 990.703 C 2911.298 984.703, 2902.859 973.977, 2896.437 957.404 C 2891.917 945.737, 2888.728 942, 2883.295 942 C 2880.198 942, 2878.749 942.671, 2876.276 945.250 M 1650.618 968.321 C 1648.903 970.147, 1645.984 975.435, 1644.130 980.071 C 1637.547 996.538, 1628.042 1008.877, 1617.989 1014.005 C 1609.773 1018.197, 1605.453 1019.196, 1592.388 1019.924 C 1578.048 1020.723, 1573.643 1022.236, 1571.252 1027.183 C 1568.701 1032.459, 1570.532 1035.655, 1584.030 1049.497 C 1603.034 1068.985, 1607.595 1077.342, 1606.809 1091.235 C 1606.531 1096.135, 1605.660 1099.965, 1604.131 1103 C 1599.864 1111.475, 1600.071 1125.162, 1604.535 1129.626 C 1608.327 1133.418, 1612.400 1132.776, 1622.085 1126.858 C 1642.695 1114.264, 1656.093 1111.293, 1671.145 1115.978 C 1676.936 1117.781, 1680.250 1119.543, 1694.529 1128.407 C 1697.379 1130.176, 1701.097 1131.495, 1704.031 1131.777 C 1708.212 1132.179, 1709.192 1131.899, 1711.425 1129.666 C 1713.616 1127.475, 1714 1126.201, 1714 1121.124 C 1714 1117.843, 1713.051 1111.185, 1711.891 1106.329 C 1708.651 1092.763, 1709.464 1079.766, 1714.174 1069.850 C 1718.053 1061.682, 1725.949 1052.465, 1735.100 1045.423 C 1752.485 1032.046, 1746.634 1020.042, 1722.701 1019.985 C 1714.962 1019.967, 1705.447 1017.770, 1698.614 1014.424 C 1686.904 1008.691, 1678.306 998.106, 1671.135 980.596 C 1666.163 968.455, 1663.182 965, 1657.681 965 C 1654.506 965, 1653.128 965.648, 1650.618 968.321 M 1926.500 1255.506 C 1918.751 1258.254, 1917.308 1262.727, 1921.500 1271 C 1923.987 1275.908, 1924 1276.078, 1924 1303.500 C 1924 1330.922, 1923.987 1331.092, 1921.500 1336 C 1917.081 1344.721, 1918.906 1349.556, 1927.500 1351.899 C 1933.695 1353.587, 1972.205 1353.308, 1981.662 1351.507 C 1991.725 1349.589, 2000.940 1345.056, 2005.424 1339.817 C 2014.860 1328.794, 2013.801 1311.822, 2003.117 1302.853 L 1999.204 1299.568 2003.187 1295.703 C 2019.034 1280.323, 2006.111 1259.632, 1977.787 1255.035 C 1967.995 1253.446, 1931.360 1253.783, 1926.500 1255.506 M 2024.500 1255.506 C 2016.938 1258.188, 2015.279 1262.859, 2019.250 1270.290 C 2021.403 1274.319, 2021.513 1275.693, 2021.808 1302.283 L 2022.116 1330.066 2019.558 1335.654 C 2018.151 1338.727, 2017 1342.459, 2017 1343.947 C 2017 1349.687, 2024.220 1352.985, 2036.807 1352.994 C 2046.372 1353.002, 2052.548 1351.390, 2055.026 1348.240 C 2057.626 1344.935, 2057.516 1342.307, 2054.510 1335.849 C 2052.395 1331.307, 2052.018 1329.028, 2052.010 1320.750 L 2052 1311 2063.500 1311 L 2075 1311 2074.990 1320.750 C 2074.982 1329.028, 2074.605 1331.307, 2072.490 1335.849 C 2069.347 1342.602, 2069.324 1346.016, 2072.403 1348.909 C 2075.456 1351.777, 2080.528 1352.947, 2090 1352.971 C 2102.747 1353.002, 2110 1349.729, 2110 1343.947 C 2110 1342.459, 2108.849 1338.727, 2107.442 1335.654 L 2104.884 1330.066 2105.192 1302.283 C 2105.487 1275.693, 2105.597 1274.319, 2107.750 1270.290 C 2113.492 1259.545, 2107.373 1253.992, 2089.807 1254.006 C 2080.872 1254.012, 2075.501 1255.409, 2072.372 1258.537 C 2069.374 1261.535, 2069.394 1264.008, 2072.481 1271.500 C 2074.414 1276.192, 2074.958 1279.298, 2074.976 1285.750 L 2075 1294 2063.500 1294 L 2052 1294 2052.024 1285.750 C 2052.042 1279.298, 2052.586 1276.192, 2054.519 1271.500 C 2055.879 1268.200, 2056.993 1264.548, 2056.995 1263.385 C 2057.003 1259.876, 2053.399 1256.338, 2048.583 1255.125 C 2042.449 1253.581, 2029.346 1253.788, 2024.500 1255.506 M 2157.500 1255.506 C 2149.751 1258.254, 2148.308 1262.727, 2152.500 1271 C 2154.984 1275.901, 2155 1276.111, 2155 1303 C 2155 1329.889, 2154.984 1330.099, 2152.500 1335 C 2149.485 1340.950, 2149.357 1343.913, 2151.974 1347.240 C 2155.255 1351.411, 2160.392 1352, 2193.492 1352 C 2219.319 1352, 2224.572 1351.755, 2227.128 1350.434 C 2234.499 1346.622, 2235.015 1331.525, 2228.041 1323.719 C 2225.695 1321.095, 2224.468 1320.545, 2220.944 1320.545 C 2217.184 1320.545, 2216.321 1321.004, 2213.592 1324.456 C 2205.523 1334.662, 2205.901 1334.416, 2197.665 1334.832 C 2190.651 1335.186, 2189.942 1335.033, 2187.561 1332.652 C 2185.191 1330.281, 2185 1329.418, 2185 1321.045 L 2185 1312 2189.750 1312.024 C 2192.467 1312.037, 2197.068 1313.105, 2200.500 1314.519 C 2207.841 1317.543, 2210.944 1317.632, 2213.873 1314.904 C 2218.154 1310.915, 2219.372 1302.220, 2216.585 1295.548 C 2214.029 1289.432, 2209.366 1288.525, 2200.849 1292.490 C 2197.304 1294.140, 2193.729 1294.984, 2190.250 1294.990 L 2185 1295 2185 1285.455 C 2185 1276.653, 2185.191 1275.718, 2187.455 1273.455 C 2189.456 1271.454, 2190.888 1271.007, 2195.205 1271.035 C 2201.905 1271.080, 2204.459 1272.519, 2209.473 1279.074 C 2214.290 1285.371, 2217.380 1286.704, 2222.348 1284.628 C 2227.259 1282.576, 2230.284 1276.457, 2230.407 1268.330 C 2230.508 1261.601, 2228.541 1257.648, 2223.904 1255.265 C 2220.229 1253.376, 2162.919 1253.585, 2157.500 1255.506 M 1956.923 1273.923 C 1954.200 1276.646, 1954 1277.371, 1954 1284.523 L 1954 1292.199 1963.083 1291.849 C 1971.892 1291.511, 1972.253 1291.402, 1975.083 1288.234 C 1978.209 1284.735, 1978.961 1279.664, 1976.920 1275.850 C 1975.453 1273.109, 1970.033 1271, 1964.455 1271 C 1960.694 1271, 1959.308 1271.538, 1956.923 1273.923 M 2256.734 1281.021 C 2241.520 1284.876, 2232.373 1298.555, 2237.619 1309.609 C 2240.037 1314.704, 2245.817 1318.706, 2259.189 1324.542 C 2265.808 1327.431, 2271.961 1330.544, 2272.862 1331.459 C 2274.380 1333.001, 2274.358 1333.227, 2272.559 1334.561 C 2268.429 1337.623, 2259.878 1335.837, 2255.500 1331 C 2253.029 1328.270, 2248.755 1326, 2246.084 1326 C 2243.419 1326, 2237.565 1331.223, 2236.002 1334.995 C 2232.560 1343.306, 2244.447 1351.398, 2262 1352.695 C 2280.924 1354.092, 2296.456 1344.721, 2297.763 1331.118 C 2298.799 1320.330, 2291.284 1313.401, 2270 1305.519 C 2265.875 1303.991, 2261.825 1302.097, 2261 1301.310 C 2259.671 1300.041, 2259.728 1299.705, 2261.500 1298.360 C 2265.099 1295.627, 2272.128 1297.084, 2278.294 1301.841 C 2285.718 1307.569, 2288.759 1308.029, 2293.232 1304.101 C 2302.744 1295.750, 2299.859 1287.971, 2285.355 1282.858 C 2278.686 1280.508, 2262.789 1279.487, 2256.734 1281.021 M 2331.500 1280.605 C 2318.375 1283.931, 2308.707 1292.841, 2304.881 1305.136 C 2298.906 1324.332, 2308.167 1343.577, 2327 1351.102 C 2329.183 1351.974, 2334.273 1352.500, 2340.522 1352.500 C 2349.836 1352.500, 2351.017 1352.267, 2357.236 1349.205 C 2364.366 1345.694, 2368.666 1341.355, 2372.172 1334.132 C 2374.510 1329.316, 2375.146 1322.934, 2373.350 1322.304 C 2372.718 1322.082, 2369.593 1324.024, 2366.406 1326.620 C 2353.834 1336.860, 2339.247 1337.864, 2334.316 1328.829 C 2331.686 1324.009, 2331.681 1304.660, 2334.308 1300.651 C 2336.490 1297.323, 2338.175 1296.576, 2341.576 1297.430 C 2343.579 1297.932, 2344.887 1299.696, 2347.483 1305.394 C 2349.317 1309.419, 2352.045 1313.677, 2353.544 1314.856 C 2361.436 1321.064, 2374 1312.553, 2374 1301 C 2374 1289.217, 2361.843 1281.161, 2343 1280.455 C 2337.775 1280.259, 2332.600 1280.327, 2331.500 1280.605 M 2398.681 1281.833 C 2393.646 1283.190, 2390.936 1284.597, 2388.322 1287.211 C 2379.449 1296.084, 2385.196 1308.986, 2398.027 1308.996 C 2403.414 1309.001, 2405.924 1307.424, 2410.031 1301.456 C 2413.674 1296.159, 2417.314 1295.399, 2419.200 1299.540 C 2422.151 1306.016, 2416.976 1310.164, 2402.282 1313.103 C 2390.694 1315.420, 2387.620 1316.494, 2383.144 1319.792 C 2374.779 1325.953, 2375.175 1339.921, 2383.924 1347.283 C 2394.186 1355.917, 2415.006 1354.198, 2421.182 1344.206 L 2423.265 1340.836 2425.382 1344.574 C 2428.259 1349.652, 2431.887 1352.120, 2437.386 1352.740 C 2449.059 1354.056, 2458 1347.566, 2458 1337.777 C 2458 1333.414, 2457.794 1333, 2455.622 1333 C 2454.315 1333, 2452.797 1332.438, 2452.251 1331.750 C 2451.704 1331.063, 2451.008 1324.650, 2450.704 1317.500 C 2450.026 1301.560, 2448.286 1295.350, 2442.840 1289.442 C 2437.008 1283.116, 2430.325 1280.811, 2416.500 1280.357 C 2408.073 1280.080, 2403.905 1280.426, 2398.681 1281.833 M 2480.017 1281.541 C 2468.201 1284.144, 2462 1287.446, 2462 1291.134 C 2462 1292.137, 2463.125 1296.309, 2464.500 1300.405 C 2466.925 1307.630, 2467 1308.671, 2466.990 1335.176 C 2466.981 1362.184, 2466.952 1362.562, 2464.490 1367.849 C 2461.414 1374.458, 2461.362 1377.149, 2464.250 1380.497 C 2466.968 1383.647, 2472.051 1384.944, 2481.807 1384.976 C 2491.349 1385.007, 2497.542 1383.397, 2500.026 1380.240 C 2502.626 1376.935, 2502.516 1374.307, 2499.510 1367.849 C 2497.331 1363.169, 2497.020 1361.125, 2497.021 1351.500 L 2497.022 1340.500 2499.584 1343.751 C 2500.993 1345.538, 2504.251 1348.238, 2506.823 1349.751 C 2510.802 1352.090, 2512.619 1352.500, 2519 1352.500 C 2525.437 1352.500, 2527.184 1352.098, 2531.328 1349.662 C 2540.694 1344.157, 2545.456 1333.147, 2545.453 1317 C 2545.451 1303.256, 2543.112 1296.952, 2535.006 1288.846 C 2528.781 1282.621, 2522.551 1279.992, 2514.068 1280.010 C 2509.485 1280.020, 2499.938 1283.673, 2498.526 1285.958 C 2498.071 1286.695, 2497.201 1285.908, 2496.153 1283.811 C 2494.730 1280.960, 2493.944 1280.473, 2490.500 1280.307 C 2488.300 1280.200, 2483.582 1280.756, 2480.017 1281.541 M 2574 1281.481 C 2564.029 1284.758, 2554.918 1294.846, 2551.469 1306.432 C 2547.143 1320.956, 2553.117 1338.093, 2565.412 1346.430 C 2572.684 1351.359, 2580.628 1353.390, 2589.950 1352.700 C 2606.596 1351.468, 2615.723 1344.728, 2620.986 1329.784 C 2622.301 1326.050, 2622.538 1324.148, 2621.798 1323.257 C 2620.256 1321.398, 2619.674 1321.618, 2614.359 1326.068 C 2607.538 1331.778, 2602.526 1334.145, 2596.072 1334.706 C 2586.944 1335.498, 2581.508 1332.114, 2589.261 1330.465 C 2594.654 1329.319, 2607.037 1323.210, 2611.679 1319.407 C 2614.082 1317.438, 2616.937 1314.084, 2618.024 1311.953 C 2620.375 1307.345, 2620.639 1299.136, 2618.565 1295.125 C 2616.236 1290.621, 2609.684 1285.401, 2603.381 1283.026 C 2595.719 1280.140, 2580.516 1279.340, 2574 1281.481 M 2582.807 1298.706 C 2579.831 1302.081, 2577.749 1318.478, 2579.872 1321.827 C 2581.037 1323.665, 2587.409 1316.115, 2589.654 1310.235 C 2591.177 1306.249, 2591.206 1305.328, 2589.930 1301.635 C 2588.316 1296.967, 2585.399 1295.767, 2582.807 1298.706 M 2502.229 1299.669 C 2498.307 1301.247, 2495.678 1316.488, 2497.910 1324.705 C 2499.296 1329.804, 2503.456 1335, 2506.155 1335 C 2511.827 1335, 2514.932 1329.941, 2515.729 1319.402 C 2516.756 1305.826, 2510.317 1296.415, 2502.229 1299.669 M 1954 1319.066 C 1954 1324.602, 1954.463 1329.997, 1955.030 1331.055 C 1958.439 1337.426, 1971.753 1337.482, 1977.396 1331.148 C 1979.943 1328.289, 1980.629 1320.441, 1978.729 1315.894 C 1976.619 1310.845, 1972.169 1309, 1962.099 1309 L 1954 1309 1954 1319.066 M 2415.544 1320.589 C 2407.537 1323.521, 2404.580 1329.580, 2409 1334 C 2411.703 1336.703, 2415.572 1336.518, 2418.545 1333.545 C 2420.610 1331.481, 2421 1330.131, 2421 1325.045 C 2421 1321.720, 2420.662 1319.032, 2420.250 1319.070 C 2419.838 1319.109, 2417.720 1319.793, 2415.544 1320.589 M 4101.366 1409.919 C 4090.196 1416.730, 4089.056 1431.397, 4098.999 1440.380 C 4107.506 1448.066, 4120.730 1445.835, 4127.139 1435.634 C 4129.932 1431.189, 4129.356 1421.602, 4126.001 1416.706 C 4120.392 1408.521, 4108.866 1405.345, 4101.366 1409.919 M 1788.500 1417.698 C 1782.744 1418.461, 1775.296 1420.980, 1772.658 1423.055 C 1769.340 1425.664, 1769.315 1427.919, 1772.500 1437.405 C 1773.898 1441.571, 1775 1447.157, 1775 1450.081 C 1775 1455.018, 1774.901 1455.221, 1773.232 1453.710 C 1767.351 1448.388, 1757.486 1446.776, 1748.013 1449.589 C 1740.730 1451.751, 1732.280 1460.128, 1728.927 1468.507 C 1725.594 1476.838, 1725.563 1493.667, 1728.866 1502.145 C 1732.218 1510.749, 1736.081 1515.403, 1742.462 1518.525 C 1747.340 1520.912, 1748.904 1521.201, 1754.495 1520.753 C 1762.120 1520.140, 1768.934 1516.598, 1772.266 1511.515 L 1774.472 1508.149 1775.986 1512.222 C 1778.114 1517.945, 1781.677 1520.277, 1789.118 1520.815 C 1797.561 1521.426, 1805.429 1519.541, 1807.980 1516.298 C 1810.626 1512.934, 1810.528 1510.333, 1807.510 1503.849 L 1805.020 1498.500 1805.010 1459.973 C 1804.998 1415.288, 1805.312 1416.901, 1796.693 1417.150 C 1793.837 1417.232, 1790.150 1417.479, 1788.500 1417.698 M 1958.500 1417.698 C 1952.744 1418.461, 1945.296 1420.980, 1942.658 1423.055 C 1939.340 1425.664, 1939.315 1427.919, 1942.500 1437.405 C 1943.898 1441.571, 1945 1447.157, 1945 1450.081 C 1945 1455.018, 1944.901 1455.221, 1943.232 1453.710 C 1937.351 1448.388, 1927.486 1446.776, 1918.013 1449.589 C 1910.730 1451.751, 1902.280 1460.128, 1898.927 1468.507 C 1895.594 1476.838, 1895.563 1493.667, 1898.866 1502.145 C 1902.218 1510.749, 1906.081 1515.403, 1912.462 1518.525 C 1917.340 1520.912, 1918.904 1521.201, 1924.495 1520.753 C 1932.120 1520.140, 1938.934 1516.598, 1942.266 1511.515 L 1944.472 1508.149 1945.986 1512.222 C 1948.114 1517.945, 1951.677 1520.277, 1959.118 1520.815 C 1967.561 1521.426, 1975.429 1519.541, 1977.980 1516.298 C 1980.626 1512.934, 1980.528 1510.333, 1977.510 1503.849 L 1975.020 1498.500 1975.010 1459.973 C 1974.998 1415.288, 1975.312 1416.901, 1966.693 1417.150 C 1963.837 1417.232, 1960.150 1417.479, 1958.500 1417.698 M 2797.877 1420.750 C 2792.530 1426.432, 2787 1433.260, 2787 1434.180 C 2787 1435.514, 2792.880 1435.115, 2795.800 1433.582 C 2797.285 1432.803, 2800.280 1430.327, 2802.455 1428.080 L 2806.411 1423.995 2809.955 1427.332 C 2816.188 1433.198, 2819.167 1435, 2822.635 1435 C 2824.486 1435, 2826 1434.591, 2826 1434.091 C 2826 1433.078, 2814.405 1418.921, 2812.629 1417.765 C 2812.008 1417.361, 2809.229 1417.024, 2806.453 1417.015 C 2801.906 1417.002, 2801.056 1417.371, 2797.877 1420.750 M 1497.185 1422.989 C 1492.718 1424.047, 1489 1427.707, 1489 1431.047 C 1489 1432.531, 1490.004 1435.940, 1491.230 1438.623 C 1493.236 1443.010, 1493.528 1445.711, 1494.136 1465.500 C 1494.834 1488.249, 1495.674 1493.563, 1499.969 1502.437 C 1503.003 1508.704, 1509.228 1514.746, 1515.845 1517.849 C 1520.782 1520.163, 1522.770 1520.500, 1531.500 1520.500 C 1539.834 1520.500, 1542.241 1520.130, 1545.950 1518.276 C 1549.759 1516.373, 1550.624 1516.251, 1551.950 1517.427 C 1555.806 1520.846, 1571.424 1522.181, 1580.583 1519.875 C 1585.470 1518.644, 1589 1515.117, 1589 1511.464 C 1589 1510.218, 1587.879 1506.791, 1586.510 1503.849 C 1584.050 1498.565, 1584.020 1498.173, 1584.020 1471.500 C 1584.020 1444.827, 1584.050 1444.435, 1586.510 1439.151 C 1589.516 1432.693, 1589.626 1430.065, 1587.026 1426.760 C 1584.565 1423.631, 1578.387 1422, 1569 1422 C 1559.613 1422, 1553.435 1423.631, 1550.974 1426.760 C 1548.357 1430.087, 1548.483 1432.630, 1551.603 1439.444 C 1554.187 1445.088, 1554.203 1445.280, 1553.754 1464.815 C 1553.428 1478.988, 1552.859 1485.853, 1551.724 1489.331 C 1546.526 1505.255, 1534.524 1509.010, 1528.536 1496.587 C 1524.836 1488.911, 1523.796 1480.279, 1524.172 1460.365 C 1524.478 1444.134, 1524.714 1442.115, 1526.754 1438.290 C 1532.563 1427.400, 1526.257 1421.867, 1508.307 1422.102 C 1504.013 1422.159, 1499.008 1422.558, 1497.185 1422.989 M 2120.481 1423.406 C 2107.892 1426.280, 2101.443 1430.462, 2097.549 1438.278 C 2095.995 1441.395, 2095 1445.086, 2095 1447.728 C 2095 1459.579, 2103.444 1467.764, 2131.453 1483.063 C 2143.064 1489.406, 2149 1494.534, 2149 1498.223 C 2149 1501.588, 2146.920 1503.142, 2141.618 1503.740 C 2134.720 1504.517, 2130.589 1502.504, 2121.488 1493.932 C 2116.901 1489.611, 2111.989 1485.784, 2110.574 1485.429 C 2104.681 1483.950, 2099.374 1487.492, 2095.442 1495.528 C 2093.056 1500.406, 2092.898 1501.340, 2094.010 1504.025 C 2099.087 1516.282, 2130.890 1524.345, 2154.733 1519.420 C 2174.873 1515.260, 2184.426 1503.167, 2179.791 1487.698 C 2178.307 1482.743, 2169.680 1473.200, 2162.053 1468.076 C 2158.999 1466.025, 2151.241 1461.512, 2144.812 1458.048 C 2129.865 1449.993, 2126.472 1447.241, 2127.320 1443.860 C 2128.484 1439.223, 2136.191 1437.573, 2142.563 1440.597 C 2144.414 1441.475, 2148.883 1445.495, 2152.493 1449.529 C 2160.473 1458.445, 2164.196 1460.132, 2169.648 1457.303 C 2174.331 1454.873, 2179.012 1448.333, 2179.690 1443.271 C 2180.168 1439.711, 2179.827 1438.815, 2176.669 1435.318 C 2172.675 1430.898, 2165.035 1426.804, 2156.329 1424.419 C 2148.312 1422.222, 2128.158 1421.653, 2120.481 1423.406 M 2559 1423.381 C 2552.316 1424.855, 2549.792 1426.177, 2547.078 1429.629 C 2544.627 1432.744, 2544.347 1439.233, 2546.500 1443 C 2547.286 1444.375, 2547.945 1446.625, 2547.965 1448 C 2547.984 1449.374, 2544.556 1460.849, 2540.346 1473.500 C 2532.188 1498.012, 2532.308 1497.796, 2522.211 1506.160 C 2518.305 1509.395, 2518.004 1513.095, 2521.372 1516.463 C 2527.402 1522.493, 2543.655 1522.436, 2549.727 1516.364 C 2552.087 1514.004, 2552.166 1513.529, 2551.489 1505.876 C 2551.012 1500.487, 2551.186 1496.408, 2552.020 1493.430 L 2553.260 1489 2568.998 1489 L 2584.736 1489 2586.434 1495.050 C 2587.623 1499.288, 2587.932 1502.696, 2587.466 1506.429 C 2587.049 1509.760, 2587.225 1512.551, 2587.933 1513.875 C 2592.365 1522.157, 2617.844 1523.247, 2625.603 1515.487 C 2628.946 1512.145, 2628.618 1509.957, 2623.934 1504.359 C 2618.284 1497.606, 2618.311 1497.667, 2608.094 1467.592 C 2603.066 1452.792, 2597.740 1438.456, 2596.258 1435.733 C 2592.994 1429.736, 2587.370 1424.727, 2582.142 1423.161 C 2577.252 1421.696, 2566.162 1421.801, 2559 1423.381 M 1697 1424.121 C 1689.529 1427.091, 1686.585 1435.031, 1691.142 1439.922 C 1697.702 1446.964, 1713.141 1446.721, 1718.832 1439.486 C 1725.032 1431.605, 1717.167 1422.900, 1704 1423.069 C 1701.525 1423.101, 1698.375 1423.574, 1697 1424.121 M 2381.809 1425.750 C 2380.397 1427.263, 2376.884 1431.875, 2374 1436 C 2365.679 1447.903, 2364.402 1449, 2358.870 1449 C 2353.134 1449, 2351 1451.305, 2351 1457.500 C 2351 1463.355, 2353.196 1466, 2358.057 1466 L 2362 1466 2362.034 1472.750 C 2362.126 1491.293, 2364.837 1506.451, 2369.249 1513.088 C 2375.641 1522.706, 2392.516 1523.719, 2401.227 1515.008 C 2404.455 1511.781, 2405 1510.595, 2405 1506.809 C 2405 1501.256, 2403.455 1499.195, 2399 1498.806 C 2395.933 1498.538, 2395.347 1498.031, 2394.264 1494.714 C 2393.584 1492.631, 2392.728 1485.319, 2392.361 1478.464 L 2391.695 1466 2395.791 1466 C 2400.815 1466, 2403 1463.424, 2403 1457.500 C 2403 1451.684, 2400.798 1449, 2396.027 1449 L 2392.167 1449 2391.834 1436.962 C 2391.575 1427.614, 2391.165 1424.712, 2390 1423.977 C 2387.345 1422.302, 2384.438 1422.932, 2381.809 1425.750 M 2745.809 1425.750 C 2744.397 1427.263, 2740.884 1431.875, 2738 1436 C 2729.679 1447.903, 2728.402 1449, 2722.870 1449 C 2717.134 1449, 2715 1451.305, 2715 1457.500 C 2715 1463.355, 2717.196 1466, 2722.057 1466 L 2726 1466 2726.034 1472.750 C 2726.126 1491.293, 2728.837 1506.451, 2733.249 1513.088 C 2739.641 1522.706, 2756.516 1523.719, 2765.227 1515.008 C 2768.455 1511.781, 2769 1510.595, 2769 1506.809 C 2769 1501.256, 2767.455 1499.195, 2763 1498.806 C 2759.933 1498.538, 2759.347 1498.031, 2758.264 1494.714 C 2757.584 1492.631, 2756.728 1485.319, 2756.361 1478.464 L 2755.695 1466 2759.791 1466 C 2764.815 1466, 2767 1463.424, 2767 1457.500 C 2767 1451.684, 2764.798 1449, 2760.027 1449 L 2756.167 1449 2755.834 1436.962 C 2755.575 1427.614, 2755.165 1424.712, 2754 1423.977 C 2751.345 1422.302, 2748.438 1422.932, 2745.809 1425.750 M 2950 1424.121 C 2942.529 1427.091, 2939.585 1435.031, 2944.142 1439.922 C 2950.702 1446.964, 2966.141 1446.721, 2971.832 1439.486 C 2978.032 1431.605, 2970.167 1422.900, 2957 1423.069 C 2954.525 1423.101, 2951.375 1423.574, 2950 1424.121 M 2566.438 1448.455 C 2565.016 1450.625, 2559 1468.992, 2559 1471.163 C 2559 1471.623, 2563.500 1472, 2569 1472 C 2574.500 1472, 2579 1471.728, 2579 1471.395 C 2579 1469.669, 2573.494 1452.987, 2571.857 1449.750 C 2569.634 1445.357, 2568.626 1445.116, 2566.438 1448.455 M 1611.093 1449.061 C 1598.151 1451.669, 1591 1455.224, 1591 1459.052 C 1591 1460.100, 1592.125 1464.309, 1593.500 1468.405 C 1595.585 1474.616, 1595.998 1477.733, 1595.990 1487.176 C 1595.982 1497.132, 1595.680 1499.146, 1593.490 1503.849 C 1590.484 1510.307, 1590.374 1512.935, 1592.974 1516.240 C 1595.435 1519.369, 1601.613 1521, 1611 1521 C 1620.387 1521, 1626.565 1519.369, 1629.026 1516.240 C 1631.644 1512.911, 1631.517 1510.370, 1628.387 1503.534 C 1625.902 1498.105, 1625.794 1497.180, 1626.184 1484.663 C 1626.636 1470.172, 1627.607 1467, 1631.586 1467 C 1634.930 1467, 1636.241 1470.282, 1639.886 1487.786 C 1644.887 1511.797, 1651.821 1520.956, 1665 1520.956 C 1670.517 1520.956, 1677.411 1517.970, 1679.076 1514.859 C 1682.652 1508.176, 1682.290 1501, 1678.377 1501 C 1674.636 1501, 1672.533 1496.319, 1669.637 1481.551 C 1666.607 1466.099, 1664.540 1460.710, 1659.506 1455.139 C 1652.338 1447.204, 1640.720 1445.767, 1631.264 1451.645 L 1626.461 1454.631 1624.980 1451.565 C 1623.722 1448.959, 1622.901 1448.476, 1619.500 1448.337 C 1617.300 1448.247, 1613.517 1448.573, 1611.093 1449.061 M 1699.333 1449.500 C 1689.749 1451.583, 1685 1454.610, 1685 1458.634 C 1685 1459.912, 1686.125 1464.309, 1687.500 1468.405 C 1689.767 1475.160, 1690.002 1477.417, 1690.022 1492.676 C 1690.048 1512.304, 1691.170 1516.429, 1697.274 1519.326 C 1704.291 1522.656, 1719.404 1520.845, 1723.026 1516.240 C 1725.626 1512.935, 1725.516 1510.307, 1722.510 1503.849 C 1720.084 1498.639, 1720.019 1497.902, 1720.010 1475.473 C 1719.998 1447.909, 1720.013 1447.956, 1711.193 1448.079 C 1708.062 1448.123, 1702.725 1448.762, 1699.333 1449.500 M 1834.681 1449.833 C 1829.646 1451.190, 1826.936 1452.597, 1824.322 1455.211 C 1815.449 1464.084, 1821.196 1476.986, 1834.027 1476.996 C 1839.414 1477.001, 1841.924 1475.424, 1846.031 1469.456 C 1849.674 1464.159, 1853.314 1463.399, 1855.200 1467.540 C 1858.151 1474.016, 1852.976 1478.164, 1838.282 1481.103 C 1826.694 1483.420, 1823.620 1484.494, 1819.144 1487.792 C 1810.779 1493.953, 1811.175 1507.921, 1819.924 1515.283 C 1830.186 1523.917, 1851.006 1522.198, 1857.182 1512.206 L 1859.265 1508.836 1861.382 1512.574 C 1864.259 1517.652, 1867.887 1520.120, 1873.386 1520.740 C 1885.059 1522.056, 1894 1515.566, 1894 1505.777 C 1894 1501.414, 1893.794 1501, 1891.622 1501 C 1890.315 1501, 1888.797 1500.438, 1888.251 1499.750 C 1887.704 1499.063, 1887.008 1492.650, 1886.704 1485.500 C 1886.026 1469.560, 1884.286 1463.350, 1878.840 1457.442 C 1873.008 1451.116, 1866.325 1448.811, 1852.500 1448.357 C 1844.073 1448.080, 1839.905 1448.426, 1834.681 1449.833 M 2005 1449.481 C 1995.029 1452.758, 1985.918 1462.846, 1982.469 1474.432 C 1978.143 1488.956, 1984.117 1506.093, 1996.412 1514.430 C 2003.684 1519.359, 2011.628 1521.390, 2020.950 1520.700 C 2037.596 1519.468, 2046.723 1512.728, 2051.986 1497.784 C 2053.301 1494.050, 2053.538 1492.148, 2052.798 1491.257 C 2051.256 1489.398, 2050.674 1489.618, 2045.359 1494.068 C 2038.538 1499.778, 2033.526 1502.145, 2027.072 1502.706 C 2017.944 1503.498, 2012.508 1500.114, 2020.261 1498.465 C 2025.654 1497.319, 2038.037 1491.210, 2042.679 1487.407 C 2045.082 1485.438, 2047.937 1482.084, 2049.024 1479.953 C 2051.375 1475.345, 2051.639 1467.136, 2049.565 1463.125 C 2047.236 1458.621, 2040.684 1453.401, 2034.381 1451.026 C 2026.719 1448.140, 2011.516 1447.340, 2005 1449.481 M 2206.681 1449.833 C 2201.646 1451.190, 2198.936 1452.597, 2196.322 1455.211 C 2187.449 1464.084, 2193.196 1476.986, 2206.027 1476.996 C 2211.414 1477.001, 2213.924 1475.424, 2218.031 1469.456 C 2221.674 1464.159, 2225.314 1463.399, 2227.200 1467.540 C 2230.151 1474.016, 2224.976 1478.164, 2210.282 1481.103 C 2198.694 1483.420, 2195.620 1484.494, 2191.144 1487.792 C 2182.779 1493.953, 2183.175 1507.921, 2191.924 1515.283 C 2202.186 1523.917, 2223.006 1522.198, 2229.182 1512.206 L 2231.265 1508.836 2233.382 1512.574 C 2236.259 1517.652, 2239.887 1520.120, 2245.386 1520.740 C 2257.059 1522.056, 2266 1515.566, 2266 1505.777 C 2266 1501.414, 2265.794 1501, 2263.622 1501 C 2262.315 1501, 2260.797 1500.438, 2260.251 1499.750 C 2259.704 1499.063, 2259.008 1492.650, 2258.704 1485.500 C 2258.026 1469.560, 2256.286 1463.350, 2250.840 1457.442 C 2245.008 1451.116, 2238.325 1448.811, 2224.500 1448.357 C 2216.073 1448.080, 2211.905 1448.426, 2206.681 1449.833 M 2290.093 1449.061 C 2277.151 1451.669, 2270 1455.224, 2270 1459.052 C 2270 1460.100, 2271.125 1464.309, 2272.500 1468.405 C 2274.585 1474.616, 2274.998 1477.733, 2274.990 1487.176 C 2274.982 1497.132, 2274.680 1499.146, 2272.490 1503.849 C 2269.484 1510.307, 2269.374 1512.935, 2271.974 1516.240 C 2274.435 1519.369, 2280.613 1521, 2290 1521 C 2299.387 1521, 2305.565 1519.369, 2308.026 1516.240 C 2310.644 1512.911, 2310.517 1510.370, 2307.387 1503.534 C 2304.902 1498.105, 2304.794 1497.180, 2305.184 1484.663 C 2305.636 1470.172, 2306.607 1467, 2310.586 1467 C 2313.930 1467, 2315.241 1470.282, 2318.886 1487.786 C 2323.887 1511.797, 2330.821 1520.956, 2344 1520.956 C 2349.517 1520.956, 2356.411 1517.970, 2358.076 1514.859 C 2361.652 1508.176, 2361.290 1501, 2357.377 1501 C 2353.636 1501, 2351.533 1496.319, 2348.637 1481.551 C 2345.607 1466.099, 2343.540 1460.710, 2338.506 1455.139 C 2331.338 1447.204, 2319.720 1445.767, 2310.264 1451.645 L 2305.461 1454.631 2303.980 1451.565 C 2302.722 1448.959, 2301.901 1448.476, 2298.500 1448.337 C 2296.300 1448.247, 2292.517 1448.573, 2290.093 1449.061 M 2430.863 1449.911 C 2411.757 1456.022, 2401.533 1476.802, 2408.075 1496.222 C 2410.778 1504.247, 2415.110 1510.158, 2421.412 1514.423 C 2446.031 1531.080, 2479 1513.950, 2479 1484.500 C 2479 1459.576, 2454.864 1442.234, 2430.863 1449.911 M 2654.093 1449.061 C 2641.151 1451.669, 2634 1455.224, 2634 1459.052 C 2634 1460.100, 2635.125 1464.309, 2636.500 1468.405 C 2638.585 1474.616, 2638.998 1477.733, 2638.990 1487.176 C 2638.982 1497.132, 2638.680 1499.146, 2636.490 1503.849 C 2633.484 1510.307, 2633.374 1512.935, 2635.974 1516.240 C 2638.435 1519.369, 2644.613 1521, 2654 1521 C 2663.387 1521, 2669.565 1519.369, 2672.026 1516.240 C 2674.644 1512.911, 2674.517 1510.370, 2671.387 1503.534 C 2668.902 1498.105, 2668.794 1497.180, 2669.184 1484.663 C 2669.636 1470.172, 2670.607 1467, 2674.586 1467 C 2677.930 1467, 2679.241 1470.282, 2682.886 1487.786 C 2687.887 1511.797, 2694.821 1520.956, 2708 1520.956 C 2713.517 1520.956, 2720.411 1517.970, 2722.076 1514.859 C 2725.652 1508.176, 2725.290 1501, 2721.377 1501 C 2717.636 1501, 2715.533 1496.319, 2712.637 1481.551 C 2709.607 1466.099, 2707.540 1460.710, 2702.506 1455.139 C 2695.338 1447.204, 2683.720 1445.767, 2674.264 1451.645 L 2669.461 1454.631 2667.980 1451.565 C 2666.722 1448.959, 2665.901 1448.476, 2662.500 1448.337 C 2660.300 1448.247, 2656.517 1448.573, 2654.093 1449.061 M 2794.863 1449.911 C 2775.757 1456.022, 2765.533 1476.802, 2772.075 1496.222 C 2774.778 1504.247, 2779.110 1510.158, 2785.412 1514.423 C 2810.031 1531.080, 2843 1513.950, 2843 1484.500 C 2843 1459.576, 2818.864 1442.234, 2794.863 1449.911 M 2865.093 1449.061 C 2852.151 1451.669, 2845 1455.224, 2845 1459.052 C 2845 1460.100, 2846.125 1464.309, 2847.500 1468.405 C 2849.585 1474.616, 2849.998 1477.733, 2849.990 1487.176 C 2849.982 1497.132, 2849.680 1499.146, 2847.490 1503.849 C 2844.484 1510.307, 2844.374 1512.935, 2846.974 1516.240 C 2849.435 1519.369, 2855.613 1521, 2865 1521 C 2874.387 1521, 2880.565 1519.369, 2883.026 1516.240 C 2885.644 1512.911, 2885.517 1510.370, 2882.387 1503.534 C 2879.902 1498.105, 2879.794 1497.180, 2880.184 1484.663 C 2880.636 1470.172, 2881.607 1467, 2885.586 1467 C 2888.930 1467, 2890.241 1470.282, 2893.886 1487.786 C 2898.887 1511.797, 2905.821 1520.956, 2919 1520.956 C 2924.517 1520.956, 2931.411 1517.970, 2933.076 1514.859 C 2936.652 1508.176, 2936.290 1501, 2932.377 1501 C 2928.636 1501, 2926.533 1496.319, 2923.637 1481.551 C 2920.607 1466.099, 2918.540 1460.710, 2913.506 1455.139 C 2906.338 1447.204, 2894.720 1445.767, 2885.264 1451.645 L 2880.461 1454.631 2878.980 1451.565 C 2877.722 1448.959, 2876.901 1448.476, 2873.500 1448.337 C 2871.300 1448.247, 2867.517 1448.573, 2865.093 1449.061 M 2952.333 1449.500 C 2942.749 1451.583, 2938 1454.610, 2938 1458.634 C 2938 1459.912, 2939.125 1464.309, 2940.500 1468.405 C 2942.767 1475.160, 2943.002 1477.417, 2943.022 1492.676 C 2943.048 1512.304, 2944.170 1516.429, 2950.274 1519.326 C 2957.291 1522.656, 2972.404 1520.845, 2976.026 1516.240 C 2978.626 1512.935, 2978.516 1510.307, 2975.510 1503.849 C 2973.084 1498.639, 2973.019 1497.902, 2973.010 1475.473 C 2972.998 1447.909, 2973.013 1447.956, 2964.193 1448.079 C 2961.062 1448.123, 2955.725 1448.762, 2952.333 1449.500 M 3003.863 1449.911 C 2984.757 1456.022, 2974.533 1476.802, 2981.075 1496.222 C 2983.778 1504.247, 2988.110 1510.158, 2994.412 1514.423 C 3019.031 1531.080, 3052 1513.950, 3052 1484.500 C 3052 1459.576, 3027.864 1442.234, 3003.863 1449.911 M 2013.807 1466.706 C 2010.831 1470.081, 2008.749 1486.478, 2010.872 1489.827 C 2012.037 1491.665, 2018.409 1484.115, 2020.654 1478.235 C 2022.177 1474.249, 2022.206 1473.328, 2020.930 1469.635 C 2019.316 1464.967, 2016.399 1463.767, 2013.807 1466.706 M 2438.273 1467.706 C 2436.788 1469.973, 2436.500 1472.697, 2436.500 1484.500 C 2436.500 1500.206, 2437.668 1504, 2442.500 1504 C 2447.332 1504, 2448.500 1500.206, 2448.500 1484.500 C 2448.500 1468.794, 2447.332 1465, 2442.500 1465 C 2440.936 1465, 2439.403 1465.982, 2438.273 1467.706 M 2802.273 1467.706 C 2800.788 1469.973, 2800.500 1472.697, 2800.500 1484.500 C 2800.500 1500.206, 2801.668 1504, 2806.500 1504 C 2811.332 1504, 2812.500 1500.206, 2812.500 1484.500 C 2812.500 1468.794, 2811.332 1465, 2806.500 1465 C 2804.936 1465, 2803.403 1465.982, 2802.273 1467.706 M 3011.273 1467.706 C 3009.788 1469.973, 3009.500 1472.697, 3009.500 1484.500 C 3009.500 1500.206, 3010.668 1504, 3015.500 1504 C 3020.332 1504, 3021.500 1500.206, 3021.500 1484.500 C 3021.500 1468.794, 3020.332 1465, 3015.500 1465 C 3013.936 1465, 3012.403 1465.982, 3011.273 1467.706 M 1761.713 1469.011 C 1757.530 1472.302, 1755.622 1478.814, 1756.282 1487.548 C 1756.928 1496.082, 1759.227 1501.004, 1763.225 1502.410 C 1769.087 1504.472, 1774.058 1497.623, 1774.772 1486.500 C 1775.752 1471.239, 1769.509 1462.878, 1761.713 1469.011 M 1931.713 1469.011 C 1927.530 1472.302, 1925.622 1478.814, 1926.282 1487.548 C 1926.928 1496.082, 1929.227 1501.004, 1933.225 1502.410 C 1939.087 1504.472, 1944.058 1497.623, 1944.772 1486.500 C 1945.752 1471.239, 1939.509 1462.878, 1931.713 1469.011 M 1851.544 1488.589 C 1843.537 1491.521, 1840.580 1497.580, 1845 1502 C 1847.703 1504.703, 1851.572 1504.518, 1854.545 1501.545 C 1856.610 1499.481, 1857 1498.131, 1857 1493.045 C 1857 1489.720, 1856.662 1487.032, 1856.250 1487.070 C 1855.838 1487.109, 1853.720 1487.793, 1851.544 1488.589 M 2223.544 1488.589 C 2215.537 1491.521, 2212.580 1497.580, 2217 1502 C 2219.703 1504.703, 2223.572 1504.518, 2226.545 1501.545 C 2228.610 1499.481, 2229 1498.131, 2229 1493.045 C 2229 1489.720, 2228.662 1487.032, 2228.250 1487.070 C 2227.838 1487.109, 2225.720 1487.793, 2223.544 1488.589" stroke="none" fill="#ffffff" fill-rule="evenodd"/>
</svg>