<svg xmlns="http://www.w3.org/2000/svg" width="4500" height="4977" viewBox="0 0 4500 4977" version="1.1">
	<path d="M 1201 233 L 1201 300 2250 300 L 3299 300 3299 233 L 3299 166 2250 166 L 1201 166 1201 233 M 1201 2416.500 L 1201 4487 2250 4487 L 3299 4487 3299 2416.500 L 3299 346 2250 346 L 1201 346 1201 2416.500 M 1206 610.500 L 1206 870 2250 870 L 3294 870 3294 610.500 L 3294 351 2250 351 L 1206 351 1206 610.500 M 1507.751 482.250 C 1471.663 519.659, 1468 523.808, 1468 527.278 C 1468 536.562, 1478.438 536.550, 1492.949 527.249 C 1496.002 525.292, 1500.300 522.870, 1502.500 521.867 C 1506.575 520.010, 1517 519.289, 1517 520.865 C 1517 521.340, 1512.767 525.953, 1507.594 531.115 C 1500.517 538.177, 1497.919 541.490, 1497.100 544.500 C 1496.477 546.787, 1496.009 557.491, 1496.007 569.500 C 1496.004 581.050, 1495.507 606.738, 1494.901 626.583 C 1494.061 654.133, 1494.087 667.023, 1495.010 681.083 C 1497.022 711.749, 1497.334 728.045, 1496.003 732.989 C 1495.024 736.626, 1493.050 739.154, 1485.400 746.572 C 1477.104 754.616, 1476 756.092, 1476 759.143 C 1476 761.044, 1476.540 763.140, 1477.200 763.800 C 1479.303 765.903, 1488.175 765.103, 1504.057 761.377 C 1531.333 754.977, 1550.406 755.620, 1597.424 764.525 C 1625.494 769.841, 1640.592 771.978, 1650.179 771.989 C 1659.943 772.001, 1660.063 771.935, 1665.366 763.637 C 1669.577 757.046, 1692.075 717.759, 1695.437 711.124 C 1700.813 700.516, 1697.808 694, 1687.539 694 C 1681.142 694, 1679.674 695.373, 1674.182 706.500 C 1667.043 720.962, 1663.812 722.560, 1643.500 721.669 C 1634.791 721.287, 1625.549 720.073, 1615.500 717.992 C 1596.167 713.988, 1583.733 713.298, 1570 715.469 C 1564.225 716.382, 1556.879 717.391, 1553.676 717.710 L 1547.851 718.291 1549.575 714.396 C 1555.648 700.666, 1555.495 701.816, 1555.569 669.500 C 1555.644 636.490, 1556.431 630.762, 1561.550 625.954 C 1564.892 622.814, 1570.976 622.818, 1590.334 625.970 C 1601.552 627.796, 1606.752 628.132, 1617.834 627.747 C 1640.753 626.950, 1645.754 623.656, 1656.033 602.589 C 1664.749 584.727, 1665.031 577, 1656.967 577 C 1654.942 577, 1652.938 578.150, 1650.269 580.846 C 1642.964 588.225, 1636.093 588.577, 1609.040 582.955 C 1588.855 578.761, 1582.451 579.079, 1569.500 584.914 C 1564.550 587.144, 1559.990 588.976, 1559.367 588.985 C 1557.562 589.009, 1556.939 584.584, 1556.340 567.500 C 1555.818 552.619, 1557.046 531.621, 1558.523 530.143 C 1558.877 529.790, 1580.543 529.656, 1606.670 529.846 L 1654.172 530.191 1661.845 522.346 C 1673.358 510.573, 1695 482.759, 1695 479.735 C 1695 478.453, 1682.789 479.295, 1665 481.803 C 1631.986 486.458, 1603.631 487.122, 1570.500 484.018 C 1547.671 481.879, 1542.001 481.003, 1531.450 477.986 C 1527.631 476.894, 1522.093 476, 1519.143 476 C 1513.875 476, 1513.675 476.110, 1507.751 482.250 M 2529.515 503.147 C 2512.372 515.188, 2506.017 518.318, 2495.027 520.133 C 2488.300 521.244, 2487.746 521.188, 2484.954 519.124 L 2482 516.940 2482 520.317 C 2482 522.346, 2482.851 524.653, 2484.133 526.097 C 2485.305 527.419, 2487.330 530.875, 2488.633 533.779 L 2491 539.057 2491 632.424 L 2491 725.792 2486.003 728.998 C 2483.254 730.762, 2479.809 733.622, 2478.347 735.353 C 2475.028 739.284, 2471.023 747.737, 2471.010 750.840 C 2471 753.159, 2471.074 753.174, 2479.250 752.506 C 2494.429 751.268, 2512.812 757.753, 2527.109 769.391 L 2533.717 774.770 2541.841 769.486 C 2565.678 753.980, 2598.548 748.238, 2625.496 754.873 C 2629.893 755.956, 2633.637 756.697, 2633.814 756.519 C 2633.992 756.342, 2632.531 754.093, 2630.568 751.522 L 2627 746.847 2627 683.586 L 2627 620.326 2630.813 616.318 C 2634.859 612.064, 2637.847 606.612, 2639.046 601.295 C 2640.119 596.540, 2638.351 595.476, 2631.935 597.016 C 2618.854 600.154, 2603.857 592.803, 2594.916 578.870 C 2593.024 575.920, 2591.192 574.096, 2590.420 574.392 C 2589.704 574.667, 2578.179 582.269, 2564.809 591.285 C 2551.439 600.302, 2539.921 608.013, 2539.213 608.422 C 2538.169 609.024, 2537.980 600.209, 2538.213 561.832 L 2538.500 514.500 2542.271 503.604 C 2544.345 497.612, 2545.887 492.554, 2545.699 492.365 C 2545.510 492.176, 2538.227 497.028, 2529.515 503.147 M 2319 501.586 C 2308.192 509.765, 2298.659 515.562, 2290.792 518.740 C 2285.748 520.777, 2283.505 521.142, 2278.703 520.707 L 2272.806 520.172 2273.265 523.836 C 2273.517 525.851, 2274.795 531.100, 2276.104 535.500 L 2278.484 543.500 2278.768 634.153 L 2279.051 724.805 2275.775 726.842 C 2270.463 730.145, 2258 744.301, 2258 747.031 C 2258 747.434, 2260.137 748.295, 2262.750 748.945 C 2276.023 752.250, 2293.298 760.764, 2305.555 770.041 L 2312.063 774.968 2333.532 757.790 C 2345.339 748.343, 2355 740.178, 2355 739.647 C 2355 738.441, 2347.176 728, 2346.272 728 C 2345.908 728, 2344.350 729.206, 2342.811 730.681 L 2340.013 733.361 2337.757 731.335 C 2336.516 730.221, 2332.452 727.337, 2328.727 724.927 L 2321.953 720.545 2322.235 622.023 L 2322.517 523.500 2324.838 515.500 C 2326.114 511.100, 2327.974 505.179, 2328.971 502.342 C 2330.281 498.614, 2330.481 496.881, 2329.692 496.092 C 2328.175 494.575, 2328.454 494.431, 2319 501.586 M 2397.939 530.790 C 2391.580 535.580, 2384.366 540.459, 2381.907 541.631 C 2379.448 542.803, 2376.013 544.960, 2374.273 546.424 L 2371.109 549.086 2373.896 553.793 C 2376.699 558.526, 2377.819 559.015, 2382.500 557.549 C 2384.081 557.054, 2384.919 557.707, 2386.500 560.664 C 2387.839 563.170, 2390.090 565.220, 2393.313 566.871 C 2397.615 569.073, 2399.422 569.344, 2410.313 569.418 C 2421.794 569.495, 2422.806 569.339, 2427.786 566.715 C 2439.113 560.747, 2445.768 551.652, 2446.753 540.793 L 2447.302 534.729 2444.401 535.269 C 2442.806 535.567, 2439.532 536.545, 2437.128 537.442 C 2433.532 538.785, 2432.111 538.866, 2429.128 537.903 C 2424.271 536.336, 2419.016 532.410, 2414.498 526.975 C 2412.452 524.514, 2410.490 522.405, 2410.139 522.290 C 2409.788 522.174, 2404.297 525.999, 2397.939 530.790 M 2151.500 568.624 C 2138.738 576.472, 2106.619 590.954, 2091.654 595.608 C 2085.832 597.418, 2085.810 597.440, 2086.355 600.799 C 2086.656 602.655, 2088.274 606.311, 2089.951 608.924 L 2093 613.675 2093 669.907 L 2093 726.140 2090.095 730.320 C 2088.497 732.619, 2086.247 735.494, 2085.095 736.708 C 2082.718 739.213, 2082.326 741.196, 2084.362 740.415 C 2086.385 739.638, 2098.177 742.604, 2106.807 746.059 C 2120.594 751.580, 2137.690 762.923, 2152.663 776.483 C 2156.620 780.068, 2160.228 782.993, 2160.679 782.984 C 2161.131 782.976, 2167.781 776.236, 2175.459 768.006 L 2189.417 753.043 2191.934 755.272 C 2193.318 756.497, 2200.585 763.237, 2208.083 770.250 C 2215.581 777.263, 2222.131 783, 2222.639 783 C 2223.557 783, 2261.199 740.665, 2261.833 738.918 C 2262.017 738.413, 2260.892 737.984, 2259.333 737.965 C 2257.775 737.946, 2252.986 737.304, 2248.690 736.538 C 2239.308 734.866, 2235.048 732.001, 2231.485 724.971 L 2229 720.066 2228.992 655.283 L 2228.984 590.500 2193.370 578.500 C 2173.782 571.900, 2157.248 566.424, 2156.628 566.332 C 2156.007 566.240, 2153.700 567.271, 2151.500 568.624 M 2867.526 583.526 C 2855.990 592.502, 2846.390 600.331, 2846.192 600.923 C 2845.995 601.515, 2846.793 602, 2847.966 602 C 2853.213 602, 2860.148 608.212, 2864.395 616.717 L 2867 621.934 2867 678.967 L 2867 736 2859 736 C 2848.109 736, 2848.242 737.699, 2859.704 745 C 2871.349 752.418, 2883.538 764.579, 2888.015 773.246 C 2889.932 776.957, 2891.733 779.994, 2892.018 779.996 C 2892.303 779.998, 2895.871 775.471, 2899.948 769.937 C 2908.075 758.901, 2916.861 750.950, 2931.500 741.382 L 2940.500 735.500 2931.250 735.212 L 2922 734.925 2922 674.662 C 2922 629.125, 2922.293 614.107, 2923.200 613.200 C 2924.958 611.442, 2931.707 611.732, 2941.171 613.970 C 2967.411 620.176, 2986.237 618.008, 2997.942 607.433 C 3002.338 603.462, 3006 597.430, 3006 594.162 C 3006 592.733, 3004.465 591.670, 2999.978 589.992 C 2993.223 587.466, 2979.231 578.528, 2971.168 571.589 C 2968.236 569.065, 2965.438 567, 2964.951 567 C 2964.464 567, 2959.888 569.803, 2954.783 573.229 C 2943.638 580.707, 2925.840 590, 2922.662 590 C 2921.404 590, 2919.057 588.625, 2917.447 586.945 C 2914.379 583.742, 2900.682 574.113, 2893 569.757 L 2888.500 567.205 2867.526 583.526 M 1752.338 572.422 C 1738.446 575.055, 1732.868 579.717, 1721.357 598.311 C 1714.669 609.115, 1710.375 618.077, 1709.475 623.111 C 1708.903 626.311, 1709.095 626.793, 1711.165 627.347 C 1715.705 628.563, 1718.002 627.948, 1727.403 623 C 1732.629 620.250, 1737.779 618, 1738.848 618 C 1744.138 618, 1785 669.089, 1785 675.703 C 1785 679.351, 1768.572 699.382, 1750.105 718.250 C 1739.915 728.662, 1739.485 728.751, 1727.026 723.012 C 1715.376 717.645, 1712.804 717.196, 1709.970 720.030 C 1707.945 722.055, 1707.788 722.930, 1708.316 729.228 C 1709.426 742.469, 1717.838 755.548, 1728.500 760.608 C 1740.338 766.226, 1748.833 761.831, 1760.605 744 C 1767.332 733.812, 1784.643 712.164, 1793.615 702.720 L 1799.107 696.940 1801.949 698.964 C 1805.886 701.767, 1813.180 710.434, 1823.018 724 C 1841.417 749.371, 1849.977 758.188, 1861.539 763.679 C 1879.753 772.328, 1897.289 769.182, 1912.890 754.465 C 1926.534 741.594, 1935.831 726.959, 1936.741 716.918 L 1937.278 711 1934.389 711.006 C 1930.845 711.014, 1927.087 712.918, 1920.336 718.126 C 1917.492 720.320, 1913.550 722.562, 1911.575 723.107 C 1908.049 724.081, 1907.891 723.996, 1902.626 718.299 C 1890.815 705.518, 1852.268 658.233, 1845.256 647.924 L 1842.143 643.347 1844.515 639.171 C 1849.242 630.849, 1867.246 608.699, 1875.338 601.250 C 1881.210 595.845, 1883.735 595.806, 1891.385 601.002 C 1898.067 605.542, 1901.699 606.016, 1904.759 602.750 C 1910.723 596.384, 1909.645 587.550, 1901.968 579.873 C 1896.470 574.374, 1893.531 573.533, 1882.180 574.208 C 1867.796 575.063, 1857.679 582.302, 1843.582 601.824 C 1838.945 608.246, 1833.195 615.697, 1830.805 618.381 L 1826.458 623.262 1818.744 614.881 C 1814.501 610.272, 1807.310 601.814, 1802.765 596.087 C 1786.333 575.385, 1772.055 568.684, 1752.338 572.422 M 2023.649 576.564 C 2012.999 588.537, 1994.381 597.220, 1976.460 598.573 C 1967.730 599.232, 1967.358 599.172, 1964.333 596.626 C 1962.616 595.182, 1960.939 594, 1960.606 594 C 1959.379 594, 1960.055 600.469, 1961.952 606.892 C 1965.396 618.550, 1966 629.101, 1966 677.640 L 1966 724.832 1962.141 727.889 C 1956.910 732.031, 1951.350 740.351, 1948.423 748.416 C 1945.127 757.497, 1945.225 758.830, 1948.961 755.687 C 1954.591 750.949, 1959.940 749.654, 1971.268 750.284 C 1976.896 750.597, 1985.100 751.787, 1989.500 752.928 C 1999.592 755.545, 2015.412 763.208, 2024.479 769.871 C 2028.317 772.692, 2031.692 774.981, 2031.979 774.957 C 2032.741 774.895, 2071.500 726.820, 2071.500 725.937 C 2071.500 725.174, 2061.627 717, 2060.706 717 C 2060.427 717, 2057.869 719.871, 2055.022 723.380 L 2049.845 729.761 2045.148 726.599 C 2040.694 723.602, 2025.169 718.018, 2016.500 716.295 L 2012.500 715.500 2012.240 666.054 L 2011.981 616.608 2014.740 619.250 C 2020.471 624.738, 2026.367 626.500, 2039 626.500 C 2049.400 626.500, 2051.050 626.242, 2056.253 623.804 C 2067.951 618.322, 2077.337 606.392, 2078.646 595.343 C 2079.433 588.699, 2077.744 587.998, 2070.627 592.015 C 2060.435 597.767, 2052.564 594.957, 2038.212 580.441 C 2033.078 575.248, 2028.793 571.025, 2028.689 571.055 C 2028.585 571.086, 2026.317 573.565, 2023.649 576.564 M 2669.351 592.578 C 2657.441 604.911, 2648.374 615.109, 2648.205 616.360 C 2647.939 618.341, 2648.604 618.676, 2655.205 619.877 C 2663.603 621.405, 2668.407 623.979, 2671.099 628.395 C 2672.884 631.321, 2672.993 634.120, 2672.996 677.057 L 2673 722.615 2668.621 725.702 C 2661.605 730.647, 2656.564 739.144, 2654.059 750.250 C 2653.593 752.313, 2653.333 754, 2653.479 754 C 2653.626 754, 2655.905 753.045, 2658.543 751.878 C 2662.402 750.171, 2664.658 749.850, 2670.071 750.237 C 2680.565 750.988, 2691.101 756.466, 2706.730 769.299 L 2713.959 775.235 2721.715 767.992 C 2728.221 761.917, 2747.996 747.047, 2758.250 740.520 C 2760.681 738.973, 2761 738.953, 2761 740.347 C 2761 741.215, 2761.938 744.432, 2763.085 747.497 C 2767.196 758.484, 2780.127 769.054, 2794.696 773.334 L 2799.891 774.860 2820.448 755.369 C 2838.517 738.237, 2840.879 735.643, 2839.967 733.939 C 2839.397 732.873, 2838.833 732.007, 2838.715 732.015 C 2838.597 732.023, 2836.700 732.679, 2834.500 733.471 C 2824.219 737.175, 2813.456 734.021, 2809 726 L 2806.500 721.500 2806.204 675.442 L 2805.908 629.385 2810.888 627.053 C 2820.729 622.443, 2826.553 613.589, 2827.680 601.526 C 2828.236 595.572, 2828.123 595.001, 2826.395 595.006 C 2825.353 595.010, 2823.211 595.685, 2821.636 596.506 C 2813.808 600.589, 2805.633 596.954, 2790.249 582.550 L 2781.998 574.825 2771.749 584.537 C 2760.114 595.563, 2745.517 607.198, 2739.538 610.211 C 2737.317 611.330, 2735.328 612.400, 2735.118 612.589 C 2734.380 613.250, 2742.513 624.983, 2743.716 624.991 C 2744.385 624.996, 2746.494 624.255, 2748.402 623.345 C 2751.832 621.709, 2751.910 621.724, 2755.254 624.595 L 2758.637 627.500 2759.319 658.913 C 2759.693 676.190, 2760 696.541, 2760 704.137 L 2760 717.949 2757.013 719.493 C 2755.371 720.342, 2752.558 722.286, 2750.763 723.813 C 2743.317 730.145, 2742.981 730.204, 2737.523 726.139 C 2734.835 724.138, 2730.131 721.598, 2727.068 720.497 L 2721.500 718.493 2720.983 660.997 L 2720.466 603.500 2718.081 597.500 C 2715.222 590.307, 2703.517 578.063, 2695.351 573.722 L 2690.203 570.986 2669.351 592.578 M 2406.046 575.500 C 2405.998 578.592, 2403.173 581.496, 2390.531 591.449 C 2382.899 597.459, 2363.537 615.163, 2363.222 616.421 C 2363.069 617.031, 2364.341 619.429, 2366.048 621.751 C 2369.100 625.901, 2369.201 625.947, 2371.994 624.503 C 2374.729 623.089, 2374.963 623.163, 2378.317 626.517 C 2380.233 628.433, 2382.506 630, 2383.369 630 C 2384.774 630, 2384.968 636.159, 2385.219 688.750 L 2385.500 747.500 2387.846 751.899 C 2392.612 760.833, 2404.362 769.679, 2415.350 772.605 C 2425.222 775.233, 2424.399 775.693, 2444.579 756.276 C 2454.711 746.527, 2462.993 738.090, 2462.985 737.526 C 2462.936 734.297, 2461.340 733.822, 2455.936 735.427 C 2445.508 738.523, 2436.431 735.305, 2432.250 727.030 C 2430.013 722.602, 2430 722.303, 2430 676.314 L 2430 630.051 2432.750 628.615 C 2441.920 623.824, 2450.598 610.106, 2451.661 598.723 L 2452.294 591.946 2445.897 594.972 C 2442.379 596.637, 2438.150 597.995, 2436.500 597.990 C 2430.310 597.972, 2418.529 588.622, 2408.794 576 L 2406.094 572.500 2406.046 575.500 M 2142.010 655.258 L 2142.020 710.500 2151.135 715.376 C 2156.148 718.058, 2163.862 722.671, 2168.278 725.626 C 2172.693 728.582, 2176.466 731, 2176.661 731 C 2176.856 731, 2176.900 704.814, 2176.758 672.810 L 2176.500 614.620 2163.500 609.007 C 2156.350 605.920, 2148.588 602.635, 2146.250 601.705 L 2142 600.016 2142.010 655.258 M 2548.372 623.457 L 2538.500 629.714 2538.187 658.607 C 2537.783 695.790, 2538.736 722, 2540.492 722 C 2542.802 722, 2557.722 729.957, 2563.794 734.427 C 2569.612 738.710, 2569.855 738.788, 2574.374 737.825 L 2579 736.838 2579 682.419 C 2579 628.312, 2578.988 628, 2576.960 628 C 2574.284 628, 2568.410 624.959, 2562.773 620.656 L 2558.244 617.199 2548.372 623.457 M 1206 2679 L 1206 4482 1212.250 4482.001 L 1218.500 4482.002 1218.212 4459.919 C 1218.024 4445.445, 1218.268 4438.047, 1218.920 4438.451 C 1219.563 4438.848, 1220.037 4432.411, 1220.258 4420.283 C 1220.562 4403.543, 1221.171 4397.857, 1225.856 4368 C 1237.416 4294.327, 1248.258 4244.570, 1256.472 4227.490 C 1261.066 4217.940, 1269.115 4205.880, 1284.499 4185.500 C 1291.557 4176.150, 1299.358 4165.350, 1301.834 4161.500 C 1312.380 4145.108, 1317.761 4129.294, 1320.497 4106.653 C 1326.355 4058.172, 1328.587 4052.012, 1352.033 4019.608 C 1359.146 4009.777, 1366.978 3998.301, 1369.438 3994.106 C 1383.033 3970.916, 1385.383 3947.495, 1377.574 3913 C 1371.380 3885.636, 1371.080 3882.876, 1369.858 3842 C 1368.648 3801.517, 1369.828 3744.751, 1372.087 3734.756 C 1374.056 3726.045, 1388.454 3706.810, 1412.842 3680.311 C 1435.915 3655.240, 1446.486 3647.942, 1467.559 3642.530 C 1473.027 3641.126, 1493.025 3637.749, 1512 3635.027 C 1569.022 3626.845, 1587.501 3620.616, 1604.258 3603.923 C 1616.552 3591.676, 1620.165 3579.527, 1618.142 3557.236 C 1616.691 3541.251, 1616.676 3527.654, 1618.103 3520.799 C 1620.115 3511.134, 1627.004 3499.531, 1644.407 3476.500 C 1655.978 3461.187, 1665.453 3451.731, 1686 3434.991 C 1713.618 3412.491, 1726.276 3399.337, 1732.842 3386.319 C 1737.529 3377.025, 1737.997 3373.818, 1739.019 3344 C 1740.162 3310.658, 1740.958 3304.688, 1745.498 3295.392 C 1752.149 3281.772, 1769.008 3268.896, 1794.530 3257.945 C 1800.904 3255.210, 1820.154 3248.221, 1837.309 3242.413 C 1886.608 3225.722, 1890.851 3223.228, 1920.809 3193.345 C 1930.878 3183.300, 1941.903 3172.987, 1945.309 3170.427 C 1967.468 3153.767, 2007.305 3136.394, 2072 3115.174 C 2099.121 3106.279, 2106.472 3104.791, 2126 3104.245 C 2144.901 3103.716, 2150.305 3104.478, 2177.500 3111.507 C 2209.893 3119.881, 2226.079 3122.005, 2257.356 3121.990 C 2303.132 3121.968, 2362.683 3115.074, 2392.597 3106.333 C 2408.261 3101.757, 2408.726 3101.686, 2423.500 3101.594 C 2443.802 3101.467, 2447.874 3102.819, 2468.549 3116.548 C 2479.003 3123.490, 2487.659 3128.352, 2495.258 3131.550 C 2501.441 3134.152, 2511.225 3138.280, 2517 3140.724 C 2544.090 3152.188, 2552.058 3160.856, 2564.436 3192.327 C 2571.042 3209.122, 2580 3235.838, 2580 3238.746 C 2580 3241.241, 2588.318 3263.105, 2593.793 3275 C 2595.438 3278.575, 2598.970 3283.816, 2601.642 3286.646 C 2604.314 3289.476, 2608.945 3295.776, 2611.934 3300.646 C 2625.819 3323.268, 2632.077 3331.095, 2643.007 3339.505 C 2660.048 3352.618, 2677.321 3358.337, 2717 3364 C 2741.925 3367.558, 2756.082 3370.727, 2766.595 3375.104 C 2782.072 3381.547, 2795.923 3393.083, 2804.960 3407.055 C 2820.257 3430.709, 2844.328 3498.302, 2849.051 3530.869 C 2851.053 3544.670, 2849.810 3559.446, 2844.542 3584.500 C 2837.420 3618.365, 2837.326 3631.023, 2844.098 3644.348 C 2852.725 3661.326, 2865.944 3673.359, 2907.955 3702.478 C 2926.445 3715.294, 2939 3724.804, 2939 3725.994 C 2939 3726.899, 2951.246 3741.420, 2952.412 3741.897 C 2954.462 3742.736, 2959.268 3748.752, 2962.479 3754.500 C 2964.322 3757.800, 2967.940 3766.564, 2970.518 3773.976 C 2973.096 3781.387, 2977.016 3791.062, 2979.230 3795.476 C 2993.118 3823.162, 3020.144 3852.324, 3059.602 3882.200 C 3072.246 3891.773, 3079.422 3896.419, 3099.525 3908.044 C 3138.013 3930.299, 3153.566 3943.726, 3162.414 3962.337 C 3169.625 3977.503, 3170.693 3994.931, 3165.979 4020.500 C 3163.170 4035.738, 3162.427 4050.136, 3163.957 4059.688 C 3164.645 4063.985, 3168.104 4077.625, 3171.642 4090 C 3180.349 4120.448, 3181.552 4128.574, 3184.524 4177 C 3188.408 4240.267, 3191.861 4255.671, 3219.494 4333 C 3231.871 4367.636, 3236.380 4381.565, 3240.931 4399.226 C 3247.334 4424.074, 3250.663 4452.185, 3249.460 4471.250 L 3248.781 4482 3271.391 4482 L 3294 4482 3294 2679 L 3294 876 2250 876 L 1206 876 1206 2679 M 2218.500 940.039 C 2173.599 947.027, 2135.878 980.550, 2124.253 1023.794 C 2121.924 1032.459, 2121.644 1035.324, 2121.644 1050.500 C 2121.644 1065.661, 2121.926 1068.546, 2124.244 1077.170 C 2129.717 1097.523, 2135.828 1108.114, 2152.215 1125.643 C 2157.403 1131.193, 2163.390 1137.859, 2165.519 1140.458 L 2169.390 1145.182 2166.174 1171.841 C 2154.335 1269.974, 2149.680 1347.811, 2149.569 1449.500 C 2149.509 1504.084, 2149.745 1514.779, 2151.336 1529.555 C 2153.629 1550.864, 2153.365 1570.280, 2150.727 1574.299 L 2148.954 1577 1956.322 1577 L 1763.690 1577 1759.910 1580.974 C 1757.129 1583.897, 1755.919 1586.209, 1755.330 1589.724 C 1754.889 1592.351, 1754.522 1616.550, 1754.514 1643.500 C 1754.496 1707.741, 1753.918 1705.664, 1771.645 1705.138 C 1777.615 1704.961, 1797.445 1705.625, 1815.711 1706.613 C 1843.077 1708.095, 1850.970 1708.206, 1860.556 1707.248 C 1873.945 1705.910, 1874.003 1705.883, 1889.559 1693.781 C 1902.473 1683.734, 1904.131 1682.823, 1915.475 1679.535 C 1936.037 1673.577, 1960.760 1673.834, 2011.549 1680.537 C 2069.519 1688.188, 2092.451 1692.953, 2094.563 1697.787 C 2094.975 1698.729, 2099.921 2001.499, 2105.555 2370.610 L 2115.798 3041.720 2118.019 3045.110 L 2120.241 3048.500 2132.871 3048.165 C 2149.166 3047.733, 2162.441 3049.876, 2196 3058.359 C 2227.339 3066.281, 2237.225 3068, 2251.426 3067.998 C 2268.840 3067.996, 2322.280 3063.710, 2340.914 3060.822 C 2348.675 3059.619, 2351.547 3057.865, 2352.454 3053.775 C 2352.731 3052.524, 2357.918 2750.900, 2363.981 2383.500 C 2370.043 2016.100, 2375.115 1711.230, 2375.251 1706.011 C 2375.488 1696.984, 2375.622 1696.464, 2378 1695.332 C 2384.031 1692.463, 2431.842 1683.809, 2465 1679.585 C 2505.956 1674.368, 2529.292 1673.906, 2548.731 1677.927 C 2561.533 1680.575, 2566.453 1683.101, 2582.649 1695.340 L 2596.755 1706 2653.748 1706 L 2710.742 1706 2711.350 1699.250 C 2713.347 1677.115, 2714.392 1651.680, 2714.443 1624 C 2714.507 1588.582, 2713.901 1583.777, 2708.825 1579.506 L 2705.847 1577 2512.423 1577 L 2319 1577 2319 1454.208 C 2319 1352.262, 2318.751 1329.472, 2317.535 1319.958 C 2315.734 1305.864, 2314.365 1287.292, 2313.006 1258.500 C 2311.312 1222.636, 2310.075 1210.600, 2305.860 1189 C 2301.399 1166.139, 2299.934 1148.759, 2301.953 1142.643 C 2302.889 1139.808, 2305.744 1136.743, 2313.842 1129.883 C 2325.464 1120.039, 2329.028 1115.637, 2335.208 1103.500 C 2343.869 1086.492, 2347.006 1072.678, 2346.987 1051.640 C 2346.972 1035.195, 2345.086 1024.395, 2339.764 1010.258 C 2326.918 976.140, 2299.207 951.909, 2262.074 942.324 C 2251.271 939.536, 2229.178 938.377, 2218.500 940.039 M 1365.421 983.885 C 1362.311 985.781, 1361.859 986.579, 1351.134 1009.079 C 1339.852 1032.747, 1322.725 1043.901, 1297.500 1044.009 C 1283.220 1044.070, 1277.176 1046.260, 1274.132 1052.473 C 1271.414 1058.021, 1273.814 1062.066, 1288.986 1077.500 C 1308.971 1097.831, 1314.508 1107.414, 1314.408 1121.500 C 1314.369 1126.952, 1313.724 1129.937, 1311.491 1135 C 1309.106 1140.410, 1308.563 1143.179, 1308.253 1151.514 C 1307.910 1160.726, 1308.070 1161.806, 1310.247 1165.014 C 1312.468 1168.288, 1312.946 1168.499, 1318.090 1168.485 C 1322.995 1168.471, 1324.442 1167.909, 1331.929 1163.107 C 1348.644 1152.384, 1360.488 1148.491, 1374 1149.277 C 1384.771 1149.903, 1393.019 1152.968, 1405.274 1160.899 C 1416.172 1167.952, 1418.669 1169, 1424.565 1169 C 1434.605 1169, 1436.202 1161.175, 1430.995 1137.500 C 1425.785 1113.812, 1431.817 1095.146, 1449.832 1079.205 C 1464.088 1066.589, 1467.827 1062.440, 1468.586 1058.392 C 1470.272 1049.406, 1463.433 1045.345, 1444.384 1044.022 C 1437.298 1043.530, 1429.025 1042.374, 1426 1041.453 C 1406.363 1035.476, 1394.469 1022.487, 1384.529 996.162 C 1379.740 983.480, 1373.091 979.208, 1365.421 983.885 M 3136.557 986.279 C 3133.708 989.252, 3131.423 993.233, 3129.068 999.324 C 3122.398 1016.578, 3112.368 1030.184, 3101.719 1036.424 C 3093.227 1041.401, 3086.367 1043.104, 3071.500 1043.924 C 3051.930 1045.004, 3046.992 1047.534, 3047.007 1056.473 C 3047.015 1061.864, 3048.599 1064.011, 3062.703 1077.748 C 3086.974 1101.388, 3092.926 1118.101, 3084.008 1137.572 C 3081.034 1144.066, 3080.859 1145.078, 3081.214 1153.738 C 3081.695 1165.509, 3083.408 1168.349, 3090.298 1168.803 C 3095.360 1169.136, 3097.394 1168.293, 3107.867 1161.517 C 3128.901 1147.911, 3147.579 1145.559, 3166.937 1154.081 C 3169.447 1155.185, 3175.690 1158.847, 3180.812 1162.217 C 3188.674 1167.392, 3190.968 1168.416, 3195.550 1168.796 C 3207.944 1169.823, 3210.238 1162.661, 3204.773 1140 C 3198.448 1113.774, 3205.415 1093.642, 3227.048 1075.630 C 3238.059 1066.461, 3242 1061.298, 3242 1056.038 C 3242 1048.219, 3236.219 1045.373, 3217.633 1044.045 C 3198.207 1042.657, 3188.216 1038.919, 3177.606 1029.070 C 3170.648 1022.610, 3164.143 1012.197, 3159.495 1000.074 C 3154.529 987.121, 3150.276 982, 3144.483 982 C 3141.283 982, 3139.986 982.700, 3136.557 986.279 M 1367.500 1512.922 C 1363.412 1514.701, 1359.759 1520.028, 1355.411 1530.549 C 1349.860 1543.983, 1341.459 1556.800, 1334.708 1562.137 C 1323.926 1570.659, 1314.534 1573.768, 1297 1574.621 C 1280.182 1575.438, 1274.703 1577.737, 1273.432 1584.510 C 1272.380 1590.121, 1275.766 1595.398, 1287.366 1606.219 C 1313.141 1630.266, 1319.933 1648.470, 1310.537 1668.330 C 1308.423 1672.799, 1308 1675.151, 1308 1682.445 C 1308 1692.479, 1309.805 1697.595, 1313.893 1699.149 C 1317.894 1700.671, 1322.015 1699.400, 1331.119 1693.838 C 1362.365 1674.748, 1380.095 1674.500, 1407.771 1692.765 C 1418.024 1699.532, 1423.731 1701.197, 1428.627 1698.849 C 1430.175 1698.107, 1432.011 1696.375, 1432.706 1695 C 1434.575 1691.305, 1434.239 1681.518, 1431.951 1673 C 1424.509 1645.294, 1431.738 1623.507, 1454.399 1605.347 C 1467.324 1594.989, 1470.948 1588.667, 1467.633 1582.256 C 1465.199 1577.550, 1460.088 1575.749, 1446.530 1574.822 C 1432.554 1573.866, 1424.866 1572.119, 1416.335 1567.962 C 1404.086 1561.994, 1393.222 1548.981, 1386.987 1532.809 C 1382.813 1521.982, 1380.725 1517.995, 1377.799 1515.265 C 1375.055 1512.705, 1370.420 1511.650, 1367.500 1512.922 M 3138.973 1514.250 C 3135.546 1516.570, 3134.103 1519.059, 3124.629 1539 C 3112.966 1563.546, 3097.942 1573.445, 3070.520 1574.650 C 3056.667 1575.259, 3053.174 1576.099, 3049.588 1579.685 C 3046.734 1582.538, 3046.068 1588.342, 3048.137 1592.316 C 3048.763 1593.517, 3055.626 1601.028, 3063.387 1609.007 C 3078.202 1624.235, 3083.779 1632.126, 3086.653 1641.925 C 3088.945 1649.743, 3088.070 1658.742, 3084.149 1667.668 C 3079.177 1678.985, 3079.955 1693.460, 3085.782 1698.043 C 3088.949 1700.534, 3094.464 1700.142, 3099.500 1697.068 C 3101.150 1696.060, 3106.295 1692.926, 3110.934 1690.104 C 3135.522 1675.140, 3156.387 1675.951, 3181.160 1692.833 C 3193.288 1701.098, 3200.713 1701.969, 3205.398 1695.677 C 3208.240 1691.859, 3208.106 1683.264, 3205.021 1671.500 C 3203.282 1664.871, 3202.667 1659.866, 3202.686 1652.500 C 3202.738 1632.203, 3210.039 1619.904, 3233.663 1600.322 C 3248.585 1587.953, 3242.910 1575.072, 3222.500 1574.986 C 3190.657 1574.851, 3170.778 1560.711, 3159.305 1530.035 C 3155.856 1520.814, 3152.394 1515.255, 3149.011 1513.506 C 3145.035 1511.450, 3142.871 1511.610, 3138.973 1514.250 M 1364.306 2045.396 C 1361.251 2047.967, 1359.029 2052.031, 1354.014 2064.220 C 1348.109 2078.576, 1339.635 2089.657, 1329.572 2096.184 C 1320.796 2101.877, 1312.773 2104.026, 1297 2104.907 C 1281.390 2105.778, 1276.755 2107.350, 1274.240 2112.623 C 1271.254 2118.886, 1273.444 2122.744, 1288.361 2137.500 C 1307.989 2156.915, 1314.385 2167.852, 1314.385 2182 C 1314.385 2188.075, 1313.841 2190.735, 1311.521 2196 C 1309.390 2200.834, 1308.551 2204.527, 1308.247 2210.410 C 1307.728 2220.442, 1308.522 2224.613, 1311.521 2227.612 C 1315.484 2231.575, 1320.222 2230.880, 1330.085 2224.888 C 1348.975 2213.412, 1358.416 2209.991, 1371.144 2210.012 C 1383.454 2210.032, 1393.754 2213.697, 1407.147 2222.824 C 1415.919 2228.802, 1418.757 2230, 1424.142 2230 C 1427.243 2230, 1428.818 2229.336, 1431.077 2227.077 C 1433.743 2224.411, 1433.998 2223.554, 1433.976 2217.327 C 1433.964 2213.572, 1433.038 2207.125, 1431.919 2203 C 1428.973 2192.139, 1428.349 2179.070, 1430.390 2171 C 1434.044 2156.551, 1440.653 2147.236, 1456.845 2133.711 C 1468.356 2124.097, 1471.403 2117.325, 1466.832 2111.514 C 1463.526 2107.311, 1458.746 2105.875, 1445.039 2104.966 C 1413.121 2102.849, 1396.840 2090, 1384.533 2057.214 C 1380.891 2047.512, 1376.661 2043, 1371.209 2043 C 1368.389 2043, 1366.286 2043.730, 1364.306 2045.396 M 3136.631 2046.568 C 3134.363 2048.903, 3131.701 2053.781, 3128.930 2060.673 C 3119.709 2083.618, 3107.044 2096.962, 3089.099 2102.642 C 3086.570 2103.443, 3078.200 2104.450, 3070.500 2104.880 C 3052.047 2105.910, 3046.995 2108.511, 3047.004 2116.973 C 3047.009 2122.157, 3049.833 2126.020, 3063.423 2139.427 C 3077.152 2152.973, 3083.075 2161.290, 3086.158 2171.353 C 3088.851 2180.145, 3088.325 2188.094, 3084.458 2197.017 C 3078.861 2209.935, 3080.523 2227.838, 3087.482 2229.585 C 3092.137 2230.753, 3096.962 2229.217, 3105.168 2223.953 C 3120.779 2213.939, 3132.031 2210, 3145.029 2210 C 3156.544 2210, 3168.925 2214.450, 3180.123 2222.614 C 3190.517 2230.191, 3199.956 2232.134, 3204.465 2227.626 C 3208.401 2223.690, 3208.635 2217.850, 3205.421 2203.769 C 3198.131 2171.825, 3204.392 2155.056, 3232.371 2131.587 C 3239.278 2125.793, 3241.991 2121.733, 3241.996 2117.184 C 3242.006 2108.902, 3236.654 2106.104, 3218.577 2104.942 C 3197.946 2103.615, 3186.970 2099.275, 3175.971 2088.098 C 3169.106 2081.122, 3162.469 2069.719, 3157.923 2057.090 C 3156.560 2053.303, 3154.121 2049.108, 3151.962 2046.840 C 3148.883 2043.603, 3147.665 2043, 3144.203 2043 C 3140.809 2043, 3139.495 2043.619, 3136.631 2046.568 M 1363.095 2618.783 C 1360.769 2621.231, 1358.157 2625.964, 1355.694 2632.195 C 1348.922 2649.326, 1340.731 2660.675, 1329.937 2667.883 C 1320.989 2673.858, 1313.009 2676.040, 1297 2676.888 C 1281.411 2677.713, 1276.786 2679.285, 1274.240 2684.623 C 1271.251 2690.892, 1273.443 2694.744, 1288.399 2709.500 C 1308.096 2728.934, 1314.300 2739.569, 1314.356 2754 C 1314.380 2760.130, 1313.859 2762.687, 1311.508 2768 C 1307.763 2776.460, 1306.843 2791.361, 1309.718 2796.989 C 1313.089 2803.590, 1319.794 2803.532, 1330.130 2796.814 C 1346.386 2786.249, 1358.260 2782, 1371.529 2782 C 1383.559 2782, 1393.253 2785.374, 1406 2793.998 C 1419.163 2802.902, 1425.889 2804.265, 1431.077 2799.077 C 1433.743 2796.411, 1433.998 2795.554, 1433.976 2789.327 C 1433.964 2785.572, 1433.044 2779.125, 1431.934 2775 C 1424.273 2746.547, 1431.866 2725.579, 1457.141 2705.393 C 1468.216 2696.547, 1471.400 2689.006, 1466.513 2683.197 C 1463.049 2679.081, 1456.733 2677.332, 1442.862 2676.649 C 1413.872 2675.221, 1397.071 2661.691, 1384.932 2630 C 1380.751 2619.087, 1376.941 2615, 1370.945 2615 C 1367.322 2615, 1366.156 2615.562, 1363.095 2618.783 M 3136.678 2618.519 C 3134.536 2620.725, 3131.691 2625.857, 3129.055 2632.269 C 3116.122 2663.727, 3098.420 2676.909, 3069 2676.988 C 3058.894 2677.015, 3054.126 2678.182, 3050.031 2681.627 C 3047.549 2683.716, 3047.001 2684.931, 3047.004 2688.339 C 3047.009 2694.223, 3049.381 2697.540, 3063.474 2711.375 C 3077.233 2724.881, 3083.054 2733.075, 3086.163 2743.311 C 3088.848 2752.150, 3088.322 2760.099, 3084.462 2769.017 C 3079.438 2780.625, 3080.282 2797.940, 3086.021 2801.011 C 3090.535 2803.427, 3097.023 2801.478, 3106.827 2794.762 C 3112.514 2790.866, 3126.285 2784.551, 3132.193 2783.129 C 3147.812 2779.371, 3166.396 2784.065, 3181.744 2795.645 C 3190.598 2802.325, 3200.307 2803.930, 3204.501 2799.405 C 3208.401 2795.196, 3208.613 2789.753, 3205.421 2775.769 C 3198.142 2743.870, 3204.537 2726.727, 3232.355 2703.576 C 3239.248 2697.840, 3241.991 2693.745, 3241.996 2689.184 C 3242.005 2681.002, 3236.663 2678.145, 3219.099 2676.942 C 3197.781 2675.482, 3187.257 2671.354, 3175.999 2660.036 C 3169.003 2653.003, 3164.094 2644.678, 3158.421 2630.227 C 3154.068 2619.140, 3150.243 2615, 3144.352 2615 C 3140.798 2615, 3139.533 2615.580, 3136.678 2618.519 M 1367.300 3187.516 C 1363.048 3189.304, 1359.768 3194.046, 1355.595 3204.437 C 1345.855 3228.690, 1331.958 3242.747, 1313.469 3247.050 C 1310.736 3247.686, 1302.604 3248.531, 1295.398 3248.930 C 1280.707 3249.741, 1276.316 3251.408, 1273.975 3257.061 C 1271.459 3263.135, 1273.801 3267.096, 1288.429 3281.500 C 1308.049 3300.820, 1314.300 3311.549, 1314.356 3326 C 1314.379 3332.116, 1313.856 3334.700, 1311.521 3340 C 1309.390 3344.834, 1308.551 3348.527, 1308.247 3354.410 C 1307.728 3364.442, 1308.522 3368.613, 1311.521 3371.612 C 1316.054 3376.145, 1320.348 3374.948, 1337.615 3364.340 C 1361.580 3349.616, 1382.675 3350.191, 1406.300 3366.210 C 1418.331 3374.368, 1425.587 3375.980, 1430.655 3371.621 C 1434.553 3368.268, 1435.062 3358.904, 1431.993 3347 C 1424.902 3319.487, 1431.315 3298.957, 1452.469 3281.456 C 1466.667 3269.711, 1470.682 3263.474, 1468.084 3257.203 C 1465.917 3251.972, 1460.499 3249.928, 1446.203 3248.949 C 1439.216 3248.471, 1430.841 3247.374, 1427.592 3246.511 C 1407.851 3241.272, 1394.770 3227.651, 1384.977 3202.135 C 1380.043 3189.281, 1374.333 3184.559, 1367.300 3187.516 M 2415.919 3187.771 C 2397.033 3193.378, 2374.127 3197.384, 2337.500 3201.488 C 2305.267 3205.098, 2284.895 3206.303, 2256.500 3206.277 C 2216.971 3206.241, 2198.442 3203.860, 2156.641 3193.446 C 2144.006 3190.298, 2132.553 3188, 2129.500 3188 C 2122.271 3188, 2109.302 3191.526, 2083.413 3200.530 C 2043.424 3214.438, 2018.006 3224.837, 2003.788 3233.106 C 1998.320 3236.286, 1992.375 3241.494, 1979.985 3253.955 C 1951.188 3282.916, 1933.557 3295.975, 1909 3306.530 C 1904.325 3308.539, 1888.005 3314.407, 1872.733 3319.569 C 1857.461 3324.731, 1840.331 3330.767, 1834.666 3332.981 L 1824.366 3337.008 1823.194 3359.254 C 1821.917 3383.480, 1820.002 3395.122, 1814.898 3409.699 C 1804.663 3438.929, 1783.140 3465.144, 1741.316 3499.319 C 1722.679 3514.549, 1717.241 3520.102, 1706.184 3535.202 L 1702.008 3540.904 1702.654 3558.740 C 1703.370 3578.514, 1702.299 3590.604, 1698.512 3605.500 C 1687.474 3648.907, 1651.065 3685.126, 1601.052 3702.451 C 1580.435 3709.593, 1561.378 3713.603, 1525 3718.452 C 1514.275 3719.882, 1501.586 3721.758, 1496.802 3722.620 L 1488.103 3724.189 1479.793 3732.844 C 1475.222 3737.605, 1467.507 3746.107, 1462.648 3751.737 L 1453.814 3761.975 1454.272 3816.737 C 1454.709 3868.920, 1454.835 3871.948, 1456.952 3881 C 1465.661 3918.238, 1468.057 3938.989, 1466.167 3960.802 C 1462.755 4000.185, 1451.397 4027.697, 1422.262 4067.145 C 1407.020 4087.782, 1408.284 4084.312, 1404.475 4116 C 1401.058 4144.432, 1394.804 4166.460, 1384.081 4187.823 C 1376.777 4202.375, 1368.286 4215.257, 1350.196 4239.230 C 1342.422 4249.531, 1335.168 4259.711, 1334.076 4261.851 C 1328.733 4272.325, 1317.622 4326.186, 1309.653 4380.250 L 1306.299 4403 2230.150 4403 C 2738.267 4403, 3154 4402.871, 3154 4402.713 C 3154 4401.888, 3143.081 4370.381, 3135.146 4348.310 C 3110.679 4280.256, 3104.462 4250.958, 3100.491 4185 C 3098.143 4146.007, 3096.796 4135.896, 3091.489 4117.419 C 3082.613 4086.523, 3080.527 4076.834, 3078.995 4059.415 C 3077.851 4046.402, 3078.948 4028.887, 3082.043 4010.750 L 3084.130 3998.515 3081.335 3996.287 C 3079.797 3995.061, 3072.681 3990.599, 3065.520 3986.372 C 3033.048 3967.205, 3024.540 3961.763, 3010.012 3950.866 C 3001.480 3944.468, 2990 3935.488, 2984.500 3930.912 C 2970.622 3919.366, 2943.080 3891.595, 2933.015 3879 C 2915.735 3857.375, 2900.852 3831.500, 2893.902 3811 C 2891.171 3802.944, 2889.580 3800.129, 2883.435 3792.485 C 2876.804 3784.236, 2874.500 3782.302, 2856.303 3769.710 C 2809.574 3737.374, 2787.315 3716.153, 2771.940 3689.280 C 2758.652 3666.056, 2752.678 3638.122, 2754.986 3610 C 2756.191 3595.324, 2756.735 3591.951, 2762.169 3565.500 L 2766.278 3545.500 2764.061 3535.500 C 2759.708 3515.871, 2743.017 3469.358, 2735.738 3456.569 C 2732.986 3451.734, 2733.662 3451.925, 2703.500 3447.459 C 2661.658 3441.262, 2643.844 3436.326, 2620.010 3424.325 C 2590.536 3409.484, 2569.764 3390.976, 2550.969 3362.811 C 2545.281 3354.287, 2543.540 3352.400, 2540.143 3351.077 C 2536.218 3349.548, 2535.798 3348.903, 2526.434 3330 C 2514.703 3306.318, 2507.950 3290.151, 2492.528 3248.826 L 2480.708 3217.153 2469.104 3212.444 C 2454.191 3206.393, 2438.580 3198.461, 2428.393 3191.759 L 2420.338 3186.459 2415.919 3187.771 M 3142.542 3186.812 C 3136.943 3187.999, 3133.871 3192.093, 3128.441 3205.606 C 3123.559 3217.755, 3117.151 3227.719, 3109.905 3234.427 C 3099.219 3244.321, 3089.656 3247.862, 3071.500 3248.651 C 3057.924 3249.240, 3054.217 3250.105, 3049.975 3253.675 C 3047.551 3255.714, 3047.001 3256.949, 3047.004 3260.339 C 3047.009 3266.185, 3049.215 3269.269, 3063.394 3283.250 C 3077.247 3296.911, 3083.060 3305.096, 3086.163 3315.311 C 3088.846 3324.145, 3088.321 3332.096, 3084.466 3341.017 C 3082.489 3345.591, 3081.541 3349.704, 3081.245 3354.987 C 3080.130 3374.884, 3088.835 3379.130, 3106.246 3367.182 C 3130.710 3350.396, 3153.607 3349.421, 3176.465 3364.192 C 3191.692 3374.033, 3196.388 3375.603, 3202.399 3372.864 C 3205.071 3371.647, 3208 3365.655, 3208 3361.408 C 3208 3360.004, 3206.818 3353.826, 3205.373 3347.678 C 3198.257 3317.403, 3205.077 3297.588, 3229.251 3278.300 C 3237.966 3271.346, 3242 3265.895, 3242 3261.072 C 3242 3252.979, 3236.541 3250.029, 3219.517 3248.925 C 3204.892 3247.977, 3199.728 3246.809, 3190.111 3242.275 C 3176.169 3235.702, 3166.529 3223.408, 3158.100 3201.451 C 3153.935 3190.603, 3148.551 3185.537, 3142.542 3186.812 M 1901.500 3868.945 C 1897.383 3870.630, 1895.607 3873.822, 1895.552 3879.632 C 1895.507 3884.466, 1895.850 3885.471, 1898.250 3887.537 L 1901 3889.904 1901 3965.862 L 1901 4041.819 1895.750 4040.392 C 1887.776 4038.224, 1872.547 4037.547, 1862.924 4038.931 C 1852.744 4040.395, 1838.491 4045, 1831.163 4049.193 C 1820.553 4055.263, 1810.858 4065.906, 1806.558 4076.206 L 1805.010 4079.912 1812.271 4075.995 C 1822.246 4070.615, 1830.345 4068.659, 1842.500 4068.695 C 1855.143 4068.732, 1863.500 4070.779, 1876.954 4077.134 L 1887.408 4082.072 1905.137 4064.363 L 1922.867 4046.654 1918.683 4042.926 C 1915.644 4040.218, 1914.158 4039.478, 1913.250 4040.222 C 1912.255 4041.036, 1912 4035.399, 1912 4012.622 L 1912 3984 1930.500 3984 L 1949 3984 1949 4013.378 L 1949 4042.757 1942.590 4049.680 L 1936.180 4056.604 1940.834 4059.548 C 1946.069 4062.860, 1953.424 4068.930, 1962.932 4077.786 L 1969.365 4083.777 1972.932 4079.461 C 1976.325 4075.357, 1987.641 4066.314, 1998.500 4059.030 C 2001.250 4057.185, 2003.667 4055.544, 2003.871 4055.384 C 2004.075 4055.223, 2002.970 4053.081, 2001.415 4050.624 L 1998.589 4046.157 1995.715 4048.203 L 1992.840 4050.250 1988.920 4046.422 L 1985 4042.594 1985.027 3975.047 L 1985.053 3907.500 1990.837 3903.389 C 1995.598 3900.005, 2004 3889.945, 2004 3887.628 C 2004 3887.335, 2001.867 3887.737, 1999.261 3888.522 C 1990.960 3891.020, 1984.269 3888.132, 1972.500 3876.970 L 1965.500 3870.331 1948.249 3882.216 L 1930.999 3894.101 1933.249 3898.043 C 1935.469 3901.930, 1937.291 3902.956, 1938.500 3901 C 1939.228 3899.823, 1943 3899.642, 1943 3900.784 C 1943 3901.216, 1944.350 3902.366, 1946 3903.341 L 1949 3905.113 1949 3929.057 L 1949 3953 1930.500 3953 L 1912 3953 1912 3921.241 C 1912 3890.733, 1912.078 3889.433, 1913.969 3888.252 C 1915.051 3887.576, 1916.323 3885.555, 1916.795 3883.761 C 1919.412 3873.807, 1910.563 3865.236, 1901.500 3868.945 M 2107.594 3885.142 C 2091.115 3902.165, 2089.274 3904.874, 2092.200 3907.800 C 2094.494 3910.094, 2099.303 3908.973, 2108.500 3904 C 2115.800 3900.053, 2118.722 3899, 2122.374 3899 C 2124.918 3899, 2127 3899.405, 2127 3899.901 C 2127 3900.397, 2124.227 3903.204, 2120.838 3906.140 C 2110.728 3914.899, 2111.227 3911.716, 2110.837 3970 C 2110.652 3997.775, 2110.904 4027.268, 2111.397 4035.539 C 2112.454 4053.263, 2111.819 4055.498, 2103.785 4062.322 C 2101.080 4064.620, 2098.214 4067.730, 2097.416 4069.233 C 2096.093 4071.726, 2096.141 4072.141, 2097.962 4073.962 C 2100.194 4076.194, 2100.019 4076.207, 2117 4072.476 C 2137.902 4067.884, 2147.106 4068.189, 2182.464 4074.646 C 2208.096 4079.327, 2221.657 4081.155, 2225.456 4080.442 C 2228.112 4079.944, 2229.450 4078.521, 2233.705 4071.674 C 2245.650 4052.449, 2256 4033.190, 2256 4030.188 C 2256 4025.266, 2247.080 4023.066, 2243.405 4027.082 C 2242.357 4028.227, 2240.132 4031.940, 2238.459 4035.332 C 2234.500 4043.363, 2231.452 4044.996, 2220.419 4044.998 C 2215.975 4044.999, 2207.425 4044.078, 2201.419 4042.951 C 2180.628 4039.051, 2176.354 4038.681, 2167.106 4039.978 C 2162.373 4040.642, 2156.088 4041.429, 2153.140 4041.726 C 2147.861 4042.258, 2147.792 4042.230, 2148.517 4039.883 C 2148.922 4038.572, 2149.817 4036.375, 2150.506 4035 C 2152.964 4030.096, 2153.429 4025.220, 2153.464 4004 C 2153.516 3972.617, 2154.291 3971.477, 2173.500 3974.506 C 2199.594 3978.620, 2211.421 3977.394, 2218.255 3969.867 C 2223.972 3963.571, 2230.164 3950.520, 2229.797 3945.540 C 2229.396 3940.084, 2226.171 3939.473, 2221.528 3943.973 C 2216.841 3948.516, 2210.857 3948.882, 2195.119 3945.590 C 2180.031 3942.434, 2173.074 3942.318, 2167 3945.121 C 2164.525 3946.263, 2160.836 3947.800, 2158.802 3948.536 L 2155.104 3949.875 2154.354 3945.187 C 2153.439 3939.472, 2153.497 3919.184, 2154.449 3911.562 L 2155.144 3906 2189.853 3906 L 2224.563 3906 2230.111 3900.250 C 2235.325 3894.845, 2246.730 3880.696, 2251.997 3873.095 L 2254.357 3869.690 2248.429 3870.294 C 2245.168 3870.627, 2237.550 3871.615, 2231.500 3872.491 C 2204.676 3876.374, 2156.515 3875.064, 2138.060 3869.949 C 2125.120 3866.364, 2126.381 3865.735, 2107.594 3885.142 M 1728 3891.583 C 1710.125 3903.857, 1694.150 3915.537, 1692.500 3917.541 L 1689.500 3921.183 1688.911 3972.341 C 1688.587 4000.479, 1687.975 4024.724, 1687.550 4026.219 C 1687.126 4027.715, 1686.153 4029.458, 1685.389 4030.092 C 1684.625 4030.726, 1684 4032.148, 1684 4033.252 C 1684 4035.043, 1684.491 4035.205, 1688.538 4034.749 C 1698.559 4033.619, 1713.182 4023.650, 1718.776 4014.134 L 1721.500 4009.500 1722 3959.564 L 1722.500 3909.629 1731.268 3903.597 L 1740.035 3897.564 1743.584 3899.475 C 1748.329 3902.030, 1752.737 3907.214, 1755.899 3913.954 C 1758.193 3918.845, 1758.496 3920.740, 1758.468 3930 C 1758.442 3938.592, 1758.015 3941.560, 1756.116 3946.332 C 1753.532 3952.825, 1749.167 3958.345, 1744.852 3960.577 L 1742 3962.051 1742 3957.526 L 1742 3953 1736.500 3953 L 1731 3953 1731 3996.117 L 1731 4039.233 1728.750 4038.598 C 1715.651 4034.901, 1697.094 4035.212, 1684.500 4039.339 C 1663.815 4046.119, 1646.371 4060.575, 1637.245 4078.500 L 1635.208 4082.500 1644.854 4077.736 C 1658.881 4070.807, 1667.562 4068.809, 1684 4068.727 C 1699.693 4068.647, 1703.298 4069.543, 1718.091 4077.198 L 1727.681 4082.161 1734.383 4077.089 C 1748.863 4066.128, 1765.273 4060.555, 1783.165 4060.519 C 1788.481 4060.509, 1793.117 4060.213, 1793.469 4059.863 C 1793.820 4059.512, 1793.185 4057.712, 1792.058 4055.863 C 1790.085 4052.627, 1790.007 4051.049, 1790.004 4014.200 C 1790.001 3983.182, 1789.732 3975.387, 1788.589 3973.200 C 1785.494 3967.276, 1777.218 3961.859, 1769.230 3960.529 L 1764.960 3959.817 1770.074 3953.914 C 1776.988 3945.934, 1783.518 3934.238, 1786.667 3924.193 C 1791.574 3908.543, 1788.593 3892.186, 1778.900 3881.581 C 1774.229 3876.470, 1768.117 3872.118, 1762.835 3870.141 C 1760.810 3869.384, 1756.183 3872.232, 1728 3891.583 M 1828.800 3872.194 C 1821.787 3873.082, 1814.734 3876.566, 1809.654 3881.650 C 1803.853 3887.458, 1802.687 3890.410, 1802.210 3900.500 L 1801.785 3909.500 1804.142 3906.092 C 1810.511 3896.886, 1816.498 3896.087, 1834.573 3902.030 C 1845.254 3905.541, 1848.747 3906.261, 1854.679 3906.174 C 1863.772 3906.039, 1871.186 3903.470, 1879.407 3897.604 C 1890.901 3889.402, 1897.773 3878.855, 1889.598 3881.963 C 1884.463 3883.915, 1876.499 3883.165, 1867.779 3879.907 C 1863.225 3878.206, 1857.025 3875.911, 1854 3874.806 C 1847.272 3872.350, 1836.439 3871.227, 1828.800 3872.194 M 1641.836 3874.919 C 1626.779 3879.734, 1615.003 3892.782, 1615.001 3904.651 L 1615 3908.802 1618.035 3905.967 C 1624.461 3899.964, 1631.375 3899.749, 1648 3905.034 C 1658.890 3908.496, 1671.941 3910.988, 1679.381 3911.026 L 1684.500 3911.052 1677.977 3913.276 C 1659.218 3919.672, 1646.237 3935.038, 1645.701 3951.485 L 1645.500 3957.630 1639.732 3959.333 C 1629.447 3962.370, 1624 3970.218, 1624 3982 C 1624 3990.110, 1625.946 3994.873, 1631.394 4000.102 L 1636.500 4005.001 1637.132 4001.960 C 1637.933 3998.105, 1640.413 3995.345, 1643.628 3994.731 L 1646.135 3994.251 1645.818 4022.876 C 1645.533 4048.564, 1645.314 4051.774, 1643.684 4054.175 L 1641.868 4056.850 1647.401 4055.564 C 1658.580 4052.965, 1673.582 4040.396, 1678.804 4029.253 L 1681.500 4023.500 1682 3971.500 C 1682.511 3918.339, 1682.596 3917.240, 1686.434 3914.054 C 1687.283 3913.350, 1687.762 3912.423, 1687.497 3911.996 C 1687.233 3911.568, 1690.693 3909.938, 1695.186 3908.374 C 1709.673 3903.331, 1721.518 3893.217, 1724.080 3883.703 C 1725.490 3878.467, 1723.922 3877.435, 1719.313 3880.563 C 1712.598 3885.119, 1706.203 3884.968, 1690.283 3879.876 C 1668.669 3872.962, 1652.976 3871.356, 1641.836 3874.919 M 1887.842 3898.389 C 1878.277 3900.966, 1865.558 3910.338, 1860.114 3918.822 C 1857.004 3923.669, 1857 3923.692, 1857 3937.838 L 1857 3952 1849.750 3952.022 C 1840.758 3952.049, 1835.996 3954.069, 1830.300 3960.272 C 1822.391 3968.887, 1821.185 3980.407, 1827.236 3989.542 C 1829.953 3993.644, 1835.677 3999, 1837.344 3999 C 1837.705 3999, 1838 3996.945, 1838 3994.434 C 1838 3991.923, 1838.463 3989.003, 1839.030 3987.945 C 1840.659 3984.901, 1845.433 3983, 1851.450 3983 L 1857 3983 1857 4002.758 C 1857 4022.121, 1856.948 4022.616, 1854.387 4027.508 C 1852.950 4030.254, 1850.485 4033.861, 1848.909 4035.525 L 1846.044 4038.550 1853.343 4037.953 C 1867.156 4036.823, 1880.398 4028.132, 1887.077 4015.813 L 1890.500 4009.500 1891 3957 C 1891.275 3928.125, 1891.904 3903.825, 1892.399 3903 C 1892.893 3902.175, 1894.209 3900.488, 1895.323 3899.250 L 1897.349 3897 1894.924 3897.067 C 1893.591 3897.105, 1890.404 3897.699, 1887.842 3898.389 M 2632.646 3949.689 C 2623.491 3959.409, 2616 3967.938, 2616 3968.643 C 2616 3969.534, 2617.637 3969.905, 2621.375 3969.860 C 2626.707 3969.797, 2629.882 3970.845, 2633.250 3973.783 C 2634.850 3975.179, 2635 3978.118, 2635 4008.073 L 2635 4040.837 2631.570 4042.957 C 2624.002 4047.634, 2617.266 4058.428, 2616.362 4067.328 C 2616.072 4070.177, 2616.210 4071.999, 2616.668 4071.384 C 2617.843 4069.809, 2625.451 4066.070, 2630.691 4064.493 L 2635.118 4063.160 2634.809 4089.830 L 2634.500 4116.500 2631.759 4121.360 C 2630.251 4124.033, 2629.260 4126.611, 2629.556 4127.090 C 2629.851 4127.568, 2633.813 4125.949, 2638.359 4123.491 C 2652.098 4116.062, 2664.219 4112.556, 2671.505 4113.902 L 2675.510 4114.642 2672.755 4109.180 C 2670.089 4103.895, 2670 4103.198, 2670 4087.643 L 2670 4071.568 2675.250 4076.735 L 2680.500 4081.902 2689 4076.439 C 2704.203 4066.669, 2719.085 4062.275, 2732.659 4063.547 L 2740.018 4064.237 2737.521 4059.868 L 2735.024 4055.500 2735.012 4014.418 L 2735 3973.335 2738.750 3970.912 C 2743.764 3967.672, 2749 3959.742, 2749 3955.387 C 2749 3951.608, 2748.981 3951.600, 2743.766 3953.048 C 2735.845 3955.248, 2727.649 3950.071, 2718.884 3937.332 C 2717.162 3934.829, 2715.471 3933.236, 2715.127 3933.793 C 2713.990 3935.628, 2670.599 3969.933, 2670.076 3969.410 C 2669.795 3969.128, 2669.265 3965.414, 2668.899 3961.156 C 2667.794 3948.299, 2662.972 3940.166, 2652.896 3934.164 L 2649.291 3932.017 2632.646 3949.689 M 2533.500 3937.167 C 2525.180 3941.885, 2507.207 3949.923, 2497.708 3953.175 C 2491.409 3955.331, 2490.960 3955.677, 2491.525 3957.939 C 2491.859 3959.280, 2493.003 3961.600, 2494.066 3963.093 C 2495.903 3965.673, 2496 3967.877, 2495.990 4007.154 L 2495.981 4048.500 2492.490 4052.891 C 2490.571 4055.306, 2489.001 4057.331, 2489.002 4057.391 C 2489.003 4057.451, 2490.543 4057.609, 2492.424 4057.743 C 2503.929 4058.562, 2523.179 4069.171, 2538.402 4083.085 L 2544.285 4088.462 2554.893 4077.275 L 2565.500 4066.088 2577 4077.038 C 2583.325 4083.061, 2588.801 4087.879, 2589.169 4087.744 C 2589.537 4087.610, 2593.985 4082.775, 2599.052 4077 C 2604.120 4071.225, 2610.233 4064.393, 2612.637 4061.818 C 2617.551 4056.554, 2617.610 4056.631, 2607.802 4055.516 C 2601.194 4054.766, 2597.808 4052.503, 2594.972 4046.945 C 2593.093 4043.262, 2593 4040.888, 2593 3996.726 L 2593 3950.372 2567.213 3941.686 C 2553.029 3936.909, 2541.217 3933.045, 2540.963 3933.099 C 2540.708 3933.153, 2537.350 3934.984, 2533.500 3937.167 M 2443.712 3941.593 C 2435.470 3950.491, 2422.242 3956, 2409.119 3956 C 2404.704 3956, 2402.118 3955.512, 2400.956 3954.460 C 2399.368 3953.023, 2399.314 3953.207, 2400.146 3957.210 C 2403.780 3974.680, 2403.931 3976.822, 2403.965 4011.547 L 2404 4046.594 2399.915 4050.547 C 2395.747 4054.581, 2392.845 4059.353, 2390.474 4066.074 L 2389.145 4069.842 2392.586 4067.506 C 2397.278 4064.322, 2402.266 4063.667, 2411.839 4064.978 C 2424.638 4066.730, 2434.115 4070.503, 2445.263 4078.285 C 2448.432 4080.498, 2451.170 4082.126, 2451.346 4081.904 C 2451.522 4081.682, 2457.865 4073.863, 2465.441 4064.530 L 2479.217 4047.559 2475.447 4044.394 L 2471.677 4041.229 2467.839 4046.085 L 2464.001 4050.940 2460.464 4048.540 C 2456.927 4046.140, 2443.712 4041.377, 2439 4040.804 L 2436.500 4040.500 2436.237 4004.193 L 2435.975 3967.886 2439.737 3970.883 C 2449.289 3978.491, 2465.235 3977.405, 2475.916 3968.418 C 2481.114 3964.043, 2486.707 3950.736, 2483.760 3949.753 C 2483.120 3949.540, 2480.687 3950.433, 2478.353 3951.738 C 2475.083 3953.566, 2473.292 3953.958, 2470.559 3953.445 C 2465.786 3952.550, 2458.997 3947.911, 2453.240 3941.612 L 2448.500 3936.425 2443.712 3941.593 M 2824.661 3938.584 C 2818.529 3942.751, 2802.028 3950.640, 2794.500 3953.004 C 2790.503 3954.259, 2783.523 3955.432, 2778.230 3955.738 C 2770.243 3956.200, 2768.687 3956.027, 2766.980 3954.482 C 2765.072 3952.756, 2765 3952.760, 2765.005 3954.595 C 2765.007 3955.643, 2766.121 3959.200, 2767.481 3962.500 L 2769.953 3968.500 2769.976 4008.677 L 2770 4048.854 2766.617 4051.677 C 2764.756 4053.230, 2761.142 4057.507, 2758.587 4061.182 L 2753.940 4067.864 2764.791 4067.292 C 2782.943 4066.334, 2798.302 4069.600, 2814.890 4077.943 C 2822.990 4082.017, 2823.341 4082.100, 2825.008 4080.332 C 2825.958 4079.324, 2831.804 4072.875, 2838 4066 C 2844.195 4059.125, 2849.863 4053.013, 2850.595 4052.417 C 2851.657 4051.553, 2851.125 4050.551, 2847.963 4047.464 L 2844 4043.594 2840.098 4047.405 L 2836.195 4051.215 2829.848 4048.685 C 2822.907 4045.918, 2808.393 4042, 2805.083 4042 C 2803.089 4042, 2803 4041.493, 2803 4030.068 C 2803 4015.908, 2799.696 4019.402, 2829.500 4002.043 C 2841.050 3995.315, 2851.486 3989.185, 2852.692 3988.421 C 2854.883 3987.031, 2854.882 3987.027, 2849.521 3978.488 C 2842.591 3967.451, 2834.840 3952.232, 2831.955 3944 C 2830.702 3940.425, 2829.395 3937.168, 2829.051 3936.763 C 2828.707 3936.358, 2826.732 3937.177, 2824.661 3938.584 M 2334.284 3944.263 C 2326.407 3952.283, 2320.435 3955.097, 2307.363 3956.948 C 2299.400 3958.076, 2284.730 3956.708, 2281.403 3954.528 C 2278.468 3952.605, 2278.225 3953.901, 2280.500 3959.346 C 2281.712 3962.246, 2282 3968.305, 2282 3990.903 C 2282 4019.180, 2281.574 4023.081, 2278.211 4025.637 C 2276.756 4026.742, 2277.565 4026.941, 2283.625 4026.968 C 2287.544 4026.986, 2292.151 4027.280, 2293.863 4027.623 L 2296.976 4028.245 2292.025 4033.663 C 2286.467 4039.744, 2276.194 4054.710, 2272.288 4062.416 C 2270.221 4066.495, 2265 4080.291, 2265 4081.675 C 2265 4081.854, 2267.013 4082, 2269.474 4082 C 2273.383 4082, 2274.135 4081.639, 2275.423 4079.148 C 2277.476 4075.179, 2283.124 4070.444, 2287.549 4068.984 C 2291.585 4067.652, 2300.707 4068.276, 2304.355 4070.135 C 2305.535 4070.736, 2309.021 4073.684, 2312.102 4076.686 L 2317.704 4082.144 2324.269 4077.175 C 2334.619 4069.341, 2348.667 4065.183, 2360.706 4066.391 C 2363.893 4066.711, 2369.514 4067.253, 2373.198 4067.596 L 2379.896 4068.220 2377.948 4064.398 C 2376.151 4060.874, 2376 4058.348, 2376 4031.854 C 2376 4016.056, 2376.384 4002.088, 2376.854 4000.815 C 2377.323 3999.542, 2378.014 3997.235, 2378.388 3995.688 L 2379.069 3992.876 2364.328 3993.593 L 2349.587 3994.310 2352.823 3990.405 C 2366.935 3973.380, 2369.998 3969.386, 2373.689 3963.200 C 2378.579 3955.002, 2383.853 3943.003, 2383.292 3941.352 C 2382.509 3939.049, 2374.710 3941.050, 2371 3944.504 C 2366.388 3948.799, 2363.881 3950, 2359.526 3950 C 2354.978 3950, 2349.239 3947.098, 2344.078 3942.189 L 2340.067 3938.374 2334.284 3944.263 M 2529.772 3996.311 L 2530.043 4036.623 2534.772 4038.916 C 2537.372 4040.177, 2543.228 4043.637, 2547.784 4046.605 C 2552.341 4049.572, 2556.278 4052, 2556.534 4052 C 2556.790 4052, 2557 4032.936, 2557 4009.635 L 2557 3967.270 2543.605 3961.635 C 2536.238 3958.536, 2530.050 3956, 2529.855 3956 C 2529.660 3955.999, 2529.622 3974.140, 2529.772 3996.311 M 2803.667 3963.667 C 2803.300 3964.033, 2803 3973.261, 2803 3984.173 L 2803 4004.013 2811.367 3998.445 L 2819.735 3992.876 2815.489 3985.425 C 2813.153 3981.327, 2809.951 3974.611, 2808.371 3970.500 C 2805.546 3963.145, 2804.992 3962.341, 2803.667 3963.667 M 2317.750 3966.689 C 2316.157 3967.106, 2316 3968.936, 2316 3987.073 C 2316 4010.359, 2315.770 4010.005, 2325.393 4001.556 C 2333.848 3994.133, 2353.968 3972.436, 2351.545 3973.354 C 2344.104 3976.173, 2336.678 3974.984, 2327.609 3969.523 C 2321.787 3966.018, 2321.088 3965.817, 2317.750 3966.689 M 2679.643 3975.668 L 2670 3983.336 2670 4010.434 L 2670 4037.531 2675.250 4039.395 C 2682.294 4041.896, 2689.621 4046.727, 2694.589 4052.147 C 2696.839 4054.600, 2699.201 4056.433, 2699.839 4056.220 C 2700.695 4055.935, 2701 4044.958, 2701 4014.417 C 2701 3974.702, 2700.924 3973, 2699.140 3973 C 2698.116 3973, 2695.621 3971.875, 2693.595 3970.500 C 2691.569 3969.125, 2689.771 3968, 2689.599 3968 C 2689.427 3968, 2684.947 3971.451, 2679.643 3975.668 M 1742 3979.937 C 1742 3986.770, 1742.108 3987.091, 1744.750 3988.118 C 1746.458 3988.782, 1748.826 3988.868, 1751 3988.344 C 1754.044 3987.610, 1754.542 3987.059, 1754.824 3984.112 C 1755.522 3976.803, 1753.895 3974.795, 1746.250 3973.528 L 1742 3972.824 1742 3979.937 M 1741.999 4006.829 L 1742 4014.159 1744.935 4013.514 C 1746.549 4013.160, 1749.474 4013.313, 1751.435 4013.854 L 1755 4014.839 1754.997 4007.169 L 1754.995 3999.500 1748.497 3999.500 L 1741.999 3999.500 1741.999 4006.829 M 2315.441 4027.250 C 2297.720 4045.297, 2298.373 4043.567, 2309.291 4043.563 C 2317.422 4043.560, 2319.125 4043.885, 2323.840 4046.342 C 2326.777 4047.873, 2331.123 4050.916, 2333.498 4053.105 C 2337.009 4056.341, 2338.299 4056.963, 2340.408 4056.434 L 2343 4055.783 2343 4035.392 L 2343 4015 2335.235 4015 L 2327.470 4015 2315.441 4027.250 M 1744.250 4026.008 C 1742.155 4026.872, 1742 4027.547, 1742 4035.838 L 1742 4044.741 1748.250 4048.851 L 1754.500 4052.960 1754.780 4039.843 C 1754.934 4032.629, 1754.934 4026.615, 1754.780 4026.478 C 1753.777 4025.586, 1746.105 4025.244, 1744.250 4026.008 M 2810.382 4187.253 C 2806.597 4191.240, 2800.449 4197.312, 2796.720 4200.745 L 2789.939 4206.988 2795.440 4213.473 L 2800.940 4219.957 2804.016 4216.129 C 2805.708 4214.024, 2809.563 4210.168, 2812.584 4207.560 L 2818.076 4202.819 2826.432 4211.174 L 2834.787 4219.530 2839.973 4213.754 C 2842.826 4210.578, 2845.011 4207.617, 2844.830 4207.176 C 2844.648 4206.735, 2838.372 4200.441, 2830.882 4193.189 L 2817.265 4180.004 2810.382 4187.253 M 1489.993 4193.713 L 1475.500 4202.943 1475.210 4194.971 L 1474.919 4187 1470.968 4187 L 1467.018 4187 1466.759 4239.814 L 1466.500 4292.627 1463.290 4291.796 L 1460.081 4290.964 1459.790 4248.232 C 1459.506 4206.331, 1459.457 4205.420, 1457.289 4201.366 C 1454.150 4195.498, 1449.365 4191.057, 1443.086 4188.182 C 1438.019 4185.862, 1437.203 4185.768, 1430.764 4186.765 C 1422.530 4188.039, 1418.032 4190.795, 1414.058 4197 C 1410.912 4201.914, 1408 4210.689, 1408 4215.259 L 1408 4218.155 1411.250 4213.930 C 1419.218 4203.570, 1432.392 4203.123, 1437.520 4213.039 C 1438.563 4215.056, 1439 4219.143, 1439 4226.889 L 1439 4237.877 1434.250 4238.564 C 1425.703 4239.799, 1421.015 4244.158, 1419.586 4252.197 C 1418.792 4256.667, 1420.792 4262.041, 1424.117 4264.369 C 1427.297 4266.597, 1428.802 4266.416, 1429.180 4263.759 C 1429.584 4260.931, 1434.648 4258.289, 1436.921 4259.721 C 1438.232 4260.546, 1438.547 4263.419, 1438.774 4276.610 L 1439.047 4292.505 1434.024 4294.890 C 1428.321 4297.598, 1421.561 4304.413, 1419.365 4309.668 C 1418.550 4311.620, 1418.045 4313.378, 1418.243 4313.576 C 1418.441 4313.774, 1421.885 4312.825, 1425.897 4311.468 C 1437.506 4307.540, 1446.278 4308.590, 1460.124 4315.562 L 1467.249 4319.151 1470.375 4316.173 C 1472.094 4314.536, 1478.225 4309.816, 1484 4305.684 L 1494.500 4298.173 1496.625 4302.836 C 1500.972 4312.379, 1507.826 4319, 1513.357 4319 C 1514.212 4319, 1518.373 4314.613, 1522.604 4309.250 C 1526.835 4303.887, 1531 4298.684, 1531.860 4297.687 C 1533.349 4295.961, 1533.183 4295.907, 1528.352 4296.548 C 1523.334 4297.213, 1519.457 4296.134, 1517.765 4293.600 C 1517.361 4292.995, 1517.024 4274.022, 1517.015 4251.438 L 1517 4210.376 1520.060 4208.114 C 1523.776 4205.366, 1526.991 4200.315, 1526.996 4197.215 C 1526.999 4195.265, 1526.716 4195.082, 1525.066 4195.965 C 1519.903 4198.728, 1513.154 4195.847, 1507.535 4188.480 L 1504.487 4184.482 1489.993 4193.713 M 2553.165 4186.908 C 2544.431 4189.924, 2534 4202.316, 2534 4209.676 C 2534 4211.944, 2534.027 4211.940, 2538.250 4208.982 C 2545.525 4203.886, 2556.146 4203.728, 2561.971 4208.629 C 2566.686 4212.597, 2566.009 4218.363, 2561.198 4215.210 C 2559.510 4214.104, 2556.713 4213.553, 2553.063 4213.606 C 2543.506 4213.747, 2536.110 4219.039, 2531.747 4228.858 C 2529.918 4232.974, 2529.901 4233.452, 2531.433 4237.463 L 2533.055 4241.710 2536.910 4237.855 C 2539.999 4234.766, 2541.502 4234, 2544.478 4234 C 2548.379 4234, 2554 4237.187, 2554 4239.398 C 2554 4240.093, 2549.328 4251.852, 2543.617 4265.530 L 2533.234 4290.399 2528.283 4292.082 C 2515.457 4296.442, 2505 4306.232, 2505 4313.880 L 2505 4316.859 2509.362 4314.421 C 2519.704 4308.641, 2533.835 4309.120, 2544.622 4315.616 C 2549.233 4318.392, 2550.589 4318.818, 2551.534 4317.785 C 2552.180 4317.078, 2556.802 4311.945, 2561.805 4306.378 L 2570.902 4296.256 2568.431 4293.935 L 2565.959 4291.613 2564.508 4293.685 L 2563.057 4295.757 2558.437 4293.418 C 2555.895 4292.131, 2551.133 4290.775, 2547.853 4290.404 C 2542.939 4289.848, 2541.994 4289.445, 2542.482 4288.115 C 2542.808 4287.227, 2544.254 4283.462, 2545.695 4279.750 L 2548.316 4273 2568.535 4273 L 2588.753 4273 2593.961 4287.889 C 2599.629 4304.092, 2603.639 4311.092, 2609.634 4315.247 C 2613.399 4317.856, 2619.805 4320.606, 2620.392 4319.866 C 2620.552 4319.665, 2624.798 4313.059, 2629.828 4305.187 C 2635.598 4296.157, 2638.333 4291.065, 2637.237 4291.392 C 2628.511 4293.994, 2625.981 4294.217, 2623.518 4292.604 C 2622.148 4291.706, 2620.389 4289.966, 2619.607 4288.736 C 2618.826 4287.506, 2610.670 4266.475, 2601.483 4242 C 2592.296 4217.525, 2583.867 4195.851, 2582.753 4193.835 C 2578.267 4185.720, 2565.357 4182.697, 2553.165 4186.908 M 2076.112 4188.581 C 2062.700 4192.187, 2050.471 4202.307, 2047.522 4212.238 C 2044.550 4222.245, 2046.337 4233.498, 2051.645 4238.212 C 2055.580 4241.706, 2062.998 4244.060, 2073.911 4245.276 C 2082.899 4246.278, 2084.765 4246.761, 2084.060 4247.903 C 2083.373 4249.015, 2081.179 4249.182, 2073.348 4248.717 C 2056.631 4247.724, 2048.236 4243.741, 2044.365 4234.966 L 2042.642 4231.062 2040.313 4234.490 C 2036.738 4239.751, 2035.353 4247.132, 2036.874 4252.822 C 2039.498 4262.639, 2048.295 4267.583, 2065.387 4268.844 L 2074.273 4269.500 2070.887 4273.921 C 2067.181 4278.759, 2065 4280.088, 2065 4277.506 C 2065 4276.593, 2063.685 4274.531, 2062.077 4272.923 C 2059.791 4270.637, 2058.255 4270, 2055.027 4270 C 2048.219 4270, 2044.760 4272.590, 2042.601 4279.306 C 2041.671 4282.197, 2044.598 4287.785, 2048.190 4289.974 C 2052.503 4292.604, 2059.161 4292.585, 2064.651 4289.927 C 2069.439 4287.609, 2077.704 4279.082, 2081.201 4272.850 L 2083.500 4268.755 2096 4269.242 C 2109.300 4269.761, 2116.173 4271.587, 2118.053 4275.100 C 2119.101 4277.057, 2118.405 4281.635, 2116.740 4283.750 C 2115.435 4285.407, 2116.465 4285.328, 2119.998 4283.501 C 2128.362 4279.176, 2133.585 4264.185, 2129.272 4256.883 C 2126.183 4251.654, 2120.138 4249.631, 2106.207 4249.166 C 2097.679 4248.881, 2094.031 4248.410, 2094.296 4247.628 C 2094.554 4246.863, 2099.154 4246.500, 2108.588 4246.500 C 2121.574 4246.500, 2122.797 4246.667, 2126.970 4249.003 C 2131.874 4251.749, 2135.957 4257.744, 2135.984 4262.239 C 2136.022 4268.575, 2129.745 4280.146, 2120.709 4290.396 L 2116.393 4295.291 2111.043 4293.514 C 2081.882 4283.828, 2044.156 4294.586, 2032.108 4316.022 L 2029.925 4319.905 2038.213 4316.063 C 2058.767 4306.533, 2072.975 4306.430, 2099.891 4315.615 C 2110.165 4319.121, 2111.921 4319.129, 2111.985 4315.674 C 2112.001 4314.782, 2129.314 4292.894, 2139.015 4281.500 C 2153.578 4264.397, 2157.457 4247.861, 2149.391 4237.272 C 2144.019 4230.221, 2130.214 4225, 2116.938 4225 C 2112.756 4225, 2109.048 4224.715, 2108.700 4224.367 C 2107.602 4223.269, 2113.917 4215.449, 2123.461 4206.090 L 2132.671 4197.059 2130.009 4194.509 L 2127.347 4191.959 2125.519 4193.979 C 2123.123 4196.626, 2122.414 4196.557, 2114.631 4192.914 C 2111.004 4191.217, 2105.666 4189.198, 2102.768 4188.426 C 2096.048 4186.637, 2083.059 4186.712, 2076.112 4188.581 M 1691.967 4191.697 C 1685.003 4194.496, 1676.620 4195.603, 1673.422 4194.146 C 1666.677 4191.073, 1674.666 4200.730, 1687.648 4211.342 C 1695.209 4217.522, 1708.756 4231.628, 1707.883 4232.411 C 1707.672 4232.600, 1705.700 4233.654, 1703.500 4234.754 C 1698.239 4237.384, 1690.369 4238.996, 1682.701 4239.015 C 1679.290 4239.024, 1676.995 4239.361, 1677.600 4239.765 C 1680.601 4241.769, 1681 4245.315, 1681 4269.965 L 1681 4295.061 1677.351 4298.265 C 1673.697 4301.473, 1670.987 4306.373, 1671.015 4309.718 C 1671.026 4310.905, 1671.283 4311.103, 1671.786 4310.313 C 1672.988 4308.422, 1677.740 4306.999, 1682.815 4307.010 C 1688.953 4307.023, 1696.530 4310.611, 1701.080 4315.658 L 1704.661 4319.630 1709.360 4315.376 C 1711.945 4313.036, 1716.538 4310.194, 1719.567 4309.061 C 1726.122 4306.608, 1736.812 4306.317, 1742.793 4308.427 L 1746.837 4309.854 1745.418 4306.459 C 1743.305 4301.400, 1743.404 4244.372, 1745.532 4241.559 C 1746.339 4240.491, 1746.993 4238.691, 1746.985 4237.559 C 1746.973 4236.022, 1746.751 4235.844, 1746.110 4236.857 C 1745.608 4237.649, 1744.447 4237.959, 1743.324 4237.603 C 1740.462 4236.694, 1701.828 4197.636, 1699.467 4193.265 L 1697.434 4189.500 1691.967 4191.697 M 1851.967 4191.697 C 1845.003 4194.496, 1836.620 4195.603, 1833.422 4194.146 C 1826.677 4191.073, 1834.666 4200.730, 1847.648 4211.342 C 1855.209 4217.522, 1868.756 4231.628, 1867.883 4232.411 C 1867.672 4232.600, 1865.700 4233.654, 1863.500 4234.754 C 1858.239 4237.384, 1850.369 4238.996, 1842.701 4239.015 C 1839.290 4239.024, 1836.995 4239.361, 1837.600 4239.765 C 1840.601 4241.769, 1841 4245.315, 1841 4269.965 L 1841 4295.061 1837.351 4298.265 C 1833.697 4301.473, 1830.987 4306.373, 1831.015 4309.718 C 1831.026 4310.905, 1831.283 4311.103, 1831.786 4310.313 C 1832.988 4308.422, 1837.740 4306.999, 1842.815 4307.010 C 1848.953 4307.023, 1856.530 4310.611, 1861.080 4315.658 L 1864.661 4319.630 1869.360 4315.376 C 1871.945 4313.036, 1876.538 4310.194, 1879.567 4309.061 C 1886.122 4306.608, 1896.812 4306.317, 1902.793 4308.427 L 1906.837 4309.854 1905.418 4306.459 C 1903.305 4301.400, 1903.404 4244.372, 1905.532 4241.559 C 1906.339 4240.491, 1906.993 4238.691, 1906.985 4237.559 C 1906.973 4236.022, 1906.751 4235.844, 1906.110 4236.857 C 1905.608 4237.649, 1904.447 4237.959, 1903.324 4237.603 C 1900.462 4236.694, 1861.828 4197.636, 1859.467 4193.265 L 1857.434 4189.500 1851.967 4191.697 M 2070.558 4199.492 C 2064.742 4201.564, 2061.653 4204.235, 2060.259 4208.398 C 2056.816 4218.679, 2067.755 4225, 2088.991 4225 L 2096.616 4225 2100.763 4219.350 C 2105.579 4212.790, 2105.509 4212.441, 2098.022 4205.710 C 2090.022 4198.517, 2079.794 4196.202, 2070.558 4199.492 M 2351.187 4207.165 C 2347.013 4211.849, 2340.587 4215, 2335.209 4215 C 2331.157 4215, 2331.075 4215.066, 2332.025 4217.565 C 2332.561 4218.976, 2333 4222.576, 2333 4225.565 L 2333 4231 2329.723 4231 C 2327.920 4231, 2325.513 4230.347, 2324.375 4229.550 C 2322.323 4228.113, 2322.304 4228.188, 2322.304 4237.935 L 2322.304 4247.771 2325.620 4246.385 C 2327.444 4245.623, 2329.850 4245, 2330.968 4245 C 2332.953 4245, 2333 4245.542, 2333 4268.597 L 2333 4292.193 2329.121 4296.600 C 2325.035 4301.242, 2321.384 4310.773, 2324.916 4307.576 C 2328.930 4303.943, 2339.242 4306.285, 2347.749 4312.762 L 2350.997 4315.235 2355.249 4311.456 C 2369.310 4298.958, 2369.149 4299.157, 2367.372 4296.444 C 2366.088 4294.485, 2365.455 4294.207, 2364.355 4295.121 C 2363.279 4296.013, 2362.537 4295.891, 2361.089 4294.580 C 2360.058 4293.648, 2357.929 4292.541, 2356.357 4292.121 L 2353.500 4291.357 2353.232 4268.179 L 2352.963 4245 2356.514 4245 C 2358.466 4245, 2361.544 4245.618, 2363.354 4246.374 L 2366.643 4247.749 2366.571 4237.994 C 2366.502 4228.490, 2366.449 4228.274, 2364.527 4229.619 C 2363.443 4230.379, 2360.405 4231, 2357.777 4231 L 2353 4231 2353 4222.443 C 2353 4217.736, 2353.497 4211.914, 2354.103 4209.503 C 2355.645 4203.382, 2355.011 4202.874, 2351.187 4207.165 M 2755.187 4207.165 C 2751.013 4211.849, 2744.587 4215, 2739.209 4215 C 2735.157 4215, 2735.075 4215.066, 2736.025 4217.565 C 2736.561 4218.976, 2737 4222.576, 2737 4225.565 L 2737 4231 2733.723 4231 C 2731.920 4231, 2729.513 4230.347, 2728.375 4229.550 C 2726.323 4228.113, 2726.304 4228.188, 2726.304 4237.935 L 2726.304 4247.771 2729.620 4246.385 C 2731.444 4245.623, 2733.850 4245, 2734.968 4245 C 2736.953 4245, 2737 4245.542, 2737 4268.597 L 2737 4292.193 2733.121 4296.600 C 2729.035 4301.242, 2725.384 4310.773, 2728.916 4307.576 C 2732.930 4303.943, 2743.242 4306.285, 2751.749 4312.762 L 2754.997 4315.235 2759.249 4311.456 C 2773.310 4298.958, 2773.149 4299.157, 2771.372 4296.444 C 2770.088 4294.485, 2769.455 4294.207, 2768.355 4295.121 C 2767.279 4296.013, 2766.537 4295.891, 2765.089 4294.580 C 2764.058 4293.648, 2761.929 4292.541, 2760.357 4292.121 L 2757.500 4291.357 2757.232 4268.179 L 2756.963 4245 2760.514 4245 C 2762.466 4245, 2765.544 4245.618, 2767.354 4246.374 L 2770.643 4247.749 2770.571 4237.994 C 2770.502 4228.490, 2770.449 4228.274, 2768.527 4229.619 C 2767.443 4230.379, 2764.405 4231, 2761.777 4231 L 2757 4231 2757 4222.443 C 2757 4217.736, 2757.497 4211.914, 2758.103 4209.503 C 2759.645 4203.382, 2759.011 4202.874, 2755.187 4207.165 M 1641.539 4204.936 C 1641.221 4205.451, 1637.707 4208.005, 1633.730 4210.612 C 1629.754 4213.219, 1626.351 4215.459, 1626.169 4215.590 C 1625.193 4216.293, 1628.360 4220.076, 1629.544 4219.622 C 1630.309 4219.328, 1632.264 4220.418, 1633.890 4222.044 C 1636.543 4224.697, 1637.495 4225, 1643.173 4224.996 C 1647.721 4224.994, 1650.416 4224.434, 1652.759 4223.005 C 1656.480 4220.737, 1659.991 4215.542, 1659.996 4212.297 C 1660 4210.250, 1659.657 4210.135, 1655.154 4210.668 C 1650.589 4211.209, 1650.099 4211.033, 1646.688 4207.621 C 1642.775 4203.708, 1642.414 4203.520, 1641.539 4204.936 M 2965.539 4204.936 C 2965.221 4205.451, 2961.707 4208.005, 2957.730 4210.612 C 2953.754 4213.219, 2950.351 4215.459, 2950.169 4215.590 C 2949.193 4216.293, 2952.360 4220.076, 2953.544 4219.622 C 2954.309 4219.328, 2956.264 4220.418, 2957.890 4222.044 C 2960.543 4224.697, 2961.495 4225, 2967.173 4224.996 C 2971.721 4224.994, 2974.416 4224.434, 2976.759 4223.005 C 2980.480 4220.737, 2983.991 4215.542, 2983.996 4212.297 C 2984 4210.250, 2983.657 4210.135, 2979.154 4210.668 C 2974.589 4211.209, 2974.099 4211.033, 2970.688 4207.621 C 2966.775 4203.708, 2966.414 4203.520, 2965.539 4204.936 M 1480.718 4208.808 L 1474.935 4212.263 1475.218 4222.881 L 1475.500 4233.500 1482.479 4233.801 C 1494.460 4234.317, 1494 4234.804, 1494 4221.614 L 1494 4210.266 1490.250 4207.810 L 1486.500 4205.354 1480.718 4208.808 M 2563.263 4236.998 L 2557.130 4252 2569.022 4252 L 2580.914 4252 2577.414 4242.250 C 2575.489 4236.887, 2573.184 4230.475, 2572.292 4228 C 2571.400 4225.525, 2570.383 4223.162, 2570.033 4222.748 C 2569.682 4222.334, 2566.636 4228.747, 2563.263 4236.998 M 1774.218 4229.028 C 1769.113 4231.685, 1762.025 4234.827, 1758.468 4236.011 C 1751.627 4238.287, 1750.695 4239.690, 1753.532 4243.441 C 1754.735 4245.032, 1755 4250.065, 1755 4271.347 L 1755 4297.311 1752.545 4300.530 L 1750.090 4303.749 1753.921 4304.263 C 1760.244 4305.111, 1769.371 4309.823, 1777.670 4316.524 L 1785.500 4322.846 1792.159 4316.290 L 1798.818 4309.734 1801.659 4311.786 C 1803.222 4312.914, 1806.506 4315.899, 1808.958 4318.419 C 1811.410 4320.938, 1813.700 4323, 1814.047 4323 C 1814.393 4323, 1818.567 4318.541, 1823.322 4313.092 L 1831.966 4303.183 1826.994 4302.499 C 1823.182 4301.975, 1821.437 4301.119, 1819.511 4298.831 L 1817 4295.847 1817 4265.506 L 1817 4235.166 1801.250 4229.936 C 1792.588 4227.059, 1785.050 4224.592, 1784.500 4224.452 C 1783.950 4224.313, 1779.323 4226.372, 1774.218 4229.028 M 2180.218 4229.028 C 2175.113 4231.685, 2168.025 4234.827, 2164.468 4236.011 C 2157.627 4238.287, 2156.695 4239.690, 2159.532 4243.441 C 2160.735 4245.032, 2161 4250.065, 2161 4271.347 L 2161 4297.311 2158.545 4300.530 L 2156.090 4303.749 2159.921 4304.263 C 2166.244 4305.111, 2175.371 4309.823, 2183.670 4316.524 L 2191.500 4322.846 2198.195 4316.255 C 2205.828 4308.739, 2204.554 4308.606, 2214.308 4317.941 L 2220.117 4323.500 2222.808 4320.478 C 2224.289 4318.815, 2227.789 4314.829, 2230.588 4311.618 L 2235.675 4305.781 2238.588 4307.290 C 2245.416 4310.828, 2255.170 4321.496, 2253.293 4323.373 C 2252.949 4323.718, 2252.924 4324, 2253.240 4324 C 2253.555 4324, 2255.417 4321.766, 2257.378 4319.037 C 2261.242 4313.659, 2271.135 4305.337, 2274.446 4304.680 C 2275.576 4304.456, 2274.363 4304.211, 2271.750 4304.136 L 2267 4304 2267.029 4276.250 L 2267.059 4248.500 2272.157 4244.805 L 2277.255 4241.110 2281.127 4244.223 L 2285 4247.335 2285 4275.167 L 2285 4303 2282.560 4303 C 2280.373 4303, 2280.699 4303.544, 2285.707 4308.250 C 2288.780 4311.137, 2292.915 4315.525, 2294.897 4318 L 2298.500 4322.500 2307.500 4313.249 L 2316.500 4303.998 2312.721 4303.999 L 2308.943 4304 2309.291 4274.250 C 2309.483 4257.887, 2309.978 4243.368, 2310.392 4241.984 C 2311.064 4239.734, 2310.688 4239.245, 2306.822 4237.348 C 2304.445 4236.181, 2299.415 4232.966, 2295.644 4230.203 L 2288.788 4225.179 2281.635 4229.839 C 2277.701 4232.403, 2272.599 4235.344, 2270.298 4236.376 L 2266.113 4238.253 2262.113 4234.876 C 2259.913 4233.019, 2256.400 4230.562, 2254.306 4229.416 L 2250.500 4227.333 2241.769 4234.063 C 2233.846 4240.171, 2233.260 4240.849, 2235.437 4241.395 C 2236.756 4241.726, 2238.884 4243.685, 2240.167 4245.748 C 2242.439 4249.402, 2242.508 4250.210, 2242.809 4276.750 C 2243.042 4297.368, 2242.827 4304, 2241.924 4304 C 2241.268 4304, 2237.836 4303.467, 2234.298 4302.815 C 2229.253 4301.885, 2227.341 4301.006, 2225.433 4298.738 L 2223 4295.847 2223 4265.506 L 2223 4235.166 2207.250 4229.936 C 2198.588 4227.059, 2191.050 4224.592, 2190.500 4224.452 C 2189.950 4224.313, 2185.323 4226.372, 2180.218 4229.028 M 1582.310 4229.419 C 1578.906 4231.720, 1573.875 4234.653, 1571.130 4235.939 L 1566.140 4238.276 1562.126 4234.888 C 1559.919 4233.025, 1556.400 4230.562, 1554.306 4229.416 L 1550.500 4227.333 1541.769 4234.063 C 1533.846 4240.171, 1533.260 4240.849, 1535.437 4241.395 C 1536.756 4241.726, 1538.884 4243.685, 1540.167 4245.748 C 1542.439 4249.402, 1542.508 4250.213, 1542.808 4276.690 L 1543.117 4303.879 1538.808 4304.190 L 1534.500 4304.500 1538.787 4307.286 C 1547.420 4312.896, 1555.173 4321.494, 1553.293 4323.373 C 1552.949 4323.718, 1552.924 4324, 1553.240 4324 C 1553.555 4324, 1555.417 4321.766, 1557.378 4319.037 C 1561.242 4313.659, 1571.135 4305.337, 1574.446 4304.680 C 1575.576 4304.456, 1574.362 4304.211, 1571.750 4304.136 L 1567 4304 1567.029 4276.250 L 1567.059 4248.500 1572.157 4244.805 L 1577.255 4241.110 1581.127 4244.223 L 1585 4247.335 1585 4275.167 L 1585 4303 1582.560 4303 C 1580.373 4303, 1580.699 4303.544, 1585.707 4308.250 C 1588.780 4311.137, 1592.915 4315.525, 1594.897 4318 L 1598.500 4322.500 1607.500 4313.249 L 1616.500 4303.998 1612.721 4303.999 L 1608.943 4304 1609.291 4274.250 C 1609.483 4257.887, 1609.985 4243.333, 1610.407 4241.907 C 1611.081 4239.625, 1610.785 4239.154, 1607.935 4237.973 C 1606.154 4237.235, 1601.460 4234.309, 1597.504 4231.471 C 1593.547 4228.632, 1589.903 4226.068, 1589.405 4225.773 C 1588.907 4225.478, 1585.715 4227.119, 1582.310 4229.419 M 2687.310 4229.419 C 2683.906 4231.720, 2678.875 4234.653, 2676.130 4235.939 L 2671.140 4238.276 2667.126 4234.888 C 2664.919 4233.025, 2661.400 4230.562, 2659.306 4229.416 L 2655.500 4227.333 2646.769 4234.063 C 2638.846 4240.171, 2638.260 4240.849, 2640.437 4241.395 C 2641.756 4241.726, 2643.884 4243.685, 2645.167 4245.748 C 2647.439 4249.402, 2647.508 4250.213, 2647.808 4276.690 L 2648.117 4303.879 2643.808 4304.190 L 2639.500 4304.500 2643.787 4307.286 C 2652.420 4312.896, 2660.173 4321.494, 2658.293 4323.373 C 2657.949 4323.718, 2657.924 4324, 2658.240 4324 C 2658.555 4324, 2660.417 4321.766, 2662.378 4319.037 C 2666.242 4313.659, 2676.135 4305.337, 2679.446 4304.680 C 2680.576 4304.456, 2679.363 4304.211, 2676.750 4304.136 L 2672 4304 2672.029 4276.250 L 2672.059 4248.500 2677.157 4244.805 L 2682.255 4241.110 2686.127 4244.223 L 2690 4247.335 2690 4275.167 L 2690 4303 2687.560 4303 C 2685.373 4303, 2685.699 4303.544, 2690.707 4308.250 C 2693.780 4311.137, 2697.915 4315.525, 2699.897 4318 L 2703.500 4322.500 2712.500 4313.249 L 2721.500 4303.998 2717.721 4303.999 L 2713.943 4304 2714.291 4274.250 C 2714.483 4257.887, 2714.985 4243.333, 2715.407 4241.907 C 2716.081 4239.625, 2715.785 4239.154, 2712.935 4237.973 C 2711.154 4237.235, 2706.460 4234.309, 2702.504 4231.471 C 2698.547 4228.632, 2694.903 4226.068, 2694.405 4225.773 C 2693.907 4225.478, 2690.715 4227.119, 2687.310 4229.419 M 2906.310 4229.419 C 2902.906 4231.720, 2897.875 4234.653, 2895.130 4235.939 L 2890.140 4238.276 2886.126 4234.888 C 2883.919 4233.025, 2880.400 4230.562, 2878.306 4229.416 L 2874.500 4227.333 2865.769 4234.063 C 2857.846 4240.171, 2857.260 4240.849, 2859.437 4241.395 C 2860.756 4241.726, 2862.884 4243.685, 2864.167 4245.748 C 2866.439 4249.402, 2866.508 4250.213, 2866.808 4276.690 L 2867.117 4303.879 2862.808 4304.190 L 2858.500 4304.500 2862.787 4307.286 C 2871.420 4312.896, 2879.173 4321.494, 2877.293 4323.373 C 2876.949 4323.718, 2876.924 4324, 2877.240 4324 C 2877.555 4324, 2879.417 4321.766, 2881.378 4319.037 C 2885.242 4313.659, 2895.135 4305.337, 2898.446 4304.680 C 2899.576 4304.456, 2898.363 4304.211, 2895.750 4304.136 L 2891 4304 2891.029 4276.250 L 2891.059 4248.500 2896.157 4244.805 L 2901.255 4241.110 2905.127 4244.223 L 2909 4247.335 2909 4275.167 L 2909 4303 2906.560 4303 C 2904.373 4303, 2904.699 4303.544, 2909.707 4308.250 C 2912.780 4311.137, 2916.915 4315.525, 2918.897 4318 L 2922.500 4322.500 2931.500 4313.249 L 2940.500 4303.998 2936.721 4303.999 L 2932.943 4304 2933.291 4274.250 C 2933.483 4257.887, 2933.985 4243.333, 2934.407 4241.907 C 2935.081 4239.625, 2934.785 4239.154, 2931.935 4237.973 C 2930.154 4237.235, 2925.460 4234.309, 2921.504 4231.471 C 2917.547 4228.632, 2913.903 4226.068, 2913.405 4225.773 C 2912.907 4225.478, 2909.715 4227.119, 2906.310 4229.419 M 1956.369 4227.454 C 1944.819 4235.544, 1923.014 4241.614, 1919.200 4237.800 C 1917.490 4236.090, 1917.617 4238.149, 1919.500 4242.654 C 1920.704 4245.535, 1921 4251.411, 1921 4272.382 C 1921 4296.916, 1920.884 4298.591, 1919.113 4299.698 C 1917.656 4300.607, 1911.009 4309.292, 1910.998 4310.300 C 1910.996 4310.410, 1914.961 4310.358, 1919.807 4310.184 C 1930.307 4309.807, 1939.472 4311.695, 1947.971 4315.986 C 1951.256 4317.644, 1954.313 4319, 1954.766 4319 C 1955.218 4319, 1959.539 4314.676, 1964.367 4309.391 L 1973.145 4299.783 1970.872 4297.364 L 1968.600 4294.945 1966.176 4297.370 C 1963.856 4299.690, 1963.598 4299.730, 1960.182 4298.303 C 1958.219 4297.482, 1953.437 4296.006, 1949.556 4295.022 L 1942.500 4293.233 1942.210 4285.709 L 1941.919 4278.186 1956.710 4269.687 C 1977.729 4257.610, 1976.140 4260.146, 1969.612 4249.100 C 1966.560 4243.934, 1962.852 4236.624, 1961.373 4232.854 C 1959.894 4229.084, 1958.630 4226, 1958.565 4226 C 1958.499 4226, 1957.511 4226.654, 1956.369 4227.454 M 2404.998 4229.113 C 2399.264 4232.964, 2390.912 4235.992, 2382.245 4237.362 L 2374.989 4238.509 2376.995 4242.251 C 2378.847 4245.707, 2379 4247.881, 2379 4270.692 C 2379 4295.292, 2378.991 4295.401, 2376.629 4297.945 C 2375.326 4299.350, 2373.486 4301.719, 2372.541 4303.209 C 2370.573 4306.313, 2369.222 4305.681, 2383.500 4308.341 C 2394.006 4310.299, 2402.040 4313.384, 2407.512 4317.561 L 2411.956 4320.953 2418.708 4315.842 C 2422.422 4313.031, 2427.394 4309.903, 2429.756 4308.890 C 2435.605 4306.383, 2445.136 4303.966, 2446.311 4304.692 C 2446.839 4305.018, 2446.197 4303.835, 2444.885 4302.061 C 2442.533 4298.881, 2442.496 4298.475, 2442.203 4272.331 C 2441.926 4247.619, 2442.037 4245.603, 2443.840 4242.547 L 2445.774 4239.269 2437.265 4237.169 C 2432.585 4236.013, 2424.354 4233.094, 2418.974 4230.682 L 2409.193 4226.295 2404.998 4229.113 M 2815.479 4227.709 C 2810.631 4231.424, 2799.061 4236.033, 2791.750 4237.162 C 2783.776 4238.393, 2782.892 4239.153, 2785.468 4242.559 C 2786.667 4244.144, 2786.942 4249.136, 2786.968 4269.779 L 2787 4295.059 2782.946 4300.187 C 2778.646 4305.627, 2778.849 4306.935, 2784 4307.002 C 2792.388 4307.112, 2808.414 4312.375, 2815.774 4317.438 L 2820.582 4320.746 2825.541 4316.764 C 2834.006 4309.967, 2851.240 4302.794, 2854.407 4304.751 C 2854.988 4305.110, 2854.459 4304.128, 2853.232 4302.567 C 2851.043 4299.785, 2851 4299.190, 2851 4271.588 C 2851 4248.139, 2851.251 4243.086, 2852.506 4241.295 C 2853.977 4239.195, 2853.876 4239.117, 2848.256 4237.969 C 2842.187 4236.729, 2827.987 4231.564, 2821.377 4228.192 C 2817.835 4226.385, 2817.266 4226.339, 2815.479 4227.709 M 3026.998 4229.113 C 3021.264 4232.964, 3012.912 4235.992, 3004.245 4237.362 L 2996.989 4238.509 2998.995 4242.251 C 3000.847 4245.707, 3001 4247.881, 3001 4270.692 C 3001 4295.292, 3000.991 4295.401, 2998.629 4297.945 C 2997.326 4299.350, 2995.486 4301.719, 2994.541 4303.209 C 2992.573 4306.313, 2991.222 4305.681, 3005.500 4308.341 C 3016.006 4310.299, 3024.040 4313.384, 3029.512 4317.561 L 3033.956 4320.953 3040.708 4315.842 C 3044.422 4313.031, 3049.394 4309.903, 3051.756 4308.890 C 3057.605 4306.383, 3067.136 4303.966, 3068.311 4304.692 C 3068.839 4305.018, 3068.197 4303.835, 3066.885 4302.061 C 3064.533 4298.881, 3064.496 4298.475, 3064.203 4272.331 C 3063.926 4247.619, 3064.037 4245.603, 3065.840 4242.547 L 3067.774 4239.269 3059.265 4237.169 C 3054.585 4236.013, 3046.354 4233.094, 3040.974 4230.682 L 3031.193 4226.295 3026.998 4229.113 M 1641.364 4228.366 C 1641.439 4229.096, 1639.475 4231.388, 1637 4233.458 C 1634.525 4235.529, 1630.145 4239.441, 1627.267 4242.152 C 1622.741 4246.415, 1622.191 4247.333, 1623.195 4248.941 C 1623.834 4249.964, 1624.927 4250.581, 1625.625 4250.314 C 1626.323 4250.046, 1628.029 4250.653, 1629.416 4251.663 L 1631.937 4253.500 1631.969 4280.102 C 1631.999 4306.090, 1632.052 4306.782, 1634.274 4310.078 C 1637.085 4314.250, 1642.148 4317.750, 1646.572 4318.580 C 1649.701 4319.167, 1650.512 4318.663, 1658.926 4310.903 C 1663.879 4306.335, 1667.715 4302.382, 1667.451 4302.118 C 1667.187 4301.853, 1664.597 4301.747, 1661.697 4301.881 C 1657.371 4302.081, 1656.071 4301.736, 1654.462 4299.960 C 1652.657 4297.968, 1652.476 4296.006, 1652.197 4275.461 C 1651.902 4253.695, 1651.948 4253.098, 1653.979 4252.011 C 1657.461 4250.148, 1662 4243.026, 1662 4239.427 L 1662 4236.153 1658.947 4237.676 C 1654.813 4239.739, 1651.266 4238.201, 1645.588 4231.887 C 1643.190 4229.220, 1641.290 4227.635, 1641.364 4228.366 M 2965.364 4228.366 C 2965.439 4229.096, 2963.475 4231.388, 2961 4233.458 C 2958.525 4235.529, 2954.145 4239.441, 2951.267 4242.152 C 2946.741 4246.415, 2946.191 4247.333, 2947.195 4248.941 C 2947.834 4249.964, 2948.927 4250.581, 2949.625 4250.314 C 2950.323 4250.046, 2952.029 4250.653, 2953.416 4251.663 L 2955.937 4253.500 2955.969 4280.102 C 2955.999 4306.090, 2956.052 4306.782, 2958.274 4310.078 C 2961.085 4314.250, 2966.148 4317.750, 2970.572 4318.580 C 2973.701 4319.167, 2974.512 4318.663, 2982.926 4310.903 C 2987.879 4306.335, 2991.715 4302.382, 2991.451 4302.118 C 2991.187 4301.853, 2988.597 4301.747, 2985.697 4301.881 C 2981.371 4302.081, 2980.071 4301.736, 2978.462 4299.960 C 2976.657 4297.968, 2976.476 4296.006, 2976.197 4275.461 C 2975.902 4253.695, 2975.948 4253.098, 2977.979 4252.011 C 2981.461 4250.148, 2986 4243.026, 2986 4239.427 L 2986 4236.153 2982.947 4237.676 C 2978.813 4239.739, 2975.266 4238.201, 2969.588 4231.887 C 2967.190 4229.220, 2965.290 4227.635, 2965.364 4228.366 M 1707.750 4241.255 L 1702 4244.317 1702 4268.540 L 1702 4292.763 1706.300 4293.845 C 1708.666 4294.441, 1712.532 4296.327, 1714.891 4298.036 C 1722.097 4303.256, 1722 4303.599, 1722 4272.734 L 1722 4245.406 1718.208 4241.703 C 1716.122 4239.666, 1714.210 4238.043, 1713.958 4238.096 C 1713.706 4238.149, 1710.912 4239.570, 1707.750 4241.255 M 1867.750 4241.255 L 1862 4244.317 1862 4268.540 L 1862 4292.763 1866.300 4293.845 C 1868.666 4294.441, 1872.532 4296.327, 1874.891 4298.036 C 1882.097 4303.256, 1882 4303.599, 1882 4272.734 L 1882 4245.406 1878.208 4241.703 C 1876.122 4239.666, 1874.210 4238.043, 1873.958 4238.096 C 1873.706 4238.149, 1870.912 4239.570, 1867.750 4241.255 M 1777 4264.957 C 1777 4289.057, 1777.126 4290.905, 1778.806 4291.438 C 1779.799 4291.753, 1783.624 4293.990, 1787.306 4296.408 L 1794 4300.805 1794 4273.539 L 1794 4246.273 1788.250 4243.700 C 1785.088 4242.285, 1781.263 4240.659, 1779.750 4240.088 L 1777 4239.050 1777 4264.957 M 2183 4264.957 C 2183 4289.057, 2183.126 4290.905, 2184.806 4291.438 C 2185.799 4291.753, 2189.624 4293.990, 2193.306 4296.408 L 2200 4300.805 2200 4273.539 L 2200 4246.273 2194.250 4243.700 C 2191.088 4242.285, 2187.262 4240.659, 2185.750 4240.088 L 2183 4239.050 2183 4264.957 M 1475.001 4250 L 1475 4259.500 1484.499 4259.500 L 1493.999 4259.500 1493.999 4250 L 1494 4240.500 1484.501 4240.500 L 1475.001 4240.500 1475.001 4250 M 2400 4267.477 C 2400 4297.768, 2399.202 4295.283, 2409.932 4298.415 C 2419.895 4301.323, 2419.070 4303.615, 2418.767 4273.859 L 2418.500 4247.718 2410 4244.397 C 2405.325 4242.571, 2401.162 4241.060, 2400.750 4241.039 C 2400.338 4241.017, 2400 4252.915, 2400 4267.477 M 2809 4267.898 L 2809 4294.754 2813.853 4296.842 C 2816.523 4297.990, 2820.573 4299.228, 2822.853 4299.593 L 2827 4300.256 2827 4274.163 C 2827 4250.329, 2826.849 4247.991, 2825.250 4247.154 C 2824.287 4246.650, 2820.238 4245.069, 2816.250 4243.640 L 2809 4241.043 2809 4267.898 M 3022 4267.477 C 3022 4297.768, 3021.202 4295.283, 3031.932 4298.415 C 3041.895 4301.323, 3041.070 4303.615, 3040.767 4273.859 L 3040.500 4247.718 3032 4244.397 C 3027.325 4242.571, 3023.162 4241.060, 3022.750 4241.039 C 3022.338 4241.017, 3022 4252.915, 3022 4267.477 M 1942.659 4243.674 C 1941.874 4244.459, 1941.758 4269, 1942.539 4269 C 1942.836 4269, 1945.235 4267.538, 1947.869 4265.750 L 1952.660 4262.500 1947.989 4252.758 C 1945.420 4247.399, 1943.022 4243.312, 1942.659 4243.674 M 1476.750 4266.689 C 1475.185 4267.098, 1475 4268.679, 1475 4281.663 C 1475 4295.445, 1475.112 4296.270, 1477.216 4297.974 C 1479.394 4299.737, 1479.562 4299.682, 1486.716 4294.854 L 1494 4289.939 1494 4278.586 C 1494 4267.658, 1493.916 4267.211, 1491.750 4266.630 C 1489.218 4265.952, 1479.424 4265.990, 1476.750 4266.689 M 1201 4664 L 1201 4787 1317.500 4787 L 1434 4787 1434 4737.500 L 1434 4688 1504 4688 L 1574 4688 1574 4737.500 L 1574 4787 1690.500 4787 L 1807 4787 1807 4737.500 L 1807 4688 1877 4688 L 1947 4688 1947 4737.500 L 1947 4787 2063.500 4787 L 2180 4787 2180 4737.500 L 2180 4688 2250 4688 L 2320 4688 2320 4737.500 L 2320 4787 2436.500 4787 L 2553 4787 2553 4737.500 L 2553 4688 2623 4688 L 2693 4688 2693 4737.500 L 2693 4787 2809.500 4787 L 2926 4787 2926 4737.500 L 2926 4688 2996 4688 L 3066 4688 3066 4737.500 L 3066 4787 3182.500 4787 L 3299 4787 3299 4664 L 3299 4541 2250 4541 L 1201 4541 1201 4664" stroke="none" fill="#ffffff" fill-rule="evenodd"/>
</svg>