<svg xmlns="http://www.w3.org/2000/svg" width="4500" height="4513" viewBox="0 0 4500 4513" version="1.1">
	<path d="M 2226 603.619 C 2166.860 608.914, 2113.937 629.494, 2071.500 663.699 C 2058.741 673.982, 2038.523 694.763, 2029.371 707 C 2025.463 712.225, 1603.368 1368.325, 1091.383 2165 C 85.571 3730.094, 149.748 3629.341, 140.218 3658.234 C 116.451 3730.291, 131.374 3807.323, 181.028 3868.887 C 190.439 3880.556, 210.429 3900.208, 222 3909.165 C 260.198 3938.735, 303.769 3956.722, 356.500 3964.687 C 368.054 3966.433, 438.328 3966.500, 2249 3966.500 C 3793.481 3966.500, 4131.287 3966.266, 4139.500 3965.190 C 4192.149 3958.294, 4239.339 3939.195, 4278 3909.136 C 4289.767 3899.987, 4309.721 3880.392, 4318.985 3868.887 C 4368.638 3807.225, 4383.573 3730.070, 4359.761 3658.234 C 4350.089 3629.054, 4415.346 3731.505, 3408.616 2164.993 C 2896.629 1368.322, 2474.534 712.225, 2470.627 707 C 2461.488 694.777, 2441.273 673.996, 2428.500 663.692 C 2391.190 633.594, 2344.484 613.618, 2293.500 605.953 C 2279.966 603.918, 2238.627 602.489, 2226 603.619 M 2221 647.115 C 2152.032 654.987, 2091.617 690.359, 2056.183 743.612 C 2052.930 748.501, 1633.400 1401.175, 1123.893 2194 C 458.716 3229.056, 195.667 3639.165, 190.956 3648.500 C 183.649 3662.981, 178.255 3678.228, 174.861 3694 C 172.907 3703.081, 172.599 3707.472, 172.581 3726.500 C 172.563 3745.688, 172.851 3749.842, 174.834 3759 C 188.576 3822.454, 232.145 3874.644, 295.003 3902.948 C 312.347 3910.757, 331.663 3916.621, 355.260 3921.240 L 366.500 3923.440 2242.500 3923.768 C 3591.184 3924.004, 4121.592 3923.790, 4129.500 3923.006 C 4172.697 3918.726, 4216.014 3902.029, 4249.220 3876.859 C 4259.321 3869.203, 4277.142 3852.057, 4285.152 3842.288 C 4304.472 3818.727, 4318.788 3788.981, 4324.996 3759.500 C 4328.050 3744.997, 4328.788 3719.189, 4326.584 3704 C 4323.544 3683.043, 4317.438 3664.186, 4307.642 3645.502 C 4300.880 3632.604, 2447.325 748.082, 2436.428 733.500 C 2428.113 722.371, 2411.401 705.058, 2400.611 696.393 C 2367.439 669.754, 2323.458 652.114, 2277.500 647.015 C 2266.855 645.834, 2231.680 645.896, 2221 647.115 M 2237.500 710.078 C 2193.745 713.024, 2153.914 733.080, 2129.560 764.428 C 2121.141 775.263, 265.351 3663.305, 260.256 3673.500 C 251.691 3690.636, 248 3706.447, 248 3726 C 248 3745.735, 251.985 3762.960, 260.565 3780.306 C 283.653 3826.984, 328.738 3855.953, 384.558 3859.977 C 403.896 3861.372, 4096.104 3861.372, 4115.442 3859.977 C 4157.465 3856.948, 4193.535 3839.893, 4218.630 3811.189 C 4241.030 3785.567, 4252 3757.562, 4252 3726 C 4252 3706.598, 4248.109 3690.082, 4239.513 3673 C 4234.495 3663.028, 2378.498 774.809, 2370.437 764.428 C 2347.057 734.319, 2307.061 713.471, 2266.984 710.503 C 2252.132 709.404, 2248.327 709.349, 2237.500 710.078 M 2235.500 732.022 C 2198.161 736.166, 2165.916 753.311, 2145.718 779.760 C 2142.119 784.472, 297.533 3654.054, 284.638 3675 C 266.806 3703.965, 264.737 3737.304, 278.895 3767.517 C 289.069 3789.227, 306.221 3807.984, 327.196 3820.335 C 343.830 3830.130, 362.650 3836.025, 383.500 3837.972 C 399.530 3839.468, 4102.641 3839.402, 4117.576 3837.905 C 4147.806 3834.875, 4173.922 3823.276, 4194.722 3803.640 C 4233.165 3767.349, 4241.240 3717.013, 4215.359 3675 C 4202.260 3653.735, 2357.853 784.445, 2354.239 779.709 C 2335.979 755.780, 2307.462 739.276, 2274.420 733.514 C 2263.599 731.627, 2245.360 730.928, 2235.500 732.022 M 2242.922 854.274 C 2236.906 858.328, 2232.378 865.666, 2226.930 880.186 C 2219.026 901.254, 2210.955 914.272, 2198.841 925.487 C 2182.839 940.302, 2160.048 948.376, 2130.662 949.640 C 2103.622 950.803, 2094.985 955.178, 2095.009 967.700 C 2095.022 974.312, 2099.213 981.281, 2107.713 988.822 C 2111.446 992.134, 2117.650 997.619, 2121.500 1001.012 C 2137.189 1014.839, 2148.858 1031.039, 2154.034 1046.180 C 2160.715 1065.721, 2160.162 1081.795, 2151.918 1107.759 C 2145.425 1128.206, 2146.847 1141.331, 2156.066 1146.033 C 2164.208 1150.187, 2173.337 1147.875, 2193 1136.678 C 2208.128 1128.064, 2223.093 1121.443, 2236.500 1117.432 C 2248.891 1113.725, 2266.060 1113.418, 2276.542 1116.715 C 2285.049 1119.392, 2294.416 1125.247, 2302.500 1132.940 C 2310 1140.078, 2322.062 1144.971, 2334.071 1145.747 C 2351.863 1146.897, 2355.595 1137.893, 2348.583 1110.734 C 2344.489 1094.876, 2343 1084.841, 2343 1073.111 C 2343 1043.177, 2356.282 1019.311, 2385.117 997.427 C 2400.157 986.013, 2405 979.365, 2405 970.134 C 2405 965.846, 2404.502 964.502, 2401.750 961.368 C 2396.044 954.869, 2388.913 952.683, 2367.954 951.008 C 2338.739 948.673, 2319.609 941.172, 2303.258 925.640 C 2291.024 914.019, 2282.099 899.457, 2275.162 879.800 C 2269.993 865.152, 2264.585 856.905, 2257.875 853.435 C 2253.625 851.237, 2246.865 851.616, 2242.922 854.274 M 2269.314 1481.443 C 2260.883 1484.078, 2240.243 1497.096, 2225 1509.390 C 2214.326 1518, 2195.250 1536.727, 2184.709 1548.945 C 2124.577 1618.646, 2072.676 1733.370, 2036.525 1876.500 C 2027.084 1913.879, 2014 1975.756, 2014 1983.025 C 2014 1984.111, 2013.639 1985, 2013.198 1985 C 2012.756 1985, 2005.219 1980.878, 1996.448 1975.840 C 1937.651 1942.069, 1873.073 1918.458, 1809.642 1907.541 C 1775.791 1901.715, 1761.508 1900.621, 1718.500 1900.558 C 1677.607 1900.499, 1668.855 1901, 1639 1905.115 C 1580.376 1913.195, 1519.465 1931.664, 1466.500 1957.420 C 1446.319 1967.233, 1441.549 1970.441, 1439.364 1975.671 C 1437.188 1980.880, 1437.690 1984.998, 1443.107 2006.360 C 1459.439 2070.771, 1487.633 2134.603, 1523.776 2189 C 1574.841 2265.854, 1648.800 2333.647, 1734 2381.697 C 1761.393 2397.145, 1795.005 2412.779, 1821.750 2422.512 C 1829.038 2425.163, 1834.888 2427.412, 1834.750 2427.507 C 1834.613 2427.603, 1824.825 2435.277, 1813 2444.560 C 1794.494 2459.089, 1789.342 2462.567, 1776 2469.541 C 1740.976 2487.847, 1714.567 2506.850, 1687.112 2533.500 C 1642.211 2577.085, 1610.546 2626.999, 1587.513 2690.500 C 1571.620 2734.318, 1559.861 2793.531, 1558.803 2835.070 C 1558.513 2846.434, 1559.403 2849.252, 1564.289 2852.454 C 1565.726 2853.395, 1612.628 2861.064, 1693.025 2873.503 C 1762.586 2884.265, 1826.025 2894.173, 1834 2895.521 C 1854.315 2898.953, 1863.979 2899.956, 1883.500 2900.660 C 1946.221 2902.921, 2008.955 2885.607, 2067.069 2849.997 C 2098.582 2830.688, 2123.137 2810.802, 2153.055 2780.362 C 2178.242 2754.736, 2197.525 2731.042, 2215.608 2703.500 C 2224.364 2690.164, 2226.031 2688.412, 2234.093 2684.065 C 2249.349 2675.841, 2271.096 2676.024, 2296.703 2684.591 C 2315.777 2690.972, 2319.091 2693.441, 2327.456 2707.500 C 2365.204 2770.937, 2431.495 2820.228, 2517.593 2848.879 C 2618.830 2882.567, 2757.939 2890.740, 2894.500 2871.023 C 2901.650 2869.991, 2912 2868.628, 2917.500 2867.995 C 2937.740 2865.667, 2956.330 2860.564, 2965.121 2854.923 C 2971.259 2850.983, 2979.713 2841.851, 2983.217 2835.373 C 2988.933 2824.807, 2990.677 2808.404, 2987.442 2795.644 C 2980.002 2766.299, 2964.778 2728.683, 2947.519 2697 C 2913.798 2635.099, 2867.809 2575.281, 2805.008 2511.635 C 2768.761 2474.899, 2736.223 2445.215, 2705.257 2420.632 C 2697.105 2414.159, 2695.370 2412.354, 2696.757 2411.782 C 2697.716 2411.387, 2705.925 2408.161, 2715 2404.612 C 2779.693 2379.314, 2843.147 2344.730, 2893.500 2307.323 C 2934.388 2276.948, 2975.875 2236.130, 3005.123 2197.500 C 3048.581 2140.102, 3078.374 2072.822, 3089.422 2007.137 C 3094.201 1978.720, 3093.995 1972.115, 3088.038 1962.721 C 3083.601 1955.725, 3078.283 1952.965, 3053.181 1944.628 C 2950.991 1910.690, 2854.767 1900.101, 2753 1911.593 C 2713.303 1916.076, 2661.737 1927.727, 2625 1940.515 C 2594.467 1951.142, 2554.707 1968.989, 2535.250 1980.800 C 2530.713 1983.555, 2527 1985.397, 2527 1984.894 C 2527 1984.391, 2525.217 1973.522, 2523.038 1960.740 C 2489.147 1761.925, 2425.022 1609.984, 2338.505 1523.500 C 2317.452 1502.454, 2292.996 1484.003, 2282.569 1481.298 C 2276.519 1479.729, 2274.733 1479.748, 2269.314 1481.443 M 2264.401 1489.659 C 2172.758 1538.250, 2092.878 1677.095, 2042.134 1876 C 2032.930 1912.075, 2020.760 1969.832, 2018.481 1988.250 C 2018.090 1991.412, 2017.415 1994, 2016.982 1994 C 2016.548 1994, 2009.513 1990.019, 2001.347 1985.153 C 1929.154 1942.138, 1852.795 1916.388, 1771 1907.476 C 1750.825 1905.278, 1704.633 1904.461, 1683 1905.919 C 1608.019 1910.972, 1533.204 1930.818, 1467.318 1963.132 C 1449.060 1972.087, 1444.733 1975.231, 1443.409 1980.505 C 1443.079 1981.823, 1444.584 1990.022, 1446.839 1999.178 C 1487.572 2164.589, 1591.701 2297.650, 1746.779 2382.457 C 1773.887 2397.282, 1808.616 2412.587, 1832.279 2420.138 C 1839.798 2422.537, 1845.961 2424.772, 1845.975 2425.104 C 1845.989 2425.436, 1834.345 2434.830, 1820.100 2445.979 C 1797.845 2463.398, 1792.251 2467.263, 1780.350 2473.442 C 1687.632 2521.581, 1623.179 2599.286, 1588.303 2704.973 C 1574.801 2745.888, 1564.005 2804.453, 1564.001 2836.795 C 1564 2843.094, 1564.317 2844.408, 1566.321 2846.412 C 1569.158 2849.249, 1555.027 2846.844, 1705 2870.011 C 1772.925 2880.504, 1833.450 2889.954, 1839.500 2891.012 C 1858.743 2894.377, 1871.919 2895.421, 1894.500 2895.369 C 1935.188 2895.274, 1971.622 2888.036, 2011.027 2872.219 C 2084.235 2842.834, 2156.729 2781.031, 2208.759 2703.650 C 2220.115 2686.760, 2223.761 2682.910, 2232.414 2678.674 C 2241.839 2674.058, 2249.825 2672.738, 2265 2673.287 C 2280.282 2673.839, 2291.111 2676.227, 2307.457 2682.648 C 2319.662 2687.443, 2324.247 2691.352, 2331.059 2702.769 C 2343.072 2722.903, 2355.850 2739.187, 2374.291 2757.865 C 2442.978 2827.434, 2551.264 2866.856, 2696.278 2875.083 C 2723.111 2876.606, 2797.433 2875.727, 2823.500 2873.579 C 2847.364 2871.612, 2867.653 2869.405, 2885 2866.888 C 2892.425 2865.811, 2904.125 2864.285, 2911 2863.497 C 2949.067 2859.134, 2964.982 2852.514, 2976.038 2836.445 C 2980.634 2829.765, 2983.227 2821.671, 2983.769 2812.310 C 2984.199 2804.896, 2983.844 2802.719, 2980.019 2789.330 C 2953.394 2696.133, 2879.891 2588.845, 2774 2488.617 C 2742.004 2458.331, 2711.665 2431.958, 2692.292 2417.588 C 2687.778 2414.240, 2684.065 2411.268, 2684.042 2410.985 C 2684.019 2410.701, 2686.363 2409.647, 2689.250 2408.642 C 2703.554 2403.662, 2739.780 2388.728, 2758.970 2379.901 C 2871.997 2327.911, 2960 2256.729, 3016.824 2171.332 C 3039.663 2137.007, 3059.479 2096.455, 3070.980 2060.500 C 3079.319 2034.431, 3087.100 1996.446, 3087.366 1980.500 C 3087.485 1973.424, 3087.180 1971.956, 3084.728 1967.784 C 3080.544 1960.667, 3076.618 1958.341, 3057.773 1951.819 C 2902.245 1897.995, 2743.882 1899.324, 2600.500 1955.657 C 2582.454 1962.747, 2545.200 1981.029, 2533 1988.783 C 2527.775 1992.103, 2523.429 1994.748, 2523.341 1994.660 C 2523.254 1994.572, 2521.327 1983.250, 2519.058 1969.500 C 2481.963 1744.684, 2404.432 1576.014, 2303.276 1500.062 C 2282.704 1484.616, 2276.861 1483.052, 2264.401 1489.659 M 2268.500 1566.396 C 2259.840 1570.200, 2228.578 1602.060, 2209.525 1626.500 C 2199.664 1639.149, 2181.191 1667.020, 2172.738 1682 C 2121.230 1773.286, 2088.709 1894.643, 2080.554 2026 C 2079.627 2040.917, 2078.618 2049.993, 2077.559 2052.931 C 2073.946 2062.950, 2067.108 2067.938, 2056.932 2067.978 C 2045.809 2068.022, 2034.217 2062.985, 2016 2050.192 C 1982.927 2026.968, 1941.283 2004.495, 1902.500 1988.944 C 1785.263 1941.934, 1651.753 1938.449, 1529.500 1979.207 C 1503.002 1988.041, 1498.544 1990.954, 1495.995 2001.096 C 1494.504 2007.031, 1495.255 2009.784, 1503.977 2030.366 C 1565.312 2175.093, 1649.548 2274.871, 1754.838 2327.512 C 1808.153 2354.168, 1865.809 2367.538, 1919.530 2365.705 C 1934.513 2365.193, 1937.038 2365.338, 1940.539 2366.905 C 1945.170 2368.978, 1950.332 2374.497, 1952.587 2379.787 C 1956.138 2388.118, 1955.461 2403.821, 1950.917 2418.534 C 1948.162 2427.453, 1943.852 2431.601, 1933.430 2435.363 C 1897.719 2448.253, 1852.084 2472.092, 1819.676 2494.786 C 1726.599 2559.962, 1657.083 2655.289, 1619.964 2768.648 C 1612.278 2792.119, 1611.372 2799.547, 1615.363 2806.357 C 1616.804 2808.815, 1619.474 2811.748, 1621.297 2812.874 C 1627.707 2816.836, 1687.721 2829.095, 1729.030 2834.880 C 1776.953 2841.591, 1805.795 2843.411, 1853.279 2842.718 C 1897.052 2842.079, 1919.382 2839.898, 1954.361 2832.845 C 2027.076 2818.182, 2087.151 2787.655, 2132.377 2742.387 C 2156.437 2718.304, 2175.711 2690.020, 2187.558 2661.412 C 2191.725 2651.349, 2193.001 2649.286, 2197.733 2644.961 C 2204.199 2639.052, 2218.342 2631.848, 2229.500 2628.781 C 2236.589 2626.833, 2239.947 2626.582, 2259 2626.581 C 2278.510 2626.579, 2281.657 2626.826, 2293 2629.247 C 2306.334 2632.094, 2329.218 2639.053, 2335 2642.021 C 2339.552 2644.357, 2342.818 2648.006, 2347.510 2656 C 2369.311 2693.142, 2403.595 2728.870, 2442.500 2754.991 C 2500.967 2794.246, 2578.446 2819.318, 2669.500 2828.447 C 2722.534 2833.765, 2782.587 2833.767, 2844 2828.454 C 2879.069 2825.420, 2929.781 2818.208, 2934.947 2815.519 C 2940.830 2812.457, 2945 2805.171, 2945 2797.956 C 2945 2790.647, 2930.685 2757.100, 2915.845 2729.633 C 2885.178 2672.871, 2845.310 2619.804, 2794.517 2568.139 C 2733.024 2505.588, 2666.190 2455.513, 2619.500 2437.007 C 2596.519 2427.898, 2585.734 2417.663, 2584.309 2403.613 C 2583.422 2394.871, 2588.658 2382.215, 2597.152 2372.565 C 2603.610 2365.228, 2604.903 2364.847, 2626.452 2363.925 C 2718.469 2359.988, 2796.308 2330.870, 2868 2273.567 C 2882.436 2262.028, 2917.835 2227.126, 2929.937 2212.500 C 2974.419 2158.738, 3008.690 2098.212, 3033.402 2029.766 C 3038.633 2015.278, 3039.216 2009.303, 3036.009 2003.018 C 3033.127 1997.368, 3029.193 1994.867, 3013.500 1988.708 C 2917.600 1951.072, 2813.525 1945.059, 2707.429 1971.024 C 2637.157 1988.222, 2566.356 2019.691, 2514 2056.997 C 2499.236 2067.517, 2494.942 2069.424, 2485.926 2069.465 C 2479.214 2069.496, 2477.949 2069.193, 2474.816 2066.806 C 2468.159 2061.734, 2467.699 2059.596, 2466.888 2030 C 2462.565 1872.115, 2418.906 1733.044, 2340.516 1627.454 C 2321.535 1601.887, 2291.909 1569.531, 2284.736 1566.534 C 2280.277 1564.671, 2272.576 1564.606, 2268.500 1566.396 M 2270.500 1571.877 C 2265.484 1574.176, 2241.888 1596.809, 2229.248 1611.445 C 2203.208 1641.597, 2183.810 1671.395, 2163.135 1713 C 2119.635 1800.539, 2093.458 1907.223, 2085.597 2029 C 2083.985 2053.978, 2082.494 2059.559, 2075.587 2066.466 C 2070.217 2071.835, 2064.747 2073.414, 2053.764 2072.762 C 2040.989 2072.004, 2033.682 2068.698, 2010.614 2053.241 C 1969.604 2025.763, 1936.796 2008.296, 1896.500 1992.489 C 1849.260 1973.958, 1803.707 1963.228, 1749.500 1957.863 C 1732.315 1956.162, 1677.579 1956.127, 1659.500 1957.805 C 1609.862 1962.412, 1564.206 1972.333, 1521.065 1987.889 C 1507.849 1992.654, 1505.619 1993.937, 1502.956 1998.304 C 1499.811 2003.462, 1500.489 2007.740, 1506.909 2023.236 C 1575.537 2188.895, 1678.267 2299.291, 1803.500 2341.963 C 1842.630 2355.296, 1872.249 2360.246, 1914 2360.430 C 1944.615 2360.564, 1944.278 2360.499, 1951.201 2367.668 C 1957.163 2373.842, 1959.333 2379.889, 1959.809 2391.655 C 1960.493 2408.563, 1955.939 2426.090, 1949.101 2432.865 C 1946.205 2435.735, 1941.545 2438.029, 1926.966 2443.761 C 1875.963 2463.814, 1830 2491.224, 1785.500 2528.122 C 1771.717 2539.551, 1738.579 2572.902, 1726.051 2587.954 C 1678.415 2645.185, 1640.966 2714.961, 1620.881 2783.908 C 1616.492 2798.973, 1617.998 2805.549, 1626.691 2809.276 C 1633.112 2812.030, 1672.991 2820.446, 1705.752 2825.961 C 1778.877 2838.271, 1851.221 2841.252, 1911 2834.419 C 1991.119 2825.261, 2059.223 2798.291, 2109.972 2755.623 C 2141.632 2729.005, 2168.206 2693.795, 2182.044 2660.128 C 2187.580 2646.660, 2191.105 2642.078, 2200.981 2635.513 C 2229.327 2616.668, 2272.852 2615.446, 2323.435 2632.073 C 2341.591 2638.042, 2344.552 2640.148, 2351.542 2652.072 C 2404.048 2741.633, 2504.635 2799.972, 2640.103 2819.434 C 2679.125 2825.040, 2708.793 2827, 2754.622 2827 C 2811.437 2827, 2866.019 2822.612, 2917.500 2813.907 C 2933.538 2811.195, 2938.285 2808.181, 2939.637 2799.851 C 2940.406 2795.113, 2934.373 2779.799, 2920.562 2751.430 C 2896.406 2701.814, 2867.209 2658.300, 2824.917 2608.888 C 2799.892 2579.650, 2750.121 2531.712, 2718.500 2506.389 C 2680.204 2475.721, 2641.830 2451.242, 2618 2442.279 C 2607.282 2438.248, 2596.138 2431.978, 2590.448 2426.779 C 2576.643 2414.161, 2575.358 2395.245, 2587.066 2376.958 C 2597.136 2361.229, 2599.780 2359.945, 2624.336 2358.862 C 2704.681 2355.321, 2772.845 2333.358, 2835.691 2290.763 C 2890.828 2253.393, 2940.771 2198.265, 2979.975 2131.500 C 3003.202 2091.946, 3034.463 2019.612, 3032.607 2009.719 C 3031.239 2002.429, 3028.615 2000.524, 3009.603 1993.019 C 2938.605 1964.993, 2859.120 1954.777, 2780 1963.509 C 2714.821 1970.703, 2646.986 1990.840, 2584.500 2021.545 C 2556.980 2035.068, 2544.225 2042.725, 2511.500 2065.365 C 2500.355 2073.076, 2493.635 2075.352, 2483.519 2074.841 C 2474.318 2074.376, 2468.953 2071.093, 2465.073 2063.553 C 2462.617 2058.781, 2462.514 2057.802, 2461.817 2032.535 C 2457.814 1887.351, 2421.050 1758.987, 2354.262 1657 C 2324.983 1612.290, 2287.054 1569.901, 2276.434 1570.022 C 2275.370 1570.034, 2272.700 1570.869, 2270.500 1571.877 M 2262.681 1631.708 C 2262.402 1632.158, 2256.210 1648.270, 2248.919 1667.513 L 2235.663 1702.500 2235.582 1713 C 2235.509 1722.403, 2235.781 1724.099, 2238.188 1729.236 C 2243.485 1740.538, 2254.994 1749.010, 2266.147 1749.817 C 2284.631 1751.154, 2300.798 1729.103, 2297.210 1707.450 C 2296.501 1703.172, 2291.338 1689.922, 2281.183 1666.319 C 2267.344 1634.154, 2264.480 1628.797, 2262.681 1631.708 M 2210.176 1732.853 C 2208.527 1737.172, 2202.310 1753.710, 2196.360 1769.603 L 2185.542 1798.500 2185.521 1808 C 2185.502 1816.607, 2185.796 1818.125, 2188.651 1824.151 C 2192.375 1832.012, 2197.926 1837.887, 2205.216 1841.684 C 2212.135 1845.288, 2222.369 1845.569, 2228.500 1842.323 C 2241.897 1835.230, 2249.944 1817.963, 2247.230 1802.134 C 2245.850 1794.085, 2216.494 1725, 2214.454 1725 C 2213.751 1725, 2211.826 1728.534, 2210.176 1732.853 M 2322.584 1731.863 C 2322.291 1732.338, 2316.130 1748.426, 2308.894 1767.613 C 2296.026 1801.735, 2295.727 1802.708, 2295.275 1812 C 2294.881 1820.084, 2295.140 1822.371, 2297.013 1827.344 C 2302.089 1840.821, 2314.938 1850.573, 2327.434 1850.430 C 2338.295 1850.306, 2348.294 1843.001, 2353.865 1831.120 C 2356.233 1826.069, 2356.500 1824.335, 2356.500 1814 L 2356.500 1802.500 2341.573 1768 C 2333.363 1749.025, 2326.220 1732.938, 2325.700 1732.250 C 2324.599 1730.794, 2323.342 1730.638, 2322.584 1731.863 M 2139.816 1855.751 C 2130.640 1874.863, 2122.655 1892.300, 2122.072 1894.500 C 2118.544 1907.806, 2123.862 1924.970, 2134 1933 C 2147.310 1943.542, 2162.134 1942.293, 2173.682 1929.657 C 2181.005 1921.646, 2183.383 1915.087, 2183.349 1903 C 2183.322 1893.599, 2183.201 1893.131, 2171.711 1858.235 C 2165.325 1838.839, 2159.826 1822.527, 2159.491 1821.985 C 2159.156 1821.443, 2158.346 1821.001, 2157.691 1821.001 C 2157.036 1821.002, 2148.992 1836.639, 2139.816 1855.751 M 2261.900 1830.750 C 2261.322 1832.263, 2255.164 1848.575, 2248.215 1867 L 2235.581 1900.500 2235.540 1910.500 C 2235.503 1919.656, 2235.761 1921.049, 2238.595 1927 C 2246.560 1943.730, 2264.351 1951.850, 2278.275 1945.109 C 2291.424 1938.743, 2299.780 1921.005, 2297.145 1905.050 C 2295.742 1896.551, 2266.555 1828, 2264.340 1828 C 2263.576 1828, 2262.478 1829.237, 2261.900 1830.750 M 2384.066 1829.877 C 2381.178 1835.274, 2357.714 1900.210, 2356.932 1904.972 C 2353.447 1926.183, 2369.761 1947.415, 2389.499 1947.357 C 2408.693 1947.301, 2423.221 1924.075, 2418.095 1901.641 C 2416.589 1895.051, 2387.887 1828.773, 2386.318 1828.263 C 2385.667 1828.051, 2384.654 1828.778, 2384.066 1829.877 M 2212.497 1936.250 C 2212.255 1936.938, 2206.123 1953.250, 2198.869 1972.500 L 2185.681 2007.500 2185.591 2017.500 C 2185.507 2026.727, 2185.741 2028.003, 2188.610 2034 C 2195.955 2049.354, 2210.920 2057.491, 2224.533 2053.533 C 2229.256 2052.160, 2231.491 2050.693, 2236.507 2045.673 C 2244.780 2037.393, 2247.362 2030.936, 2247.372 2018.500 C 2247.381 2007.721, 2247.875 2009.151, 2229.509 1966.750 C 2216.586 1936.914, 2213.936 1932.164, 2212.497 1936.250 M 2322.646 1935.763 C 2322.387 1936.183, 2316.199 1952.270, 2308.896 1971.513 L 2295.617 2006.500 2295.559 2017.516 C 2295.503 2027.986, 2295.661 2028.860, 2298.760 2035.158 C 2302.562 2042.887, 2307.993 2048.178, 2315.880 2051.837 C 2330.255 2058.505, 2345.351 2052.189, 2353.213 2036.218 C 2356.353 2029.840, 2356.500 2029.028, 2356.496 2018.021 L 2356.492 2006.500 2342.221 1973.651 C 2334.371 1955.584, 2327.274 1939.497, 2326.449 1937.901 C 2324.973 1935.047, 2323.575 1934.261, 2322.646 1935.763 M 2719 2009.563 C 2692.276 2010.552, 2683.493 2011.203, 2680.033 2012.452 C 2664.502 2018.059, 2655.124 2029.975, 2654.207 2045.267 C 2653.337 2059.768, 2659.644 2068.609, 2674.058 2073.095 C 2685.174 2076.555, 2698.191 2074.635, 2708.042 2068.083 C 2713.799 2064.254, 2765 2011.666, 2765 2009.582 C 2765 2007.741, 2768.259 2007.742, 2719 2009.563 M 1566.518 2011.971 C 1565.822 2013.097, 1606.994 2068.155, 1613.876 2075.302 C 1616.433 2077.958, 1621.396 2081.533, 1624.978 2083.302 C 1630.896 2086.223, 1632.282 2086.500, 1640.996 2086.500 C 1649.761 2086.500, 1651.078 2086.233, 1657.226 2083.208 C 1669.090 2077.370, 1673.861 2069.121, 1672.681 2056.483 C 1671.475 2043.568, 1662.914 2031.662, 1650.737 2025.964 C 1645.468 2023.499, 1638.660 2022.102, 1607.131 2017.021 C 1566.315 2010.443, 1567.380 2010.576, 1566.518 2011.971 M 1683.983 2015.011 C 1683.239 2015.470, 1683.072 2016.321, 1683.564 2017.138 C 1686.817 2022.536, 1730.600 2079.330, 1733.211 2081.538 C 1749.434 2095.258, 1777.186 2092.392, 1786.848 2076 C 1789.156 2072.083, 1789.500 2070.399, 1789.500 2063 C 1789.500 2055.885, 1789.066 2053.575, 1786.840 2048.825 C 1782.139 2038.797, 1773.408 2031.025, 1762.890 2027.505 C 1760.475 2026.696, 1742.750 2023.549, 1723.500 2020.510 C 1704.250 2017.472, 1687.762 2014.819, 1686.861 2014.615 C 1685.959 2014.412, 1684.664 2014.590, 1683.983 2015.011 M 1798.455 2015.073 C 1797.496 2016.624, 1844.641 2078.714, 1849.500 2082.300 C 1857.626 2088.295, 1861.559 2089.500, 1873 2089.500 C 1882.449 2089.500, 1884.065 2089.223, 1889.142 2086.730 C 1896.230 2083.248, 1902.499 2076.566, 1904.049 2070.841 C 1907.691 2057.380, 1900.117 2039.929, 1887 2031.560 C 1880.418 2027.360, 1874.462 2025.979, 1837.135 2019.992 C 1793.843 2013.050, 1799.278 2013.741, 1798.455 2015.073 M 2832.834 2018.929 C 2798.339 2023.364, 2795.782 2023.833, 2789.662 2026.846 C 2776.275 2033.436, 2769 2045.134, 2769 2060.070 C 2769 2072.545, 2772.939 2079.164, 2783.268 2084.049 C 2797.629 2090.841, 2816.570 2087.321, 2827.634 2075.804 C 2834.669 2068.482, 2876 2016.849, 2876 2015.384 C 2876 2013.448, 2874.533 2013.568, 2832.834 2018.929 M 2941.500 2019.016 C 2921.150 2021.658, 2902.583 2024.517, 2900.239 2025.370 C 2885.922 2030.576, 2876.075 2044.408, 2876.024 2059.384 C 2875.990 2069.100, 2877.630 2073.682, 2883.113 2079.188 C 2894.526 2090.650, 2917.155 2090.686, 2931.094 2079.264 C 2936.572 2074.776, 2982.360 2018.715, 2982.820 2015.934 C 2983.229 2013.458, 2985.781 2013.268, 2941.500 2019.016 M 1620.062 2105.750 C 1620.172 2108.846, 1665.958 2168.026, 1671.500 2172.235 C 1685.023 2182.506, 1705.551 2182.309, 1717.497 2171.794 C 1723.737 2166.301, 1725.950 2161.341, 1725.978 2152.788 C 1726.031 2136.611, 1714.964 2121.918, 1699 2116.969 C 1693.543 2115.277, 1626.163 2104, 1621.512 2104 C 1620.680 2104, 1620.028 2104.787, 1620.062 2105.750 M 2767.464 2110.461 C 2749.294 2112.791, 2732.668 2115.027, 2730.519 2115.430 C 2720.523 2117.306, 2709.258 2126.089, 2704.494 2135.722 C 2700.277 2144.250, 2699.745 2156.578, 2703.262 2164.260 C 2711.081 2181.340, 2739.284 2184.660, 2756.528 2170.531 C 2761.333 2166.593, 2806.993 2110.742, 2807.739 2107.889 C 2808.416 2105.302, 2806.989 2105.393, 2767.464 2110.461 M 2648.500 2116.070 C 2610.528 2120.913, 2610.494 2120.919, 2603.043 2124.708 C 2594.310 2129.149, 2588.394 2135.659, 2585.107 2144.444 C 2582.340 2151.840, 2582.241 2163.770, 2584.900 2169.500 C 2592.606 2186.110, 2619.691 2190.098, 2636.911 2177.159 C 2642.787 2172.744, 2689.911 2115.535, 2689.966 2112.750 C 2690.008 2110.591, 2693.892 2110.280, 2648.500 2116.070 M 2879.500 2118.568 C 2860.800 2120.958, 2843.551 2123.451, 2841.169 2124.109 C 2835.334 2125.721, 2826.136 2131.806, 2822.688 2136.335 C 2812.574 2149.622, 2811.480 2167.644, 2820.187 2177.560 C 2825.576 2183.698, 2832.050 2186.316, 2843 2186.782 C 2850.898 2187.119, 2853.445 2186.832, 2858.105 2185.076 C 2868.939 2180.995, 2871.671 2178.324, 2897.139 2146.912 C 2910.538 2130.387, 2921.645 2116.221, 2921.823 2115.433 C 2922.299 2113.326, 2918.065 2113.640, 2879.500 2118.568 M 1733.465 2118.057 C 1732.730 2119.245, 1775.281 2176.194, 1781.500 2182.348 C 1783.700 2184.524, 1788.425 2187.699, 1792 2189.403 C 1797.869 2192.199, 1799.432 2192.500, 1808.101 2192.500 C 1817.101 2192.500, 1818.131 2192.281, 1824.556 2189 C 1835.960 2183.177, 1840.852 2174.573, 1839.604 2162.533 C 1838.275 2149.717, 1829.845 2137.984, 1817.695 2132.041 C 1812.293 2129.399, 1806.719 2128.243, 1774.135 2123.005 C 1733.015 2116.397, 1734.388 2116.564, 1733.465 2118.057 M 2249.400 2119.034 C 2243.296 2119.504, 2232.496 2121.061, 2225.400 2122.495 C 2103.745 2147.070, 2031.489 2271.911, 2070.572 2390 C 2093.572 2459.494, 2152.277 2511.808, 2223.772 2526.522 C 2341.457 2550.741, 2453.585 2471.793, 2470.499 2352.804 C 2472.214 2340.739, 2472.459 2312.162, 2470.953 2299.974 C 2464.497 2247.751, 2438.765 2200.059, 2399.140 2166.877 C 2357.506 2132.013, 2303.786 2114.849, 2249.400 2119.034 M 1856 2125.562 C 1856 2127.830, 1900.583 2186.463, 1905.799 2191.054 C 1912.505 2196.957, 1919.700 2199.405, 1930.500 2199.457 C 1938.364 2199.495, 1940.289 2199.136, 1945.747 2196.615 C 1952.904 2193.309, 1959.139 2187.139, 1960.990 2181.529 C 1962.888 2175.778, 1961.836 2164.506, 1958.778 2157.825 C 1954.090 2147.586, 1944.836 2139.664, 1934 2136.615 C 1928.989 2135.204, 1861.052 2124, 1857.512 2124 C 1856.680 2124, 1856 2124.703, 1856 2125.562 M 2250.802 2127.071 C 2227.412 2128.945, 2202.847 2135.641, 2181.146 2146.057 C 2090.909 2189.370, 2047.002 2291.713, 2078.066 2386.325 C 2091.768 2428.058, 2119.263 2464.298, 2155.925 2488.949 C 2235.589 2542.516, 2341.278 2531.368, 2408.035 2462.357 C 2435.249 2434.225, 2452.390 2401.780, 2460.527 2363 C 2464.097 2345.985, 2465.032 2316.302, 2462.556 2298.606 C 2451.277 2218.023, 2392.568 2152.300, 2314.245 2132.579 C 2294.478 2127.601, 2270.342 2125.506, 2250.802 2127.071 M 2256.500 2149.733 C 2249.980 2151.365, 2245 2158.846, 2245 2167.008 C 2245 2171.051, 2246.471 2175.628, 2252.165 2189.298 C 2259.559 2207.048, 2261.288 2210.130, 2262.919 2208.457 C 2263.432 2207.931, 2267.035 2199.784, 2270.926 2190.353 C 2276.038 2177.962, 2277.994 2171.998, 2277.978 2168.853 C 2277.917 2156.829, 2266.995 2147.105, 2256.500 2149.733 M 2318.450 2165.407 C 2315.183 2166.830, 2310.319 2172.031, 2308.992 2175.522 C 2308.173 2177.674, 2304 2211.197, 2304 2215.618 C 2304 2217.068, 2304.587 2218, 2305.500 2218 C 2307.056 2218, 2327.681 2202.308, 2334.242 2196.132 C 2343.525 2187.394, 2342.821 2171.460, 2332.891 2165.595 C 2329.639 2163.674, 2322.638 2163.582, 2318.450 2165.407 M 2185.401 2168.897 C 2181.822 2171.079, 2178.989 2177.240, 2179.022 2182.770 C 2179.065 2190.050, 2181.963 2193.987, 2197.489 2207.855 C 2205.583 2215.085, 2212.892 2221, 2213.730 2221 C 2215.064 2221, 2215.172 2218.834, 2214.591 2203.750 C 2214.225 2194.262, 2213.464 2184.430, 2212.900 2181.901 C 2211.679 2176.432, 2207.389 2170.887, 2202.634 2168.630 C 2197.901 2166.385, 2189.303 2166.518, 2185.401 2168.897 M 2364.401 2196.905 C 2359.058 2199.332, 2357.363 2201.859, 2347.913 2221.495 C 2339.780 2238.397, 2339.372 2239.494, 2340.888 2240.431 C 2342.145 2241.207, 2373.645 2230.379, 2378.676 2227.441 C 2384.631 2223.963, 2388.508 2215.941, 2387.667 2208.837 C 2387.336 2206.038, 2386.350 2202.657, 2385.478 2201.326 C 2381.456 2195.188, 2372.376 2193.284, 2364.401 2196.905 M 2143.304 2203.956 C 2134.525 2209.309, 2133.792 2221.885, 2141.803 2229.723 C 2146.495 2234.314, 2179.911 2250.490, 2181.471 2248.926 C 2182.177 2248.218, 2180.615 2242.334, 2176.500 2230.198 C 2170.066 2211.221, 2167.012 2206.164, 2160.282 2203.347 C 2155.483 2201.338, 2147.106 2201.638, 2143.304 2203.956 M 1670 2204.153 C 1670 2206.592, 1709.683 2269.569, 1714.013 2274.001 C 1728.177 2288.501, 1753.684 2289.054, 1766.260 2275.134 C 1775.362 2265.059, 1773.509 2245.577, 1762.252 2233 C 1754.475 2224.311, 1750.818 2222.868, 1710.292 2212.495 C 1689.891 2207.273, 1672.480 2203, 1671.600 2203 C 1670.720 2203, 1670 2203.519, 1670 2204.153 M 2699.500 2213.156 C 2657.808 2218.558, 2654.449 2219.437, 2645.430 2227.300 C 2637.053 2234.602, 2631.982 2249.334, 2634.059 2260.335 C 2635.673 2268.888, 2639.514 2273.958, 2647.441 2278 C 2653.957 2281.323, 2654.817 2281.499, 2664.403 2281.479 C 2673.686 2281.460, 2675.024 2281.203, 2681 2278.289 C 2684.575 2276.546, 2689.300 2273.374, 2691.500 2271.240 C 2693.700 2269.106, 2705.778 2254.661, 2718.341 2239.139 C 2739.703 2212.745, 2743.004 2207.734, 2738.781 2208.116 C 2738.077 2208.180, 2720.400 2210.448, 2699.500 2213.156 M 2824.500 2218.138 C 2802.970 2220.854, 2784.550 2223.664, 2782 2224.620 C 2772.269 2228.272, 2764.575 2235.416, 2760.101 2244.954 C 2757.900 2249.646, 2757.501 2251.885, 2757.507 2259.500 C 2757.515 2269.416, 2759.178 2273.996, 2764.658 2279.196 C 2775.417 2289.405, 2798.103 2289.428, 2811.500 2279.244 C 2815.648 2276.091, 2860.591 2222.678, 2863.996 2216.855 C 2864.654 2215.731, 2864.569 2214.915, 2863.729 2214.277 C 2862.944 2213.682, 2848.761 2215.077, 2824.500 2218.138 M 1797.357 2217.511 C 1796.703 2219.218, 1838.042 2274.759, 1845.357 2282.003 C 1852.036 2288.615, 1858.822 2291.309, 1870 2291.784 C 1877.885 2292.119, 1880.449 2291.830, 1885.079 2290.086 C 1892.090 2287.445, 1898.210 2282.264, 1900.912 2276.682 C 1905.160 2267.906, 1903.165 2253.638, 1896.298 2243.694 C 1892.727 2238.522, 1883.370 2231.607, 1877.248 2229.614 C 1874.637 2228.764, 1856.750 2225.579, 1837.500 2222.535 C 1818.250 2219.492, 1801.478 2216.766, 1800.228 2216.476 C 1798.731 2216.130, 1797.752 2216.483, 1797.357 2217.511 M 2112.371 2251.494 C 2105.618 2255.542, 2103.448 2262.350, 2106.548 2269.768 C 2110.489 2279.201, 2114.138 2280.789, 2138.379 2283.617 C 2157.382 2285.834, 2160 2285.892, 2160 2284.092 C 2160 2283.213, 2142.225 2260.115, 2138.118 2255.658 C 2131.633 2248.620, 2120.240 2246.777, 2112.371 2251.494 M 2395.929 2250.976 C 2391.364 2253.390, 2391.563 2253.132, 2379.884 2271.685 C 2370.994 2285.806, 2368.524 2291.026, 2370.750 2290.987 C 2373.645 2290.936, 2407.377 2282.853, 2409.653 2281.665 C 2416.492 2278.094, 2420 2272.066, 2420 2263.885 C 2420 2254.193, 2414.726 2248.976, 2405 2249.048 C 2401.606 2249.073, 2398.133 2249.811, 2395.929 2250.976 M 2250 2270.838 C 2235.502 2275.663, 2222.272 2286.616, 2216.237 2298.792 C 2202.398 2326.711, 2213.161 2360.719, 2240.143 2374.328 C 2247.913 2378.247, 2258.503 2380.965, 2266 2380.965 C 2280.023 2380.965, 2295.771 2374.316, 2305.926 2364.108 C 2334.522 2335.363, 2323.523 2285.761, 2285.461 2271.812 C 2277.052 2268.731, 2257.912 2268.205, 2250 2270.838 M 2109.312 2318.890 C 2103.019 2321.830, 2099 2327.959, 2099 2334.615 C 2099 2339.181, 2099.456 2340.450, 2102.234 2343.614 C 2106.164 2348.090, 2110.438 2350, 2116.525 2350 C 2122.647 2350, 2158.241 2335.484, 2157.792 2333.170 C 2157.619 2332.276, 2150.795 2328.811, 2141 2324.645 C 2122.117 2316.614, 2116.404 2315.576, 2109.312 2318.890 M 2392.202 2324.659 C 2378.227 2330.471, 2373.978 2332.649, 2374.215 2333.880 C 2374.414 2334.909, 2380.480 2338.021, 2391.013 2342.496 C 2405.829 2348.790, 2408.167 2349.500, 2414.077 2349.497 C 2419.574 2349.495, 2421.336 2349.044, 2424.807 2346.746 C 2436.210 2339.200, 2435.368 2323.548, 2423.282 2318.377 C 2416.672 2315.549, 2411.685 2316.557, 2392.202 2324.659 M 2368.618 2367.715 C 2367.189 2369.145, 2368.549 2371.354, 2379.310 2385.077 C 2392.398 2401.766, 2396.029 2404.495, 2405 2404.385 C 2419.105 2404.212, 2426.439 2392.250, 2419.598 2380.577 C 2415.575 2373.713, 2411.521 2372.167, 2391.766 2369.967 C 2382.270 2368.910, 2373.316 2367.832, 2371.868 2367.571 C 2370.420 2367.310, 2368.958 2367.375, 2368.618 2367.715 M 2127.236 2369.979 C 2111.778 2373.645, 2106.699 2393.358, 2119.241 2401.005 C 2123.312 2403.488, 2132.735 2403.706, 2137.155 2401.420 C 2143.281 2398.252, 2169.117 2376.844, 2168.800 2375.198 C 2168.549 2373.898, 2165.065 2373.165, 2150.495 2371.350 C 2130.408 2368.846, 2131.693 2368.922, 2127.236 2369.979 M 2345 2404.890 C 2345 2405.380, 2347.872 2413.966, 2351.382 2423.970 C 2356.460 2438.446, 2358.448 2442.867, 2361.117 2445.621 C 2369.496 2454.266, 2385.578 2453.042, 2389.584 2443.454 C 2392.413 2436.683, 2390.915 2428.981, 2385.633 2423.142 C 2383.272 2420.531, 2349.775 2404, 2346.846 2404 C 2345.831 2404, 2345 2404.401, 2345 2404.890 M 2172.602 2413.064 C 2152.719 2417.554, 2151.280 2418.085, 2147.003 2422.497 C 2141.433 2428.244, 2139.921 2440.391, 2144.112 2445.732 C 2149.930 2453.145, 2161.729 2453.582, 2169.348 2446.667 C 2173.501 2442.898, 2192.206 2413.302, 2191.790 2411.158 C 2191.630 2410.337, 2191.050 2409.572, 2190.500 2409.457 C 2189.950 2409.342, 2181.896 2410.965, 2172.602 2413.064 M 2204.946 2442.618 C 2188.575 2457.283, 2186.505 2460.481, 2187.197 2470.045 C 2188.120 2482.809, 2198.636 2489.259, 2209.750 2483.879 C 2216.885 2480.425, 2219.042 2476.100, 2220.013 2463.305 C 2221.482 2443.929, 2221.609 2430.719, 2220.330 2430.284 C 2219.686 2430.066, 2212.764 2435.616, 2204.946 2442.618 M 2312.606 2432.829 C 2312.324 2433.285, 2312.545 2442.172, 2313.096 2452.579 C 2313.924 2468.227, 2314.453 2472.240, 2316.151 2475.777 C 2322.139 2488.249, 2339.445 2490.518, 2346.044 2479.696 C 2348.681 2475.371, 2348.719 2465.691, 2346.116 2461.422 C 2344.015 2457.978, 2315.807 2432, 2314.167 2432 C 2313.590 2432, 2312.888 2432.373, 2312.606 2432.829 M 2263.103 2447.177 C 2262.607 2448.455, 2259.437 2456.020, 2256.060 2463.989 C 2249.840 2478.663, 2248.586 2484.805, 2250.514 2491.141 C 2252.501 2497.668, 2260.623 2504, 2267.010 2504 C 2276.128 2504, 2284.268 2493.022, 2282.480 2483.137 C 2282.118 2481.137, 2278.597 2471.856, 2274.657 2462.513 C 2267.303 2445.079, 2265.070 2442.115, 2263.103 2447.177 M 1861.500 2513.399 C 1851.042 2516.706, 1849.912 2517.717, 1819.849 2550.666 C 1797.125 2575.571, 1792.881 2581, 1796.140 2581 C 1803.112 2581, 1872.605 2575.723, 1875.884 2574.944 C 1886.618 2572.396, 1896.964 2563.856, 1901.595 2553.722 C 1905.372 2545.457, 1905.669 2532.872, 1902.240 2526.347 C 1899.453 2521.042, 1893.926 2516.493, 1887.212 2513.980 C 1881.040 2511.669, 1867.908 2511.372, 1861.500 2513.399 M 2661.582 2514.434 C 2654.435 2517.428, 2647.599 2523.866, 2645.371 2529.700 C 2641.364 2540.191, 2646.129 2556.170, 2656.023 2565.425 C 2665.106 2573.920, 2668.078 2574.768, 2709.500 2580.670 C 2751.280 2586.624, 2751 2586.598, 2751 2584.425 C 2751 2582.496, 2705.245 2524.231, 2700.734 2520.416 C 2694.213 2514.900, 2687.363 2512.539, 2677 2512.234 C 2668.760 2511.992, 2666.715 2512.284, 2661.582 2514.434 M 2535.500 2520.402 C 2528.627 2522.581, 2523.560 2525.669, 2519.337 2530.250 C 2514.069 2535.965, 2512.635 2540.450, 2513.219 2549.387 C 2514.167 2563.897, 2523.369 2575.253, 2538.883 2581.057 C 2543.790 2582.893, 2549.268 2583.384, 2583.488 2585.049 C 2604.945 2586.094, 2622.838 2586.960, 2623.250 2586.974 C 2626.281 2587.079, 2620.703 2580.357, 2597.750 2556.244 C 2583.313 2541.077, 2569.738 2527.388, 2567.585 2525.823 C 2559.495 2519.945, 2544.782 2517.459, 2535.500 2520.402 M 1983.395 2525.963 C 1980.587 2526.962, 1976.367 2529.052, 1974.017 2530.607 C 1969.050 2533.894, 1918 2589.456, 1918 2591.575 C 1918 2593.390, 1915.876 2593.449, 1959.949 2590.423 C 1988.908 2588.435, 1998.695 2587.422, 2002.769 2585.990 C 2027.843 2577.177, 2036.796 2543.008, 2017.478 2529.859 C 2008.729 2523.904, 1993.933 2522.213, 1983.395 2525.963 M 1799.500 2609.345 C 1793.808 2611.231, 1788.017 2614.398, 1784.268 2617.675 C 1778.747 2622.500, 1732.020 2674.429, 1732.010 2675.750 C 1731.997 2677.444, 1733.749 2677.393, 1775.657 2674.486 C 1812.926 2671.900, 1816.319 2671.347, 1824.551 2666.523 C 1837.159 2659.134, 1844.811 2641.063, 1841.114 2627.404 C 1838.033 2616.019, 1827.102 2608.819, 1812.127 2608.312 C 1806.856 2608.133, 1801.944 2608.535, 1799.500 2609.345 M 2609.500 2612.344 C 2598.638 2615.946, 2590.005 2623.554, 2587.898 2631.379 C 2583.193 2648.854, 2597.820 2670.107, 2617.504 2674.396 C 2621.325 2675.229, 2696.244 2678.920, 2697.250 2678.325 C 2697.662 2678.082, 2697.996 2677.346, 2697.992 2676.691 C 2697.983 2675.414, 2648.311 2622.577, 2643.802 2619.049 C 2642.319 2617.887, 2638.494 2615.741, 2635.302 2614.278 C 2628.393 2611.112, 2616.012 2610.184, 2609.500 2612.344 M 2724 2612.522 C 2716.376 2614.625, 2708.224 2620.447, 2704.537 2626.422 C 2701.852 2630.773, 2701.501 2632.221, 2701.507 2638.922 C 2701.512 2645.021, 2702.031 2647.608, 2704.167 2652.175 C 2708.823 2662.131, 2717.186 2669.623, 2728.033 2673.555 C 2733.534 2675.549, 2810.673 2679.727, 2812.282 2678.118 C 2813.347 2677.053, 2813.712 2677.464, 2781.664 2643.550 C 2770.205 2631.422, 2759.218 2620.267, 2757.250 2618.760 C 2748.909 2612.375, 2734.401 2609.653, 2724 2612.522 M 2485 2619.580 C 2475.254 2622.700, 2466.991 2631.150, 2465.111 2639.919 C 2461.405 2657.197, 2476.192 2677.049, 2495.676 2680.957 C 2500.136 2681.851, 2558.807 2685.015, 2570.750 2685.004 C 2574.295 2685.001, 2575.991 2684.594, 2575.973 2683.750 C 2575.933 2681.885, 2524.645 2628.108, 2519.243 2624.267 C 2516.680 2622.445, 2512.345 2620.289, 2509.610 2619.477 C 2503.387 2617.629, 2490.931 2617.681, 2485 2619.580 M 1914.500 2623.348 C 1908.084 2625.016, 1902.018 2628.167, 1897.378 2632.242 C 1888.847 2639.731, 1844.817 2689.082, 1845.373 2690.530 C 1845.819 2691.693, 1847.116 2691.906, 1851.223 2691.494 C 1854.125 2691.202, 1870.225 2690.076, 1887 2688.992 C 1903.775 2687.907, 1919.507 2686.749, 1921.961 2686.417 C 1943.800 2683.465, 1959.519 2661.273, 1953.941 2641.269 C 1952.179 2634.951, 1944.453 2627.188, 1937.486 2624.734 C 1930.735 2622.357, 1920.648 2621.749, 1914.500 2623.348 M 2028.445 2625.893 C 2019.498 2629.116, 2015.364 2632.838, 1990.717 2659.868 C 1962.166 2691.178, 1962.445 2690.845, 1963.710 2692.110 C 1965.368 2693.768, 2039.169 2688.353, 2047 2685.999 C 2065.741 2680.365, 2077.216 2659.805, 2071.769 2641.623 C 2069.983 2635.663, 2062.814 2628.746, 2055.712 2626.131 C 2048.230 2623.376, 2035.737 2623.267, 2028.445 2625.893 M 2785.844 2699.347 C 2770.331 2705.085, 2762.474 2716.549, 2764.841 2729.988 C 2766.624 2740.112, 2771.332 2747.532, 2780.236 2754.253 C 2788.788 2760.707, 2794.357 2761.733, 2830.241 2763.467 C 2869.032 2765.341, 2876 2765.395, 2876 2763.822 C 2876 2763.174, 2872.738 2759.232, 2868.750 2755.063 C 2819.567 2703.635, 2820.746 2704.786, 2814 2701.585 C 2808.459 2698.956, 2806.172 2698.463, 2798.500 2698.248 C 2792.803 2698.088, 2788.158 2698.491, 2785.844 2699.347 M 1732.500 2705.346 C 1726.106 2707.463, 1720.810 2710.500, 1716.287 2714.643 C 1709.235 2721.104, 1665 2770.318, 1665 2771.704 C 1665 2773.425, 1665.509 2773.411, 1707.500 2770.496 C 1728.507 2769.038, 1745.590 2767.389, 1748.519 2766.537 C 1758.542 2763.624, 1767.536 2755.612, 1772.226 2745.420 C 1774.047 2741.464, 1774.489 2738.737, 1774.488 2731.500 C 1774.485 2718.383, 1771.295 2713.072, 1760 2707.376 C 1755.424 2705.069, 1752.989 2704.554, 1745.500 2704.312 C 1739.935 2704.132, 1734.973 2704.527, 1732.500 2705.346 M 2670.929 2708.303 C 2661.043 2711.108, 2651.420 2719.168, 2648.922 2726.737 C 2648.296 2728.632, 2647.954 2733.188, 2648.162 2736.860 C 2649.006 2751.791, 2660.532 2765.352, 2676.491 2770.190 C 2678.736 2770.871, 2745.352 2774.819, 2757.250 2774.977 C 2758.213 2774.990, 2759 2774.282, 2759 2773.404 C 2759 2771.798, 2712.346 2722.020, 2704.736 2715.506 C 2696.796 2708.710, 2681.205 2705.388, 2670.929 2708.303 M 1840.024 2711.603 C 1833.530 2713.348, 1827.405 2716.776, 1822.787 2721.251 C 1813.590 2730.161, 1772.500 2776.403, 1772.500 2777.843 C 1772.500 2779.795, 1769.878 2779.871, 1818.533 2776.509 C 1854.694 2774.010, 1857.230 2773.546, 1865.595 2767.887 C 1878.544 2759.128, 1885.086 2741.806, 1880.574 2728.223 C 1876.016 2714.500, 1857.495 2706.908, 1840.024 2711.603 M 2557.734 2721.088 C 2548.835 2723.185, 2539.653 2729.969, 2535.915 2737.210 C 2534.542 2739.870, 2534 2742.985, 2534.001 2748.210 C 2534.002 2763.446, 2544.022 2776.633, 2559.832 2782.208 C 2564.639 2783.903, 2571.270 2784.491, 2603.500 2786.080 C 2624.400 2787.111, 2642.287 2787.965, 2643.250 2787.977 C 2644.213 2787.990, 2645 2787.342, 2645 2786.539 C 2645 2784.349, 2592.608 2729.599, 2587.179 2726.115 C 2578.994 2720.862, 2567.222 2718.853, 2557.734 2721.088 M 1952.909 2730.836 C 1949.284 2731.782, 1944.279 2733.893, 1941.786 2735.528 C 1939.293 2737.163, 1924.784 2749.922, 1909.545 2763.883 C 1886.719 2784.795, 1882.072 2789.493, 1883.169 2790.552 C 1884.182 2791.530, 1894.043 2792.003, 1924.500 2792.534 C 1962.987 2793.205, 1964.714 2793.155, 1970.168 2791.220 C 1977.756 2788.528, 1984.361 2783.836, 1988.546 2778.167 C 1992.388 2772.962, 1996 2762.742, 1996 2757.076 C 1996 2743.826, 1986.346 2733.333, 1971.201 2730.123 C 1964.204 2728.640, 1960.814 2728.772, 1952.909 2730.836 M 1036 2990.500 L 1036 3001 2250 3001 L 3464 3001 3464 2990.500 L 3464 2980 2250 2980 L 1036 2980 1036 2990.500 M 1521.500 3060.608 C 1506.213 3063.339, 1494.565 3067.961, 1493.187 3071.845 C 1482.761 3101.234, 1480 3109.195, 1480 3109.870 C 1480 3110.634, 1485.111 3113.400, 1485.389 3112.787 C 1492.175 3097.835, 1495.744 3093.251, 1503.591 3089.411 C 1507.706 3087.398, 1510.002 3086.871, 1512.938 3087.265 C 1518.490 3088.010, 1525.381 3093.089, 1527.901 3098.296 C 1529.930 3102.487, 1530 3104.019, 1530 3144.393 L 1530 3186.155 1516.750 3185.784 C 1509.463 3185.581, 1502.790 3185.077, 1501.923 3184.666 C 1500.645 3184.060, 1499.570 3185.936, 1496.254 3194.560 L 1492.162 3205.202 1494.831 3204.548 C 1496.299 3204.188, 1505.037 3203.635, 1514.250 3203.319 L 1531 3202.744 1531 3232.377 L 1531 3262.010 1539.250 3257.573 C 1551.679 3250.888, 1565.299 3245.903, 1580.154 3242.600 L 1582.807 3242.010 1581.330 3237.255 C 1579.406 3231.060, 1580.087 3220.227, 1582.855 3213 C 1585.477 3206.154, 1592.386 3198.134, 1598.418 3194.934 C 1602.423 3192.810, 1603 3192.094, 1603 3189.252 L 1603 3186 1593.036 3186 L 1583.072 3186 1582.786 3136.750 L 1582.500 3087.500 1580.142 3082.286 C 1578.846 3079.419, 1575.660 3075.085, 1573.063 3072.656 C 1567.947 3067.871, 1556.200 3061.732, 1549 3060.081 C 1542.838 3058.668, 1531.105 3058.893, 1521.500 3060.608 M 1065.500 3062.059 C 1030.242 3066.806, 1005.936 3086.531, 998.419 3116.500 C 996.055 3125.924, 996.009 3146.016, 998.330 3155 C 1003.507 3175.032, 1016.700 3190.852, 1036.500 3200.770 C 1056.325 3210.700, 1088.954 3212.884, 1111.872 3205.815 C 1137.720 3197.842, 1157.892 3177.762, 1164.428 3153.500 C 1166.700 3145.065, 1167.492 3129.030, 1166.082 3120.023 C 1161.346 3089.769, 1142.030 3070.407, 1109.552 3063.359 C 1101.048 3061.513, 1075.219 3060.751, 1065.500 3062.059 M 1824.500 3061.606 C 1822.850 3061.848, 1813.935 3062.974, 1804.688 3064.107 C 1789.487 3065.970, 1787.519 3066.025, 1784.144 3064.674 L 1780.412 3063.181 1771.706 3089.361 C 1766.918 3103.760, 1763 3116.022, 1763 3116.610 C 1763 3117.198, 1764.108 3118.184, 1765.462 3118.801 C 1767.800 3119.866, 1768.082 3119.627, 1771.058 3114.043 C 1776.680 3103.494, 1789.163 3093.223, 1802.914 3087.830 C 1811.045 3084.642, 1825.256 3084.671, 1833.355 3087.893 C 1841.712 3091.218, 1850.897 3100.454, 1855.456 3110.119 C 1858.665 3116.923, 1862.049 3131.284, 1860.749 3132.585 C 1860.446 3132.887, 1838.442 3137.370, 1811.849 3142.546 C 1785.257 3147.723, 1762.444 3152.212, 1761.153 3152.523 C 1759.174 3152.998, 1758.910 3153.512, 1759.472 3155.794 C 1760.530 3160.090, 1768.491 3176.400, 1772.065 3181.595 C 1783.303 3197.928, 1799.808 3207.069, 1823.430 3210.042 C 1879.172 3217.059, 1923.594 3181.856, 1920.679 3132.978 C 1919.573 3114.429, 1913.048 3100.192, 1899.414 3086.575 C 1887.932 3075.109, 1874.208 3067.476, 1857.871 3063.472 C 1851.594 3061.933, 1830.353 3060.746, 1824.500 3061.606 M 2575.500 3062.059 C 2540.242 3066.806, 2515.936 3086.531, 2508.419 3116.500 C 2506.055 3125.924, 2506.009 3146.016, 2508.330 3155 C 2513.507 3175.032, 2526.700 3190.852, 2546.500 3200.770 C 2566.325 3210.700, 2598.954 3212.884, 2621.872 3205.815 C 2647.720 3197.842, 2667.892 3177.762, 2674.428 3153.500 C 2676.700 3145.065, 2677.492 3129.030, 2676.082 3120.023 C 2671.346 3089.769, 2652.030 3070.407, 2619.552 3063.359 C 2611.048 3061.513, 2585.219 3060.751, 2575.500 3062.059 M 3200.408 3062.429 C 3186.378 3065.609, 3169.924 3074.085, 3159.150 3083.681 L 3153 3089.160 3153 3082.895 C 3153 3079.450, 3152.266 3074.014, 3151.368 3070.816 L 3149.736 3065 3116.868 3065 L 3084 3065 3084 3068.375 C 3084 3071.315, 3084.382 3071.826, 3086.961 3072.342 C 3092.054 3073.361, 3097.702 3079.382, 3098.928 3085.101 C 3099.623 3088.338, 3100 3111.035, 3100 3149.549 C 3100 3182.247, 3100.338 3208.995, 3100.750 3208.989 C 3101.162 3208.983, 3115.675 3208.088, 3133 3207 C 3150.325 3205.912, 3165.990 3205.017, 3167.810 3205.011 C 3171.014 3205, 3171.111 3204.881, 3170.810 3201.308 C 3170.534 3198.017, 3170.120 3197.520, 3167 3196.733 C 3165.075 3196.247, 3161.829 3194.234, 3159.787 3192.258 C 3153.689 3186.359, 3152.999 3182.779, 3153.006 3157.072 C 3153.013 3127.610, 3154.574 3118.094, 3161.214 3107.017 C 3165.400 3100.033, 3173.796 3094.003, 3180.364 3093.262 C 3184.564 3092.789, 3185.232 3093.032, 3188.370 3096.170 C 3194.343 3102.143, 3194.382 3102.520, 3194.751 3158.384 L 3195.087 3209.267 3201.293 3208.686 C 3204.707 3208.366, 3220.213 3207.325, 3235.750 3206.373 L 3264 3204.643 3264 3201.322 C 3264 3198.827, 3263.564 3197.999, 3262.250 3197.995 C 3259.519 3197.987, 3253.095 3193.692, 3250.953 3190.442 C 3249.110 3187.646, 3249.011 3185.334, 3248.976 3144 C 3248.955 3120.075, 3248.524 3097.313, 3248.017 3093.417 C 3246.082 3078.526, 3239.778 3068.340, 3229.788 3063.961 C 3223.224 3061.084, 3209.501 3060.369, 3200.408 3062.429 M 1183 3068.392 C 1183 3071.211, 1183.439 3071.893, 1185.604 3072.437 C 1189.952 3073.528, 1192.799 3075.954, 1194.951 3080.399 C 1196.967 3084.564, 1197 3085.991, 1197 3170.316 L 1197 3256 1199.250 3255.973 C 1200.487 3255.959, 1215.225 3255.296, 1232 3254.500 C 1248.775 3253.704, 1263.513 3253.041, 1264.750 3253.027 C 1266.619 3253.005, 1267 3252.446, 1267 3249.735 C 1267 3246.730, 1266.610 3246.331, 1262.117 3244.735 C 1259.097 3243.662, 1255.853 3241.473, 1253.617 3238.997 L 1250 3234.994 1250 3222.137 L 1250 3209.280 1268.750 3208.703 C 1303.042 3207.647, 1323.675 3200.615, 1339.506 3184.592 C 1351.748 3172.201, 1357.585 3157.708, 1358.675 3136.996 C 1359.871 3114.274, 1354.548 3099.335, 1340.109 3084.886 C 1333.109 3077.883, 1329.911 3075.512, 1323 3072.202 C 1308.264 3065.146, 1306.603 3065, 1241.042 3065 L 1183 3065 1183 3068.392 M 1378 3068.372 C 1378 3071.495, 1378.277 3071.789, 1381.750 3072.348 C 1386.469 3073.107, 1389.526 3075.235, 1391.756 3079.311 C 1393.353 3082.231, 1393.525 3087.787, 1393.792 3145.250 L 1394.084 3208 1399.792 3207.973 C 1402.932 3207.958, 1417.200 3207.293, 1431.500 3206.495 C 1445.800 3205.697, 1458.737 3205.034, 1460.250 3205.022 C 1462.788 3205.002, 1463 3204.692, 1463 3201 C 1463 3197.520, 1462.708 3197, 1460.750 3196.996 C 1457.685 3196.991, 1452.495 3193.685, 1450.304 3190.343 C 1448.635 3187.796, 1448.479 3183.776, 1448.212 3136.545 C 1447.883 3078.168, 1447.791 3078.965, 1455.424 3074.492 C 1457.762 3073.121, 1460.649 3072, 1461.838 3072 C 1463.642 3072, 1464 3071.421, 1464 3068.500 L 1464 3065 1421 3065 L 1378 3065 1378 3068.372 M 1658 3068.342 C 1658 3071.358, 1658.379 3071.797, 1661.890 3072.849 C 1666.940 3074.362, 1672.281 3080.320, 1674.456 3086.867 C 1675.943 3091.343, 1676.116 3095.646, 1675.798 3120.253 C 1675.459 3146.442, 1675.271 3148.937, 1673.215 3154.500 C 1670.162 3162.762, 1666.514 3167.587, 1659.680 3172.401 C 1654.267 3176.214, 1653.392 3176.500, 1647.154 3176.500 C 1641.203 3176.500, 1639.745 3176.082, 1634.223 3172.793 C 1630.801 3170.754, 1628 3169.271, 1628 3169.497 C 1628 3169.724, 1625.763 3178.093, 1623.028 3188.096 C 1620.294 3198.098, 1618.255 3206.604, 1618.499 3206.998 C 1619.393 3208.445, 1631.175 3210.262, 1636.260 3209.736 C 1649.357 3208.383, 1660.055 3201.934, 1670.034 3189.376 L 1676 3181.869 1676 3185.682 C 1676 3190.598, 1681.774 3207.976, 1683.647 3208.695 C 1685.105 3209.254, 1738.590 3206.286, 1742.808 3205.411 C 1744.792 3205, 1745.073 3204.412, 1744.808 3201.228 C 1744.522 3197.792, 1744.226 3197.479, 1740.728 3196.916 C 1736.047 3196.161, 1732.306 3192.760, 1731.004 3188.074 C 1729.524 3182.746, 1729.817 3087.408, 1731.326 3083.318 C 1732.954 3078.904, 1736.489 3075.112, 1740.559 3073.411 C 1743.547 3072.162, 1744 3071.515, 1744 3068.487 L 1744 3065 1701 3065 L 1658 3065 1658 3068.342 M 1993 3068.099 C 1993 3070.252, 1993.915 3072.052, 1996 3074 C 1997.685 3075.574, 1999 3077.832, 1999.001 3079.151 C 1999.002 3080.443, 1989.514 3105.217, 1977.917 3134.205 C 1954.671 3192.309, 1953.978 3193.612, 1944.038 3197.888 C 1939.371 3199.896, 1939 3200.311, 1939 3203.528 L 1939 3207 1964.500 3207 L 1990 3207 1990 3203.578 C 1990 3200.553, 1989.593 3200.021, 1986.503 3199.001 C 1984.580 3198.366, 1982.330 3196.881, 1981.503 3195.701 C 1979.675 3193.091, 1979.625 3186.740, 1981.395 3182 C 1989.253 3160.966, 2008.539 3112, 2008.967 3112 C 2009.971 3112, 2032.081 3186.431, 2032.040 3189.673 C 2031.986 3193.963, 2027.824 3198.755, 2023.440 3199.577 C 2020.324 3200.162, 2020 3200.542, 2020 3203.611 L 2020 3207 2063.060 3207 L 2106.121 3207 2105.810 3203.327 C 2105.550 3200.243, 2105.019 3199.502, 2102.500 3198.700 C 2097.929 3197.245, 2093.190 3193.294, 2091.098 3189.192 C 2087.628 3182.390, 2050.858 3081.538, 2050.772 3078.586 C 2050.684 3075.588, 2053.865 3072, 2056.611 3072 C 2057.532 3072, 2058 3070.820, 2058 3068.500 L 2058 3065 2025.500 3065 L 1993 3065 1993 3068.099 M 2124 3068.500 C 2124 3071.508, 2124.331 3072, 2126.352 3072 C 2129.701 3072, 2134.980 3075.904, 2137.148 3079.984 C 2138.875 3083.233, 2139 3086.647, 2139 3130.524 C 2139 3182.561, 2139.210 3184.706, 2145.292 3194.849 C 2151.379 3204.998, 2160.417 3210.007, 2173.954 3210.733 C 2193.143 3211.762, 2213.353 3203.215, 2229.945 3187.054 L 2235 3182.130 2235 3185.383 C 2235 3192.375, 2241.241 3208.993, 2243.873 3209.011 C 2247.354 3209.034, 2295.740 3205.911, 2299.806 3205.401 C 2304.066 3204.866, 2304.109 3204.821, 2303.806 3201.220 C 2303.524 3197.866, 2303.190 3197.515, 2299.578 3196.769 C 2294.639 3195.750, 2293.136 3194.496, 2290.863 3189.500 C 2289.186 3185.812, 2289.044 3181.801, 2289.046 3138 C 2289.048 3108.913, 2289.449 3088.763, 2290.081 3086.020 C 2291.441 3080.118, 2295.411 3075.071, 2300.160 3073.205 C 2303.548 3071.874, 2304 3071.303, 2304 3068.348 L 2304 3065 2260.500 3065 L 2217 3065 2217 3068.342 C 2217 3071.358, 2217.379 3071.797, 2220.890 3072.849 C 2226.254 3074.456, 2231.529 3080.570, 2233.550 3087.526 C 2234.938 3092.299, 2235.119 3097.407, 2234.768 3121.817 C 2234.391 3148.024, 2234.165 3151.078, 2232.154 3157.195 C 2229.459 3165.395, 2222.378 3173.636, 2214.770 3177.428 C 2206.026 3181.784, 2199.772 3180.239, 2195.760 3172.729 C 2193.540 3168.574, 2193.495 3167.807, 2193.193 3129 C 2192.968 3100.062, 2193.213 3088.328, 2194.110 3085.116 C 2195.565 3079.907, 2200.482 3074.656, 2205.434 3073.022 C 2208.598 3071.978, 2209 3071.459, 2209 3068.422 L 2209 3065 2166.500 3065 L 2124 3065 2124 3068.500 M 2321 3068.389 C 2321 3071.464, 2321.321 3071.838, 2324.471 3072.428 C 2329.081 3073.293, 2333.562 3077.206, 2335.183 3081.783 C 2336.227 3084.728, 2336.500 3100.761, 2336.500 3159 L 2336.500 3232.500 2334.323 3236.567 C 2331.685 3241.495, 2330.148 3242.843, 2325.259 3244.515 C 2321.956 3245.645, 2321.462 3246.238, 2321.190 3249.401 L 2320.879 3253 2366.500 3253 L 2412.121 3253 2411.810 3249.276 C 2411.520 3245.791, 2411.238 3245.501, 2407.411 3244.749 C 2402.731 3243.830, 2398.829 3240.166, 2397.136 3235.101 C 2396.329 3232.686, 2396 3210.406, 2396 3158.189 L 2396 3084.676 2398.543 3080.336 C 2400.997 3076.149, 2406.929 3072, 2410.460 3072 C 2411.553 3072, 2412 3070.985, 2412 3068.500 L 2412 3065 2366.500 3065 L 2321 3065 2321 3068.389 M 2692 3068.392 C 2692 3071.211, 2692.439 3071.893, 2694.604 3072.437 C 2698.952 3073.528, 2701.799 3075.954, 2703.951 3080.399 C 2705.967 3084.564, 2706 3085.991, 2706 3170.316 L 2706 3256 2708.250 3255.973 C 2709.488 3255.959, 2724.225 3255.296, 2741 3254.500 C 2757.775 3253.704, 2772.512 3253.041, 2773.750 3253.027 C 2775.619 3253.005, 2776 3252.446, 2776 3249.735 C 2776 3246.730, 2775.610 3246.331, 2771.117 3244.735 C 2768.097 3243.662, 2764.853 3241.473, 2762.617 3238.997 L 2759 3234.994 2759 3222.137 L 2759 3209.280 2777.750 3208.703 C 2812.042 3207.647, 2832.675 3200.615, 2848.506 3184.592 C 2860.748 3172.201, 2866.585 3157.708, 2867.675 3136.996 C 2868.871 3114.274, 2863.548 3099.335, 2849.109 3084.886 C 2842.109 3077.883, 2838.911 3075.512, 2832 3072.202 C 2817.264 3065.146, 2815.603 3065, 2750.042 3065 L 2692 3065 2692 3068.392 M 2886 3068.500 C 2886 3071.508, 2886.331 3072, 2888.352 3072 C 2891.701 3072, 2896.980 3075.904, 2899.148 3079.984 C 2900.875 3083.233, 2901 3086.647, 2901 3130.524 C 2901 3182.561, 2901.210 3184.706, 2907.292 3194.849 C 2913.379 3204.998, 2922.417 3210.007, 2935.954 3210.733 C 2955.143 3211.762, 2975.353 3203.215, 2991.945 3187.054 L 2997 3182.130 2997 3185.383 C 2997 3192.375, 3003.241 3208.993, 3005.873 3209.011 C 3009.354 3209.034, 3057.740 3205.911, 3061.806 3205.401 C 3066.066 3204.866, 3066.109 3204.821, 3065.806 3201.220 C 3065.524 3197.866, 3065.190 3197.515, 3061.578 3196.769 C 3056.639 3195.750, 3055.136 3194.496, 3052.863 3189.500 C 3051.186 3185.812, 3051.044 3181.801, 3051.046 3138 C 3051.048 3108.913, 3051.449 3088.763, 3052.081 3086.020 C 3053.441 3080.118, 3057.411 3075.071, 3062.160 3073.205 C 3065.548 3071.874, 3066 3071.303, 3066 3068.348 L 3066 3065 3022.500 3065 L 2979 3065 2979 3068.342 C 2979 3071.358, 2979.379 3071.797, 2982.890 3072.849 C 2988.254 3074.456, 2993.529 3080.570, 2995.550 3087.526 C 2996.938 3092.299, 2997.119 3097.407, 2996.768 3121.817 C 2996.391 3148.024, 2996.165 3151.078, 2994.154 3157.195 C 2991.459 3165.395, 2984.378 3173.636, 2976.770 3177.428 C 2968.026 3181.784, 2961.772 3180.239, 2957.760 3172.729 C 2955.540 3168.574, 2955.495 3167.807, 2955.193 3129 C 2954.968 3100.062, 2955.213 3088.328, 2956.110 3085.116 C 2957.565 3079.907, 2962.482 3074.656, 2967.434 3073.022 C 2970.598 3071.978, 2971 3071.459, 2971 3068.422 L 2971 3065 2928.500 3065 L 2886 3065 2886 3068.500 M 3281.005 3068.250 C 3281.010 3071.246, 3281.381 3071.617, 3285.740 3073 C 3289.088 3074.062, 3291.132 3075.493, 3292.735 3077.898 L 3295 3081.296 3295 3154.489 C 3295 3233.653, 3295.019 3233.353, 3289.615 3240.439 C 3287.942 3242.632, 3285.756 3244.094, 3283.280 3244.675 C 3279.831 3245.486, 3279.473 3245.889, 3279.190 3249.282 L 3278.879 3253 3323.940 3253 L 3369 3253 3369 3249.500 C 3369 3247.333, 3368.238 3245.238, 3367 3244 C 3363.362 3240.362, 3364.444 3236.982, 3377.707 3210.534 L 3390.415 3185.195 3400.310 3208.347 C 3405.753 3221.081, 3410.440 3233.391, 3410.727 3235.702 C 3411.189 3239.421, 3410.890 3240.264, 3408.125 3243.029 C 3405.842 3245.312, 3405 3247.076, 3405 3249.577 L 3405 3253 3453.060 3253 L 3501.121 3253 3500.810 3249.262 C 3500.519 3245.756, 3500.255 3245.484, 3496.557 3244.888 C 3491.007 3243.993, 3488.451 3240.609, 3487.057 3232.311 C 3485.393 3222.407, 3486.085 3087.960, 3487.826 3082.781 C 3489.787 3076.951, 3493.595 3073.088, 3498.091 3072.369 C 3501.740 3071.786, 3502 3071.520, 3502 3068.372 L 3502 3065 3474 3065 L 3446 3065 3446 3068.372 C 3446 3071.522, 3446.259 3071.786, 3449.923 3072.372 C 3454.809 3073.153, 3459.574 3077.704, 3460.983 3082.937 C 3461.654 3085.430, 3461.925 3108.980, 3461.757 3150.356 L 3461.500 3213.944 3435.550 3157.876 L 3409.599 3101.809 3381.823 3157.154 L 3354.046 3212.500 3354.273 3148.500 C 3354.482 3089.707, 3354.642 3084.240, 3356.249 3081.302 C 3358.459 3077.260, 3363.726 3073.205, 3367.834 3072.383 C 3370.638 3071.822, 3371 3071.364, 3371 3068.375 L 3371 3065 3326 3065 L 3281 3065 3281.005 3068.250 M 1262.372 3083.159 C 1260.652 3083.742, 1257.052 3085.876, 1254.372 3087.901 L 1249.500 3091.583 1249.241 3140.792 L 1248.981 3190 1254.241 3189.985 C 1260.723 3189.967, 1270.762 3187.672, 1275.960 3185.020 C 1290.593 3177.555, 1301.249 3154.915, 1301.388 3131 C 1301.462 3118.170, 1300.182 3111.518, 1295.868 3102.327 C 1289.105 3087.916, 1273.939 3079.237, 1262.372 3083.159 M 2771.372 3083.159 C 2769.652 3083.742, 2766.052 3085.876, 2763.372 3087.901 L 2758.500 3091.583 2758.241 3140.792 L 2757.981 3190 2763.241 3189.985 C 2769.723 3189.967, 2779.762 3187.672, 2784.960 3185.020 C 2799.593 3177.555, 2810.249 3154.915, 2810.388 3131 C 2810.462 3118.170, 2809.182 3111.518, 2804.868 3102.327 C 2798.105 3087.916, 2782.939 3079.237, 2771.372 3083.159 M 1070.347 3085.057 C 1060.769 3089.798, 1054.949 3104.915, 1053.428 3129 C 1052.267 3147.381, 1055.534 3164.838, 1062.218 3175.964 C 1070.404 3189.592, 1087.478 3191.962, 1097.506 3180.861 C 1104.788 3172.801, 1108.160 3159.979, 1108.128 3140.463 C 1108.093 3119.163, 1104.966 3105.601, 1097.531 3094.513 C 1090.642 3084.238, 1079.695 3080.430, 1070.347 3085.057 M 2580.347 3085.057 C 2570.769 3089.798, 2564.949 3104.915, 2563.428 3129 C 2562.267 3147.381, 2565.534 3164.838, 2572.218 3175.964 C 2580.404 3189.592, 2597.478 3191.962, 2607.506 3180.861 C 2614.788 3172.801, 2618.160 3159.979, 2618.128 3140.463 C 2618.093 3119.163, 2614.966 3105.601, 2607.531 3094.513 C 2600.642 3084.238, 2589.695 3080.430, 2580.347 3085.057 M 1839.121 3155.015 C 1827.362 3157.647, 1817.400 3160.353, 1816.983 3161.028 C 1815.862 3162.842, 1816.974 3169.839, 1819.239 3175.227 C 1821.758 3181.219, 1828.622 3187.651, 1833.466 3188.560 C 1845.690 3190.853, 1856.242 3182.656, 1861.036 3167.145 C 1863.293 3159.841, 1863.708 3149.935, 1861.750 3150.114 C 1861.063 3150.177, 1850.879 3152.382, 1839.121 3155.015 M 1412.994 3223.934 C 1404.795 3226.428, 1397.094 3234.020, 1394.933 3241.739 C 1389.519 3261.077, 1402.259 3276.377, 1422.428 3274.758 C 1433.941 3273.834, 1444.716 3266.710, 1448.576 3257.472 C 1450.673 3252.454, 1450.404 3242.713, 1448.042 3238.082 C 1445.403 3232.909, 1437.919 3226.501, 1432.266 3224.575 C 1427.474 3222.942, 1417.360 3222.606, 1412.994 3223.934 M 487.607 3537.095 C 484.281 3539.711, 481.916 3544.384, 479.051 3554 C 473.924 3571.209, 464.599 3583.256, 451.613 3589.448 C 442.995 3593.557, 439.187 3594.602, 426.160 3596.430 C 414.915 3598.008, 411.573 3599.293, 408.734 3603.130 C 404.793 3608.458, 408.153 3614.208, 420.892 3623.936 C 445.707 3642.887, 452.138 3658.812, 446.033 3686.191 C 443.980 3695.398, 443.815 3697.441, 444.851 3700.897 C 447.989 3711.372, 454.984 3711.650, 470.097 3701.902 C 499.606 3682.868, 515.469 3680.860, 532.503 3694.002 C 541.095 3700.631, 555.151 3702.888, 560.078 3698.430 C 562.891 3695.884, 562.538 3689.387, 558.985 3678.296 C 552.663 3658.559, 552.876 3646.518, 559.793 3632.680 C 562.608 3627.048, 565.697 3623.212, 574.120 3614.887 C 582.853 3606.255, 584.991 3603.566, 585.569 3600.485 C 587.394 3590.754, 582.626 3588.001, 562.158 3586.970 C 550.159 3586.366, 546.252 3585.772, 540.621 3583.693 C 526.531 3578.493, 517.526 3569.836, 509.734 3554 C 507.434 3549.325, 504.448 3543.783, 503.100 3541.685 C 498.874 3535.109, 492.523 3533.227, 487.607 3537.095 M 4005.350 3537.928 C 4003.222 3539.226, 4001.155 3542.065, 3998.980 3546.675 C 3990.679 3564.273, 3989.165 3566.819, 3983.288 3573.062 C 3972.610 3584.407, 3962.077 3588.362, 3938.734 3589.791 C 3922.675 3590.774, 3919.725 3592.063, 3919.191 3598.324 C 3918.726 3603.785, 3921.416 3608.232, 3929.631 3615.585 C 3951.973 3635.581, 3957.841 3654.780, 3949.154 3679.462 C 3945.187 3690.733, 3944.941 3697.657, 3948.364 3701.637 C 3952.317 3706.232, 3957.933 3705.455, 3973 3698.227 C 3991.280 3689.459, 3997.659 3687.549, 4008.500 3687.598 C 4019.577 3687.648, 4024.367 3689.563, 4032.797 3697.314 C 4039.445 3703.425, 4047.469 3707, 4054.538 3707 C 4063.276 3707, 4065.282 3701.598, 4061.962 3687 C 4055.636 3659.179, 4062.463 3639.258, 4083.461 3624.262 C 4095.419 3615.722, 4099.426 3609.738, 4096.818 3604.316 C 4094.976 3600.485, 4089.696 3597.213, 4084.177 3596.480 C 4081.605 3596.138, 4075.516 3595.207, 4070.646 3594.411 C 4048.906 3590.858, 4033.897 3578.237, 4026.456 3557.254 C 4022.044 3544.811, 4020.289 3541.172, 4017.413 3538.507 C 4014.129 3535.463, 4009.738 3535.253, 4005.350 3537.928 M 3082 3555.799 C 3082 3556.950, 3083.270 3558.058, 3085.525 3558.873 C 3091.819 3561.149, 3092.830 3564.723, 3092.236 3582.616 L 3092 3589.732 3076.750 3590.256 C 3064.908 3590.662, 3059.936 3591.271, 3054.500 3592.980 C 3037.208 3598.417, 3028.156 3609.129, 3026.428 3626.199 C 3024.576 3644.500, 3034.968 3662.934, 3051.816 3671.232 L 3058.452 3674.500 3095.726 3674.806 C 3132.618 3675.108, 3133 3675.091, 3133 3673.081 C 3133 3671.859, 3131.862 3670.463, 3130.141 3669.573 C 3124.973 3666.900, 3124.922 3666.325, 3125.222 3613.143 L 3125.500 3563.835 3128.766 3560.917 C 3130.562 3559.313, 3132.699 3558, 3133.516 3558 C 3134.333 3558, 3135 3557.102, 3135 3556 C 3135 3554.050, 3134.333 3554, 3108.500 3554 C 3083.653 3554, 3082 3554.112, 3082 3555.799 M 1065.179 3587.531 C 1052.707 3590.239, 1052.095 3590.832, 1047.230 3604.923 C 1043.908 3614.544, 1043.229 3617.528, 1044.220 3618.157 C 1046.229 3619.432, 1046.518 3619.221, 1047.864 3615.500 C 1049.460 3611.085, 1053.401 3606.361, 1057.069 3604.464 C 1061.811 3602.012, 1064.859 3602.624, 1069.118 3606.882 L 1073 3610.765 1073 3636.979 L 1073 3663.193 1063.555 3662.847 L 1054.110 3662.500 1051.694 3668.101 L 1049.278 3673.702 1061.139 3673.214 L 1073 3672.725 1073 3690.298 L 1073 3707.870 1081.250 3704.007 C 1085.787 3701.882, 1092.875 3699.251, 1097 3698.161 C 1102.150 3696.800, 1104.384 3695.759, 1104.131 3694.839 C 1101.191 3684.161, 1105.454 3672.919, 1114.148 3668.423 C 1115.823 3667.557, 1117 3666.134, 1117 3664.974 C 1117 3663.228, 1116.307 3663, 1111 3663 L 1105 3663 1105 3634.366 C 1105 3615.451, 1104.604 3604.411, 1103.834 3601.840 C 1101.312 3593.424, 1088.638 3585.920, 1077.212 3586.079 C 1074.071 3586.123, 1068.655 3586.777, 1065.179 3587.531 M 1565.179 3587.531 C 1552.707 3590.239, 1552.095 3590.832, 1547.230 3604.923 C 1543.908 3614.544, 1543.229 3617.528, 1544.220 3618.157 C 1546.229 3619.432, 1546.518 3619.221, 1547.864 3615.500 C 1549.460 3611.085, 1553.401 3606.361, 1557.069 3604.464 C 1561.811 3602.012, 1564.859 3602.624, 1569.118 3606.882 L 1573 3610.765 1573 3636.979 L 1573 3663.193 1563.555 3662.847 L 1554.110 3662.500 1551.694 3668.101 L 1549.278 3673.702 1561.139 3673.214 L 1573 3672.725 1573 3690.298 L 1573 3707.870 1581.250 3704.007 C 1585.787 3701.882, 1592.875 3699.251, 1597 3698.161 C 1602.150 3696.800, 1604.384 3695.759, 1604.131 3694.839 C 1601.191 3684.161, 1605.454 3672.919, 1614.148 3668.423 C 1615.823 3667.557, 1617 3666.134, 1617 3664.974 C 1617 3663.228, 1616.307 3663, 1611 3663 L 1605 3663 1605 3634.366 C 1605 3615.451, 1604.604 3604.411, 1603.834 3601.840 C 1601.312 3593.424, 1588.638 3585.920, 1577.212 3586.079 C 1574.071 3586.123, 1568.655 3586.777, 1565.179 3587.531 M 2683.059 3587.556 C 2669.682 3590.456, 2658.327 3598.561, 2653.300 3608.797 L 2650.500 3614.500 2650 3652.546 C 2649.455 3694.024, 2649.508 3693.655, 2643.486 3697.601 C 2642.119 3698.497, 2641 3700.078, 2641 3701.115 C 2641 3702.890, 2642.023 3703, 2658.500 3703 C 2674.879 3703, 2676 3702.881, 2676 3701.145 C 2676 3699.922, 2674.927 3698.982, 2672.852 3698.386 C 2671.120 3697.890, 2668.758 3696.217, 2667.602 3694.668 C 2665.553 3691.924, 2665.500 3690.904, 2665.500 3654.013 L 2665.500 3616.172 2668.509 3611.891 C 2676.665 3600.287, 2696.437 3598.807, 2707.350 3608.984 L 2711.500 3612.855 2711.783 3652.494 L 2712.067 3692.133 2708.633 3695.567 C 2706.745 3697.455, 2704.480 3699, 2703.600 3699 C 2702.667 3699, 2702 3699.833, 2702 3701 C 2702 3702.951, 2702.667 3703, 2729 3703 C 2754.056 3703, 2755.998 3702.874, 2755.978 3701.250 C 2755.966 3700.268, 2754.543 3698.842, 2752.733 3698 C 2747.065 3695.363, 2747.032 3695.093, 2747.005 3652 C 2746.981 3612.710, 2746.968 3612.473, 2744.642 3607.500 C 2741.749 3601.315, 2734.565 3594.582, 2727.546 3591.478 C 2715.782 3586.275, 2696.716 3584.594, 2683.059 3587.556 M 1894.075 3588.087 C 1876.073 3591.619, 1860.974 3601.139, 1855.552 3612.375 C 1848.737 3626.498, 1852.910 3643.427, 1865.235 3651.664 C 1868.216 3653.657, 1877.081 3657.116, 1889.175 3661.004 C 1905.282 3666.184, 1908.914 3667.714, 1911.690 3670.490 C 1914.293 3673.093, 1914.999 3674.623, 1914.996 3677.650 C 1914.988 3686.356, 1908.086 3691.663, 1898.003 3690.716 C 1885.329 3689.526, 1875.372 3683.089, 1870.229 3672.759 C 1868.432 3669.149, 1867.546 3668.306, 1865.979 3668.716 C 1864.891 3669, 1864 3669.348, 1864 3669.487 C 1864 3670.836, 1867.126 3700.252, 1867.520 3702.615 L 1868.040 3705.729 1871.996 3703.772 C 1875.935 3701.823, 1876.005 3701.824, 1888.226 3703.911 C 1903.453 3706.511, 1908.609 3706.530, 1918.415 3704.022 C 1933.161 3700.250, 1944.597 3691.746, 1949.444 3680.946 C 1951.874 3675.530, 1952.157 3673.844, 1951.849 3666.575 C 1951.549 3659.492, 1951.075 3657.654, 1948.465 3653.433 C 1943.577 3645.530, 1937.658 3642.178, 1916.216 3635.175 C 1905.779 3631.766, 1896.076 3628.061, 1894.654 3626.943 C 1886.311 3620.380, 1891.444 3606.025, 1903.404 3602.473 C 1923.234 3596.584, 1945.750 3609.673, 1952.047 3630.750 C 1952.944 3633.752, 1953.857 3635, 1955.158 3635 C 1957.401 3635, 1957.413 3636.782, 1955 3612 C 1953.902 3600.725, 1953.003 3590.702, 1953.002 3589.727 C 1953 3588.067, 1952.841 3588.058, 1950.507 3589.587 C 1948.189 3591.107, 1946.806 3591.073, 1930.714 3589.110 C 1912.728 3586.916, 1901.624 3586.606, 1894.075 3588.087 M 674.529 3589.588 C 654.819 3594.005, 642.302 3606.320, 638.873 3624.666 C 634.350 3648.863, 649.288 3670.172, 674.500 3675.489 C 694.987 3679.809, 715.310 3674.820, 727.702 3662.428 C 742.914 3647.216, 744.918 3620.310, 732.048 3604.061 C 727.943 3598.878, 719.779 3593.539, 712 3590.950 C 703.260 3588.042, 684.474 3587.359, 674.529 3589.588 M 967.529 3589.588 C 947.819 3594.005, 935.302 3606.320, 931.873 3624.666 C 927.350 3648.863, 942.288 3670.172, 967.500 3675.489 C 987.987 3679.809, 1008.310 3674.820, 1020.702 3662.428 C 1035.914 3647.216, 1037.918 3620.310, 1025.048 3604.061 C 1020.943 3598.878, 1012.779 3593.539, 1005 3590.950 C 996.260 3588.042, 977.474 3587.359, 967.529 3589.588 M 1466.529 3589.588 C 1446.819 3594.005, 1434.302 3606.320, 1430.873 3624.666 C 1426.350 3648.863, 1441.288 3670.172, 1466.500 3675.489 C 1486.987 3679.809, 1507.310 3674.820, 1519.702 3662.428 C 1534.914 3647.216, 1536.918 3620.310, 1524.048 3604.061 C 1519.943 3598.878, 1511.779 3593.539, 1504 3590.950 C 1495.260 3588.042, 1476.474 3587.359, 1466.529 3589.588 M 1804.024 3589.539 C 1797.412 3591.393, 1790.850 3595.104, 1788.179 3598.499 C 1785.672 3601.687, 1785.379 3601.643, 1784.645 3597.974 C 1784.312 3596.310, 1782.926 3593.835, 1781.565 3592.474 C 1779.126 3590.035, 1778.847 3590, 1762.045 3590 L 1745 3590 1745 3592.392 C 1745 3594.105, 1745.705 3594.960, 1747.487 3595.407 C 1753.089 3596.813, 1753.455 3598.784, 1754 3630.452 L 1754.500 3659.500 1757.277 3664.223 C 1761.772 3671.871, 1773.302 3677.005, 1785.960 3676.996 C 1792.241 3676.991, 1806.800 3674.747, 1815 3672.518 C 1821.326 3670.799, 1828.597 3670.539, 1829.500 3672 C 1830.993 3674.416, 1831.718 3672.327, 1832.881 3662.250 C 1833.564 3656.338, 1834.381 3649.588, 1834.697 3647.250 C 1835.421 3641.893, 1833.160 3641.397, 1830.142 3646.250 C 1823.955 3656.201, 1814.011 3662.296, 1803.049 3662.857 C 1791.619 3663.443, 1786 3659.118, 1786 3649.736 L 1786 3646.274 1793.750 3645.038 C 1809.863 3642.468, 1826.559 3635.535, 1834.339 3628.183 C 1847.183 3616.046, 1844.725 3596.906, 1829.500 3590.498 C 1823.852 3588.121, 1810.827 3587.631, 1804.024 3589.539 M 2042 3589.700 C 2034.746 3590.710, 2030.665 3590.861, 2028.798 3590.186 L 2026.096 3589.210 2021.048 3604.356 C 2015.450 3621.153, 2015.372 3621.545, 2017.496 3622.360 C 2018.510 3622.749, 2019.612 3621.735, 2020.912 3619.217 C 2026.997 3607.428, 2043.661 3599.693, 2055.727 3603.058 C 2065.009 3605.647, 2074 3617.707, 2074 3627.570 C 2074 3630.075, 2073.504 3630.902, 2071.750 3631.323 C 2070.512 3631.620, 2057.575 3634.153, 2043 3636.952 C 2028.425 3639.750, 2015.701 3642.369, 2014.725 3642.771 C 2013.112 3643.435, 2013.306 3644.232, 2016.858 3651.501 C 2022.108 3662.244, 2026.589 3667.156, 2034.963 3671.345 C 2050.972 3679.354, 2074.195 3678.598, 2089.420 3669.572 C 2095.219 3666.134, 2103.444 3657.361, 2106.364 3651.500 C 2114.482 3635.203, 2110.624 3615.274, 2096.891 3602.560 C 2082.743 3589.461, 2068.188 3586.051, 2042 3589.700 M 2296.024 3589.539 C 2289.412 3591.393, 2282.850 3595.104, 2280.179 3598.499 C 2277.672 3601.687, 2277.379 3601.643, 2276.645 3597.974 C 2276.312 3596.310, 2274.926 3593.835, 2273.565 3592.474 C 2271.126 3590.035, 2270.847 3590, 2254.045 3590 L 2237 3590 2237 3592.392 C 2237 3594.105, 2237.705 3594.960, 2239.487 3595.407 C 2245.089 3596.813, 2245.455 3598.784, 2246 3630.452 L 2246.500 3659.500 2249.277 3664.223 C 2253.772 3671.871, 2265.302 3677.005, 2277.960 3676.996 C 2284.241 3676.991, 2298.800 3674.747, 2307 3672.518 C 2313.326 3670.799, 2320.597 3670.539, 2321.500 3672 C 2322.993 3674.416, 2323.718 3672.327, 2324.881 3662.250 C 2325.564 3656.338, 2326.381 3649.588, 2326.697 3647.250 C 2327.421 3641.893, 2325.160 3641.397, 2322.142 3646.250 C 2315.955 3656.201, 2306.011 3662.296, 2295.049 3662.857 C 2283.619 3663.443, 2278 3659.118, 2278 3649.736 L 2278 3646.274 2285.750 3645.038 C 2301.863 3642.468, 2318.559 3635.535, 2326.339 3628.183 C 2339.183 3616.046, 2336.725 3596.906, 2321.500 3590.498 C 2315.852 3588.121, 2302.827 3587.631, 2296.024 3589.539 M 2947 3589.700 C 2939.746 3590.710, 2935.665 3590.861, 2933.798 3590.186 L 2931.096 3589.210 2926.048 3604.356 C 2920.450 3621.153, 2920.372 3621.545, 2922.496 3622.360 C 2923.510 3622.749, 2924.612 3621.735, 2925.912 3619.217 C 2931.997 3607.428, 2948.661 3599.693, 2960.727 3603.058 C 2970.009 3605.647, 2979 3617.707, 2979 3627.570 C 2979 3630.075, 2978.504 3630.902, 2976.750 3631.323 C 2975.512 3631.620, 2962.575 3634.153, 2948 3636.952 C 2933.425 3639.750, 2920.701 3642.369, 2919.725 3642.771 C 2918.112 3643.435, 2918.306 3644.232, 2921.858 3651.501 C 2927.108 3662.244, 2931.589 3667.156, 2939.963 3671.345 C 2955.972 3679.354, 2979.195 3678.598, 2994.420 3669.572 C 3000.219 3666.134, 3008.444 3657.361, 3011.364 3651.500 C 3019.482 3635.203, 3015.624 3615.274, 3001.891 3602.560 C 2987.743 3589.461, 2973.188 3586.051, 2947 3589.700 M 3201.024 3589.539 C 3194.412 3591.393, 3187.850 3595.104, 3185.179 3598.499 C 3182.672 3601.687, 3182.379 3601.643, 3181.645 3597.974 C 3181.312 3596.310, 3179.926 3593.835, 3178.565 3592.474 C 3176.126 3590.035, 3175.847 3590, 3159.045 3590 L 3142 3590 3142 3592.392 C 3142 3594.105, 3142.705 3594.960, 3144.487 3595.407 C 3150.089 3596.813, 3150.455 3598.784, 3151 3630.452 L 3151.500 3659.500 3154.277 3664.223 C 3158.772 3671.871, 3170.302 3677.005, 3182.960 3676.996 C 3189.241 3676.991, 3203.800 3674.747, 3212 3672.518 C 3218.326 3670.799, 3225.597 3670.539, 3226.500 3672 C 3227.993 3674.416, 3228.718 3672.327, 3229.881 3662.250 C 3230.564 3656.338, 3231.381 3649.588, 3231.697 3647.250 C 3232.421 3641.893, 3230.160 3641.397, 3227.142 3646.250 C 3220.955 3656.201, 3211.011 3662.296, 3200.049 3662.857 C 3188.619 3663.443, 3183 3659.118, 3183 3649.736 L 3183 3646.274 3190.750 3645.038 C 3206.863 3642.468, 3223.559 3635.535, 3231.339 3628.183 C 3244.183 3616.046, 3241.725 3596.906, 3226.500 3590.498 C 3220.852 3588.121, 3207.827 3587.631, 3201.024 3589.539 M 3254.231 3602.913 C 3249.074 3615.742, 3248.450 3617.959, 3249.840 3618.492 C 3250.732 3618.834, 3251.598 3618.705, 3251.765 3618.206 C 3253.462 3613.115, 3262.545 3605.742, 3269.405 3603.886 C 3274.501 3602.507, 3283.663 3603.258, 3287.791 3605.392 C 3298.829 3611.100, 3306.372 3627.857, 3304.119 3641.667 C 3302.845 3649.478, 3301.742 3652.085, 3297.826 3656.546 C 3286.823 3669.077, 3268.066 3665.318, 3260.240 3649.013 C 3258.111 3644.577, 3257.071 3643.338, 3256.022 3643.986 C 3254.857 3644.706, 3255.083 3646.862, 3257.401 3657.173 C 3261.985 3677.561, 3261.906 3677.323, 3263.615 3675.905 C 3264.809 3674.914, 3267.935 3674.927, 3279.050 3675.969 C 3294.350 3677.405, 3300.484 3677.021, 3310.198 3674.021 C 3328.714 3668.302, 3339 3654.544, 3339 3635.500 C 3339 3622.341, 3334.255 3611.443, 3324.410 3601.989 C 3312.069 3590.138, 3299.990 3586.808, 3277.128 3588.953 C 3266.425 3589.957, 3262.700 3589.996, 3261.639 3589.115 C 3260.485 3588.158, 3259.196 3590.560, 3254.231 3602.913 M 3384 3588.691 C 3369.870 3591.056, 3357.038 3599.495, 3352.358 3609.500 C 3347.930 3618.968, 3349.713 3632.801, 3356.121 3638.692 C 3360.066 3642.318, 3368.711 3645.683, 3383.807 3649.468 C 3400.120 3653.557, 3402 3654.448, 3402 3658.086 C 3402 3662.733, 3398.780 3664.458, 3389.368 3664.854 C 3381.868 3665.169, 3380.348 3664.916, 3375.508 3662.548 C 3372.518 3661.085, 3368.311 3657.888, 3366.159 3655.444 C 3360.055 3648.509, 3359.599 3649.106, 3360.304 3663.124 C 3360.639 3669.792, 3361.120 3675.453, 3361.371 3675.705 C 3361.623 3675.956, 3362.823 3675.630, 3364.039 3674.979 C 3365.775 3674.050, 3369.256 3674.169, 3380.260 3675.532 C 3401.834 3678.205, 3413.630 3676.479, 3424.394 3669.073 C 3435.413 3661.492, 3438.753 3646.352, 3431.713 3635.901 C 3428.248 3630.756, 3422.354 3628.112, 3404.120 3623.526 C 3394.979 3621.228, 3386.518 3618.819, 3385.318 3618.174 C 3382.306 3616.556, 3381.653 3613.765, 3383.343 3609.722 C 3388.131 3598.261, 3409.145 3596.734, 3422.602 3606.869 C 3426.121 3609.519, 3428.345 3612.302, 3430.500 3616.753 C 3432.150 3620.161, 3434.120 3622.961, 3434.879 3622.975 C 3436.270 3623, 3436.133 3616.004, 3434.345 3595.808 L 3433.753 3589.116 3431.414 3590.648 C 3429.297 3592.036, 3427.714 3591.983, 3414.658 3590.090 C 3401.367 3588.163, 3390.197 3587.653, 3384 3588.691 M 3460.508 3588.987 C 3460.126 3589.604, 3456.739 3599.312, 3452.980 3610.559 C 3446.782 3629.105, 3446.306 3631.094, 3447.864 3631.927 C 3449.289 3632.690, 3449.977 3631.985, 3451.901 3627.791 C 3454.844 3621.376, 3466.922 3609.097, 3473.256 3606.081 C 3488.650 3598.749, 3503.330 3599.644, 3508.522 3608.229 C 3510.300 3611.169, 3510.534 3613.702, 3510.835 3633.250 L 3511.169 3655 3502.335 3654.978 C 3495.961 3654.962, 3492.383 3654.449, 3489.491 3653.135 C 3484.717 3650.966, 3479.673 3645.502, 3477.888 3640.566 C 3476.894 3637.818, 3476.044 3637, 3474.182 3637 C 3472.275 3637, 3471.875 3637.413, 3472.280 3638.961 C 3472.562 3640.039, 3474.290 3649.714, 3476.121 3660.461 C 3478.805 3676.219, 3479.755 3680, 3481.032 3680 C 3482.079 3680, 3482.935 3678.566, 3483.558 3675.772 C 3485.084 3668.922, 3488.938 3667, 3501.148 3667 L 3511 3667 3511 3675.050 C 3511 3688.712, 3508.060 3691.557, 3494.087 3691.410 C 3482.291 3691.286, 3475.395 3688.555, 3467.865 3681.025 C 3463.985 3677.145, 3461.639 3673.751, 3460.373 3670.188 C 3458.411 3664.663, 3458.282 3664.536, 3456.064 3665.939 C 3454.842 3666.713, 3455.114 3669.197, 3457.893 3682.674 C 3459.688 3691.378, 3461.571 3700.122, 3462.077 3702.104 L 3462.998 3705.707 3468.217 3704.354 C 3472.191 3703.323, 3483.162 3703, 3514.218 3703 C 3554.333 3703, 3555 3702.967, 3555 3701 C 3555 3699.667, 3554.333 3699, 3553 3699 C 3551.900 3699, 3550.100 3698.100, 3549 3697 C 3547.056 3695.056, 3547 3693.667, 3547 3647.635 C 3547 3601.628, 3547.058 3600.196, 3549.020 3597.702 C 3550.131 3596.289, 3552.043 3594.991, 3553.270 3594.817 C 3554.683 3594.616, 3555.615 3593.689, 3555.815 3592.288 L 3556.129 3590.077 3510.315 3589.788 C 3485.117 3589.630, 3463.758 3589.132, 3462.851 3588.682 C 3461.856 3588.188, 3460.927 3588.309, 3460.508 3588.987 M 752 3592 C 752 3593.348, 752.667 3594, 754.045 3594 C 755.170 3594, 757.195 3595.105, 758.545 3596.455 L 761 3598.909 761 3637.574 L 761 3676.239 771.250 3675.636 C 805.880 3673.601, 803 3673.969, 803 3671.587 C 803 3670.001, 802.126 3669.155, 799.764 3668.457 C 794.219 3666.817, 794.031 3665.598, 794.015 3631.173 L 794 3599.846 796.923 3596.923 C 798.531 3595.315, 800.781 3594, 801.923 3594 C 803.333 3594, 804 3593.358, 804 3592 C 804 3590.051, 803.333 3590, 778 3590 C 752.667 3590, 752 3590.051, 752 3592 M 813 3592 C 813 3593.270, 813.667 3594, 814.826 3594 C 815.830 3594, 817.742 3595.160, 819.076 3596.578 L 821.500 3599.156 822 3630.328 C 822.477 3660.052, 822.602 3661.692, 824.706 3665.624 C 829.329 3674.266, 836.563 3677.638, 848.385 3676.662 C 856.827 3675.965, 867.818 3671.052, 874.299 3665.079 L 878.726 3660.998 881.113 3668.249 L 883.500 3675.500 896 3675.314 C 902.875 3675.211, 911.339 3674.835, 914.808 3674.478 C 920.544 3673.887, 921.089 3673.632, 920.808 3671.664 C 920.620 3670.340, 919.667 3669.381, 918.354 3669.194 C 917.174 3669.026, 915.374 3667.967, 914.354 3666.841 C 912.647 3664.955, 912.479 3662.368, 912.229 3634.147 C 911.985 3606.476, 912.131 3603.160, 913.729 3600.001 C 914.703 3598.077, 916.737 3595.915, 918.250 3595.197 C 919.860 3594.432, 921 3593.085, 921 3591.945 C 921 3590.068, 920.090 3590, 895 3590 C 870.526 3590, 869 3590.107, 869 3591.820 C 869 3592.897, 870.296 3594.222, 872.179 3595.070 C 878.766 3598.034, 879.464 3600.232, 879.816 3619.093 C 880.213 3640.384, 879.240 3645.700, 873.877 3651.517 C 867.250 3658.707, 861.438 3659.835, 857.600 3654.677 C 855.594 3651.979, 855.500 3650.702, 855.500 3626.032 C 855.500 3601.617, 855.609 3600.089, 857.500 3597.990 C 858.600 3596.769, 860.513 3595.383, 861.750 3594.910 C 863.059 3594.409, 864 3593.203, 864 3592.025 C 864 3590.045, 863.437 3590, 838.500 3590 C 813.667 3590, 813 3590.052, 813 3592 M 1127 3592 C 1127 3593.270, 1127.667 3594, 1128.826 3594 C 1129.830 3594, 1131.742 3595.160, 1133.076 3596.578 L 1135.500 3599.156 1136 3630.328 C 1136.477 3660.052, 1136.602 3661.692, 1138.706 3665.624 C 1143.329 3674.266, 1150.563 3677.638, 1162.385 3676.662 C 1170.827 3675.965, 1181.818 3671.052, 1188.299 3665.079 L 1192.726 3660.998 1195.113 3668.249 L 1197.500 3675.500 1210 3675.314 C 1216.875 3675.211, 1225.339 3674.835, 1228.808 3674.478 C 1234.544 3673.887, 1235.089 3673.632, 1234.808 3671.664 C 1234.620 3670.340, 1233.667 3669.381, 1232.354 3669.194 C 1231.174 3669.026, 1229.374 3667.967, 1228.354 3666.841 C 1226.647 3664.955, 1226.479 3662.368, 1226.229 3634.147 C 1225.985 3606.476, 1226.131 3603.160, 1227.729 3600.001 C 1228.703 3598.077, 1230.737 3595.915, 1232.250 3595.197 C 1233.860 3594.432, 1235 3593.085, 1235 3591.945 C 1235 3590.068, 1234.090 3590, 1209 3590 C 1184.526 3590, 1183 3590.107, 1183 3591.820 C 1183 3592.897, 1184.296 3594.222, 1186.179 3595.070 C 1192.766 3598.034, 1193.464 3600.232, 1193.816 3619.093 C 1194.213 3640.384, 1193.240 3645.700, 1187.877 3651.517 C 1181.250 3658.707, 1175.438 3659.835, 1171.600 3654.677 C 1169.594 3651.979, 1169.500 3650.702, 1169.500 3626.032 C 1169.500 3601.617, 1169.609 3600.089, 1171.500 3597.990 C 1172.600 3596.769, 1174.513 3595.383, 1175.750 3594.910 C 1177.059 3594.409, 1178 3593.203, 1178 3592.025 C 1178 3590.045, 1177.437 3590, 1152.500 3590 C 1127.667 3590, 1127 3590.052, 1127 3592 M 1245 3591.987 C 1245 3593.288, 1246.136 3594.448, 1248.296 3595.350 C 1250.108 3596.107, 1252.304 3597.816, 1253.176 3599.146 C 1255.094 3602.074, 1285 3692.919, 1285 3695.818 C 1285 3696.987, 1284.142 3698.138, 1283 3698.500 C 1281.900 3698.849, 1281 3700.004, 1281 3701.067 C 1281 3702.926, 1281.957 3703, 1306 3703 C 1333.438 3703, 1333.303 3703.034, 1328.977 3697.183 C 1326.493 3693.822, 1325.192 3697.825, 1346.402 3643.548 C 1362.464 3602.442, 1363.558 3600.300, 1370.750 3595.848 C 1372.588 3594.711, 1374 3593.004, 1374 3591.918 C 1374 3590.096, 1373.071 3590, 1355.500 3590 C 1337.571 3590, 1337 3590.063, 1337 3592.031 C 1337 3593.149, 1337.787 3594.342, 1338.750 3594.683 C 1342.064 3595.859, 1344 3598.317, 1344.044 3601.405 C 1344.067 3603.107, 1341.930 3610.911, 1339.294 3618.746 L 1334.500 3632.993 1330.500 3632.984 C 1320.441 3632.964, 1310.337 3628.275, 1302.656 3620.063 C 1297.248 3614.282, 1295 3609.702, 1295 3604.466 C 1295 3599.573, 1296.525 3597.097, 1300.580 3595.402 C 1302.846 3594.455, 1304 3593.303, 1304 3591.987 C 1304 3590.049, 1303.267 3590, 1274.500 3590 C 1245.733 3590, 1245 3590.049, 1245 3591.987 M 1626 3592 C 1626 3593.270, 1626.667 3594, 1627.826 3594 C 1628.830 3594, 1630.742 3595.160, 1632.076 3596.578 L 1634.500 3599.156 1635 3630.328 C 1635.477 3660.052, 1635.602 3661.692, 1637.706 3665.624 C 1642.329 3674.266, 1649.563 3677.638, 1661.385 3676.662 C 1669.827 3675.965, 1680.818 3671.052, 1687.299 3665.079 L 1691.726 3660.998 1694.113 3668.249 L 1696.500 3675.500 1709 3675.314 C 1715.875 3675.211, 1724.339 3674.835, 1727.808 3674.478 C 1733.544 3673.887, 1734.089 3673.632, 1733.808 3671.664 C 1733.620 3670.340, 1732.667 3669.381, 1731.354 3669.194 C 1730.174 3669.026, 1728.374 3667.967, 1727.354 3666.841 C 1725.647 3664.955, 1725.479 3662.368, 1725.229 3634.147 C 1724.985 3606.476, 1725.131 3603.160, 1726.729 3600.001 C 1727.703 3598.077, 1729.737 3595.915, 1731.250 3595.197 C 1732.860 3594.432, 1734 3593.085, 1734 3591.945 C 1734 3590.068, 1733.090 3590, 1708 3590 C 1683.526 3590, 1682 3590.107, 1682 3591.820 C 1682 3592.897, 1683.296 3594.222, 1685.179 3595.070 C 1691.766 3598.034, 1692.464 3600.232, 1692.816 3619.093 C 1693.213 3640.384, 1692.240 3645.700, 1686.877 3651.517 C 1680.250 3658.707, 1674.438 3659.835, 1670.600 3654.677 C 1668.594 3651.979, 1668.500 3650.702, 1668.500 3626.032 C 1668.500 3601.617, 1668.609 3600.089, 1670.500 3597.990 C 1671.600 3596.769, 1673.513 3595.383, 1674.750 3594.910 C 1676.059 3594.409, 1677 3593.203, 1677 3592.025 C 1677 3590.045, 1676.437 3590, 1651.500 3590 C 1626.667 3590, 1626 3590.052, 1626 3592 M 2121 3591.974 C 2121 3593.140, 2122.184 3594.561, 2123.892 3595.444 C 2125.528 3596.290, 2127.264 3598.319, 2127.892 3600.119 C 2128.647 3602.285, 2129 3619.541, 2129 3654.257 L 2129 3705.216 2138.750 3704.626 C 2144.113 3704.301, 2153.563 3703.754, 2159.750 3703.409 C 2169.530 3702.863, 2171 3702.554, 2171 3701.042 C 2171 3699.941, 2169.527 3698.725, 2166.979 3697.724 C 2161.952 3695.749, 2159.999 3691.566, 2160.002 3682.782 L 2160.004 3676.500 2172.252 3676.458 C 2207.810 3676.336, 2227.494 3658.443, 2225.753 3627.826 C 2224.946 3613.626, 2218.259 3602.338, 2206.611 3595.512 C 2197.892 3590.402, 2194.435 3590.025, 2156.250 3590.012 C 2121.815 3590, 2121 3590.046, 2121 3591.974 M 2344 3591.974 C 2344 3593.140, 2345.184 3594.561, 2346.892 3595.444 C 2348.528 3596.290, 2350.264 3598.319, 2350.892 3600.119 C 2351.647 3602.285, 2352 3619.541, 2352 3654.257 L 2352 3705.216 2361.750 3704.626 C 2367.113 3704.301, 2376.563 3703.754, 2382.750 3703.409 C 2392.530 3702.863, 2394 3702.554, 2394 3701.042 C 2394 3699.941, 2392.527 3698.725, 2389.979 3697.724 C 2384.952 3695.749, 2382.999 3691.566, 2383.002 3682.782 L 2383.004 3676.500 2395.252 3676.458 C 2430.810 3676.336, 2450.494 3658.443, 2448.753 3627.826 C 2447.946 3613.626, 2441.259 3602.338, 2429.611 3595.512 C 2420.892 3590.402, 2417.435 3590.025, 2379.250 3590.012 C 2344.815 3590, 2344 3590.046, 2344 3591.974 M 2461 3592 C 2461 3593.348, 2461.667 3594, 2463.045 3594 C 2464.170 3594, 2466.195 3595.105, 2467.545 3596.455 L 2470 3598.909 2470 3637.574 L 2470 3676.239 2480.250 3675.636 C 2514.880 3673.601, 2512 3673.969, 2512 3671.587 C 2512 3670.001, 2511.126 3669.155, 2508.764 3668.457 C 2503.219 3666.817, 2503.031 3665.598, 2503.015 3631.173 L 2503 3599.846 2505.923 3596.923 C 2507.531 3595.315, 2509.781 3594, 2510.923 3594 C 2512.333 3594, 2513 3593.358, 2513 3592 C 2513 3590.051, 2512.333 3590, 2487 3590 C 2461.667 3590, 2461 3590.051, 2461 3592 M 2522 3592 C 2522 3593.270, 2522.667 3594, 2523.826 3594 C 2524.830 3594, 2526.742 3595.160, 2528.076 3596.578 L 2530.500 3599.156 2531 3630.328 C 2531.477 3660.052, 2531.602 3661.692, 2533.706 3665.624 C 2538.329 3674.266, 2545.563 3677.638, 2557.385 3676.662 C 2565.827 3675.965, 2576.818 3671.052, 2583.299 3665.079 L 2587.726 3660.998 2590.113 3668.249 L 2592.500 3675.500 2605 3675.314 C 2611.875 3675.211, 2620.339 3674.835, 2623.808 3674.478 C 2629.544 3673.887, 2630.089 3673.632, 2629.808 3671.664 C 2629.620 3670.340, 2628.667 3669.381, 2627.354 3669.194 C 2626.174 3669.026, 2624.374 3667.967, 2623.354 3666.841 C 2621.647 3664.955, 2621.479 3662.368, 2621.229 3634.147 C 2620.985 3606.476, 2621.131 3603.160, 2622.729 3600.001 C 2623.703 3598.077, 2625.738 3595.915, 2627.250 3595.197 C 2628.860 3594.432, 2630 3593.085, 2630 3591.945 C 2630 3590.068, 2629.090 3590, 2604 3590 C 2579.526 3590, 2578 3590.107, 2578 3591.820 C 2578 3592.897, 2579.296 3594.222, 2581.179 3595.070 C 2587.766 3598.034, 2588.464 3600.232, 2588.816 3619.093 C 2589.213 3640.384, 2588.240 3645.700, 2582.877 3651.517 C 2576.250 3658.707, 2570.438 3659.835, 2566.600 3654.677 C 2564.594 3651.979, 2564.500 3650.702, 2564.500 3626.032 C 2564.500 3601.617, 2564.609 3600.089, 2566.500 3597.990 C 2567.600 3596.769, 2569.512 3595.383, 2570.750 3594.910 C 2572.059 3594.409, 2573 3593.203, 2573 3592.025 C 2573 3590.045, 2572.437 3590, 2547.500 3590 C 2522.667 3590, 2522 3590.052, 2522 3592 M 3613 3591.799 C 3613 3592.945, 3614.262 3594.055, 3616.477 3594.855 C 3619.194 3595.838, 3620.189 3596.920, 3621.033 3599.806 C 3621.755 3602.278, 3622.010 3618.273, 3621.806 3648.170 L 3621.500 3692.841 3619.076 3695.420 C 3617.742 3696.839, 3615.830 3698, 3614.826 3698 C 3613.545 3698, 3613 3698.746, 3613 3700.500 L 3613 3703 3640 3703 C 3665.328 3703, 3667 3702.889, 3667 3701.201 C 3667 3700.079, 3665.776 3698.958, 3663.750 3698.224 C 3658.892 3696.463, 3657.730 3693.719, 3657.202 3682.751 L 3656.733 3673 3673.986 3673 L 3691.239 3673 3690.829 3682.355 C 3690.371 3692.834, 3688.780 3696.502, 3683.894 3698.346 C 3682.194 3698.988, 3681 3700.173, 3681 3701.219 C 3681 3702.883, 3682.775 3703, 3708 3703 C 3733.225 3703, 3735 3702.883, 3735 3701.219 C 3735 3700.173, 3733.806 3698.988, 3732.106 3698.346 C 3726.140 3696.094, 3726.206 3696.621, 3725.837 3648.500 C 3725.513 3606.138, 3725.574 3604.351, 3727.500 3600.500 C 3728.600 3598.300, 3730.738 3595.913, 3732.250 3595.195 C 3733.861 3594.431, 3735 3593.085, 3735 3591.945 C 3735 3590.066, 3734.081 3590, 3708 3590 C 3682.672 3590, 3681 3590.111, 3681 3591.799 C 3681 3592.948, 3682.268 3594.057, 3684.510 3594.867 C 3690.780 3597.135, 3691 3598.374, 3691 3631.450 L 3691 3661 3674.500 3661 L 3658 3661 3658 3630.423 L 3658 3599.846 3660.923 3596.923 C 3662.531 3595.315, 3664.556 3594, 3665.423 3594 C 3666.333 3594, 3667 3593.154, 3667 3592 C 3667 3590.049, 3666.333 3590, 3640 3590 C 3614.672 3590, 3613 3590.111, 3613 3591.799 M 3774 3591.098 C 3761.716 3593.497, 3748.732 3603.925, 3745.905 3613.661 C 3740.438 3632.492, 3750.577 3648.235, 3773.221 3656.077 L 3781.055 3658.789 3773.462 3662.956 C 3754.085 3673.591, 3748.517 3686.756, 3759.183 3696.716 C 3765.097 3702.238, 3766.785 3702.418, 3815.750 3702.779 C 3860.852 3703.111, 3861 3703.105, 3861 3701.056 C 3861 3699.905, 3860.347 3699, 3859.516 3699 C 3858.699 3699, 3856.562 3697.687, 3854.766 3696.082 L 3851.500 3693.164 3851.500 3647.288 C 3851.500 3604.280, 3851.616 3601.235, 3853.356 3598.579 C 3854.377 3597.021, 3856.515 3595.255, 3858.106 3594.654 C 3859.806 3594.012, 3861 3592.827, 3861 3591.781 C 3861 3590.100, 3858.682 3590.006, 3819.750 3590.110 C 3797.063 3590.170, 3776.475 3590.615, 3774 3591.098 M 2166.500 3601.435 C 2159.596 3604.798, 2160 3602.711, 2160 3634.999 L 2160 3664.278 2165.822 3663.750 C 2169.025 3663.459, 2173.468 3662.292, 2175.697 3661.155 C 2190.275 3653.717, 2196.265 3627.353, 2187.181 3610.608 C 2182.648 3602.250, 2173.320 3598.113, 2166.500 3601.435 M 2389.500 3601.435 C 2382.596 3604.798, 2383 3602.711, 2383 3634.999 L 2383 3664.278 2388.822 3663.750 C 2392.025 3663.459, 2396.468 3662.292, 2398.697 3661.155 C 2413.275 3653.717, 2419.265 3627.353, 2410.181 3610.608 C 2405.648 3602.250, 2396.320 3598.113, 2389.500 3601.435 M 681.832 3602.709 C 675.866 3606.410, 672.615 3617.107, 672.626 3633 C 672.635 3646.306, 674.663 3653.644, 679.872 3659.229 C 683.107 3662.697, 684.352 3663.327, 688.807 3663.755 C 693.766 3664.232, 694.147 3664.088, 697.904 3660.332 C 703.188 3655.047, 705.112 3648.218, 705.096 3634.808 C 705.081 3623.124, 703.191 3614.442, 699.416 3608.711 C 694.765 3601.651, 687.522 3599.178, 681.832 3602.709 M 974.832 3602.709 C 968.866 3606.410, 965.615 3617.107, 965.626 3633 C 965.635 3646.306, 967.663 3653.644, 972.872 3659.229 C 976.107 3662.697, 977.352 3663.327, 981.807 3663.755 C 986.766 3664.232, 987.147 3664.088, 990.904 3660.332 C 996.188 3655.047, 998.112 3648.218, 998.096 3634.808 C 998.081 3623.124, 996.191 3614.442, 992.416 3608.711 C 987.765 3601.651, 980.522 3599.178, 974.832 3602.709 M 1473.832 3602.709 C 1467.866 3606.410, 1464.615 3617.107, 1464.626 3633 C 1464.635 3646.306, 1466.663 3653.644, 1471.872 3659.229 C 1475.107 3662.697, 1476.352 3663.327, 1480.807 3663.755 C 1485.766 3664.232, 1486.147 3664.088, 1489.904 3660.332 C 1495.188 3655.047, 1497.112 3648.218, 1497.096 3634.808 C 1497.081 3623.124, 1495.191 3614.442, 1491.416 3608.711 C 1486.765 3601.651, 1479.522 3599.178, 1473.832 3602.709 M 3074.500 3602.896 C 3069.353 3605.279, 3065.682 3609.241, 3062.823 3615.500 C 3060.934 3619.634, 3060.537 3622.231, 3060.525 3630.500 C 3060.512 3639.372, 3060.826 3641.177, 3063.309 3646.500 C 3068.431 3657.479, 3075.767 3662.890, 3086.721 3663.770 L 3093 3664.274 3093 3635.173 L 3093 3606.072 3089.268 3603.536 C 3084.805 3600.504, 3080.107 3600.300, 3074.500 3602.896 M 3792.880 3603.794 C 3775.971 3612.627, 3777.485 3636.669, 3795.747 3649.325 L 3799.673 3652.045 3808.336 3648.889 L 3817 3645.733 3817 3625.367 C 3817 3600.587, 3817.193 3601, 3805.614 3601 C 3799.471 3601, 3797.328 3601.470, 3792.880 3603.794 M 1795.285 3606.968 C 1793.426 3608.101, 1790.919 3611.157, 1789.341 3614.214 C 1787.020 3618.712, 1786.604 3620.768, 1786.556 3628 C 1786.501 3636.368, 1786.537 3636.495, 1788.855 3636.169 C 1796.997 3635.026, 1806.874 3627.517, 1809.590 3620.404 C 1813.760 3609.483, 1804.864 3601.127, 1795.285 3606.968 M 2287.285 3606.968 C 2285.426 3608.101, 2282.919 3611.157, 2281.341 3614.214 C 2279.020 3618.712, 2278.604 3620.768, 2278.556 3628 C 2278.501 3636.368, 2278.537 3636.495, 2280.855 3636.169 C 2288.997 3635.026, 2298.874 3627.517, 2301.590 3620.404 C 2305.760 3609.483, 2296.864 3601.127, 2287.285 3606.968 M 3192.285 3606.968 C 3190.426 3608.101, 3187.919 3611.157, 3186.341 3614.214 C 3184.020 3618.712, 3183.604 3620.768, 3183.556 3628 C 3183.501 3636.368, 3183.537 3636.495, 3185.855 3636.169 C 3193.997 3635.026, 3203.874 3627.517, 3206.590 3620.404 C 3210.760 3609.483, 3201.864 3601.127, 3192.285 3606.968 M 2820.254 3632.537 C 2816.941 3640.492, 2814.669 3647, 2815.207 3647 C 2815.745 3647, 2817.329 3646.100, 2818.727 3645 C 2820.946 3643.254, 2822.784 3643, 2833.171 3643 C 2844.189 3643, 2845.236 3643.167, 2847.286 3645.250 L 2849.500 3647.500 2855.379 3633.679 C 2861.757 3618.684, 2861.844 3616.296, 2855.884 3619.930 C 2850.988 3622.914, 2832.525 3622.987, 2828.774 3620.037 L 2826.279 3618.074 2820.254 3632.537 M 1306.400 3642.750 C 1312.329 3662.139, 1317.379 3677.670, 1317.959 3678.298 C 1318.577 3678.967, 1329.028 3651.015, 1329.007 3648.750 C 1329.003 3648.338, 1327.667 3648, 1326.038 3648 C 1322.825 3648, 1312.711 3644.542, 1309.527 3642.355 C 1306.849 3640.515, 1305.759 3640.653, 1306.400 3642.750 M 2072.500 3641.510 C 2071.950 3641.703, 2066.213 3643.062, 2059.750 3644.529 L 2048 3647.196 2048 3650.212 C 2048 3654.207, 2051.501 3660.274, 2054.999 3662.340 C 2063.613 3667.429, 2074.129 3659.153, 2075.679 3646.064 C 2076.279 3641, 2075.819 3640.342, 2072.500 3641.510 M 2977.500 3641.510 C 2976.950 3641.703, 2971.213 3643.062, 2964.750 3644.529 L 2953 3647.196 2953 3650.212 C 2953 3654.207, 2956.501 3660.274, 2959.999 3662.340 C 2968.613 3667.429, 2979.129 3659.153, 2980.679 3646.064 C 2981.279 3641, 2980.819 3640.342, 2977.500 3641.510 M 3804.972 3662.567 C 3781.796 3673.632, 3782.298 3690.970, 3805.795 3690.994 C 3810.089 3690.999, 3811.555 3690.536, 3813.545 3688.545 C 3815.910 3686.181, 3816 3685.594, 3816 3672.545 C 3816 3656.644, 3816.476 3657.075, 3804.972 3662.567 M 769.241 3686.995 C 762.542 3691.079, 759.692 3699.287, 762.458 3706.530 C 764.699 3712.398, 768.603 3715.074, 775.793 3715.671 C 789.890 3716.842, 799.807 3703.395, 793.035 3692.290 C 788.884 3685.482, 776.312 3682.683, 769.241 3686.995 M 2478.241 3686.995 C 2471.542 3691.079, 2468.692 3699.287, 2471.458 3706.530 C 2473.699 3712.398, 2477.603 3715.074, 2484.793 3715.671 C 2498.890 3716.842, 2508.807 3703.395, 2502.035 3692.290 C 2497.884 3685.482, 2485.312 3682.683, 2478.241 3686.995 M 956.526 3688.950 C 955.687 3690.573, 955 3692.311, 955 3692.813 C 955 3693.314, 960.737 3697.016, 967.750 3701.038 C 974.763 3705.061, 981.212 3708.783, 982.081 3709.311 C 983.280 3710.038, 986.789 3708.383, 996.581 3702.470 C 1003.687 3698.180, 1009.886 3694.336, 1010.358 3693.927 C 1011.273 3693.135, 1009.305 3686, 1008.172 3686 C 1007.803 3686, 1001.952 3687.758, 995.172 3689.906 L 982.843 3693.811 971.218 3689.905 C 964.825 3687.757, 959.247 3686, 958.823 3686 C 958.398 3686, 957.365 3687.328, 956.526 3688.950" stroke="none" fill="#ffffff" fill-rule="evenodd"/>
</svg>