<svg xmlns="http://www.w3.org/2000/svg" width="4185" height="4752" viewBox="0 0 4185 4752" version="1.1">
	<path d="M 2041.500 278.048 C 1464.918 280.032, 1234.372 281.136, 1229 281.940 C 1199.646 286.329, 1173.700 297.374, 1151.500 314.933 C 1144.244 320.672, 1130.880 334.375, 1125.101 342 C 1117.276 352.325, 1113.958 357.792, 1108.106 370 C 1103.615 379.370, 412.960 2326.764, 407.129 2346.500 C 402.839 2361.016, 401.590 2370.705, 401.582 2389.500 C 401.574 2408.235, 403.292 2420.811, 407.865 2435.500 C 413.482 2453.539, 1082.828 4444.169, 1086.147 4452.704 C 1088.330 4458.316, 1092.972 4467.663, 1096.462 4473.475 C 1119.251 4511.418, 1154.833 4536.805, 1199.841 4547.234 L 1209.500 4549.472 2142.500 4549.784 C 2838.833 4550.017, 3077.910 4549.806, 3085 4548.951 C 3105.791 4546.445, 3129.681 4538.363, 3146.239 4528.234 C 3159.356 4520.210, 3166.085 4514.908, 3176.997 4504 C 3189.171 4491.829, 3198.812 4478.652, 3205.896 4464.500 C 3211.841 4452.625, 3951.963 2436.485, 3955.537 2422.431 C 3958.943 2409.038, 3960 2399.607, 3959.996 2382.678 C 3959.992 2366.327, 3958.493 2354.660, 3954.643 2341 C 3953.326 2336.325, 3797.143 1891.725, 3607.570 1353 C 3357.487 642.316, 3261.418 370.481, 3257.520 362.500 C 3235.245 316.888, 3193.349 285.522, 3143.261 276.959 C 3132.220 275.072, 3126.593 275.005, 2989.151 275.139 C 2910.693 275.216, 2484.250 276.525, 2041.500 278.048 M 2153.500 320.079 C 1595.628 321.874, 1249.757 323.349, 1242 323.965 C 1225.826 325.249, 1213.266 328.659, 1199.500 335.504 C 1186.614 341.911, 1179.383 347.119, 1168.774 357.635 C 1159.617 366.711, 1152.452 376.765, 1147.003 388.185 C 1142.685 397.233, 451.291 2347.762, 447.177 2362.500 C 444.925 2370.568, 444.663 2373.363, 444.648 2389.500 C 444.632 2405.621, 444.890 2408.440, 447.115 2416.500 C 450.546 2428.929, 1123.428 4430.773, 1126.916 4438.929 C 1140.189 4469.964, 1168.779 4494.430, 1202.723 4503.801 L 1212.500 4506.500 2148.500 4506.500 L 3084.500 4506.500 3094.500 4503.726 C 3127.675 4494.524, 3154.547 4472.208, 3168.928 4441.916 C 3173.404 4432.489, 3909.750 2426.305, 3913.592 2413.069 C 3917.600 2399.266, 3918.715 2383.601, 3916.703 2369.367 C 3915.780 2362.840, 3913.955 2354.125, 3912.646 2350 C 3906.733 2331.359, 3222.593 388.776, 3219.924 383.049 C 3207.269 355.897, 3181.566 333.013, 3153.064 323.521 C 3136.370 317.962, 3134.352 317.762, 3092 317.464 C 3070.275 317.311, 2647.950 318.488, 2153.500 320.079 M 2110.500 455.614 C 1696.613 456.970, 1393.023 458.345, 1384 458.905 C 1365.442 460.057, 1350.774 462.780, 1334.694 468.060 C 1284.353 484.591, 1242.338 522.580, 1220.946 570.911 C 1216.785 580.313, 622.926 2314.379, 615.778 2338 C 606.956 2367.155, 605.779 2402.297, 612.602 2432.822 C 614.498 2441.304, 1176.257 4175.775, 1198.071 4240.500 C 1222.712 4313.612, 1285.201 4363.392, 1361.856 4370.975 C 1376.840 4372.458, 2929.666 4372.397, 2944.576 4370.913 C 3003.198 4365.080, 3053.976 4334.472, 3086.274 4285.500 C 3092.424 4276.174, 3099.547 4262.738, 3103.127 4253.708 C 3110.395 4235.375, 3746.188 2438.769, 3747.922 2431.663 C 3755.128 2402.135, 3755.117 2368.027, 3747.891 2339.092 C 3746.736 2334.468, 3611.484 1935.318, 3447.330 1452.092 C 3165.114 621.320, 3148.464 572.684, 3141.426 558.500 C 3112.341 499.882, 3056.586 461.225, 2990.789 454.058 C 2978.780 452.750, 2991.916 452.726, 2110.500 455.614 M 2500.583 497.152 C 2377.978 497.619, 2277.469 498.197, 2277.230 498.437 C 2276.378 499.289, 2281.792 509.598, 2286.236 515.585 C 2288.954 519.246, 2293.236 523.328, 2296.990 525.835 C 2300.421 528.126, 2302.513 530, 2301.639 530 C 2300.766 530, 2297.436 532.587, 2294.240 535.750 C 2286.519 543.390, 2280.579 555.005, 2277.491 568.500 C 2276.871 571.211, 2276.626 570.802, 2274.945 564.241 C 2271.359 550.242, 2263.722 537.654, 2255.517 532.219 L 2250.970 529.207 2255.352 526.640 C 2261.238 523.190, 2269.456 514.021, 2273.059 506.884 C 2277.639 497.810, 2277.828 498, 2264.250 498.001 C 2257.787 498.001, 2057.875 498.676, 1820 499.502 C 1522.379 500.535, 1384.537 501.344, 1378 502.098 C 1328.668 507.785, 1284.741 538.772, 1262.607 583.500 C 1258.286 592.232, 1195.198 775.678, 956.670 1473.094 C 783.741 1978.710, 655.245 2355.893, 653.981 2361.594 C 649.806 2380.434, 650.238 2407.905, 655.002 2426.492 C 655.990 2430.346, 788.276 2838.690, 948.972 3333.922 C 1146.242 3941.869, 1242.588 4237.431, 1245.587 4243.848 C 1252.835 4259.358, 1261.928 4272.069, 1275.429 4285.565 C 1296.782 4306.908, 1320.030 4319.537, 1350.312 4326.244 L 1360.500 4328.500 2153 4328.500 L 2945.500 4328.500 2955.688 4326.244 C 2985.417 4319.660, 3009.860 4306.304, 3031.043 4285.071 C 3043.765 4272.318, 3053.296 4259.046, 3059.989 4244.764 C 3062.212 4240.021, 3208.304 3828.971, 3384.638 3331.320 C 3640.082 2610.406, 3705.720 2424.187, 3707.578 2415.118 C 3711.813 2394.442, 3711.727 2373.261, 3707.327 2353.500 C 3705.867 2346.942, 3114.252 604.275, 3108.157 588.579 C 3091.087 544.618, 3052.059 511.441, 3003 499.187 L 2992.500 496.564 2858 496.433 C 2784.025 496.362, 2623.187 496.685, 2500.583 497.152 M 1522.020 541.250 C 1522.031 541.938, 1525.187 543.978, 1529.033 545.785 C 1537.405 549.718, 1543.585 556.810, 1547.520 567 C 1548.944 570.688, 1554.817 597.082, 1561.093 628 C 1570.725 675.448, 1572.083 683.345, 1571.591 689.033 C 1570.774 698.482, 1568.442 704.472, 1564.154 708.132 C 1562.144 709.847, 1561.006 710.978, 1561.625 710.644 C 1563.113 709.841, 1569.864 714.799, 1573.823 719.602 C 1581.617 729.057, 1580.375 723.686, 1604.628 852.747 L 1610.500 883.994 1614.143 883.997 C 1616.147 883.999, 1617.995 883.438, 1618.250 882.750 C 1618.505 882.063, 1626.985 839.586, 1637.094 788.357 L 1655.475 695.214 1675.068 789.357 L 1694.662 883.500 1697.831 883.813 C 1699.574 883.986, 1701 883.901, 1701 883.626 C 1701 883.350, 1707.304 849.488, 1715.010 808.376 C 1727.804 740.116, 1729.290 733.143, 1732.131 728.063 C 1736.693 719.905, 1741.412 714.500, 1745.920 712.269 L 1749.903 710.299 1746.411 706.914 C 1742.581 703.201, 1740.565 697.483, 1739.557 687.467 C 1739.050 682.432, 1740.039 676.063, 1745.536 648.967 C 1755.881 597.969, 1760.702 576.765, 1763.595 569.540 C 1768.445 557.423, 1777.749 547.178, 1786.500 544.315 C 1788.150 543.776, 1789.645 542.584, 1789.823 541.667 C 1790.120 540.135, 1787.142 540, 1753.073 540 C 1713.676 540, 1712.394 540.171, 1719.240 544.500 C 1720.979 545.600, 1723.274 547.999, 1724.340 549.831 C 1728.514 557.004, 1728.160 560.347, 1713.082 656 C 1705.323 705.225, 1698.868 746.121, 1698.737 746.880 C 1698.607 747.638, 1689.551 713.888, 1678.614 671.880 C 1667.677 629.871, 1658.516 594.938, 1658.257 594.250 C 1657.998 593.563, 1656.999 593, 1656.037 593 C 1654.204 593, 1650.266 605.455, 1639.437 645.500 C 1635.273 660.901, 1616.437 735.854, 1614.316 745.465 C 1613.569 748.850, 1612.663 744.311, 1608.123 714.465 C 1605.198 695.234, 1598.799 655.362, 1593.903 625.859 C 1584.534 569.409, 1583.538 559.436, 1586.548 552.232 C 1588.337 547.949, 1591.756 544, 1593.674 544 C 1594.403 544, 1595 543.100, 1595 542 C 1595 540.037, 1594.333 540, 1558.500 540 C 1529.956 540, 1522.004 540.272, 1522.020 541.250 M 2123.868 574.980 C 2118.106 580.819, 2114.654 581.958, 2100.562 582.672 C 2093.653 583.022, 2088 583.707, 2088 584.193 C 2088 584.679, 2089.765 586.914, 2091.922 589.159 C 2096.743 594.176, 2101.432 603.487, 2103.451 612.053 C 2105.351 620.116, 2105.684 679.680, 2103.876 688.201 C 2101.909 697.470, 2097.772 704.042, 2090.500 709.449 C 2088.945 710.605, 2088.845 710.943, 2090.047 710.968 C 2092.073 711.010, 2098.304 717.557, 2100.546 722 C 2104.559 729.954, 2104.976 734.337, 2104.973 768.500 C 2104.970 804.673, 2104.471 809.037, 2099.033 820.432 C 2097.429 823.791, 2094.291 828.519, 2092.059 830.936 C 2089.826 833.354, 2088 835.708, 2088 836.166 C 2088 836.625, 2093.287 837.010, 2099.750 837.022 C 2113.393 837.047, 2117.335 838.335, 2123.913 844.913 L 2128.003 849.003 2131.510 845.121 C 2135.630 840.560, 2142.420 837.387, 2150.041 836.461 C 2165.512 834.581, 2173.986 830.808, 2184.044 821.320 C 2203.529 802.939, 2214.902 775.123, 2219.515 734.563 C 2220.649 724.595, 2228.304 711, 2232.784 711 C 2233.738 711, 2232.735 709.609, 2230.241 707.474 C 2223.375 701.597, 2221.283 695.723, 2220.636 680.500 C 2219.735 659.319, 2216.105 638.248, 2210.395 621.058 C 2202.743 598.021, 2192.724 587.557, 2173.500 582.523 C 2165.243 580.361, 2148.586 578.706, 2142.274 579.420 C 2137.137 580.002, 2136.967 579.935, 2132.345 575.506 C 2129.758 573.028, 2127.610 571.067, 2127.571 571.150 C 2127.532 571.232, 2125.866 572.956, 2123.868 574.980 M 1796.544 689.750 C 1779.762 753.174, 1765.223 806.159, 1763.312 810.865 C 1758.802 821.970, 1753.964 829.334, 1749.037 832.594 C 1746.817 834.063, 1745 835.656, 1745 836.133 C 1745 836.610, 1759.625 837, 1777.500 837 C 1796.225 837, 1810 836.616, 1810 836.095 C 1810 835.597, 1808.022 834.031, 1805.605 832.615 C 1799.819 829.224, 1796.632 825.292, 1793.975 818.266 C 1790.922 810.195, 1791.620 804.251, 1798.926 776.097 C 1802.267 763.225, 1805 752.530, 1805 752.330 C 1805 752.130, 1816.588 752.086, 1830.750 752.233 L 1856.500 752.500 1861.222 766.500 C 1879.707 821.299, 1896.671 852.452, 1919.816 874.104 C 1935.193 888.488, 1938.295 888.161, 1931.103 872.914 C 1922.487 854.648, 1904.487 807.445, 1894.012 775.646 C 1889.591 762.225, 1890.572 754.070, 1897.510 746.583 L 1899.838 744.072 1894.669 741.692 C 1888.109 738.671, 1881.616 732.163, 1877.984 724.969 C 1874.377 717.823, 1863.389 683.381, 1833.891 586.750 C 1831.268 578.158, 1830.645 577, 1828.647 577 C 1826.480 577, 1825.055 582.006, 1796.544 689.750 M 2700.544 689.750 C 2683.762 753.174, 2669.223 806.159, 2667.312 810.865 C 2662.802 821.970, 2657.964 829.334, 2653.037 832.594 C 2650.817 834.063, 2649 835.656, 2649 836.133 C 2649 836.610, 2663.625 837, 2681.500 837 C 2700.225 837, 2714 836.616, 2714 836.095 C 2714 835.597, 2712.022 834.031, 2709.605 832.615 C 2703.819 829.224, 2700.632 825.292, 2697.975 818.266 C 2694.922 810.195, 2695.620 804.251, 2702.926 776.097 C 2706.267 763.225, 2709 752.530, 2709 752.330 C 2709 752.130, 2720.588 752.086, 2734.750 752.233 L 2760.500 752.500 2765.222 766.500 C 2783.707 821.299, 2800.671 852.452, 2823.816 874.104 C 2839.193 888.488, 2842.295 888.161, 2835.103 872.914 C 2826.487 854.648, 2808.487 807.445, 2798.012 775.646 C 2793.591 762.225, 2794.572 754.070, 2801.510 746.583 L 2803.838 744.072 2798.669 741.692 C 2792.109 738.671, 2785.616 732.163, 2781.984 724.969 C 2778.377 717.823, 2767.389 683.381, 2737.891 586.750 C 2735.268 578.158, 2734.645 577, 2732.647 577 C 2730.480 577, 2729.055 582.006, 2700.544 689.750 M 1901 583.920 C 1901 584.425, 1903.222 585.577, 1905.937 586.479 C 1917.833 590.430, 1927.635 599.519, 1932.215 610.847 C 1934.435 616.339, 1934.500 617.442, 1934.500 649.500 C 1934.500 674.116, 1934.152 683.897, 1933.129 688 C 1931.256 695.513, 1926.264 704.704, 1922.368 707.813 C 1919.179 710.357, 1919.167 710.399, 1921.321 711.464 C 1924.670 713.120, 1929.777 721.482, 1932.260 729.378 C 1934.396 736.171, 1934.500 738.073, 1934.500 770.500 C 1934.500 803.297, 1934.418 804.765, 1932.169 812 C 1929.505 820.574, 1926.247 826.614, 1921.385 831.996 C 1919.523 834.056, 1918 836.025, 1918 836.371 C 1918 836.717, 1931.950 837, 1949 837 C 1966.050 837, 1980 836.777, 1980 836.505 C 1980 836.233, 1977.785 833.261, 1975.077 829.901 C 1969.657 823.175, 1965.638 813.661, 1964.030 803.753 C 1963.407 799.917, 1963.036 769.862, 1963.069 726 L 1963.123 654.500 1968.564 675.962 C 1980.518 723.120, 1991.976 756.475, 2014.266 808.999 C 2029.075 843.896, 2049.372 883, 2052.676 883 C 2053.762 883, 2054.003 870.028, 2054.015 810.750 C 2054.031 732.702, 2054.093 731.670, 2059.429 721.141 C 2060.772 718.489, 2063.434 714.948, 2065.343 713.272 L 2068.814 710.224 2064.988 706.488 C 2060.624 702.226, 2056.454 693.670, 2054.996 685.980 C 2054.448 683.091, 2054 666.033, 2054 648.074 C 2054 613.460, 2054.484 608.851, 2059.066 599.870 C 2061.562 594.978, 2068.442 587.312, 2071.092 586.471 C 2072.142 586.138, 2073 585.221, 2073 584.433 C 2073 583.220, 2068.241 583, 2042 583 C 2024.950 583, 2011 583.281, 2011 583.624 C 2011 583.967, 2012.952 585.966, 2015.337 588.066 C 2020.471 592.584, 2024.394 600.679, 2025.967 610 C 2026.718 614.446, 2026.975 641.935, 2026.782 697 L 2026.500 777.500 2018.273 751.500 C 2004.015 706.441, 1985.906 638.878, 1975.855 593.250 L 1973.598 583 1937.299 583 C 1915.881 583, 1901 583.377, 1901 583.920 M 2246.011 584.250 C 2246.017 584.938, 2247.597 587.031, 2249.523 588.903 C 2254.175 593.422, 2258.659 602.787, 2260.565 611.961 C 2261.834 618.072, 2262.057 625.761, 2261.795 654.461 C 2261.483 688.698, 2261.421 689.636, 2259.087 695.462 C 2257.542 699.316, 2255.031 703.048, 2251.984 706.016 L 2247.270 710.607 2250.429 712.677 C 2254.450 715.314, 2259.484 724.759, 2260.993 732.500 C 2261.799 736.639, 2262.040 749.356, 2261.769 773.500 C 2261.402 806.307, 2261.242 808.863, 2259.228 814.293 C 2256.143 822.605, 2252.024 829.802, 2248.796 832.518 C 2247.258 833.812, 2246 835.350, 2246 835.935 C 2246 836.665, 2255.747 837, 2277 837 C 2294.050 837, 2308 836.732, 2308 836.403 C 2308 836.075, 2306.135 833.713, 2303.856 831.153 C 2299.113 825.827, 2294.752 816.908, 2293.121 809.201 C 2291.589 801.960, 2291.609 738.280, 2293.146 730.629 C 2294.533 723.719, 2299.376 715.322, 2303.616 712.473 L 2306.733 710.379 2302.736 707.024 C 2300.275 704.958, 2297.541 701.139, 2295.620 697.084 L 2292.500 690.500 2292.500 651 C 2292.500 612.412, 2292.553 611.347, 2294.793 604.865 C 2297.200 597.901, 2302.268 589.902, 2305.871 587.378 C 2307.042 586.558, 2308 585.237, 2308 584.443 C 2308 583.217, 2303.348 583, 2277 583 C 2252.861 583, 2246.002 583.277, 2246.011 584.250 M 2309 583.920 C 2309 584.425, 2311.222 585.577, 2313.937 586.479 C 2325.833 590.430, 2335.635 599.519, 2340.215 610.847 C 2342.435 616.339, 2342.500 617.442, 2342.500 649.500 C 2342.500 674.116, 2342.152 683.897, 2341.129 688 C 2339.256 695.513, 2334.264 704.704, 2330.368 707.813 C 2327.179 710.357, 2327.167 710.399, 2329.321 711.464 C 2332.670 713.120, 2337.777 721.482, 2340.260 729.378 C 2342.396 736.171, 2342.500 738.073, 2342.500 770.500 C 2342.500 803.297, 2342.418 804.765, 2340.169 812 C 2337.505 820.574, 2334.247 826.614, 2329.385 831.996 C 2327.523 834.056, 2326 836.025, 2326 836.371 C 2326 836.717, 2339.950 837, 2357 837 C 2374.050 837, 2388 836.777, 2388 836.505 C 2388 836.233, 2385.785 833.261, 2383.077 829.901 C 2377.657 823.175, 2373.638 813.661, 2372.030 803.753 C 2371.407 799.917, 2371.036 769.862, 2371.069 726 L 2371.123 654.500 2376.564 675.962 C 2388.518 723.120, 2399.976 756.475, 2422.266 808.999 C 2437.075 843.896, 2457.372 883, 2460.676 883 C 2461.762 883, 2462.003 870.028, 2462.015 810.750 C 2462.031 732.702, 2462.093 731.670, 2467.429 721.141 C 2468.772 718.489, 2471.434 714.948, 2473.343 713.272 L 2476.814 710.224 2472.988 706.488 C 2468.624 702.226, 2464.454 693.670, 2462.996 685.980 C 2462.448 683.091, 2462 666.033, 2462 648.074 C 2462 613.460, 2462.484 608.851, 2467.066 599.870 C 2469.562 594.978, 2476.442 587.312, 2479.092 586.471 C 2480.142 586.138, 2481 585.221, 2481 584.433 C 2481 583.220, 2476.241 583, 2450 583 C 2432.950 583, 2419 583.281, 2419 583.624 C 2419 583.967, 2420.952 585.966, 2423.337 588.066 C 2428.471 592.584, 2432.394 600.679, 2433.967 610 C 2434.718 614.446, 2434.975 641.935, 2434.782 697 L 2434.500 777.500 2426.273 751.500 C 2412.015 706.441, 2393.906 638.878, 2383.855 593.250 L 2381.598 583 2345.299 583 C 2323.881 583, 2309 583.377, 2309 583.920 M 2496 583.999 C 2496 584.548, 2497.868 586.911, 2500.150 589.249 C 2505.095 594.314, 2508.151 600.796, 2510.435 611.062 C 2511.877 617.542, 2512.073 623.769, 2511.809 654.562 L 2511.500 690.500 2508.370 697.107 C 2506.323 701.426, 2503.815 704.858, 2501.124 707.020 L 2497.009 710.327 2499.926 712.101 C 2503.984 714.569, 2507.701 720.366, 2510.026 727.855 C 2511.829 733.661, 2511.999 737.164, 2511.993 768.355 C 2511.987 798.937, 2511.779 803.363, 2510.004 810.769 C 2507.591 820.834, 2505.245 825.607, 2500.002 831.118 C 2497.801 833.432, 2496 835.702, 2496 836.163 C 2496 836.623, 2509.950 837, 2527 837 C 2546.976 837, 2558 836.645, 2558 836.001 C 2558 835.452, 2556.213 833.161, 2554.029 830.911 C 2551.845 828.660, 2548.919 824.490, 2547.526 821.642 C 2542.304 810.969, 2541.787 805.904, 2541.277 760.353 L 2540.804 718.206 2551.652 717.470 C 2567.175 716.417, 2566.303 716.420, 2580.250 717.351 L 2593 718.201 2593 753.640 C 2593 792.011, 2592.137 804.716, 2588.804 815.402 C 2586.735 822.038, 2581.671 830.070, 2577.833 832.807 C 2576.825 833.525, 2576 834.763, 2576 835.557 C 2576 836.783, 2580.652 837, 2607 837 C 2624.050 837, 2638 836.623, 2638 836.163 C 2638 835.702, 2636.199 833.432, 2633.998 831.118 C 2628.903 825.763, 2626.368 820.757, 2623.938 811.259 C 2622.201 804.465, 2622 800.034, 2622 768.497 C 2622 735.734, 2622.140 732.907, 2624.032 727.408 C 2626.580 720.001, 2630.215 714.448, 2634.035 712.125 L 2636.991 710.327 2632.876 707.020 C 2630.185 704.858, 2627.677 701.426, 2625.630 697.107 L 2622.500 690.500 2622.204 654.288 C 2621.929 620.770, 2622.058 617.439, 2623.936 609.532 C 2626.388 599.210, 2628.713 594.437, 2633.998 588.882 C 2636.199 586.568, 2638 584.298, 2638 583.837 C 2638 583.377, 2624.050 583, 2607 583 C 2584.362 583, 2576 583.309, 2576 584.146 C 2576 584.777, 2578.039 587.473, 2580.532 590.137 C 2585.710 595.673, 2588.495 601.484, 2590.770 611.500 C 2592.080 617.267, 2592.372 625.897, 2592.430 660.500 L 2592.500 702.500 2579.500 703.532 C 2571.030 704.204, 2562.021 704.238, 2553.646 703.631 L 2540.793 702.699 2541.279 660.100 C 2541.792 615.183, 2542.226 610.505, 2546.879 599.741 C 2548.011 597.124, 2550.976 592.802, 2553.468 590.137 C 2555.961 587.473, 2558 584.777, 2558 584.146 C 2558 583.309, 2549.638 583, 2527 583 C 2507.024 583, 2496 583.355, 2496 583.999 M 2139.191 588.025 L 2135.882 590.043 2136.490 706.271 C 2136.825 770.197, 2137.322 823.962, 2137.595 825.750 C 2138.655 832.703, 2149.131 829.108, 2158.875 818.446 C 2171.630 804.490, 2180.528 781.859, 2185.591 750.500 C 2187.787 736.896, 2188.652 689.604, 2187.052 670.651 C 2182.495 616.683, 2168.129 585.988, 2147.434 586.004 C 2144.251 586.006, 2141.326 586.724, 2139.191 588.025 M 1364.669 655.397 C 1362.695 657.371, 1359.933 662.084, 1358.075 666.647 C 1350.181 686.033, 1343.559 696.281, 1334.610 702.961 C 1323.872 710.976, 1318.132 712.825, 1300.500 713.949 C 1282.067 715.125, 1276 718.084, 1276 725.900 C 1276 731.405, 1277.954 734.086, 1292.339 748.316 C 1312.547 768.307, 1317.584 777.439, 1316.831 792.725 C 1316.546 798.504, 1315.749 802.007, 1313.724 806.371 C 1311.421 811.333, 1311 813.579, 1311 820.886 C 1311 839.159, 1318.215 842.567, 1334.457 831.965 C 1345.359 824.848, 1353.123 821.143, 1361.766 818.932 C 1371.288 816.497, 1376.718 816.498, 1386.259 818.938 C 1394.769 821.115, 1399.838 823.477, 1408.300 829.212 C 1420.322 837.359, 1427.589 838.978, 1432.638 834.635 C 1436.692 831.148, 1437.009 822.730, 1433.582 809.641 C 1426.301 781.837, 1433.106 761.298, 1455.723 742.818 C 1465.085 735.168, 1469 729.935, 1469 725.072 C 1469 716.721, 1464.105 714.071, 1446.591 712.938 C 1424.774 711.526, 1414.384 707.476, 1402.837 695.880 C 1397.419 690.440, 1395.206 687.162, 1390.998 678.345 C 1388.152 672.380, 1384.515 664.786, 1382.916 661.468 C 1378.107 651.493, 1370.954 649.113, 1364.669 655.397 M 2955.535 656.303 C 2952.886 659.067, 2950.582 662.910, 2949.091 667.053 C 2937.742 698.574, 2918.994 713.933, 2891.799 713.985 C 2880.342 714.007, 2874.177 715.623, 2870.139 719.661 C 2867.099 722.701, 2866.801 723.482, 2867.292 727.140 C 2868.011 732.501, 2870.854 736.327, 2880.519 744.938 C 2900.685 762.905, 2910.439 780.090, 2908.551 794.328 C 2908.174 797.173, 2906.546 802.797, 2904.933 806.826 C 2899.039 821.547, 2902.350 838, 2911.206 838 C 2915.088 838, 2918.952 836.229, 2929.204 829.750 C 2949.757 816.762, 2966.095 814.127, 2984.060 820.904 C 2989.301 822.881, 2993.269 825.091, 3005.745 832.977 C 3012.835 837.459, 3019.527 838.174, 3023.369 834.860 C 3028.246 830.653, 3028.568 822.682, 3024.453 808 C 3021.987 799.199, 3021.462 784.605, 3023.348 777.265 C 3026.570 764.731, 3034.293 753.168, 3045.536 744.046 C 3058.333 733.664, 3062.133 727.550, 3059.855 721.013 C 3058.051 715.838, 3052.602 713.823, 3038 712.928 C 3023.078 712.013, 3017.830 710.856, 3008.346 706.388 C 2995.486 700.329, 2985.917 688.829, 2978.568 670.600 C 2972.565 655.708, 2969.482 652, 2963.106 652 C 2960.347 652, 2958.832 652.861, 2955.535 656.303 M 1827.125 661.500 C 1826.509 663.700, 1822.156 680.800, 1817.451 699.500 C 1812.745 718.200, 1808.664 734.288, 1808.380 735.250 C 1807.901 736.879, 1809.386 737, 1829.933 737 C 1842.070 737, 1852 736.703, 1852 736.341 C 1852 735.978, 1849.460 727.766, 1846.356 718.091 C 1843.252 708.416, 1837.907 690.825, 1834.478 679 C 1828.274 657.603, 1828.239 657.519, 1827.125 661.500 M 2731.125 661.500 C 2730.509 663.700, 2726.156 680.800, 2721.451 699.500 C 2716.745 718.200, 2712.664 734.288, 2712.380 735.250 C 2711.901 736.879, 2713.386 737, 2733.933 737 C 2746.070 737, 2756 736.703, 2756 736.341 C 2756 735.978, 2753.460 727.766, 2750.356 718.091 C 2747.252 708.416, 2741.907 690.825, 2738.478 679 C 2732.274 657.603, 2732.239 657.519, 2731.125 661.500 M 1889 921.816 C 1881.025 924.467, 1879.251 925.600, 1871.633 932.910 C 1826.579 976.142, 1806.589 1044.962, 1819.031 1114 C 1830.962 1180.203, 1868.576 1250.368, 1930.593 1322.107 C 1939.739 1332.688, 1939.830 1332.844, 1937.857 1334.629 C 1935.872 1336.426, 1935.877 1336.452, 1938.784 1338.968 C 1941.308 1341.154, 1942.014 1343.004, 1943.943 1352.500 C 1959.201 1427.580, 1984.857 1500.794, 2008.427 1536.517 C 2015.683 1547.514, 2031.496 1563.540, 2038.587 1567.083 L 2043.675 1569.625 2023.587 1582.230 C 1922.291 1645.793, 1833.313 1693.806, 1784.610 1711.184 C 1771.783 1715.760, 1759.095 1718.983, 1753.861 1718.993 C 1751.860 1718.997, 1739.710 1715.609, 1726.861 1711.464 C 1675.490 1694.893, 1613.060 1676.895, 1564.490 1664.655 C 1469.922 1640.822, 1401.663 1630.344, 1358.500 1633.036 C 1331.196 1634.739, 1316.322 1640.878, 1309.867 1653.110 C 1307.758 1657.105, 1307.558 1658.716, 1307.640 1671 C 1307.828 1698.944, 1317.970 1728.760, 1339.447 1764.500 C 1357.172 1793.998, 1387.021 1831.944, 1411.363 1855.926 C 1415.509 1860.010, 1418.672 1863.722, 1418.391 1864.176 C 1418.111 1864.629, 1415.321 1865.004, 1412.191 1865.010 C 1405.807 1865.020, 1385.812 1867.137, 1369.982 1869.479 C 1330.973 1875.248, 1289.670 1886.758, 1261.055 1899.834 C 1197.563 1928.847, 1166.623 1971.754, 1169.318 2027.052 C 1169.886 2038.696, 1172.450 2053.646, 1175.725 2064.400 L 1177.500 2070.227 1210.500 2081.617 C 1264.240 2100.166, 1295.972 2111.680, 1322.355 2122.205 C 1378.840 2144.740, 1446.481 2175.457, 1453 2181.535 C 1457.422 2185.657, 1467.019 2190.839, 1472.333 2191.972 C 1478.031 2193.188, 1492.375 2200.811, 1519 2216.776 C 1557.151 2239.650, 1586.800 2261.497, 1610.698 2284.344 C 1619.561 2292.817, 1620.114 2293.580, 1619.554 2296.566 C 1618.976 2299.644, 1619.105 2299.789, 1623.385 2300.867 C 1627.058 2301.792, 1628.660 2303.049, 1632.778 2308.241 C 1649.153 2328.886, 1658.591 2349.107, 1661.033 2368.774 C 1662.705 2382.236, 1663.370 2385.910, 1668.384 2409.344 C 1683.853 2481.648, 1691.959 2547.500, 1691.987 2601.076 C 1692.003 2632.869, 1691.036 2643.905, 1686.213 2667 L 1682.558 2684.500 1682.535 2716 C 1682.510 2749.180, 1683.109 2756.637, 1688.515 2790.500 C 1703.993 2887.449, 1743.064 2995.296, 1787.781 3064.500 C 1806.323 3093.197, 1828.751 3118.277, 1848.743 3132.670 C 1855.888 3137.815, 1860.215 3144.833, 1869.459 3166.273 C 1920.530 3284.721, 1917.524 3445.391, 1861.046 3616 C 1852.900 3640.607, 1853.157 3639.496, 1852.100 3654.697 C 1848.754 3702.853, 1863.318 3746.287, 1893.345 3777.701 C 1922.633 3808.342, 1963.720 3827.529, 2019.144 3836.447 C 2046.320 3840.820, 2057.175 3841.503, 2098.500 3841.445 C 2213.814 3841.282, 2330.094 3823.034, 2428.500 3789.658 C 2472.931 3774.588, 2487.168 3766.903, 2506.535 3747.535 C 2522.439 3731.631, 2532.839 3714.728, 2540.014 3693.121 C 2546.923 3672.314, 2547.524 3664.895, 2546.018 3619.108 C 2543.743 3549.962, 2545.358 3473.928, 2549.999 3431.742 C 2555.524 3381.520, 2565.401 3343.156, 2578.640 3320.500 C 2584.874 3309.831, 2595.351 3299.484, 2604.500 3294.961 C 2617.261 3288.652, 2634.350 3269.955, 2652.451 3242.500 C 2737.162 3114.008, 2868.760 2764.406, 2897.878 2590.500 C 2901.628 2568.103, 2903.076 2552.206, 2902.964 2534.659 C 2902.867 2519.413, 2903.131 2516.441, 2905.330 2508 C 2910.427 2488.433, 2912.189 2474.850, 2912.734 2450.912 C 2913.482 2418.062, 2910.433 2396.138, 2901.286 2368.595 C 2878.424 2299.756, 2821.243 2245.404, 2735.500 2211.010 C 2722.096 2205.633, 2720.432 2204.627, 2708.531 2194.699 C 2639.488 2137.099, 2560.205 2037.201, 2492.505 1922.500 C 2449.208 1849.145, 2386.384 1719.283, 2381.448 1692.937 C 2373.408 1650.025, 2354.695 1600.862, 2332.032 1563.116 C 2313.482 1532.220, 2289.441 1504.067, 2263.288 1482.618 C 2254.411 1475.338, 2251.814 1472.048, 2232.794 1443.994 C 2188.919 1379.276, 2163.296 1330.979, 2152.595 1292.828 C 2144.025 1262.271, 2131.088 1238.604, 2111.123 1216.955 C 2102.502 1207.607, 2089.756 1196.805, 2084.246 1194.177 C 2078.857 1191.608, 2040.130 1139.001, 2009.357 1092.449 L 1993.458 1068.399 1966.086 1007.949 C 1951.031 974.702, 1937.033 945.025, 1934.980 942 C 1929.716 934.244, 1920.988 926.342, 1914.307 923.283 C 1906.784 919.839, 1896.704 919.254, 1889 921.816 M 1890.500 935.929 C 1884.698 938.521, 1868.773 955.621, 1860.148 968.520 C 1826.521 1018.808, 1819.939 1080.568, 1841.128 1147 C 1857.996 1199.883, 1890.797 1254.256, 1941.696 1313.703 C 1947.913 1320.964, 1953 1327.602, 1953 1328.453 C 1953 1330.383, 1954.690 1330.394, 1961.955 1328.512 C 1968.771 1326.745, 1976.511 1323.418, 1983.794 1319.122 C 1986.706 1317.405, 1989.499 1316, 1990.002 1316 C 1990.996 1316, 1996 1324.059, 1996 1325.661 C 1996 1328.334, 1969.983 1339.813, 1960.165 1341.472 C 1957.874 1341.859, 1956 1342.724, 1956 1343.393 C 1956 1345.840, 1962.191 1372.995, 1966.968 1391.500 C 1991.522 1486.619, 2022.576 1548.059, 2050.845 1557.449 C 2055.645 1559.043, 2055.744 1559.031, 2062.278 1556.100 C 2085.986 1545.462, 2118.106 1539.170, 2143 1540.286 C 2178.603 1541.881, 2209.085 1554.858, 2234.657 1579.304 C 2254.469 1598.245, 2264.379 1613.113, 2286.441 1657 C 2306.313 1696.529, 2353.717 1793.151, 2361.015 1809 C 2371.964 1832.779, 2418.733 1903.686, 2450.388 1944.500 C 2483.537 1987.240, 2515.332 2017.774, 2533.816 2024.620 C 2536.392 2025.574, 2538.652 2026.464, 2538.837 2026.598 C 2539.023 2026.732, 2538.654 2029.352, 2538.016 2032.421 C 2536.560 2039.436, 2535.936 2039.472, 2523.782 2033.245 C 2510.674 2026.529, 2500.621 2018.683, 2484.434 2002.533 C 2456.719 1974.884, 2422.931 1931.083, 2386.637 1875.757 C 2363.483 1840.463, 2356.592 1828.405, 2341.341 1796.500 C 2333.191 1779.450, 2311.383 1735.125, 2292.880 1698 C 2257.106 1626.225, 2250.843 1615.272, 2235.691 1597.995 C 2215.338 1574.787, 2190.431 1560.178, 2161.182 1554.292 C 2147.599 1551.559, 2121.074 1552.033, 2105.870 1555.281 C 2091.786 1558.290, 2074.002 1563.950, 2073.995 1565.426 C 2073.993 1566.017, 2069.830 1569.187, 2064.745 1572.471 C 1989.196 1621.268, 1911.196 1666.862, 1855.923 1694.536 C 1817.990 1713.528, 1795.620 1722.693, 1767.267 1730.857 C 1765.183 1731.457, 1765.577 1732.167, 1773.158 1741.500 C 1802.552 1777.682, 1821.575 1813.540, 1827.962 1844.805 C 1829.476 1852.216, 1829.649 1854.604, 1828.714 1855.198 C 1826.745 1856.449, 1826.065 1856.133, 1825.591 1853.750 C 1823.126 1841.351, 1820.511 1831.598, 1817.442 1823.353 C 1808.145 1798.383, 1789.152 1767.390, 1766.667 1740.500 L 1759.977 1732.500 1754.646 1732.832 C 1750.201 1733.109, 1745.423 1731.911, 1725.907 1725.626 C 1687.417 1713.230, 1642.583 1699.881, 1600.967 1688.425 C 1599.674 1688.069, 1599.494 1689.058, 1599.814 1694.752 C 1600.666 1709.897, 1589.121 1730.076, 1567.859 1750.606 L 1560.500 1757.712 1546 1758.408 C 1518.237 1759.740, 1483.414 1755.858, 1458.500 1748.651 C 1407.435 1733.880, 1366.502 1700.724, 1345.512 1657.128 C 1341.625 1649.054, 1341.448 1648.860, 1338.512 1649.438 C 1332.993 1650.526, 1324.885 1655.144, 1322.842 1658.365 C 1321.048 1661.193, 1320.903 1662.724, 1321.363 1674 C 1322.822 1709.787, 1343.054 1752.073, 1382.845 1802.500 C 1398.938 1822.894, 1421.192 1847.454, 1434.226 1859.204 L 1442.142 1866.340 1515.321 1894.211 C 1576.801 1917.627, 1596.014 1924.463, 1635.500 1936.974 C 1688.047 1953.622, 1689.144 1953.931, 1708 1957.379 C 1758.417 1966.598, 1815.287 1966.615, 1866 1957.425 C 1936.456 1944.657, 1998.917 1917.326, 2058.106 1873.363 C 2065.040 1868.213, 2071.236 1864, 2071.876 1864 C 2072.516 1864, 2074.855 1865.146, 2077.073 1866.546 L 2081.107 1869.093 2091.803 1863.005 C 2108.120 1853.720, 2120.415 1844.560, 2132.075 1833 C 2155.443 1809.835, 2166.661 1786.553, 2169.537 1755.250 L 2170.203 1748 2176.219 1748 L 2182.235 1748 2181.569 1755.750 C 2178.875 1787.106, 2168.899 1810.586, 2148.109 1834.500 C 2137.103 1847.160, 2116.763 1863.447, 2101.261 1872.013 C 2098.930 1873.302, 2097.168 1874.501, 2097.346 1874.679 C 2097.524 1874.857, 2101.096 1874.126, 2105.283 1873.055 C 2119.342 1869.460, 2134.709 1860.957, 2148.534 1849.124 C 2151.815 1846.316, 2154.971 1844.014, 2155.547 1844.009 C 2156.123 1844.004, 2158.289 1845.736, 2160.361 1847.858 L 2164.128 1851.716 2157.927 1857.328 C 2146.057 1868.070, 2130.166 1877.689, 2116.268 1882.545 C 2112.762 1883.771, 2109.683 1884.984, 2109.425 1885.241 C 2109.168 1885.499, 2115.456 1889.600, 2123.400 1894.355 L 2137.842 1903 2146.171 1901.052 C 2179.195 1893.331, 2216.580 1895.156, 2249.469 1906.096 C 2290.236 1919.657, 2324.781 1946.304, 2356.949 1989 C 2374.082 2011.740, 2382.300 2021.378, 2397.463 2036.515 C 2447.088 2086.055, 2510.975 2122.234, 2587.370 2144.061 C 2607.764 2149.888, 2611.003 2151.023, 2610.973 2152.330 C 2610.958 2152.974, 2609.318 2155.252, 2607.328 2157.393 L 2603.710 2161.287 2591.605 2157.983 C 2538.368 2143.455, 2492.922 2123.435, 2451.593 2096.307 C 2410.943 2069.625, 2380.425 2040.709, 2349.226 1999.317 C 2342.669 1990.617, 2333.484 1979.225, 2328.815 1974 C 2290.682 1931.325, 2242.119 1908.651, 2189 1908.719 C 2172.531 1908.740, 2152.889 1910.930, 2148.553 1913.229 C 2144.436 1915.411, 2129.208 1929.066, 2117.434 1941.133 C 2083.346 1976.071, 2061.148 2013.510, 2053.887 2048.312 C 2051.304 2060.694, 2051.056 2080.949, 2053.365 2091 L 2054.858 2097.500 2048.056 2118 C 2029.264 2174.640, 2000.236 2236.498, 1963.646 2297.874 C 1956.868 2309.243, 1948.915 2321.176, 1945.651 2324.874 C 1928.070 2344.789, 1919.973 2366.137, 1922.965 2384.683 C 1924.264 2392.736, 1923.845 2393.949, 1919.750 2393.985 C 1917.405 2394.005, 1917.537 2395.761, 1920.565 2404.824 C 1923.502 2413.614, 1930.368 2427.009, 1935.567 2434.091 L 1939.121 2438.933 1944.953 2434.952 C 1956.906 2426.793, 1976.483 2419.072, 1996.713 2414.539 C 2009.349 2411.707, 2029.023 2408.689, 2029.797 2409.464 C 2030.750 2410.417, 2031.279 2421, 2030.374 2421 C 2029.893 2421, 2023.875 2421.914, 2017 2423.030 C 1992.741 2426.969, 1970.724 2433.971, 1957 2442.111 C 1946.006 2448.632, 1946.507 2447.333, 1950.980 2457.709 C 1956.027 2469.414, 1959.469 2481.345, 1962.462 2497.500 C 1966.408 2518.808, 1967.305 2533.086, 1966.716 2565.242 C 1966.179 2594.612, 1965.663 2601.318, 1961.899 2627.848 C 1960.779 2635.739, 1960.070 2642.404, 1960.324 2642.657 C 1960.578 2642.911, 1963.196 2642.424, 1966.143 2641.575 C 1974.783 2639.085, 1990.106 2636.156, 2008.414 2633.493 C 2032.412 2630.003, 2031.109 2629.842, 2034.764 2636.750 C 2049.168 2663.973, 2051.158 2700.830, 2040.021 2734.106 C 2033.778 2752.759, 2020.789 2775.393, 2008.852 2788.421 C 1989.430 2809.616, 1964.576 2814.797, 1940.731 2802.621 L 1933.962 2799.164 1937.191 2803.332 C 1942.917 2810.721, 1956.316 2824.031, 1963.098 2829.065 C 1972.110 2835.756, 1984.245 2841.652, 1994.163 2844.160 C 2004.977 2846.895, 2022.785 2846.378, 2033.500 2843.018 C 2048.043 2838.458, 2067.845 2826.785, 2080.236 2815.467 C 2084.328 2811.729, 2084.885 2810.593, 2087.823 2799.967 C 2093.056 2781.038, 2097.700 2760.023, 2101.089 2739.934 L 2104.292 2720.949 2100.711 2713.225 C 2090.922 2692.107, 2087.389 2666.376, 2088.291 2622.758 C 2089.578 2560.459, 2102.754 2521.110, 2124.580 2514.385 C 2129.704 2512.807, 2131.643 2511.405, 2139 2503.963 C 2151.442 2491.375, 2151.130 2492.657, 2145.483 2477.354 C 2135.109 2449.244, 2121.966 2420.969, 2112.504 2406.402 C 2108.911 2400.872, 2105.302 2396.810, 2101.121 2393.593 C 2097.755 2391.003, 2095 2388.684, 2095 2388.442 C 2095 2386.921, 2098.321 2388.599, 2102.685 2392.323 C 2112.788 2400.948, 2133.269 2409.532, 2137.869 2407.070 C 2143.825 2403.883, 2154.540 2387.817, 2167.597 2362.500 C 2194.225 2310.865, 2219.786 2240.196, 2229.948 2190.116 C 2235.717 2161.684, 2236.500 2154.311, 2236.500 2128.439 L 2236.500 2104.378 2240.100 2115.939 C 2256.535 2168.722, 2278.590 2205.288, 2300.497 2216.073 L 2306.942 2219.246 2311.753 2216.159 C 2329.221 2204.950, 2351.329 2199.286, 2381.500 2198.289 C 2431.931 2196.624, 2485.086 2209.275, 2544 2236.962 C 2594.258 2260.581, 2626.739 2269.918, 2669.860 2273.143 C 2688.320 2274.523, 2707.638 2273.431, 2725.278 2270.008 C 2731.206 2268.858, 2736.432 2268.149, 2736.891 2268.433 C 2738.294 2269.300, 2740.368 2278.034, 2739.395 2278.977 C 2738.293 2280.046, 2726.527 2282.473, 2714.500 2284.114 C 2704.137 2285.527, 2674.766 2285.863, 2661.343 2284.721 L 2652.186 2283.942 2657.181 2295.721 C 2662.931 2309.281, 2669.929 2330.002, 2672.556 2341.250 C 2673.551 2345.512, 2674.630 2349, 2674.953 2349 C 2677.215 2349, 2691.946 2344.261, 2698.804 2341.327 C 2703.371 2339.373, 2707.243 2337.938, 2707.407 2338.137 C 2707.572 2338.337, 2708.967 2340.681, 2710.506 2343.347 C 2712.805 2347.331, 2713.054 2348.354, 2711.902 2349.092 C 2708.911 2351.009, 2689.914 2358.043, 2684.012 2359.420 C 2680.593 2360.218, 2677.598 2361.068, 2677.356 2361.310 C 2677.114 2361.552, 2677.392 2364.619, 2677.973 2368.125 C 2678.554 2371.631, 2679.317 2380.229, 2679.669 2387.231 L 2680.307 2399.961 2682.904 2399.347 C 2688.693 2397.977, 2701.816 2393.614, 2706.869 2391.379 C 2709.828 2390.071, 2712.635 2389, 2713.108 2389 C 2713.986 2389, 2719.392 2398.949, 2718.817 2399.507 C 2716.634 2401.627, 2691.814 2410.242, 2684.393 2411.456 L 2680.286 2412.127 2679.640 2421.314 C 2679.285 2426.366, 2678.325 2434.307, 2677.507 2438.960 C 2676.689 2443.613, 2676.353 2447.699, 2676.760 2448.041 C 2677.167 2448.383, 2685.600 2449.897, 2695.500 2451.405 C 2719.505 2455.061, 2717.343 2454.089, 2716.506 2460.850 C 2716.122 2463.957, 2715.738 2466.569, 2715.653 2466.653 C 2715.569 2466.737, 2706.050 2465.317, 2694.500 2463.497 C 2682.950 2461.676, 2673.218 2460.483, 2672.873 2460.844 C 2672.528 2461.205, 2671.460 2463.975, 2670.500 2467 C 2669.539 2470.025, 2666.946 2476.431, 2664.738 2481.236 L 2660.723 2489.972 2657.111 2487.925 C 2649.663 2483.704, 2649.812 2484.089, 2653.054 2477.446 C 2656.282 2470.828, 2660.437 2459.103, 2659.784 2458.451 C 2659.552 2458.219, 2654.669 2457.092, 2648.931 2455.947 C 2643.194 2454.802, 2638.075 2453.448, 2637.557 2452.939 C 2636.969 2452.363, 2637.574 2450.973, 2639.160 2449.257 C 2640.561 2447.740, 2641.984 2445.713, 2642.322 2444.750 C 2643.071 2442.621, 2643.763 2442.606, 2653.662 2444.500 C 2657.973 2445.325, 2662.016 2446, 2662.646 2446 C 2663.899 2446, 2666.508 2432.931, 2667.588 2421.250 L 2668.258 2414 2658.269 2414 C 2644.309 2414, 2638.827 2413.160, 2639.417 2411.111 C 2639.672 2410.225, 2640.355 2407.661, 2640.935 2405.413 L 2641.989 2401.326 2655.146 2401.801 L 2668.303 2402.276 2667.726 2389.888 C 2667.408 2383.075, 2666.610 2374.012, 2665.953 2369.750 L 2664.757 2362 2656.128 2361.976 C 2648.503 2361.955, 2640.580 2360.913, 2639.450 2359.783 C 2639.235 2359.568, 2639.799 2357.077, 2640.703 2354.248 L 2642.348 2349.105 2652.288 2349.710 L 2662.228 2350.316 2661.500 2346.908 C 2658.704 2333.828, 2649.357 2307.665, 2641.123 2289.873 L 2637.131 2281.247 2632.498 2280.552 C 2625.336 2279.478, 2605.572 2274.494, 2594.495 2270.968 C 2579.347 2266.146, 2563.404 2259.670, 2543.500 2250.252 C 2512.338 2235.507, 2484.861 2225.355, 2459.074 2219.058 C 2394.430 2203.273, 2336.506 2208.578, 2311.023 2232.617 C 2301.092 2241.985, 2292.357 2257.209, 2253.999 2332 C 2217.886 2402.414, 2203.540 2429.101, 2185.442 2459.536 C 2160.891 2500.823, 2144.793 2520.213, 2131.391 2524.642 C 2118.588 2528.873, 2109.664 2546.201, 2104.072 2577.688 C 2100.702 2596.665, 2099.704 2613.355, 2100.320 2640.405 C 2101.054 2672.584, 2104.199 2692.005, 2111.014 2706.442 C 2115.843 2716.671, 2115.289 2716.370, 2126.972 2715.099 C 2143.010 2713.355, 2164.996 2713.716, 2175.568 2715.898 C 2192.135 2719.317, 2202.980 2726.623, 2206.403 2736.671 C 2211.101 2750.456, 2206.105 2779.049, 2193.985 2807.747 C 2173.820 2855.495, 2140.802 2889.587, 2105.500 2899.113 C 2093.696 2902.298, 2073.948 2902.186, 2061.370 2898.861 L 2052.241 2896.448 2053.698 2901.474 C 2058.489 2917.998, 2065.995 2930.958, 2077.500 2942.572 C 2090.504 2955.699, 2102.664 2961.236, 2121.500 2962.606 C 2145.077 2964.321, 2180.178 2952.199, 2215.063 2930.294 C 2249.175 2908.873, 2262.346 2893.237, 2285.920 2846.170 C 2291.365 2835.298, 2292.432 2832.165, 2294.940 2819.670 C 2297.660 2806.117, 2297.746 2804.847, 2296.908 2790.500 C 2294.376 2747.173, 2285.288 2695.586, 2270.985 2643.347 C 2268.187 2633.129, 2266.111 2624.556, 2266.371 2624.296 C 2266.631 2624.036, 2271.942 2627.918, 2278.172 2632.923 L 2289.500 2642.023 2290.247 2636.762 C 2291.298 2629.364, 2297.885 2616.679, 2304.710 2608.907 C 2311.920 2600.697, 2317.990 2595.326, 2330.616 2585.983 C 2374.726 2553.344, 2428.960 2465.591, 2443.087 2404 C 2447.089 2386.553, 2446.792 2362.713, 2442.421 2350.500 C 2441.936 2349.142, 2442.035 2348.821, 2442.730 2349.500 C 2443.293 2350.050, 2444.557 2352.972, 2445.538 2355.994 C 2448.445 2364.944, 2462.923 2392.625, 2471.170 2405 C 2481.441 2420.411, 2490.362 2431.368, 2502.990 2444.080 C 2560.877 2502.354, 2639.547 2522.617, 2733.500 2503.453 C 2746.178 2500.867, 2752.628 2498.034, 2778.226 2483.812 C 2784.125 2480.534, 2789.419 2478.141, 2789.990 2478.494 C 2791.132 2479.200, 2795 2486.392, 2795 2487.809 C 2795 2490.219, 2742.895 2516.609, 2716.991 2527.319 C 2679.889 2542.660, 2651.669 2551.222, 2628.940 2554.035 C 2536.330 2565.497, 2464.479 2584.323, 2410.519 2611.264 C 2383.703 2624.653, 2366.132 2636.833, 2351.395 2652.248 L 2342.426 2661.630 2343.324 2673.065 C 2345.432 2699.914, 2339.681 2739.614, 2328.464 2775.652 C 2315.621 2816.910, 2288.063 2874.262, 2268.879 2899.654 C 2254.950 2918.091, 2232.402 2935.902, 2203.242 2951.500 C 2197.073 2954.800, 2192.020 2957.786, 2192.013 2958.136 C 2192.006 2958.487, 2194.027 2959.077, 2196.504 2959.448 C 2201.792 2960.241, 2201.807 2959.278, 2196.231 2976.355 C 2184.494 3012.303, 2153.812 3055.802, 2105.845 3104.500 L 2086.145 3124.500 2082.986 3121.500 C 2076.862 3115.683, 2076.420 3116.576, 2094.230 3098.772 C 2143.415 3049.600, 2176.720 3001.848, 2186.887 2965.923 C 2188.233 2961.164, 2188.501 2959.005, 2187.698 2959.370 C 2124.578 2988.007, 2075.948 2976.313, 2050.460 2926.368 C 2045.367 2916.387, 2040.387 2901.783, 2039.563 2894.413 L 2039.014 2889.500 2044.257 2885.446 C 2052.345 2879.192, 2060.281 2868.097, 2068.538 2851.500 C 2072.642 2843.250, 2076 2836.172, 2076 2835.770 C 2076 2835.369, 2072.811 2837.103, 2068.914 2839.625 C 2059.383 2845.790, 2045.249 2852.374, 2035.500 2855.189 C 2028.538 2857.200, 2025.359 2857.494, 2011 2857.450 C 1995.654 2857.404, 1993.905 2857.203, 1986 2854.583 C 1957.005 2844.971, 1932.236 2822.774, 1912.776 2788.962 L 1910.164 2784.423 1916.963 2762.962 C 1937.664 2697.615, 1948.621 2647.326, 1953.557 2595 C 1955.590 2573.443, 1955.088 2527.402, 1952.645 2511.455 C 1947.802 2479.837, 1940.372 2459.172, 1928.929 2445.500 C 1919.855 2434.658, 1910.588 2416.410, 1906.965 2402.250 C 1905.640 2397.070, 1905.571 2397, 1901.811 2397 C 1899.715 2397, 1898 2396.609, 1898 2396.131 C 1898 2395.653, 1897.342 2391.491, 1896.538 2386.881 C 1892.273 2362.422, 1870.971 2297.906, 1840.777 2218 C 1833.606 2199.025, 1825.829 2177.875, 1823.494 2171 C 1800.136 2102.234, 1759.386 2042.845, 1706.718 2000.809 C 1692.697 1989.618, 1678.997 1980.775, 1648.350 1963.132 L 1622.199 1948.079 1529.350 1912.721 L 1436.500 1877.364 1420.005 1878.163 C 1361.613 1880.991, 1298.011 1896.199, 1256.812 1917.187 C 1234.827 1928.386, 1213.628 1945.314, 1202.078 1960.895 C 1195.797 1969.368, 1188.654 1984.140, 1185.829 1994.500 C 1182.816 2005.553, 1182.580 2032.956, 1185.379 2046.773 L 1187.257 2056.047 1191.379 2052.508 C 1211.470 2035.260, 1232.504 2028.567, 1256.090 2031.918 C 1271.477 2034.103, 1299.335 2044.609, 1344 2065.069 C 1366.848 2075.536, 1462.803 2123.246, 1490.878 2138.099 L 1506.256 2146.235 1505.715 2151.367 C 1504.935 2158.781, 1499.524 2174.759, 1496.019 2180 C 1494.363 2182.475, 1493.007 2184.797, 1493.004 2185.160 C 1493.002 2185.522, 1496.487 2187.723, 1500.750 2190.050 C 1549.760 2216.807, 1596.659 2250.437, 1625.439 2279.460 L 1637.378 2291.500 1651.439 2291.479 C 1686.182 2291.426, 1714.343 2278.891, 1741.776 2251.270 L 1754.052 2238.909 1758.515 2242.566 L 1762.978 2246.223 1761.084 2248.861 C 1757.640 2253.659, 1743.139 2267.866, 1735.442 2273.982 C 1712.021 2292.593, 1680.980 2304, 1653.753 2304 L 1647.262 2304 1653.528 2313.504 C 1666.297 2332.871, 1674.923 2355.941, 1674.983 2370.879 C 1674.992 2373.288, 1677.010 2384.313, 1679.467 2395.379 C 1691.038 2447.507, 1699.607 2502.582, 1704.144 2554 C 1705.848 2573.307, 1705.888 2629.200, 1704.208 2643.500 C 1703.497 2649.550, 1701.585 2661.056, 1699.958 2669.069 C 1695.718 2689.960, 1694.652 2702.592, 1695.364 2723.500 C 1697.900 2797.982, 1723.167 2899.636, 1759.742 2982.500 C 1788.317 3047.239, 1821.929 3095.482, 1856.056 3120.738 C 1865.471 3127.706, 1865.701 3127.977, 1871.713 3139.155 C 1893.065 3178.858, 1908.988 3234.524, 1915.435 3292 C 1920.884 3340.580, 1919.993 3398.441, 1912.948 3453.500 C 1906.046 3507.442, 1892.129 3566.686, 1873.013 3623.500 C 1865.914 3644.601, 1864.399 3654.580, 1865.350 3674 C 1869.567 3760.203, 1929.796 3812.937, 2038.347 3825.470 C 2086.001 3830.973, 2160.255 3828.517, 2235.762 3818.943 C 2301.195 3810.646, 2364.264 3796.644, 2420 3778.041 C 2465.483 3762.860, 2480.255 3754.905, 2498.763 3735.627 C 2515.569 3718.121, 2525.987 3698.190, 2531.114 3673.734 C 2533.634 3661.715, 2533.796 3650.765, 2532.119 3606 C 2529.543 3537.238, 2531.760 3466.730, 2538.063 3417 C 2547.485 3342.662, 2566.682 3298.261, 2595.546 3284.052 C 2607.474 3278.180, 2617.905 3267.767, 2632.663 3247 C 2688.923 3167.829, 2774.961 2968.968, 2835.144 2779 C 2873.703 2657.288, 2894.366 2558.713, 2889.120 2521.500 C 2888.604 2517.840, 2888.893 2515.060, 2890.197 2511.123 C 2892.511 2504.144, 2896.477 2485.056, 2898.120 2473 C 2900.042 2458.892, 2899.796 2426.024, 2897.664 2412 C 2884.513 2325.519, 2829.048 2263.563, 2728.500 2223.038 C 2710.532 2215.796, 2698.424 2206.296, 2664.154 2172.550 C 2562.894 2072.837, 2465.749 1923.565, 2388.513 1749 C 2372.308 1712.374, 2370.093 1706.720, 2368.390 1697.635 C 2360.718 1656.698, 2342.974 1609.270, 2321.903 1573.378 C 2303.765 1542.481, 2280.301 1514.609, 2254.994 1493.897 C 2246.195 1486.696, 2243.539 1483.721, 2234.599 1471.059 C 2185.485 1401.498, 2150.844 1338.727, 2140.472 1300.500 C 2131.877 1268.824, 2119.861 1246.567, 2100.178 1225.866 C 2090.050 1215.215, 2081.684 1208.244, 2075.498 1205.303 C 2072.480 1203.868, 2067.810 1198.295, 2052.603 1177.984 C 2042.096 1163.950, 2028.100 1144.705, 2021.500 1135.217 C 2014.900 1125.730, 2009.418 1118.537, 2009.318 1119.234 C 2009.217 1119.930, 2008.380 1126.125, 2007.456 1133 C 2005.309 1148.983, 2002.506 1159.947, 1999.918 1162.494 L 1997.878 1164.500 1996.018 1162.237 C 1994.995 1160.992, 1993.173 1155.592, 1991.968 1150.237 C 1985.982 1123.624, 1966.234 1091.638, 1933.203 1055.051 C 1926.013 1047.088, 1923.771 1043.708, 1918.937 1033.551 C 1915.783 1026.923, 1911.724 1017, 1909.918 1011.500 C 1906.887 1002.268, 1906.630 1000.464, 1906.568 988 C 1906.504 975.204, 1906.644 974.206, 1909.270 968.858 C 1911.885 963.535, 1917.410 957.505, 1922.989 953.885 L 1925.478 952.270 1921.851 947.615 C 1917.611 942.172, 1911.823 937.308, 1907.282 935.372 C 1902.916 933.510, 1895.351 933.761, 1890.500 935.929 M 2056.056 1892.126 C 1990.356 1938.821, 1916.633 1966.754, 1836 1975.504 C 1794.176 1980.043, 1738.259 1977.769, 1700.470 1969.994 C 1689.903 1967.819, 1687 1967.566, 1687 1968.818 C 1687 1969.268, 1691.504 1972.684, 1697.009 1976.408 C 1745.825 2009.430, 1787.821 2059.032, 1816.465 2117.500 C 1823.834 2132.541, 1836 2162.045, 1836 2164.875 C 1836 2165.449, 1841.881 2181.530, 1849.070 2200.609 C 1878.682 2279.206, 1897.925 2335.541, 1906.930 2370 L 1908.890 2377.500 1908.945 2372.697 C 1909.136 2355.993, 1918.549 2335.196, 1934.288 2316.701 C 1945.504 2303.522, 1973.098 2255.554, 1993.081 2214.500 C 2010.602 2178.504, 2025.055 2143.803, 2035.418 2112.849 L 2040.658 2097.199 2039.369 2089.849 C 2037.776 2080.770, 2037.642 2063.720, 2039.082 2053.367 C 2044.725 2012.792, 2069.603 1969.365, 2110.950 1927.910 L 2126.500 1912.319 2105.727 1899.910 C 2086.776 1888.589, 2084.319 1887.400, 2077.727 1886.351 C 2073.752 1885.719, 2069.825 1884.929, 2069 1884.597 C 2068.071 1884.223, 2063.144 1887.088, 2056.056 1892.126 M 3539.067 2291.750 C 3536.590 2294.262, 3533.925 2298.967, 3530.996 2306 C 3524.907 2320.621, 3519.537 2329.242, 3512.287 2336.038 C 3501.848 2345.824, 3491.849 2349.495, 3472.713 2350.567 C 3461.037 2351.222, 3454.896 2353.045, 3452.011 2356.713 C 3447.164 2362.876, 3449.849 2367.825, 3467.706 2385.635 C 3483.501 2401.388, 3487.112 2406.574, 3490.530 2418.413 C 3492.696 2425.917, 3491.981 2432.717, 3487.974 2442.725 C 3485.794 2448.169, 3485.001 2451.799, 3485.006 2456.326 C 3485.022 2474.998, 3492.558 2478.774, 3508.713 2468.207 C 3537.192 2449.578, 3557.902 2448.635, 3581.819 2464.877 C 3590.260 2470.609, 3595.698 2472.958, 3600.500 2472.946 C 3610.082 2472.923, 3612.685 2463.791, 3608.037 2446.500 C 3600.348 2417.896, 3608.095 2395.828, 3632.412 2377.068 C 3639.559 2371.554, 3643.226 2366.145, 3643.363 2360.917 C 3643.568 2353.106, 3635.468 2349.021, 3619.701 2348.983 C 3604.944 2348.947, 3589.777 2343.633, 3579.808 2335.005 C 3573.400 2329.459, 3566.481 2318.718, 3561.409 2306.445 C 3556.340 2294.178, 3554.597 2291.360, 3550.901 2289.449 C 3546.224 2287.030, 3543.127 2287.632, 3539.067 2291.750 M 822.396 2320.429 C 818.364 2322.185, 815.445 2326.390, 811.939 2335.496 C 803.550 2357.280, 793.630 2369.854, 779.755 2376.286 C 772.009 2379.878, 765.882 2381.143, 752.500 2381.917 C 738.165 2382.745, 733.532 2384.482, 731.279 2389.874 C 728.578 2396.338, 730.340 2399.223, 747.373 2416.221 C 761.315 2430.135, 763.077 2432.297, 767.091 2440.425 C 771.277 2448.898, 771.499 2449.783, 771.477 2457.925 C 771.458 2465.173, 770.994 2467.583, 768.477 2473.500 C 766.006 2479.311, 765.500 2481.859, 765.500 2488.500 C 765.500 2497.033, 767.092 2502.444, 770.071 2504.038 C 773.863 2506.067, 779.449 2505.103, 785.559 2501.365 C 800.402 2492.284, 802.917 2490.924, 809.500 2488.414 C 818.864 2484.844, 832.986 2483.982, 841.513 2486.461 C 848.793 2488.577, 857.129 2492.740, 866.294 2498.835 C 872.836 2503.186, 873.745 2503.500, 879.782 2503.500 C 885.718 2503.500, 886.432 2503.265, 888.378 2500.676 C 891.157 2496.977, 891.049 2487.585, 888.100 2476.542 C 883.479 2459.235, 884.385 2446.456, 891.199 2432.843 C 895.330 2424.590, 902.506 2416.442, 914.266 2406.655 C 920.242 2401.682, 924 2395.876, 924 2391.617 C 924 2387.984, 919.479 2383.206, 914.868 2381.964 C 912.675 2381.374, 905.171 2380.510, 898.191 2380.045 C 868.873 2378.091, 853.446 2366.646, 841.845 2338.244 C 836.731 2325.724, 834.716 2322.568, 830.583 2320.606 C 826.562 2318.698, 826.382 2318.694, 822.396 2320.429 M 2547.500 2622.966 C 2546.400 2623.427, 2544.276 2624.282, 2542.781 2624.866 L 2540.062 2625.927 2542.656 2632.713 C 2548.128 2647.029, 2557.368 2674.235, 2562.622 2691.500 C 2568.509 2710.846, 2577 2742.008, 2577 2744.268 C 2577 2745.326, 2572.852 2746.051, 2559.250 2747.372 C 2549.488 2748.319, 2539.137 2749.360, 2536.250 2749.685 L 2531 2750.275 2531.015 2754.888 C 2531.041 2762.762, 2530.070 2762.543, 2554.142 2760.102 C 2565.889 2758.911, 2576.605 2757.838, 2577.956 2757.718 C 2580.332 2757.507, 2580.501 2757.936, 2583.185 2771 C 2586.574 2787.492, 2589.578 2805.098, 2591.334 2818.762 C 2592.646 2828.973, 2592.642 2829.021, 2590.576 2828.398 C 2584.753 2826.640, 2573.778 2819.808, 2567.952 2814.314 L 2561.392 2808.127 2556.696 2811.182 C 2554.113 2812.862, 2552 2814.698, 2552 2815.262 C 2552 2817.217, 2565.721 2829.520, 2572.046 2833.235 C 2575.543 2835.290, 2581.881 2838.128, 2586.129 2839.543 L 2593.853 2842.115 2594.591 2848.808 C 2595.561 2857.598, 2595.708 2897.621, 2594.774 2898.558 C 2593.527 2899.807, 2579.288 2893.996, 2570.448 2888.630 C 2565.800 2885.809, 2559.282 2881.097, 2555.963 2878.159 L 2549.928 2872.818 2545.313 2876.600 L 2540.699 2880.381 2547.112 2886.457 C 2557.940 2896.715, 2571.907 2904.923, 2586.500 2909.603 L 2593.500 2911.848 2593.186 2917.174 C 2591.994 2937.366, 2582.225 2967.468, 2570.883 2985.898 C 2565.707 2994.309, 2551.677 3009.919, 2545.533 3014.103 C 2543.597 3015.422, 2542.022 3016.725, 2542.032 3017 C 2542.042 3017.275, 2543.630 3019.654, 2545.562 3022.287 L 2549.074 3027.075 2555.143 3022.307 C 2569.822 3010.774, 2582.527 2993.647, 2591.172 2973.736 C 2597.784 2958.508, 2601.664 2943.519, 2605.503 2918.380 L 2606.132 2914.259 2617.816 2914.248 C 2624.483 2914.242, 2633.302 2913.520, 2638.354 2912.567 C 2647.068 2910.923, 2665.476 2904.924, 2667.250 2903.150 C 2667.793 2902.607, 2667.118 2900.194, 2665.571 2897.139 L 2662.984 2892.035 2657.742 2894.148 C 2642.220 2900.401, 2628.523 2902.804, 2612 2902.172 L 2607.500 2901.999 2607.420 2876.750 C 2607.377 2862.862, 2607.019 2849.813, 2606.625 2847.750 L 2605.909 2844 2610.705 2843.980 C 2623.123 2843.929, 2643 2839.606, 2643 2836.956 C 2643 2834.997, 2641.023 2828.834, 2640.040 2827.727 C 2639.663 2827.301, 2635.561 2827.835, 2630.927 2828.912 C 2620.897 2831.242, 2610.021 2832.459, 2607.204 2831.565 C 2605.639 2831.068, 2605.027 2829.733, 2604.519 2825.711 C 2602.818 2812.248, 2598.565 2786.036, 2595.833 2772.178 C 2594.171 2763.751, 2592.973 2756.693, 2593.171 2756.495 C 2593.369 2756.297, 2602.524 2755.212, 2613.516 2754.083 C 2624.507 2752.955, 2635.465 2751.764, 2637.867 2751.437 L 2642.235 2750.842 2641.785 2745.422 C 2641.538 2742.441, 2641.136 2739.803, 2640.893 2739.559 C 2640.649 2739.316, 2629.469 2740.233, 2616.048 2741.597 C 2602.627 2742.962, 2591.145 2743.886, 2590.532 2743.651 C 2589.920 2743.416, 2588.593 2739.686, 2587.584 2735.362 C 2579.826 2702.113, 2553.676 2621.896, 2550.649 2622.063 C 2550.017 2622.098, 2548.600 2622.504, 2547.500 2622.966 M 2342.943 2834.760 C 2247.193 2954.776, 2189.051 3066.193, 2189.006 3129.750 L 2189 3138 2194.848 3138 L 2200.696 3138 2201.337 3125.750 C 2203.651 3081.526, 2231.716 3016.948, 2282.584 2938.800 C 2300.697 2910.974, 2330.904 2869.467, 2353.325 2841.596 L 2365.319 2826.687 2361.198 2822.844 C 2358.932 2820.730, 2356.723 2819.005, 2356.289 2819.010 C 2355.855 2819.016, 2349.849 2826.103, 2342.943 2834.760 M 2193.750 3161.771 C 2191.137 3162.640, 2189 3163.738, 2189 3164.210 C 2189 3168.214, 2206.387 3206.887, 2215.112 3222.288 C 2254.301 3291.468, 2305.358 3330.173, 2363.305 3334.627 L 2372 3335.295 2372 3329.364 L 2372 3323.434 2360.750 3322.226 C 2341.613 3320.171, 2322.395 3313.810, 2306.126 3304.144 C 2280.522 3288.933, 2253.151 3260.602, 2233.529 3229 C 2222.552 3211.321, 2208.294 3182.149, 2202.371 3165.250 C 2200.344 3159.469, 2200.492 3159.528, 2193.750 3161.771 M 2079.519 3177.744 C 2075.097 3184.799, 2061.590 3197.959, 2052.586 3203.985 C 2027.542 3220.747, 1989.813 3230.953, 1952.472 3231.066 L 1939.244 3231.106 1938.633 3234.803 C 1938.297 3236.836, 1938.017 3239.574, 1938.011 3240.887 L 1938 3243.274 1957.750 3242.719 C 1998.296 3241.579, 2031.865 3232.355, 2058.258 3215.102 C 2070.514 3207.090, 2086.271 3191.013, 2092.382 3180.286 C 2092.813 3179.529, 2091.524 3178.093, 2088.961 3176.475 C 2082.823 3172.601, 2082.735 3172.612, 2079.519 3177.744 M 2284.750 3492.771 C 2282.137 3493.640, 2280 3494.788, 2280 3495.322 C 2280 3495.857, 2281.557 3501.515, 2283.460 3507.897 C 2291.496 3534.844, 2298.548 3567.382, 2301.415 3590.740 C 2303.334 3606.371, 2304.363 3630.144, 2303.194 3631.839 C 2301.959 3633.632, 2279.976 3635.678, 2252.732 3636.535 C 2230.081 3637.248, 2201.946 3636.085, 2175.952 3633.363 L 2160.404 3631.734 2159.190 3613.117 C 2158.071 3595.970, 2154.831 3567.159, 2153.363 3561.311 C 2152.777 3558.974, 2152.481 3558.882, 2147.622 3559.526 C 2144.805 3559.898, 2142.223 3560.495, 2141.884 3560.852 C 2141.545 3561.208, 2142.295 3569.026, 2143.551 3578.224 C 2145.779 3594.540, 2148.670 3628.666, 2147.891 3629.439 C 2147.361 3629.965, 2123.602 3625.765, 2105.914 3622.020 C 2079.705 3616.470, 2046.296 3607.027, 2020.580 3597.901 L 2008.708 3593.688 2009.357 3580.857 C 2009.953 3569.081, 2013.251 3539.831, 2014.580 3534.537 C 2015.089 3532.507, 2014.619 3532.200, 2009.404 3531.152 C 2006.248 3530.518, 2003.489 3530.178, 2003.272 3530.395 C 2001.975 3531.692, 1997 3574.217, 1997 3584.009 C 1997 3586.754, 1996.773 3589, 1996.495 3589 C 1993.697 3589, 1942.995 3565.690, 1928.290 3557.643 L 1920.079 3553.150 1916.934 3558.261 C 1913.919 3563.162, 1913.866 3563.430, 1915.645 3564.770 C 1921.451 3569.143, 1974.448 3593.832, 1993.135 3600.871 C 1995.731 3601.848, 1995.781 3602.049, 1996.442 3614.182 C 1997.263 3629.247, 1998.630 3640.415, 2000.705 3649 C 2002.477 3656.330, 2007.683 3668.274, 2010.699 3671.925 L 2012.701 3674.349 2017.299 3670.506 L 2021.896 3666.663 2019.962 3663.946 C 2016.795 3659.499, 2013.945 3652.035, 2011.964 3643 C 2010.021 3634.138, 2007.435 3608.232, 2008.398 3607.269 C 2008.702 3606.964, 2012.765 3608.105, 2017.426 3609.803 C 2037.322 3617.050, 2071.661 3626.823, 2098.870 3632.980 C 2110.591 3635.633, 2144.833 3642, 2147.376 3642 C 2149.819 3642, 2145.545 3680.366, 2142.113 3689.247 C 2141.114 3691.833, 2141.268 3692.085, 2144.717 3693.526 C 2152.515 3696.784, 2152.704 3696.732, 2154.462 3690.842 C 2156.886 3682.724, 2158.942 3668.818, 2159.667 3655.642 L 2160.319 3643.785 2164.909 3644.391 C 2201.418 3649.210, 2259.403 3649.981, 2295.250 3646.123 C 2300.067 3645.604, 2302 3645.723, 2302 3646.538 C 2302 3650.470, 2297.388 3664.456, 2294.053 3670.639 L 2290.108 3677.954 2294.649 3681.676 L 2299.191 3685.398 2301.117 3682.949 C 2306.591 3675.987, 2313.971 3655.265, 2313.993 3646.795 C 2313.999 3644.522, 2314.518 3644.006, 2317.250 3643.558 C 2355.569 3637.284, 2382.377 3630.904, 2412.522 3620.886 C 2424.085 3617.043, 2434.198 3613.496, 2434.997 3613.002 C 2437.124 3611.688, 2433.381 3600.619, 2431.064 3601.372 C 2430.204 3601.652, 2422.975 3604.195, 2415 3607.023 C 2397.556 3613.209, 2374.842 3619.831, 2358.500 3623.494 C 2345.756 3626.350, 2320.675 3631, 2318.012 3631 C 2316.651 3631, 2316.247 3628.140, 2315.221 3611.250 C 2313.975 3590.736, 2310.979 3569.088, 2306.536 3548.500 C 2301.519 3525.252, 2291.741 3490.886, 2290.203 3491.096 C 2289.816 3491.148, 2287.363 3491.902, 2284.750 3492.771 M 1682.395 3882.901 C 1678.507 3885.271, 1676.140 3889.115, 1671.594 3900.437 C 1662.384 3923.376, 1650.155 3936.042, 1632 3941.447 C 1628.975 3942.347, 1621.100 3943.344, 1614.500 3943.661 C 1599.939 3944.361, 1594.856 3946.137, 1592.345 3951.403 C 1589.284 3957.822, 1591.357 3961.611, 1605.218 3974.939 C 1619.253 3988.434, 1624.875 3995.393, 1629.282 4004.730 C 1632.100 4010.699, 1632.477 4012.506, 1632.467 4020 C 1632.458 4027.257, 1632.040 4029.378, 1629.611 4034.500 C 1624.780 4044.684, 1625.002 4060.002, 1630.053 4065.053 C 1632.494 4067.494, 1638.854 4067.640, 1643.300 4065.355 C 1645.060 4064.451, 1649.145 4061.920, 1652.378 4059.731 C 1676.429 4043.448, 1698.689 4042.639, 1721.500 4057.219 C 1732.906 4064.509, 1736.301 4066, 1741.497 4066 C 1750.147 4066, 1753.336 4059.052, 1750.565 4046.246 C 1749.763 4042.536, 1748.415 4036.350, 1747.570 4032.500 C 1742.286 4008.413, 1749.984 3989.603, 1772.874 3970.665 C 1784.682 3960.896, 1787.715 3952.828, 1781.698 3947.192 C 1778.103 3943.825, 1774.217 3942.900, 1759.835 3941.991 C 1744.176 3941.002, 1735.794 3938.625, 1726.719 3932.602 C 1716.684 3925.941, 1708.325 3914.703, 1702.950 3900.644 C 1698.772 3889.719, 1695.514 3884.317, 1692.011 3882.506 C 1688.185 3880.527, 1686.150 3880.611, 1682.395 3882.901 M 2676.393 3881.978 C 2672.995 3883.352, 2668.351 3889.766, 2665.976 3896.367 C 2658.825 3916.244, 2647.062 3931.483, 2633.919 3937.896 C 2626.286 3941.622, 2614.876 3943.906, 2603.500 3943.987 C 2588.205 3944.096, 2581.170 3950.427, 2585.039 3960.602 C 2585.610 3962.105, 2592.318 3969.446, 2599.944 3976.917 C 2619.470 3996.043, 2625.252 4005.867, 2625.302 4020 C 2625.323 4026.153, 2624.807 4028.667, 2622.427 4034 C 2619.845 4039.784, 2619.524 4041.621, 2619.513 4050.679 C 2619.502 4059.517, 2619.780 4061.228, 2621.625 4063.679 C 2623.509 4066.180, 2624.375 4066.498, 2629.249 4066.481 C 2634.107 4066.464, 2635.562 4065.920, 2641.746 4061.807 C 2657.815 4051.123, 2669.342 4046.898, 2682.500 4046.870 C 2695.024 4046.843, 2701.853 4049.491, 2722.504 4062.379 C 2727.274 4065.357, 2733.995 4066.720, 2738.422 4065.609 C 2744.426 4064.102, 2745.507 4054.348, 2741.501 4037.814 C 2734.637 4009.480, 2742.335 3988.643, 2766.577 3969.941 C 2772.879 3965.079, 2777 3958.814, 2777 3954.096 C 2777 3945.855, 2771.883 3943.262, 2753.234 3942.051 C 2737.236 3941.012, 2729.132 3938.824, 2720.412 3933.188 C 2708.997 3925.810, 2702.533 3916.508, 2691.910 3892.171 C 2688.053 3883.334, 2682.334 3879.577, 2676.393 3881.978 M 2114.397 3891.409 C 2114.050 3892.313, 2111.866 3894.166, 2109.545 3895.527 C 2105.843 3897.696, 2104.137 3898, 2095.662 3898 C 2090.348 3898, 2086 3898.353, 2086 3898.784 C 2086 3899.216, 2087.321 3900.349, 2088.935 3901.303 C 2090.684 3902.336, 2093.009 3905.354, 2094.685 3908.768 L 2097.500 3914.500 2097.817 3943 C 2098.212 3978.435, 2098.106 3979.259, 2092.446 3984.695 C 2088.502 3988.484, 2088.273 3988.952, 2090.078 3989.525 C 2091.177 3989.874, 2093.297 3992.003, 2094.788 3994.257 L 2097.500 3998.354 2097.500 4027.927 C 2097.500 4056.974, 2097.457 4057.594, 2095.108 4062.794 C 2093.792 4065.706, 2091.102 4069.419, 2089.130 4071.044 L 2085.544 4074 2094.304 4074 C 2103.873 4074, 2108.778 4075.456, 2113.076 4079.574 L 2115.653 4082.041 2117.576 4079.879 C 2121.632 4075.322, 2126.573 4074.046, 2140.250 4074.022 L 2153 4074 2153 4060.509 L 2153 4047.017 2144.954 4053.759 C 2135.973 4061.283, 2126.080 4067.656, 2121.516 4068.859 C 2118.962 4069.532, 2118.400 4069.335, 2117.850 4067.577 C 2117.492 4066.434, 2117.155 4049.130, 2117.100 4029.121 L 2117 3992.742 2122.250 3993.438 C 2125.137 3993.821, 2130.537 3995.411, 2134.250 3996.970 L 2141 3999.806 2141 3988.448 L 2141 3977.090 2134.501 3979.536 C 2130.926 3980.882, 2125.493 3982.277, 2122.428 3982.637 L 2116.854 3983.292 2117.177 3943.728 C 2117.355 3921.968, 2117.814 3903.851, 2118.198 3903.468 C 2120.721 3900.949, 2136.409 3914.167, 2140.210 3922.014 L 2141.828 3925.354 2142.971 3920.927 C 2145.050 3912.873, 2148.070 3901.528, 2148.606 3899.750 C 2149.089 3898.153, 2148.114 3898, 2137.469 3898 C 2124.739 3898, 2120.590 3896.836, 2116.986 3892.256 C 2115.311 3890.126, 2114.936 3890.003, 2114.397 3891.409 M 1868.885 3893.570 C 1865.953 3896.501, 1860.843 3897.942, 1853.250 3897.976 C 1847.362 3898.003, 1846.917 3898.634, 1850.450 3901.953 C 1851.797 3903.218, 1853.934 3906.334, 1855.200 3908.877 C 1857.431 3913.362, 1857.509 3914.446, 1857.813 3945.178 C 1858.157 3979.951, 1858.121 3980.204, 1852.036 3985.626 L 1849.152 3988.195 1852.564 3991.190 C 1857.862 3995.842, 1858.188 3998.306, 1857.826 4031 C 1857.508 4059.781, 1857.442 4060.617, 1855.107 4065.321 C 1853.790 4067.972, 1851.653 4070.837, 1850.357 4071.686 C 1846.495 4074.216, 1847.609 4075, 1855.066 4075 C 1862.557 4075, 1864.936 4075.788, 1869.076 4079.643 L 1871.653 4082.041 1873.574 4079.918 C 1876.365 4076.834, 1880.403 4075, 1884.401 4075 C 1894.746 4075, 1907.429 4069.666, 1914.936 4062.160 C 1932.334 4044.761, 1932.179 4009.254, 1914.618 3989.303 C 1910.301 3984.399, 1904.674 3980.458, 1900.489 3979.408 C 1897.967 3978.775, 1898.160 3978.569, 1903.845 3975.840 C 1927.660 3964.411, 1933.497 3924.219, 1913.901 3906.601 C 1907.643 3900.975, 1900.029 3898.076, 1889.597 3897.350 C 1881.759 3896.805, 1873 3893.934, 1873 3891.911 C 1873 3890.327, 1871.539 3890.916, 1868.885 3893.570 M 1996 3898.965 C 1996 3899.495, 1996.899 3900.411, 1997.997 3900.998 C 2000.885 3902.544, 2003.763 3908.804, 2004.951 3916.129 C 2005.520 3919.633, 2005.988 3936.787, 2005.992 3954.250 L 2006 3986 1987.413 3986 L 1968.827 3986 1969.229 3950.250 C 1969.574 3919.502, 1969.871 3913.874, 1971.349 3910.028 C 1973.227 3905.143, 1976.588 3901, 1978.674 3901 C 1979.403 3901, 1980 3900.550, 1980 3900 C 1980 3899.365, 1972.792 3899.023, 1960.250 3899.063 C 1948.973 3899.100, 1941.358 3899.478, 1942.500 3899.945 C 1945.714 3901.261, 1947.696 3904.127, 1949.403 3909.932 C 1950.717 3914.402, 1950.996 3920.860, 1950.978 3946.432 C 1950.958 3974.759, 1950.789 3977.868, 1949.062 3981.672 C 1948.020 3983.967, 1945.964 3986.633, 1944.493 3987.597 L 1941.818 3989.349 1944.310 3990.655 C 1945.681 3991.373, 1947.772 3993.963, 1948.956 3996.410 C 1951.038 4000.709, 1951.100 4001.867, 1950.805 4030.680 C 1950.503 4060.197, 1950.475 4060.551, 1948 4065.500 C 1946.625 4068.250, 1944.487 4070.944, 1943.250 4071.487 C 1942.013 4072.030, 1941 4072.818, 1941 4073.237 C 1941 4073.657, 1949.888 4073.955, 1960.750 4073.900 C 1971.612 4073.845, 1979.375 4073.489, 1978 4073.107 C 1974.502 4072.137, 1971.237 4065.704, 1970.040 4057.423 C 1969.490 4053.615, 1969.031 4037.338, 1969.020 4021.250 L 1969 3992 1987.591 3992 L 2006.183 3992 2005.760 4025.250 C 2005.294 4061.966, 2004.758 4065.502, 1998.911 4070.422 C 1997.310 4071.769, 1996 4073.125, 1996 4073.435 C 1996 4073.746, 2004.662 4073.993, 2015.250 4073.985 C 2031.217 4073.973, 2034.074 4073.760, 2032 4072.735 C 2030.625 4072.056, 2028.375 4069.250, 2027 4066.500 C 2024.522 4061.544, 2024.497 4061.232, 2024.196 4031.178 C 2023.901 4001.856, 2023.962 4000.710, 2026.044 3996.408 C 2027.229 3993.962, 2029.354 3991.354, 2030.768 3990.614 L 2033.338 3989.267 2030.718 3987.551 C 2029.277 3986.607, 2027.176 3983.930, 2026.049 3981.601 C 2024.121 3977.618, 2024 3975.568, 2024 3946.866 C 2024 3912.167, 2024.621 3907.979, 2030.608 3902.333 C 2032.474 3900.574, 2034 3898.879, 2034 3898.567 C 2034 3898.255, 2025.450 3898, 2015 3898 C 2003.462 3898, 1996 3898.379, 1996 3898.965 M 1878.750 3905.080 C 1877.135 3906.021, 1877 3908.842, 1877 3941.550 L 1877 3977 1880.684 3977 C 1889.447 3977, 1896.797 3970.285, 1901.227 3958.233 C 1902.944 3953.560, 1903.349 3950.097, 1903.417 3939.500 C 1903.512 3924.608, 1901.865 3917.718, 1896.715 3911.471 C 1891.825 3905.538, 1883.220 3902.477, 1878.750 3905.080 M 2483.408 3916.102 C 2479.973 3919.897, 2476.473 3921, 2467.860 3921 L 2459.620 3921 2462.965 3924.250 C 2469.257 3930.364, 2470.353 3934.458, 2470.810 3953.565 C 2471.311 3974.497, 2470.238 3980.962, 2465.472 3985.728 C 2462.375 3988.825, 2462.292 3989.086, 2464.085 3990.045 C 2465.135 3990.607, 2467.007 3992.964, 2468.247 3995.283 C 2470.374 3999.264, 2470.500 4000.646, 2470.500 4020 C 2470.500 4038.771, 2470.322 4040.880, 2468.389 4045 C 2467.228 4047.475, 2465.091 4050.761, 2463.639 4052.302 C 2462.188 4053.842, 2461 4055.305, 2461 4055.552 C 2461 4055.798, 2464.121 4056, 2467.935 4056 C 2475.863 4056, 2479.399 4057.077, 2483.119 4060.625 C 2485.307 4062.712, 2485.837 4062.868, 2486.336 4061.568 C 2486.664 4060.712, 2488.410 4059.111, 2490.216 4058.009 C 2492.986 4056.321, 2495.261 4056.007, 2504.750 4056.004 L 2516 4056 2516 4044.449 L 2516 4032.899 2512.750 4036.014 C 2505.496 4042.968, 2488.927 4053.260, 2487.417 4051.750 C 2487.188 4051.521, 2486.701 4037.687, 2486.335 4021.008 L 2485.671 3990.683 2490.413 3991.333 C 2493.021 3991.690, 2497.820 3993.059, 2501.077 3994.375 L 2507 3996.768 2507 3987.277 C 2507 3978.626, 2506.845 3977.851, 2505.250 3978.518 C 2500.347 3980.568, 2491.483 3983, 2488.911 3983 L 2486 3983 2486 3970.660 C 2486 3963.873, 2486.297 3950.792, 2486.660 3941.591 L 2487.319 3924.863 2489.850 3925.499 C 2493.733 3926.473, 2499.317 3931.361, 2503.522 3937.467 L 2507.325 3942.989 2510.138 3932.244 C 2511.685 3926.335, 2512.962 3921.387, 2512.975 3921.250 C 2512.989 3921.113, 2508.936 3921, 2503.968 3921 C 2494.203 3921, 2489.220 3919.581, 2486.786 3916.105 L 2485.311 3913.999 2483.408 3916.102 M 2408 3915.758 C 2408 3918.430, 2402.099 3921.017, 2394.545 3921.656 L 2386.914 3922.301 2389.403 3924.900 C 2395.170 3930.922, 2396.379 3935.937, 2396.814 3955.625 C 2397.279 3976.694, 2396.114 3983.043, 2390.992 3987.353 C 2388.114 3989.775, 2388.068 3989.935, 2389.896 3991.214 C 2390.944 3991.949, 2392.859 3994.338, 2394.151 3996.525 C 2396.413 4000.353, 2396.499 4001.256, 2396.475 4021 C 2396.447 4043.569, 2395.682 4047.104, 2389.496 4053.250 L 2386.727 4056 2404.316 4056 L 2421.905 4056 2419.689 4053.610 C 2414.966 4048.513, 2413.990 4043.050, 2413.995 4021.750 L 2414 4002 2417.989 4002 C 2431.293 4002, 2444.909 3989.746, 2450.031 3973.164 C 2452.304 3965.804, 2455.328 3960.430, 2458.001 3958.999 C 2459.674 3958.104, 2459.552 3957.752, 2456.515 3954.715 C 2454.226 3952.426, 2452.558 3949.232, 2451.107 3944.358 C 2448.661 3936.145, 2444.601 3930.088, 2439.105 3926.451 C 2434.194 3923.201, 2426.995 3921, 2421.275 3921 C 2416.534 3921, 2413.800 3919.934, 2410.250 3916.701 C 2409.012 3915.574, 2408 3915.149, 2408 3915.758 M 2334.615 3919.750 C 2334.329 3920.713, 2327.071 3947.825, 2318.485 3980 C 2309.899 4012.175, 2301.785 4040.900, 2300.454 4043.832 C 2299.124 4046.765, 2296.630 4050.478, 2294.912 4052.082 L 2291.788 4055 2307.312 4055 C 2315.851 4055, 2323.661 4055.272, 2324.668 4055.605 C 2325.676 4055.938, 2325.150 4055.272, 2323.500 4054.125 C 2316.162 4049.021, 2315.484 4042.460, 2320.386 4024 L 2323.705 4011.500 2337.461 4011.500 L 2351.216 4011.500 2355.940 4025 C 2365.042 4051.010, 2376.785 4070.479, 2388.401 4078.822 C 2390.784 4080.533, 2392.998 4081.669, 2393.320 4081.346 C 2393.643 4081.023, 2392.580 4078.130, 2390.958 4074.917 C 2384.080 4061.292, 2370.005 4022.135, 2370.002 4016.618 C 2370.001 4014.428, 2370.907 4011.269, 2372.082 4009.368 C 2373.988 4006.283, 2374.016 4006, 2372.410 4006 C 2371.446 4006, 2368.754 4004.014, 2366.428 4001.586 C 2361.817 3996.774, 2360.590 3993.369, 2344.316 3940.251 C 2337.945 3919.455, 2335.953 3915.245, 2334.615 3919.750 M 2179.230 3921.550 C 2171.772 3923.558, 2168.708 3925.355, 2164.643 3930.104 C 2157.888 3937.995, 2157.166 3951.026, 2162.864 3962.207 C 2164.628 3965.668, 2168.623 3971.650, 2171.742 3975.500 C 2176.332 3981.166, 2177.421 3983.214, 2177.457 3986.247 C 2177.495 3989.575, 2177.782 3989.994, 2180.027 3989.997 C 2183.564 3990.001, 2186.355 3992.224, 2189.445 3997.496 C 2199.612 4014.846, 2200.782 4036.223, 2192.086 4045.745 C 2184.532 4054.015, 2174.348 4049.195, 2169.291 4034.955 C 2168.081 4031.551, 2166.978 4030, 2165.765 4030 C 2164.165 4030, 2164 4031.270, 2164 4043.617 L 2164 4057.233 2166.250 4056.466 C 2167.488 4056.044, 2170.075 4055.750, 2172 4055.812 C 2193.917 4056.525, 2193.375 4056.557, 2197.643 4054.280 C 2211.117 4047.089, 2216.777 4026.087, 2210.892 4005.113 C 2209.497 4000.145, 2208.977 3996.183, 2209.356 3993.418 C 2209.903 3989.427, 2209.797 3989.209, 2207.026 3988.655 C 2203.916 3988.033, 2202.523 3986.675, 2189.941 3972 C 2179.299 3959.587, 2176.802 3954.662, 2176.218 3944.929 C 2175.718 3936.588, 2176.770 3933.406, 2181.486 3929 C 2183.725 3926.908, 2185.141 3926.500, 2190.167 3926.500 C 2195.487 3926.500, 2196.445 3926.816, 2198.552 3929.266 C 2201.587 3932.794, 2203.262 3939.015, 2202.835 3945.173 C 2202.269 3953.334, 2204.662 3950.831, 2208.020 3939.750 C 2209.728 3934.113, 2211.579 3928.046, 2212.134 3926.270 C 2213.453 3922.043, 2212.643 3920.805, 2209.371 3922.049 C 2207.543 3922.744, 2205.359 3922.590, 2201.725 3921.511 C 2195.462 3919.651, 2186.225 3919.667, 2179.230 3921.550 M 2257.453 3921.326 C 2242.790 3926.976, 2233.350 3943.836, 2229.923 3970.500 C 2228.743 3979.681, 2227.257 3983.866, 2223.850 3987.600 C 2222.101 3989.516, 2222.074 3989.817, 2223.540 3991.033 C 2226.662 3993.624, 2228.747 3999.616, 2229.966 4009.500 C 2232.693 4031.611, 2240.186 4046.923, 2251.535 4053.573 C 2257.511 4057.076, 2264.340 4057.676, 2272.911 4055.453 C 2279.038 4053.864, 2280.258 4053.812, 2282.705 4055.037 C 2284.242 4055.806, 2285.838 4056.600, 2286.250 4056.801 C 2286.662 4057.002, 2287 4049.479, 2287 4040.083 C 2287 4026.272, 2286.737 4023, 2285.628 4023 C 2284.796 4023, 2283.999 4024.605, 2283.604 4027.076 C 2282.211 4035.784, 2273.900 4048.234, 2268.589 4049.567 C 2261.947 4051.234, 2254.920 4046.733, 2251.619 4038.695 C 2249.516 4033.576, 2247.317 4021.494, 2246.463 4010.376 C 2245.672 4000.090, 2246.657 3995.610, 2250.502 3991.998 L 2252.946 3989.702 2250.022 3986.373 C 2246.289 3982.121, 2245.576 3978.104, 2246.431 3966.151 C 2248.323 3939.732, 2254.392 3927.015, 2265.115 3927.004 C 2271.426 3926.997, 2276.989 3933.465, 2278.484 3942.547 C 2278.842 3944.721, 2279.365 3947.738, 2279.647 3949.250 C 2280.715 3954.984, 2282.730 3951.880, 2286.847 3938.159 C 2291.659 3922.121, 2291.746 3921.531, 2289.066 3922.965 C 2286.276 3924.458, 2283.330 3924.234, 2276.161 3921.987 C 2269.139 3919.786, 2262.096 3919.537, 2257.453 3921.326 M 2414.099 3928.816 C 2412.927 3931.006, 2412.473 3992.463, 2413.607 3995.418 C 2414.019 3996.493, 2415.486 3997, 2418.184 3997 C 2426.195 3997, 2431.118 3987.822, 2433.061 3969.260 C 2435.596 3945.053, 2430.218 3928.778, 2419.197 3927.300 C 2415.868 3926.853, 2415.013 3927.108, 2414.099 3928.816 M 2330.360 3982.500 L 2325.259 4003 2337.237 4003 C 2347.595 4003, 2349.134 4002.792, 2348.625 4001.465 C 2347.208 3997.772, 2338.971 3971.060, 2337.920 3966.750 C 2337.284 3964.137, 2336.470 3962, 2336.112 3962 C 2335.754 3962, 2333.166 3971.225, 2330.360 3982.500 M 1877.217 4023.250 C 1877.431 4045.938, 1877.969 4065.291, 1878.413 4066.259 C 1880.637 4071.102, 1889.804 4069.495, 1896.087 4063.161 C 1902.915 4056.279, 1905.138 4049.567, 1905.746 4034 C 1906.923 4003.893, 1896.271 3982, 1880.447 3982 L 1876.829 3982 1877.217 4023.250 M 1610.724 4082.630 C 1610.053 4085.984, 1602.885 4094.584, 1599.995 4095.502 C 1598.250 4096.055, 1598.396 4096.409, 1601.492 4099.128 C 1606.060 4103.138, 1608.660 4107.524, 1610.356 4114.081 L 1611.758 4119.500 1612.961 4115 C 1614.589 4108.908, 1618.189 4102.919, 1622.497 4099.137 C 1624.462 4097.412, 1625.605 4096, 1625.038 4096 C 1623.017 4096, 1615.815 4088.561, 1613.581 4084.166 L 1611.311 4079.697 1610.724 4082.630 M 2856.724 4082.630 C 2856.053 4085.984, 2848.885 4094.584, 2845.995 4095.502 C 2844.250 4096.055, 2844.396 4096.409, 2847.492 4099.128 C 2852.060 4103.138, 2854.660 4107.524, 2856.356 4114.081 L 2857.758 4119.500 2858.961 4115 C 2860.589 4108.908, 2864.189 4102.919, 2868.497 4099.137 C 2870.462 4097.412, 2871.605 4096, 2871.038 4096 C 2869.017 4096, 2861.815 4088.561, 2859.581 4084.166 L 2857.311 4079.697 2856.724 4082.630 M 2461.030 4124.250 C 2457.653 4138.137, 2453.082 4157.014, 2450.873 4166.199 C 2446.540 4184.215, 2443.934 4189.534, 2438.194 4192.074 L 2435.228 4193.387 2437.592 4196.960 C 2441.717 4203.193, 2441.587 4204.735, 2434.579 4232.694 C 2426.667 4264.259, 2424.885 4269.302, 2419.847 4274.368 C 2417.731 4276.495, 2416 4278.407, 2416 4278.618 C 2416 4278.828, 2424.550 4279, 2435 4279 C 2452.519 4279, 2458.418 4278.134, 2451.001 4276.650 C 2446.661 4275.782, 2444.008 4270.930, 2444.004 4263.850 C 2444.001 4259.366, 2448.814 4235.866, 2451.607 4226.728 C 2452.104 4225.103, 2453.661 4224.978, 2470.319 4225.228 L 2488.489 4225.500 2494.234 4243.500 C 2498.972 4258.346, 2499.926 4262.501, 2499.678 4267.213 C 2499.356 4273.341, 2497.175 4277, 2493.845 4277 C 2492.830 4277, 2492 4277.450, 2492 4278 C 2492 4278.635, 2499.667 4279, 2513 4279 C 2524.550 4279, 2534 4278.637, 2534 4278.192 C 2534 4277.748, 2532.218 4276.599, 2530.041 4275.638 C 2523.757 4272.866, 2520.744 4268.003, 2515.703 4252.500 C 2508.271 4229.647, 2501 4205.401, 2501 4203.474 C 2501 4202.485, 2502.117 4199.770, 2503.481 4197.442 L 2505.963 4193.207 2503.716 4192.644 C 2502.481 4192.334, 2500.058 4190.599, 2498.333 4188.790 C 2495.270 4185.578, 2491.077 4172.106, 2475.444 4115.250 C 2471.200 4099.816, 2470.877 4099, 2469.015 4099 C 2467.435 4099, 2466.295 4102.604, 2461.030 4124.250 M 1413 4103.933 C 1413 4104.446, 1413.908 4105.153, 1415.017 4105.505 C 1416.126 4105.857, 1417.901 4107.846, 1418.962 4109.925 C 1422.419 4116.701, 1423.133 4125.074, 1422.809 4155 C 1422.468 4186.437, 1422.158 4188.109, 1415.959 4191.879 L 1413.014 4193.670 1415.598 4195.052 C 1417.019 4195.813, 1419.140 4198.250, 1420.312 4200.467 C 1422.183 4204.007, 1422.525 4206.822, 1423.110 4223.500 C 1423.827 4243.945, 1424.919 4249.864, 1429.982 4260.741 C 1439.831 4281.904, 1462.330 4286.284, 1476.450 4269.787 C 1485.294 4259.455, 1488.938 4246.408, 1489.656 4222.500 C 1490.243 4202.963, 1490.855 4200.212, 1495.530 4196.108 C 1498.639 4193.378, 1498.766 4193.060, 1496.972 4192.491 C 1495.891 4192.148, 1493.857 4189.906, 1492.453 4187.510 L 1489.899 4183.152 1490.200 4149.826 C 1490.499 4116.560, 1490.504 4116.491, 1493 4111.500 C 1494.375 4108.750, 1496.513 4106.056, 1497.750 4105.513 C 1498.987 4104.970, 1500 4104.182, 1500 4103.763 C 1500 4103.343, 1492.575 4103, 1483.500 4103 C 1474.425 4103, 1467 4103.247, 1467 4103.548 C 1467 4103.849, 1468.117 4105.087, 1469.483 4106.298 C 1474.834 4111.045, 1475.242 4115.499, 1475.723 4174.500 C 1476.223 4235.903, 1475.593 4248.225, 1471.526 4256.537 C 1468.394 4262.937, 1464.375 4266.108, 1458.659 4266.688 C 1451.140 4267.450, 1446.398 4263.043, 1443.390 4252.500 C 1441.903 4247.284, 1441.623 4239.706, 1441.250 4194.480 C 1440.777 4137.056, 1441.648 4116.844, 1444.915 4109.459 C 1446.031 4106.936, 1447.563 4105, 1448.444 4105 C 1449.300 4105, 1450 4104.550, 1450 4104 C 1450 4103.369, 1443.167 4103, 1431.500 4103 C 1420.725 4103, 1413 4103.389, 1413 4103.933 M 2016.231 4105.111 C 2000.331 4107.760, 1991.558 4117.588, 1990.305 4134.155 C 1989.384 4146.332, 1993.365 4156.938, 2004.887 4173 C 2010.861 4181.327, 2012.747 4186.034, 2011.707 4190.012 C 2011.251 4191.755, 2011.688 4192, 2015.248 4192 C 2020.629 4192, 2025.181 4196.725, 2030.766 4208.107 C 2036.565 4219.928, 2038.282 4227.322, 2038.400 4241 C 2038.495 4251.886, 2038.340 4252.818, 2035.500 4258.457 C 2031.280 4266.836, 2026.401 4270.500, 2019.463 4270.500 C 2014.738 4270.500, 2013.703 4270.104, 2010.627 4267.124 C 2006.960 4263.569, 2002.060 4255.062, 2000.043 4248.750 C 1999.207 4246.133, 1998.264 4245, 1996.922 4245 C 1995.097 4245, 1995 4245.909, 1995 4263 C 1995 4280.151, 1995.092 4281, 1996.941 4281 C 1998.009 4281, 1999.197 4280.490, 1999.582 4279.867 C 2000.078 4279.065, 2002.361 4278.977, 2007.391 4279.568 C 2022.011 4281.284, 2029.947 4280.771, 2036.182 4277.710 C 2039.306 4276.175, 2043.311 4273.271, 2045.080 4271.256 C 2055.368 4259.539, 2058.860 4236.105, 2053.410 4215.359 C 2051.464 4207.953, 2050.938 4203.945, 2051.295 4199.250 C 2051.744 4193.341, 2051.650 4193, 2049.579 4193 C 2046.535 4193, 2041.668 4189.180, 2037.338 4183.393 C 2035.324 4180.702, 2031.147 4175.575, 2028.056 4172 C 2013.536 4155.210, 2009.800 4147.853, 2009.178 4134.830 C 2008.819 4127.328, 2009.071 4125.485, 2011.002 4121.496 C 2014.291 4114.701, 2019.610 4111.500, 2027.611 4111.500 C 2033.151 4111.500, 2034.215 4111.832, 2036.889 4114.394 C 2041.008 4118.339, 2043 4124.790, 2043 4134.178 C 2043 4146.834, 2044.902 4144.488, 2050.866 4124.476 C 2053.738 4114.838, 2055.816 4106.512, 2055.484 4105.973 C 2055.091 4105.337, 2054.222 4105.346, 2053.005 4105.997 C 2050.389 4107.397, 2046.334 4107.231, 2040.591 4105.489 C 2035.276 4103.877, 2024.634 4103.712, 2016.231 4105.111 M 1660.076 4121.250 C 1658.279 4124.127, 1652.743 4126, 1646.034 4126 L 1640.003 4126 1643.359 4130.750 C 1648.606 4138.178, 1649 4140.408, 1649 4162.681 C 1649 4184.766, 1648.413 4187.957, 1643.661 4191.695 L 1641.079 4193.726 1643.668 4196.113 C 1648.477 4200.546, 1649 4203.365, 1649 4224.842 C 1649 4246.826, 1648.305 4250.527, 1642.913 4257.250 L 1639.906 4261 1646.585 4261 C 1653.603 4261, 1659.119 4263.263, 1660.430 4266.679 C 1660.975 4268.097, 1661.425 4267.976, 1663.780 4265.781 C 1667.438 4262.369, 1670.295 4261, 1673.753 4261 C 1691.514 4261, 1705.541 4241.483, 1710.047 4210.500 C 1711.299 4201.887, 1712.598 4198.579, 1715.898 4195.592 C 1717.997 4193.693, 1717.997 4193.687, 1715.995 4192.284 C 1712.645 4189.938, 1711 4185.501, 1710.996 4178.800 C 1710.991 4171.418, 1708.749 4156.823, 1706.418 4149 C 1701.223 4131.563, 1693.642 4125.663, 1674.708 4124.319 C 1667.221 4123.787, 1665.191 4123.282, 1663.420 4121.511 C 1661.321 4119.412, 1661.228 4119.405, 1660.076 4121.250 M 1821.076 4121.250 C 1819.279 4124.127, 1813.743 4126, 1807.034 4126 L 1801.003 4126 1804.359 4130.750 C 1809.606 4138.178, 1810 4140.408, 1810 4162.681 C 1810 4184.766, 1809.413 4187.957, 1804.661 4191.695 L 1802.079 4193.726 1804.668 4196.113 C 1809.477 4200.546, 1810 4203.365, 1810 4224.842 C 1810 4246.826, 1809.305 4250.527, 1803.913 4257.250 L 1800.906 4261 1807.585 4261 C 1814.603 4261, 1820.119 4263.263, 1821.430 4266.679 C 1821.975 4268.097, 1822.425 4267.976, 1824.780 4265.781 C 1828.438 4262.369, 1831.295 4261, 1834.753 4261 C 1852.514 4261, 1866.541 4241.483, 1871.047 4210.500 C 1872.299 4201.887, 1873.598 4198.579, 1876.898 4195.592 C 1878.997 4193.693, 1878.997 4193.687, 1876.995 4192.284 C 1873.645 4189.938, 1872 4185.501, 1871.996 4178.800 C 1871.991 4171.418, 1869.749 4156.823, 1867.418 4149 C 1862.223 4131.563, 1854.642 4125.663, 1835.708 4124.319 C 1828.221 4123.787, 1826.191 4123.282, 1824.420 4121.511 C 1822.321 4119.412, 1822.228 4119.405, 1821.076 4121.250 M 1908.408 4121.102 C 1904.973 4124.897, 1901.473 4126, 1892.860 4126 L 1884.620 4126 1887.965 4129.250 C 1894.257 4135.364, 1895.353 4139.458, 1895.810 4158.565 C 1896.311 4179.497, 1895.238 4185.962, 1890.472 4190.728 C 1887.375 4193.825, 1887.292 4194.086, 1889.085 4195.045 C 1890.135 4195.607, 1892.007 4197.964, 1893.247 4200.283 C 1895.374 4204.264, 1895.500 4205.646, 1895.500 4225 C 1895.500 4243.771, 1895.322 4245.880, 1893.389 4250 C 1892.228 4252.475, 1890.091 4255.761, 1888.639 4257.302 C 1887.188 4258.842, 1886 4260.305, 1886 4260.552 C 1886 4260.798, 1889.121 4261, 1892.935 4261 C 1900.863 4261, 1904.399 4262.077, 1908.119 4265.625 C 1910.307 4267.712, 1910.837 4267.868, 1911.336 4266.568 C 1911.664 4265.712, 1913.410 4264.111, 1915.216 4263.009 C 1917.986 4261.321, 1920.261 4261.007, 1929.750 4261.004 L 1941 4261 1941 4249.449 L 1941 4237.899 1937.750 4241.014 C 1930.496 4247.968, 1913.927 4258.260, 1912.417 4256.750 C 1912.188 4256.521, 1911.701 4242.687, 1911.335 4226.008 L 1910.671 4195.683 1915.413 4196.333 C 1918.021 4196.690, 1922.820 4198.059, 1926.077 4199.375 L 1932 4201.768 1932 4192.277 C 1932 4183.626, 1931.845 4182.851, 1930.250 4183.518 C 1925.347 4185.568, 1916.483 4188, 1913.911 4188 L 1911 4188 1911 4175.660 C 1911 4168.873, 1911.297 4155.792, 1911.660 4146.591 L 1912.319 4129.863 1914.850 4130.499 C 1918.733 4131.473, 1924.317 4136.361, 1928.522 4142.467 L 1932.325 4147.989 1935.138 4137.244 C 1936.685 4131.335, 1937.962 4126.387, 1937.975 4126.250 C 1937.989 4126.113, 1933.936 4126, 1928.968 4126 C 1919.203 4126, 1914.220 4124.581, 1911.786 4121.105 L 1910.311 4118.999 1908.408 4121.102 M 2269.412 4120.370 C 2267.941 4124.201, 2261.751 4126, 2250.040 4126 C 2243.968 4126, 2239.011 4126.337, 2239.025 4126.750 C 2239.039 4127.163, 2240.293 4132.111, 2241.812 4137.747 L 2244.572 4147.994 2246.480 4144.764 C 2249.209 4140.145, 2255.918 4133.094, 2259.198 4131.398 L 2262 4129.949 2261.994 4155.224 C 2261.991 4169.480, 2261.540 4182.117, 2260.959 4184.209 C 2260.392 4186.248, 2258.667 4189.180, 2257.124 4190.722 L 2254.319 4193.527 2257.119 4196.286 C 2261.288 4200.395, 2261.988 4204.611, 2261.994 4225.624 C 2262.001 4247.035, 2261.174 4251.162, 2255.761 4256.746 L 2252.608 4260 2270.054 4259.937 C 2280.583 4259.898, 2286.672 4259.539, 2285.413 4259.029 C 2284.261 4258.563, 2282.245 4255.790, 2280.914 4252.842 C 2278.657 4247.840, 2278.482 4246.169, 2278.177 4226.589 C 2277.820 4203.644, 2278.621 4199.017, 2283.632 4195.075 L 2286.107 4193.128 2283.969 4191.983 C 2282.792 4191.354, 2280.978 4188.962, 2279.937 4186.669 C 2278.236 4182.922, 2278.042 4179.842, 2278.022 4156.250 C 2278.010 4141.813, 2278.382 4130, 2278.850 4130 C 2280.956 4130, 2288.410 4136.552, 2292.271 4141.796 L 2296.513 4147.558 2298.897 4138.029 C 2300.209 4132.788, 2301.491 4127.938, 2301.748 4127.250 C 2302.103 4126.297, 2299.555 4126, 2291.008 4126 C 2279.042 4126, 2274.314 4124.715, 2271.500 4120.697 C 2270.200 4118.840, 2270.010 4118.810, 2269.412 4120.370 M 2636.412 4120.370 C 2634.941 4124.201, 2628.751 4126, 2617.040 4126 C 2610.968 4126, 2606.011 4126.337, 2606.025 4126.750 C 2606.039 4127.163, 2607.293 4132.111, 2608.812 4137.747 L 2611.572 4147.994 2613.480 4144.764 C 2616.209 4140.145, 2622.918 4133.094, 2626.198 4131.398 L 2629 4129.949 2628.994 4155.224 C 2628.991 4169.480, 2628.540 4182.117, 2627.959 4184.209 C 2627.392 4186.248, 2625.667 4189.180, 2624.124 4190.722 L 2621.319 4193.527 2624.119 4196.286 C 2628.288 4200.395, 2628.988 4204.611, 2628.994 4225.624 C 2629.001 4247.035, 2628.174 4251.162, 2622.761 4256.746 L 2619.608 4260 2637.054 4259.937 C 2647.583 4259.898, 2653.672 4259.539, 2652.413 4259.029 C 2651.261 4258.563, 2649.245 4255.790, 2647.914 4252.842 C 2645.657 4247.840, 2645.482 4246.169, 2645.177 4226.589 C 2644.820 4203.644, 2645.621 4199.017, 2650.632 4195.075 L 2653.107 4193.128 2650.969 4191.983 C 2649.792 4191.354, 2647.978 4188.962, 2646.937 4186.669 C 2645.236 4182.922, 2645.042 4179.842, 2645.022 4156.250 C 2645.010 4141.813, 2645.382 4130, 2645.850 4130 C 2647.956 4130, 2655.410 4136.552, 2659.271 4141.796 L 2663.513 4147.558 2665.897 4138.029 C 2667.209 4132.788, 2668.491 4127.938, 2668.748 4127.250 C 2669.103 4126.297, 2666.555 4126, 2658.008 4126 C 2646.042 4126, 2641.314 4124.715, 2638.500 4120.697 C 2637.200 4118.840, 2637.010 4118.810, 2636.412 4120.370 M 1748.615 4124.750 C 1748.329 4125.712, 1741.071 4152.825, 1732.485 4185 C 1723.899 4217.175, 1715.785 4245.900, 1714.454 4248.832 C 1713.124 4251.765, 1710.630 4255.478, 1708.912 4257.082 L 1705.788 4260 1721.312 4260 C 1729.851 4260, 1737.661 4260.272, 1738.668 4260.605 C 1739.676 4260.938, 1739.150 4260.272, 1737.500 4259.125 C 1730.162 4254.021, 1729.484 4247.460, 1734.386 4229 L 1737.705 4216.500 1751.461 4216.500 L 1765.216 4216.500 1769.940 4230 C 1779.042 4256.010, 1790.785 4275.479, 1802.401 4283.822 C 1804.784 4285.533, 1806.998 4286.669, 1807.320 4286.346 C 1807.643 4286.023, 1806.580 4283.130, 1804.958 4279.917 C 1798.080 4266.292, 1784.005 4227.135, 1784.002 4221.618 C 1784.001 4219.428, 1784.907 4216.269, 1786.082 4214.368 C 1787.988 4211.283, 1788.016 4211, 1786.410 4211 C 1785.446 4211, 1782.754 4209.014, 1780.428 4206.586 C 1775.817 4201.774, 1774.590 4198.369, 1758.316 4145.251 C 1751.945 4124.455, 1749.953 4120.245, 1748.615 4124.750 M 2103.615 4124.750 C 2103.329 4125.712, 2096.071 4152.825, 2087.485 4185 C 2078.899 4217.175, 2070.785 4245.900, 2069.454 4248.832 C 2068.124 4251.765, 2065.630 4255.478, 2063.912 4257.082 L 2060.788 4260 2076.312 4260 C 2084.851 4260, 2092.661 4260.272, 2093.668 4260.605 C 2094.676 4260.938, 2094.150 4260.272, 2092.500 4259.125 C 2085.162 4254.021, 2084.484 4247.460, 2089.386 4229 L 2092.705 4216.500 2106.461 4216.500 L 2120.216 4216.500 2124.940 4230 C 2134.042 4256.010, 2145.785 4275.479, 2157.401 4283.822 C 2159.784 4285.533, 2161.998 4286.669, 2162.320 4286.346 C 2162.643 4286.023, 2161.580 4283.130, 2159.958 4279.917 C 2153.080 4266.292, 2139.005 4227.135, 2139.002 4221.618 C 2139.001 4219.428, 2139.907 4216.269, 2141.082 4214.368 C 2142.988 4211.283, 2143.016 4211, 2141.410 4211 C 2140.446 4211, 2137.754 4209.014, 2135.428 4206.586 C 2130.817 4201.774, 2129.590 4198.369, 2113.316 4145.251 C 2106.945 4124.455, 2104.953 4120.245, 2103.615 4124.750 M 2329.493 4127.351 C 2317.449 4132.960, 2310.164 4148.359, 2306.950 4175 C 2305.707 4185.302, 2304.090 4190.211, 2300.778 4193.736 C 2299.608 4194.981, 2299.143 4196, 2299.744 4196 C 2300.345 4196, 2301.842 4197.626, 2303.071 4199.614 C 2304.745 4202.323, 2305.650 4206.267, 2306.685 4215.364 C 2309.755 4242.347, 2315.825 4255.832, 2327.464 4261.526 C 2332.288 4263.887, 2333.910 4264.195, 2339.038 4263.730 C 2356.033 4262.189, 2366.246 4245.943, 2370.004 4214.469 C 2371.194 4204.500, 2373.753 4197.416, 2376.552 4196.342 C 2377.699 4195.902, 2377.376 4195.053, 2375.057 4192.412 C 2371.886 4188.800, 2371.622 4187.780, 2369.927 4172.558 C 2367.231 4148.347, 2360.124 4133.231, 2348.782 4127.579 C 2342.216 4124.307, 2336.184 4124.235, 2329.493 4127.351 M 2697.493 4127.351 C 2685.449 4132.960, 2678.164 4148.359, 2674.950 4175 C 2673.707 4185.302, 2672.090 4190.211, 2668.778 4193.736 C 2667.608 4194.981, 2667.143 4196, 2667.744 4196 C 2668.345 4196, 2669.842 4197.626, 2671.071 4199.614 C 2672.745 4202.323, 2673.650 4206.267, 2674.685 4215.364 C 2677.755 4242.347, 2683.825 4255.832, 2695.464 4261.526 C 2700.288 4263.887, 2701.910 4264.195, 2707.038 4263.730 C 2724.033 4262.189, 2734.246 4245.943, 2738.004 4214.469 C 2739.194 4204.500, 2741.753 4197.416, 2744.552 4196.342 C 2745.699 4195.902, 2745.376 4195.053, 2743.057 4192.412 C 2739.886 4188.800, 2739.622 4187.780, 2737.927 4172.558 C 2735.231 4148.347, 2728.124 4133.231, 2716.782 4127.579 C 2710.216 4124.307, 2704.184 4124.235, 2697.493 4127.351 M 2915.493 4127.351 C 2903.449 4132.960, 2896.164 4148.359, 2892.950 4175 C 2891.707 4185.302, 2890.090 4190.211, 2886.778 4193.736 C 2885.608 4194.981, 2885.143 4196, 2885.744 4196 C 2886.345 4196, 2887.842 4197.626, 2889.071 4199.614 C 2890.745 4202.323, 2891.650 4206.267, 2892.685 4215.364 C 2895.755 4242.347, 2901.825 4255.832, 2913.464 4261.526 C 2918.288 4263.887, 2919.910 4264.195, 2925.038 4263.730 C 2942.033 4262.189, 2952.246 4245.943, 2956.004 4214.469 C 2957.194 4204.500, 2959.753 4197.416, 2962.552 4196.342 C 2963.699 4195.902, 2963.376 4195.053, 2961.057 4192.412 C 2957.886 4188.800, 2957.622 4187.780, 2955.927 4172.558 C 2953.231 4148.347, 2946.124 4133.231, 2934.782 4127.579 C 2928.216 4124.307, 2922.184 4124.235, 2915.493 4127.351 M 1498.385 4127.472 C 1500.521 4128.234, 1504.028 4130.574, 1506.178 4132.674 C 1512.241 4138.594, 1513.310 4143.717, 1512.793 4164.386 C 1512.344 4182.346, 1511.374 4186.844, 1506.937 4191.567 C 1504.980 4193.651, 1504.980 4193.672, 1506.949 4195.453 C 1511.479 4199.554, 1512.500 4205.171, 1512.500 4226 C 1512.500 4244.232, 1512.351 4245.824, 1510.201 4250.488 C 1508.937 4253.231, 1506.966 4256.472, 1505.822 4257.690 L 1503.741 4259.904 1520.257 4260.202 L 1536.773 4260.500 1533.929 4257.264 C 1528.370 4250.938, 1527.993 4247.539, 1528.073 4204.568 L 1528.146 4165.500 1532.513 4182 C 1538.194 4203.465, 1546.087 4225.465, 1557.450 4251.500 C 1563.586 4265.557, 1573.833 4285, 1575.107 4285 C 1575.540 4285, 1576.031 4267.113, 1576.197 4245.250 C 1576.486 4207.394, 1576.599 4205.286, 1578.587 4201 C 1579.736 4198.525, 1581.438 4195.870, 1582.371 4195.100 C 1583.956 4193.791, 1583.937 4193.562, 1582.081 4191.586 C 1577.480 4186.689, 1576.602 4182.472, 1576.197 4163.329 C 1575.729 4141.265, 1576.879 4135.709, 1583.143 4129.750 L 1587.084 4126 1569.792 4126.005 L 1552.500 4126.010 1555.164 4128.255 C 1561.560 4133.644, 1561.479 4132.965, 1561.707 4183 C 1561.854 4215.129, 1561.611 4227.765, 1560.880 4226 C 1556.471 4215.353, 1543.566 4169.679, 1537.360 4142.757 L 1533.500 4126.013 1514 4126.050 C 1496.160 4126.085, 1494.831 4126.206, 1498.385 4127.472 M 1597.989 4128.835 C 1602.808 4133.654, 1604.001 4140.030, 1603.994 4160.932 C 1603.988 4181.209, 1603.267 4185.550, 1599.136 4190.174 L 1596.395 4193.241 1599.103 4195.949 C 1603.176 4200.022, 1603.988 4204.774, 1603.994 4224.568 C 1604.001 4245.008, 1602.892 4250.775, 1597.853 4256.514 L 1594.793 4260 1612.119 4260 C 1628.130 4260, 1629.275 4259.881, 1627.209 4258.434 C 1625.979 4257.573, 1623.967 4254.985, 1622.737 4252.684 C 1620.656 4248.793, 1620.477 4247.002, 1620.177 4227.085 C 1619.824 4203.691, 1620.607 4199.027, 1625.539 4195.148 L 1627.921 4193.274 1625.486 4190.987 C 1620.512 4186.314, 1619.822 4182.212, 1620.176 4159.411 C 1620.527 4136.775, 1620.897 4135.060, 1626.801 4128.750 L 1629.374 4126 1612.264 4126 L 1595.154 4126 1597.989 4128.835 M 2147.385 4127.472 C 2149.521 4128.234, 2153.028 4130.574, 2155.178 4132.674 C 2161.241 4138.594, 2162.310 4143.717, 2161.793 4164.386 C 2161.344 4182.346, 2160.374 4186.844, 2155.937 4191.567 C 2153.980 4193.651, 2153.980 4193.672, 2155.949 4195.453 C 2160.479 4199.554, 2161.500 4205.171, 2161.500 4226 C 2161.500 4244.232, 2161.351 4245.824, 2159.201 4250.488 C 2157.937 4253.231, 2155.966 4256.472, 2154.822 4257.690 L 2152.741 4259.904 2169.257 4260.202 L 2185.773 4260.500 2182.929 4257.264 C 2177.370 4250.938, 2176.993 4247.539, 2177.073 4204.568 L 2177.146 4165.500 2181.513 4182 C 2187.194 4203.465, 2195.087 4225.465, 2206.450 4251.500 C 2212.586 4265.557, 2222.833 4285, 2224.107 4285 C 2224.540 4285, 2225.031 4267.113, 2225.197 4245.250 C 2225.486 4207.394, 2225.599 4205.286, 2227.587 4201 C 2228.736 4198.525, 2230.438 4195.870, 2231.371 4195.100 C 2232.956 4193.791, 2232.937 4193.562, 2231.081 4191.586 C 2226.480 4186.689, 2225.602 4182.472, 2225.197 4163.329 C 2224.729 4141.265, 2225.879 4135.709, 2232.143 4129.750 L 2236.084 4126 2218.792 4126.005 L 2201.500 4126.010 2204.164 4128.255 C 2210.560 4133.644, 2210.479 4132.965, 2210.707 4183 C 2210.854 4215.129, 2210.611 4227.765, 2209.880 4226 C 2205.471 4215.353, 2192.566 4169.679, 2186.360 4142.757 L 2182.500 4126.013 2163 4126.050 C 2145.160 4126.085, 2143.831 4126.206, 2147.385 4127.472 M 2515.385 4127.472 C 2517.521 4128.234, 2521.028 4130.574, 2523.178 4132.674 C 2529.241 4138.594, 2530.310 4143.717, 2529.793 4164.386 C 2529.344 4182.346, 2528.374 4186.844, 2523.937 4191.567 C 2521.980 4193.651, 2521.980 4193.672, 2523.949 4195.453 C 2528.479 4199.554, 2529.500 4205.171, 2529.500 4226 C 2529.500 4244.232, 2529.351 4245.824, 2527.201 4250.488 C 2525.937 4253.231, 2523.966 4256.472, 2522.822 4257.690 L 2520.741 4259.904 2537.257 4260.202 L 2553.773 4260.500 2550.929 4257.264 C 2545.370 4250.938, 2544.993 4247.539, 2545.073 4204.568 L 2545.146 4165.500 2549.513 4182 C 2555.194 4203.465, 2563.087 4225.465, 2574.450 4251.500 C 2580.586 4265.557, 2590.833 4285, 2592.107 4285 C 2592.540 4285, 2593.031 4267.113, 2593.197 4245.250 C 2593.486 4207.394, 2593.599 4205.286, 2595.587 4201 C 2596.736 4198.525, 2598.438 4195.870, 2599.371 4195.100 C 2600.956 4193.791, 2600.937 4193.562, 2599.081 4191.586 C 2594.480 4186.689, 2593.602 4182.472, 2593.197 4163.329 C 2592.729 4141.265, 2593.879 4135.709, 2600.143 4129.750 L 2604.084 4126 2586.792 4126.005 L 2569.500 4126.010 2572.164 4128.255 C 2578.560 4133.644, 2578.479 4132.965, 2578.707 4183 C 2578.854 4215.129, 2578.611 4227.765, 2577.880 4226 C 2573.471 4215.353, 2560.566 4169.679, 2554.360 4142.757 L 2550.500 4126.013 2531 4126.050 C 2513.160 4126.085, 2511.831 4126.206, 2515.385 4127.472 M 2745.385 4127.472 C 2747.521 4128.234, 2751.028 4130.574, 2753.178 4132.674 C 2759.241 4138.594, 2760.310 4143.717, 2759.793 4164.386 C 2759.344 4182.346, 2758.374 4186.844, 2753.937 4191.567 C 2751.980 4193.651, 2751.980 4193.672, 2753.949 4195.453 C 2758.479 4199.554, 2759.500 4205.171, 2759.500 4226 C 2759.500 4244.232, 2759.351 4245.824, 2757.201 4250.488 C 2755.937 4253.231, 2753.966 4256.472, 2752.822 4257.690 L 2750.741 4259.904 2767.257 4260.202 L 2783.773 4260.500 2780.929 4257.264 C 2775.370 4250.938, 2774.993 4247.539, 2775.073 4204.568 L 2775.146 4165.500 2779.513 4182 C 2785.194 4203.465, 2793.087 4225.465, 2804.450 4251.500 C 2810.586 4265.557, 2820.833 4285, 2822.107 4285 C 2822.540 4285, 2823.031 4267.113, 2823.197 4245.250 C 2823.486 4207.394, 2823.599 4205.286, 2825.587 4201 C 2826.736 4198.525, 2828.438 4195.870, 2829.371 4195.100 C 2830.956 4193.791, 2830.937 4193.562, 2829.081 4191.586 C 2824.480 4186.689, 2823.602 4182.472, 2823.197 4163.329 C 2822.729 4141.265, 2823.879 4135.709, 2830.143 4129.750 L 2834.084 4126 2816.792 4126.005 L 2799.500 4126.010 2802.164 4128.255 C 2808.560 4133.644, 2808.479 4132.965, 2808.707 4183 C 2808.854 4215.129, 2808.611 4227.765, 2807.880 4226 C 2803.471 4215.353, 2790.566 4169.679, 2784.360 4142.757 L 2780.500 4126.013 2761 4126.050 C 2743.160 4126.085, 2741.831 4126.206, 2745.385 4127.472 M 2843.989 4128.835 C 2848.808 4133.654, 2850.001 4140.030, 2849.994 4160.932 C 2849.988 4181.209, 2849.267 4185.550, 2845.136 4190.174 L 2842.395 4193.241 2845.103 4195.949 C 2849.176 4200.022, 2849.988 4204.774, 2849.994 4224.568 C 2850.001 4245.008, 2848.892 4250.775, 2843.853 4256.514 L 2840.793 4260 2858.119 4260 C 2874.130 4260, 2875.275 4259.881, 2873.209 4258.434 C 2871.979 4257.573, 2869.967 4254.985, 2868.737 4252.684 C 2866.656 4248.793, 2866.477 4247.002, 2866.177 4227.085 C 2865.824 4203.691, 2866.607 4199.027, 2871.539 4195.148 L 2873.921 4193.274 2871.486 4190.987 C 2866.512 4186.314, 2865.822 4182.212, 2866.176 4159.411 C 2866.527 4136.775, 2866.897 4135.060, 2872.801 4128.750 L 2875.374 4126 2858.264 4126 L 2841.154 4126 2843.989 4128.835 M 1667.200 4129.200 C 1665.830 4130.570, 1665.530 4187.394, 1666.660 4231.338 L 1667.321 4257 1669.683 4257 C 1673.047 4257, 1680.153 4250.066, 1683.799 4243.225 C 1692.334 4227.213, 1695.841 4199.497, 1692.957 4170.856 C 1690.916 4150.586, 1685.426 4134.576, 1678.930 4129.950 C 1675.857 4127.762, 1669.072 4127.328, 1667.200 4129.200 M 1828.200 4129.200 C 1826.830 4130.570, 1826.530 4187.394, 1827.660 4231.338 L 1828.321 4257 1830.683 4257 C 1834.047 4257, 1841.153 4250.066, 1844.799 4243.225 C 1853.334 4227.213, 1856.841 4199.497, 1853.957 4170.856 C 1851.916 4150.586, 1846.426 4134.576, 1839.930 4129.950 C 1836.857 4127.762, 1830.072 4127.328, 1828.200 4129.200 M 2331.590 4132.497 C 2325.677 4138.878, 2323.703 4154.443, 2323.728 4194.500 C 2323.753 4235.063, 2325.516 4248.706, 2331.680 4256.031 C 2333.740 4258.480, 2334.935 4259, 2338.500 4259 C 2348.717 4259, 2352.205 4247.288, 2353.541 4208.500 C 2354.571 4178.571, 2351.933 4145.577, 2347.878 4137.684 C 2343.874 4129.890, 2336.255 4127.464, 2331.590 4132.497 M 2699.590 4132.497 C 2693.677 4138.878, 2691.703 4154.443, 2691.728 4194.500 C 2691.753 4235.063, 2693.516 4248.706, 2699.680 4256.031 C 2701.740 4258.480, 2702.935 4259, 2706.500 4259 C 2716.717 4259, 2720.205 4247.288, 2721.541 4208.500 C 2722.571 4178.571, 2719.933 4145.577, 2715.878 4137.684 C 2711.874 4129.890, 2704.255 4127.464, 2699.590 4132.497 M 2917.590 4132.497 C 2911.677 4138.878, 2909.703 4154.443, 2909.728 4194.500 C 2909.753 4235.063, 2911.516 4248.706, 2917.680 4256.031 C 2919.740 4258.480, 2920.935 4259, 2924.500 4259 C 2934.717 4259, 2938.205 4247.288, 2939.541 4208.500 C 2940.571 4178.571, 2937.933 4145.577, 2933.878 4137.684 C 2929.874 4129.890, 2922.255 4127.464, 2917.590 4132.497 M 2467.605 4155 C 2465.687 4162.471, 2454 4214.625, 2454 4215.714 C 2454 4216.708, 2457.626 4217, 2470 4217 C 2478.800 4217, 2486 4216.805, 2486 4216.566 C 2486 4216.154, 2469.274 4155.612, 2468.577 4153.500 C 2468.395 4152.950, 2467.958 4153.625, 2467.605 4155 M 1744.360 4187.500 L 1739.259 4208 1751.237 4208 C 1761.595 4208, 1763.134 4207.792, 1762.625 4206.465 C 1761.208 4202.772, 1752.971 4176.060, 1751.920 4171.750 C 1751.284 4169.137, 1750.470 4167, 1750.112 4167 C 1749.754 4167, 1747.166 4176.225, 1744.360 4187.500 M 2099.360 4187.500 L 2094.259 4208 2106.237 4208 C 2116.595 4208, 2118.134 4207.792, 2117.625 4206.465 C 2116.208 4202.772, 2107.971 4176.060, 2106.920 4171.750 C 2106.284 4169.137, 2105.470 4167, 2105.112 4167 C 2104.754 4167, 2102.166 4176.225, 2099.360 4187.500 M 2337.558 4178.545 C 2336.694 4183.149, 2333.570 4189.631, 2330.713 4192.750 C 2329.579 4193.988, 2329.140 4195, 2329.736 4195 C 2332.086 4195, 2337.833 4210.492, 2338.084 4217.500 C 2338.144 4219.184, 2338.832 4217.239, 2339.652 4213.069 C 2341.225 4205.065, 2345.456 4195, 2347.247 4195 C 2347.853 4195, 2347.426 4193.988, 2346.299 4192.750 C 2343.564 4189.747, 2341.981 4186.585, 2339.963 4180.092 L 2338.282 4174.683 2337.558 4178.545 M 2705.558 4178.545 C 2704.694 4183.149, 2701.570 4189.631, 2698.713 4192.750 C 2697.579 4193.988, 2697.140 4195, 2697.736 4195 C 2700.086 4195, 2705.833 4210.492, 2706.084 4217.500 C 2706.144 4219.184, 2706.832 4217.239, 2707.652 4213.069 C 2709.225 4205.065, 2713.456 4195, 2715.247 4195 C 2715.853 4195, 2715.426 4193.988, 2714.299 4192.750 C 2711.564 4189.747, 2709.981 4186.585, 2707.963 4180.092 L 2706.282 4174.683 2705.558 4178.545 M 2923.558 4178.545 C 2922.694 4183.149, 2919.570 4189.631, 2916.713 4192.750 C 2915.579 4193.988, 2915.140 4195, 2915.736 4195 C 2918.086 4195, 2923.833 4210.492, 2924.084 4217.500 C 2924.144 4219.184, 2924.832 4217.239, 2925.652 4213.069 C 2927.225 4205.065, 2931.456 4195, 2933.247 4195 C 2933.853 4195, 2933.426 4193.988, 2932.299 4192.750 C 2929.564 4189.747, 2927.981 4186.585, 2925.963 4180.092 L 2924.282 4174.683 2923.558 4178.545" stroke="none" fill="#ffffff" fill-rule="evenodd"/>
</svg>